<svg xmlns="http://www.w3.org/2000/svg" xmlns:xlink="http://www.w3.org/1999/xlink" viewBox="0 0 849.94 117"><defs><style>.cls-1{fill:none;}.cls-2{fill:url(#Hand_Drawn_Right);}.cls-3{fill:#f1f2f2;}</style><pattern id="Hand_Drawn_Right" data-name="Hand Drawn Right" width="41" height="34" patternUnits="userSpaceOnUse" viewBox="0 0 41 34"><rect class="cls-1" width="41" height="34"/><path d="M18.2,41.47c.94,1,2,2.21,3.1,3.41s1.59,2.57,2.54,3.73c.71.87,1.54,1.8,2.19,2.72a22.08,22.08,0,0,1,1.32,2.2,7.57,7.57,0,0,0,1.9,2.16,4.2,4.2,0,0,1,1.22,1.47,7.28,7.28,0,0,0,1.16,1.73,1.57,1.57,0,0,1,.2.25c1.4,2.5,3.58,4.38,5.2,6.71,1.38,1.27,2.29,3,3.73,4.19a6.76,6.76,0,0,1,1.09,1.18c1.1,1.53,2.42,2.86,3.64,4.28a2.24,2.24,0,0,1,.48.64,9.05,9.05,0,0,0,2,2.51c.85,1,1.58,2,2.36,3a10.84,10.84,0,0,0,.79,1,19,19,0,0,1,3,3.92c.46.78,1.08,1.47,1.61,2.21.31.44.57.9.85,1.35a2.28,2.28,0,0,0,.35.54c1.2,1,1.89,2.46,2.94,3.6.32.36.61.74.91,1.11.58.7,1.13,1.42,1.72,2.12.86,1,1.22,2.44,2.1,3.45,1.19,1.38,2.4,2.73,3.56,4.13,1.4,1.7,2.75,3.43,4.12,5.14a15.17,15.17,0,0,0,1,1.21A71.23,71.23,0,0,1,78.19,117c1.24,1.55,2.52,3,3.74,4.62.58.76,1.17,1.51,1.72,2.29.89,1.28,1.9,2.46,2.86,3.68,1.12,1.43,2.23,2.88,3.38,4.29a29.3,29.3,0,0,0,2.88,3.22,1.27,1.27,0,0,0,1,.33,2.4,2.4,0,0,0,.65-.57,2.4,2.4,0,0,0-.23-.76c-.95-1.62-2.3-2.92-3.35-4.47-.93-1.37-2-2.63-3.08-3.91a16.67,16.67,0,0,1-1.74-2.5,11,11,0,0,0-.9-1.32c-.46-.59-1-1.14-1.41-1.75a13.92,13.92,0,0,0-1.71-2.12,8.55,8.55,0,0,1-.76-1c-.53-.68-1.06-1.34-1.61-2-.34-.41-.7-.81-1.06-1.2-.79-.87-1.59-1.74-2.38-2.62a7.33,7.33,0,0,1-.73-.84,22.08,22.08,0,0,0-2.31-2.88c-1-1.09-1.93-2.29-2.87-3.46a56.42,56.42,0,0,0-4-4.59c-.46-.45-.34-1.37-.72-1.89a65.41,65.41,0,0,0-5.39-6.38A18.85,18.85,0,0,1,57.81,88a2.36,2.36,0,0,0-.47-.64,10.2,10.2,0,0,1-2-2.5c-.52-.75-1.2-1.37-1.79-2.07A17.79,17.79,0,0,1,52.18,81a85.33,85.33,0,0,0-5.52-7.31,5.33,5.33,0,0,1-.61-.74,23.57,23.57,0,0,0-2.85-3.67c-1.19-1.45-2.33-2.94-3.52-4.39-.67-.83-1.38-1.64-2.12-2.41a33.74,33.74,0,0,1-4-5.24,13,13,0,0,0-1.56-2,28,28,0,0,1-2.78-3.73c-1.08-1.53-2.71-2.62-3.87-4.1s-2-3.08-3.14-4.47c-.69-.82-1.42-1.6-2.08-2.45A25.36,25.36,0,0,1,18.42,38a16,16,0,0,0-3.7-4.41,1.06,1.06,0,0,0-1.37.1c-.35.26-.1.28.11.7a5.1,5.1,0,0,0,.66,1.1,24,24,0,0,1,1.6,2.61C16.43,39.19,17.28,40.22,18.2,41.47Z"/><path d="M-22.8,41.47c.94,1,2,2.21,3.1,3.41s1.59,2.57,2.54,3.73c.71.87,1.54,1.8,2.19,2.72a22.08,22.08,0,0,1,1.32,2.2,7.57,7.57,0,0,0,1.9,2.16,4.2,4.2,0,0,1,1.22,1.47,7.28,7.28,0,0,0,1.16,1.73,1.57,1.57,0,0,1,.2.25c1.4,2.5,3.58,4.38,5.2,6.71,1.38,1.27,2.29,3,3.73,4.19A6.76,6.76,0,0,1,.85,71.22C2,72.75,3.27,74.08,4.49,75.5a2.24,2.24,0,0,1,.48.64,9.05,9.05,0,0,0,2,2.51c.85,1,1.58,2,2.36,3a10.84,10.84,0,0,0,.79,1,19,19,0,0,1,3,3.92c.46.78,1.08,1.47,1.61,2.21.31.44.57.9.85,1.35a2.28,2.28,0,0,0,.35.54c1.2,1,1.89,2.46,2.94,3.6.32.36.61.74.91,1.11.58.7,1.13,1.42,1.72,2.12.86,1,1.22,2.44,2.1,3.45,1.19,1.38,2.4,2.73,3.56,4.13,1.4,1.7,2.75,3.43,4.12,5.14a15.17,15.17,0,0,0,1,1.21A71.23,71.23,0,0,1,37.19,117c1.24,1.55,2.52,3,3.74,4.62.58.76,1.17,1.51,1.72,2.29.89,1.28,1.9,2.46,2.86,3.68,1.12,1.43,2.23,2.88,3.38,4.29a29.3,29.3,0,0,0,2.88,3.22,1.27,1.27,0,0,0,1,.33,2.4,2.4,0,0,0,.65-.57,2.4,2.4,0,0,0-.23-.76c-1-1.62-2.3-2.92-3.35-4.47-.93-1.37-2-2.63-3.08-3.91a16.67,16.67,0,0,1-1.74-2.5,11,11,0,0,0-.9-1.32c-.46-.59-1-1.14-1.41-1.75a13.92,13.92,0,0,0-1.71-2.12,8.55,8.55,0,0,1-.76-1c-.53-.68-1.06-1.34-1.61-2-.34-.41-.7-.81-1.06-1.2-.79-.87-1.59-1.74-2.38-2.62a7.33,7.33,0,0,1-.73-.84,22.08,22.08,0,0,0-2.31-2.88c-1-1.09-1.93-2.29-2.87-3.46a56.42,56.42,0,0,0-4-4.59c-.46-.45-.34-1.37-.72-1.89a65.41,65.41,0,0,0-5.39-6.38A18.85,18.85,0,0,1,16.81,88a2.36,2.36,0,0,0-.47-.64,10.2,10.2,0,0,1-2-2.5c-.52-.75-1.2-1.37-1.79-2.07A17.79,17.79,0,0,1,11.18,81a85.33,85.33,0,0,0-5.52-7.31A5.33,5.33,0,0,1,5.05,73,23.57,23.57,0,0,0,2.2,69.28C1,67.83-.13,66.34-1.32,64.89c-.67-.83-1.38-1.64-2.12-2.41a33.74,33.74,0,0,1-4-5.24A13,13,0,0,0-9,55.2a28,28,0,0,1-2.78-3.73c-1.08-1.53-2.71-2.62-3.87-4.1s-2-3.08-3.14-4.47c-.69-.82-1.42-1.6-2.08-2.45A25.36,25.36,0,0,1-22.58,38a16,16,0,0,0-3.7-4.41,1.06,1.06,0,0,0-1.37.1c-.35.26-.1.28.11.7a5.1,5.1,0,0,0,.66,1.1,24,24,0,0,1,1.6,2.61C-24.57,39.19-23.72,40.22-22.8,41.47Z"/><path d="M-63.8,41.47c.94,1,2,2.21,3.1,3.41s1.59,2.57,2.54,3.73c.71.87,1.54,1.8,2.19,2.72a22.08,22.08,0,0,1,1.32,2.2,7.57,7.57,0,0,0,1.9,2.16,4.2,4.2,0,0,1,1.22,1.47,7.28,7.28,0,0,0,1.16,1.73,1.57,1.57,0,0,1,.2.25c1.4,2.5,3.58,4.38,5.2,6.71,1.38,1.27,2.29,3,3.73,4.19a6.76,6.76,0,0,1,1.09,1.18c1.1,1.53,2.42,2.86,3.64,4.28a2.24,2.24,0,0,1,.48.64,9.05,9.05,0,0,0,2,2.51c.85,1,1.58,2,2.36,3a10.84,10.84,0,0,0,.79,1,19,19,0,0,1,3,3.92c.46.78,1.08,1.47,1.61,2.21.31.44.57.9.85,1.35a2.28,2.28,0,0,0,.35.54c1.2,1,1.89,2.46,2.94,3.6.32.36.61.74.91,1.11.58.7,1.13,1.42,1.72,2.12.86,1,1.22,2.44,2.1,3.45,1.19,1.38,2.4,2.73,3.56,4.13,1.4,1.7,2.75,3.43,4.12,5.14a15.17,15.17,0,0,0,1.05,1.21A71.23,71.23,0,0,1-3.81,117c1.24,1.55,2.52,3,3.74,4.62.58.76,1.17,1.51,1.72,2.29.89,1.28,1.9,2.46,2.86,3.68,1.12,1.43,2.23,2.88,3.38,4.29a29.3,29.3,0,0,0,2.88,3.22,1.27,1.27,0,0,0,1.05.33,2.4,2.4,0,0,0,.65-.57,2.4,2.4,0,0,0-.23-.76c-1-1.62-2.3-2.92-3.35-4.47-.93-1.37-2-2.63-3.08-3.91a16.67,16.67,0,0,1-1.74-2.5,11,11,0,0,0-.9-1.32c-.46-.59-1-1.14-1.41-1.75a13.92,13.92,0,0,0-1.71-2.12,8.55,8.55,0,0,1-.76-1c-.53-.68-1.06-1.34-1.61-2-.34-.41-.7-.81-1.06-1.2-.79-.87-1.59-1.74-2.38-2.62a7.33,7.33,0,0,1-.73-.84A22.08,22.08,0,0,0-8.8,107.5c-1-1.09-1.93-2.29-2.87-3.46a56.42,56.42,0,0,0-4-4.59c-.46-.45-.34-1.37-.72-1.89a65.41,65.41,0,0,0-5.39-6.38A18.85,18.85,0,0,1-24.19,88a2.36,2.36,0,0,0-.47-.64,10.2,10.2,0,0,1-2-2.5c-.52-.75-1.2-1.37-1.79-2.07A17.79,17.79,0,0,1-29.82,81a85.33,85.33,0,0,0-5.52-7.31,5.33,5.33,0,0,1-.61-.74,23.57,23.57,0,0,0-2.85-3.67c-1.19-1.45-2.33-2.94-3.52-4.39-.67-.83-1.38-1.64-2.12-2.41a33.74,33.74,0,0,1-4-5.24,13,13,0,0,0-1.56-2,28,28,0,0,1-2.78-3.73c-1.08-1.53-2.71-2.62-3.87-4.1s-2-3.08-3.14-4.47c-.69-.82-1.42-1.6-2.08-2.45A25.36,25.36,0,0,1-63.58,38a16,16,0,0,0-3.7-4.41,1.06,1.06,0,0,0-1.37.1c-.35.26-.1.28.11.7a5.1,5.1,0,0,0,.66,1.1,24,24,0,0,1,1.6,2.61C-65.57,39.19-64.72,40.22-63.8,41.47Z"/><path d="M102.83,101.1c-1-1-2-2.19-3.11-3.39S98.15,95.14,97.2,94c-.71-.87-2-1.29-2.62-2.21a22,22,0,0,1-1.31-2.2,7,7,0,0,0-1.9-2.16A4.17,4.17,0,0,1,90.15,86,6.61,6.61,0,0,0,89,84.22a1.57,1.57,0,0,1-.2-.25c-1.37-2.51-3.57-4.38-5.18-6.7-1.39-1.27-2.29-3-3.74-4.17a6.76,6.76,0,0,1-1.09-1.18c-1.09-1.53-2.42-2.85-3.65-4.26a2.4,2.4,0,0,1-.47-.64,8.4,8.4,0,0,0-2-2.51c-.85-1-1.57-2-2.35-3a8.47,8.47,0,0,0-.79-1,18.1,18.1,0,0,1-3-3.92c-.45-.78-1.08-1.46-1.6-2.2-.3-.44-.57-.91-.85-1.36a2.15,2.15,0,0,0-.34-.54c-1.21-1-1.88-2.45-2.93-3.59-.32-.35-.62-.73-.92-1.1-.57-.71-1.12-1.42-1.71-2.12-.87-1-1.2-2.46-2.07-3.46-1.19-1.37-2.41-2.72-3.56-4.12-1.4-1.68-2.75-3.41-4.13-5.12a14.78,14.78,0,0,0-1-1.21,62.46,62.46,0,0,1-4.86-5.55c-1.25-1.53-2.53-3-3.74-4.6-.58-.76-1.17-1.5-1.72-2.29-.88-1.28-1.89-2.46-2.85-3.68-1.12-1.43-2.22-2.86-3.37-4.27A25.78,25.78,0,0,0,28,8.15a1.26,1.26,0,0,0-1.07-.32,2.9,2.9,0,0,0-.69.6,2.37,2.37,0,0,0,.22.77c.94,1.63,2.3,2.91,3.34,4.46.93,1.37,2,2.63,3.07,3.9a16.47,16.47,0,0,1,1.73,2.51,10.52,10.52,0,0,0,.89,1.32c.46.59,1,1.14,1.41,1.75a12.84,12.84,0,0,0,1.71,2.11,9.77,9.77,0,0,1,.76,1c.52.67,1.06,1.34,1.6,2,.34.41.71.81,1.07,1.2l2.38,2.6a7.29,7.29,0,0,1,.73.85,20.36,20.36,0,0,0,2.31,2.86c1,1.09,1.93,2.29,2.86,3.46a56.35,56.35,0,0,0,4,4.56c.46.46.32,1.39.69,1.92a63.89,63.89,0,0,0,5.39,6.35,17.45,17.45,0,0,1,2.38,3.21,2.19,2.19,0,0,0,.48.64,9.93,9.93,0,0,1,2,2.49A26.82,26.82,0,0,0,67,60.47a19.53,19.53,0,0,1,1.39,1.76,82.83,82.83,0,0,0,5.49,7.3,4.77,4.77,0,0,1,.62.74,21.94,21.94,0,0,0,2.84,3.67c1.19,1.44,2.52,2.63,3.71,4.07.67.83,1.38,1.64,2.12,2.41a31.54,31.54,0,0,1,4,5.23,12.31,12.31,0,0,0,1.56,2,28.83,28.83,0,0,1,2.77,3.73c1.07,1.53,2.72,2.6,3.88,4.07s1.94,3.1,3.11,4.48c.69.82,1.43,1.6,2.08,2.44a22.27,22.27,0,0,1,1.73,2.5,15.21,15.21,0,0,0,3.7,4.39c.39.31.69.56,1.21.17a1,1,0,0,0,.35-1.22,5.06,5.06,0,0,0-.65-1.1,23.05,23.05,0,0,1-1.58-2.62C104.6,103.38,103.74,102.35,102.83,101.1Z"/><path d="M18.2,7.47c.94,1,2,2.21,3.1,3.41s1.59,2.57,2.54,3.73c.71.87,1.54,1.8,2.19,2.72a22.08,22.08,0,0,1,1.32,2.2,7.57,7.57,0,0,0,1.9,2.16,4.2,4.2,0,0,1,1.22,1.47,7.28,7.28,0,0,0,1.16,1.73,1.57,1.57,0,0,1,.2.25c1.4,2.5,3.58,4.38,5.2,6.71,1.38,1.27,2.29,3,3.73,4.19a6.76,6.76,0,0,1,1.09,1.18c1.1,1.53,2.42,2.86,3.64,4.28a2.24,2.24,0,0,1,.48.64,9.05,9.05,0,0,0,2,2.51c.85,1,1.58,2,2.36,3a10.84,10.84,0,0,0,.79,1,19,19,0,0,1,3,3.92c.46.78,1.08,1.47,1.61,2.21.31.44.57.9.85,1.35a2.28,2.28,0,0,0,.35.54c1.2,1,1.89,2.46,2.94,3.6.32.36.61.74.91,1.11.58.7,1.13,1.42,1.72,2.12.86,1,1.22,2.44,2.1,3.45,1.19,1.38,2.4,2.73,3.56,4.13,1.4,1.7,2.75,3.43,4.12,5.14a15.17,15.17,0,0,0,1,1.21A71.23,71.23,0,0,1,78.19,83c1.24,1.55,2.52,3,3.74,4.62.58.76,1.17,1.51,1.72,2.29.89,1.28,1.9,2.46,2.86,3.68,1.12,1.43,2.23,2.88,3.38,4.29a29.3,29.3,0,0,0,2.88,3.22,1.27,1.27,0,0,0,1,.33,2.4,2.4,0,0,0,.65-.57,2.4,2.4,0,0,0-.23-.76c-.95-1.62-2.3-2.92-3.35-4.47-.93-1.37-2-2.63-3.08-3.91a16.67,16.67,0,0,1-1.74-2.5,11,11,0,0,0-.9-1.32c-.46-.59-1-1.14-1.41-1.75a13.92,13.92,0,0,0-1.71-2.12,8.55,8.55,0,0,1-.76-1c-.53-.68-1.06-1.34-1.61-2-.34-.41-.7-.81-1.06-1.2C77.83,79,77,78.1,76.24,77.22a7.33,7.33,0,0,1-.73-.84A22.08,22.08,0,0,0,73.2,73.5c-1-1.09-1.93-2.29-2.87-3.46a56.42,56.42,0,0,0-4-4.59c-.46-.45-.34-1.37-.72-1.89a65.41,65.41,0,0,0-5.39-6.38A18.85,18.85,0,0,1,57.81,54a2.36,2.36,0,0,0-.47-.64,10.2,10.2,0,0,1-2-2.5c-.52-.75-1.2-1.37-1.79-2.07A17.79,17.79,0,0,1,52.18,47a85.33,85.33,0,0,0-5.52-7.31,5.33,5.33,0,0,1-.61-.74,23.57,23.57,0,0,0-2.85-3.67c-1.19-1.45-2.33-2.94-3.52-4.39-.67-.83-1.38-1.64-2.12-2.41a33.74,33.74,0,0,1-4-5.24,13,13,0,0,0-1.56-2,28,28,0,0,1-2.78-3.73c-1.08-1.53-2.71-2.62-3.87-4.1s-2-3.08-3.14-4.47c-.69-.82-1.42-1.6-2.08-2.45A25.36,25.36,0,0,1,18.42,4a16,16,0,0,0-3.7-4.41,1.06,1.06,0,0,0-1.37.1c-.35.26-.1.28.11.7a5.1,5.1,0,0,0,.66,1.1,24,24,0,0,1,1.6,2.61C16.43,5.19,17.28,6.22,18.2,7.47Z"/><path d="M61.83,101.1c-.95-1-2-2.19-3.11-3.39S57.15,95.14,56.2,94c-.71-.87-2-1.29-2.62-2.21a22,22,0,0,1-1.31-2.2,7,7,0,0,0-1.9-2.16A4.17,4.17,0,0,1,49.15,86,6.61,6.61,0,0,0,48,84.22a1.57,1.57,0,0,1-.2-.25c-1.37-2.51-3.57-4.38-5.18-6.7-1.39-1.27-2.29-3-3.74-4.17a6.76,6.76,0,0,1-1.09-1.18c-1.09-1.53-2.42-2.85-3.65-4.26a2.4,2.4,0,0,1-.47-.64,8.4,8.4,0,0,0-2-2.51c-.85-1-1.57-2-2.35-3a8.47,8.47,0,0,0-.79-1,18.1,18.1,0,0,1-3-3.92c-.45-.78-1.08-1.46-1.6-2.2-.3-.44-.57-.91-.85-1.36a2.15,2.15,0,0,0-.34-.54c-1.21-1-1.88-2.45-2.93-3.59-.32-.35-.62-.73-.92-1.1-.57-.71-1.12-1.42-1.71-2.12-.87-1-1.2-2.46-2.07-3.46-1.19-1.37-2.41-2.72-3.56-4.12-1.4-1.68-2.75-3.41-4.13-5.12a14.78,14.78,0,0,0-1-1.21,62.46,62.46,0,0,1-4.86-5.55c-1.25-1.53-2.53-3-3.74-4.6-.58-.76-1.17-1.5-1.72-2.29-.88-1.28-1.89-2.46-2.85-3.68C-7.9,14.19-9,12.76-10.15,11.35A25.78,25.78,0,0,0-13,8.15a1.26,1.26,0,0,0-1.07-.32,2.9,2.9,0,0,0-.69.6,2.37,2.37,0,0,0,.22.77c.94,1.63,2.3,2.91,3.34,4.46.93,1.37,2,2.63,3.07,3.9a16.47,16.47,0,0,1,1.73,2.51,10.52,10.52,0,0,0,.89,1.32c.46.59,1,1.14,1.41,1.75a13.37,13.37,0,0,0,1.71,2.11,9.77,9.77,0,0,1,.76,1c.52.67,1.06,1.34,1.6,2,.34.41.71.81,1.07,1.2l2.38,2.6a7.29,7.29,0,0,1,.73.85,20.36,20.36,0,0,0,2.31,2.86c1,1.09,1.93,2.29,2.86,3.46a56.35,56.35,0,0,0,4,4.56c.46.46.32,1.39.69,1.92a63.89,63.89,0,0,0,5.39,6.35,17.45,17.45,0,0,1,2.38,3.21,2.19,2.19,0,0,0,.48.64,9.93,9.93,0,0,1,2,2.49A26.82,26.82,0,0,0,26,60.47a19.53,19.53,0,0,1,1.39,1.76,82.83,82.83,0,0,0,5.49,7.3,4.77,4.77,0,0,1,.62.74,21.94,21.94,0,0,0,2.84,3.67c1.19,1.44,2.52,2.63,3.71,4.07.67.83,1.38,1.64,2.12,2.41a31.54,31.54,0,0,1,4,5.23,12.31,12.31,0,0,0,1.56,2,28.83,28.83,0,0,1,2.77,3.73c1.07,1.53,2.72,2.6,3.88,4.07s1.94,3.1,3.11,4.48c.69.82,1.43,1.6,2.08,2.44a22.27,22.27,0,0,1,1.73,2.5,15.21,15.21,0,0,0,3.7,4.39c.39.31.69.56,1.21.17a1,1,0,0,0,.35-1.22,5.06,5.06,0,0,0-.65-1.1,23.05,23.05,0,0,1-1.58-2.62C63.6,103.38,62.74,102.35,61.83,101.1Z"/><path d="M-22.8,7.47c.94,1,2,2.21,3.1,3.41s1.59,2.57,2.54,3.73c.71.87,1.54,1.8,2.19,2.72a22.08,22.08,0,0,1,1.32,2.2,7.57,7.57,0,0,0,1.9,2.16,4.2,4.2,0,0,1,1.22,1.47,7.28,7.28,0,0,0,1.16,1.73,1.57,1.57,0,0,1,.2.25c1.4,2.5,3.58,4.38,5.2,6.71,1.38,1.27,2.29,3,3.73,4.19A6.76,6.76,0,0,1,.85,37.22C2,38.75,3.27,40.08,4.49,41.5a2.24,2.24,0,0,1,.48.64,9.05,9.05,0,0,0,2,2.51c.85,1,1.58,2,2.36,3a10.84,10.84,0,0,0,.79,1,19,19,0,0,1,3,3.92c.46.78,1.08,1.47,1.61,2.21.31.44.57.9.85,1.35a2.28,2.28,0,0,0,.35.54c1.2,1,1.89,2.46,2.94,3.6.32.36.61.74.91,1.11.58.7,1.13,1.42,1.72,2.12.86,1,1.22,2.44,2.1,3.45,1.19,1.38,2.4,2.73,3.56,4.13,1.4,1.7,2.75,3.43,4.12,5.14a15.17,15.17,0,0,0,1,1.21A71.23,71.23,0,0,1,37.19,83c1.24,1.55,2.52,3,3.74,4.62.58.76,1.17,1.51,1.72,2.29.89,1.28,1.9,2.46,2.86,3.68,1.12,1.43,2.23,2.88,3.38,4.29a29.3,29.3,0,0,0,2.88,3.22,1.27,1.27,0,0,0,1,.33,2.4,2.4,0,0,0,.65-.57,2.4,2.4,0,0,0-.23-.76c-1-1.62-2.3-2.92-3.35-4.47-.93-1.37-2-2.63-3.08-3.91a16.67,16.67,0,0,1-1.74-2.5,11,11,0,0,0-.9-1.32c-.46-.59-1-1.14-1.41-1.75a13.92,13.92,0,0,0-1.71-2.12,8.55,8.55,0,0,1-.76-1c-.53-.68-1.06-1.34-1.61-2-.34-.41-.7-.81-1.06-1.2C36.83,79,36,78.1,35.24,77.22a7.33,7.33,0,0,1-.73-.84A22.08,22.08,0,0,0,32.2,73.5c-1-1.09-1.93-2.29-2.87-3.46a56.42,56.42,0,0,0-4-4.59c-.46-.45-.34-1.37-.72-1.89a65.41,65.41,0,0,0-5.39-6.38A18.85,18.85,0,0,1,16.81,54a2.36,2.36,0,0,0-.47-.64,10.2,10.2,0,0,1-2-2.5c-.52-.75-1.2-1.37-1.79-2.07A17.79,17.79,0,0,1,11.18,47a85.33,85.33,0,0,0-5.52-7.31A5.33,5.33,0,0,1,5.05,39,23.57,23.57,0,0,0,2.2,35.28C1,33.83-.13,32.34-1.32,30.89c-.67-.83-1.38-1.64-2.12-2.41a33.74,33.74,0,0,1-4-5.24A13,13,0,0,0-9,21.2a28,28,0,0,1-2.78-3.73c-1.08-1.53-2.71-2.62-3.87-4.1s-2-3.08-3.14-4.47c-.69-.82-1.42-1.6-2.08-2.45A25.36,25.36,0,0,1-22.58,4a16,16,0,0,0-3.7-4.41,1.06,1.06,0,0,0-1.37.1c-.35.26-.1.28.11.7a5.1,5.1,0,0,0,.66,1.1,24,24,0,0,1,1.6,2.61C-24.57,5.19-23.72,6.22-22.8,7.47Z"/><path d="M20.83,101.1c-.95-1-2-2.19-3.11-3.39S16.15,95.14,15.2,94c-.71-.87-2-1.29-2.62-2.21a22,22,0,0,1-1.31-2.2,7,7,0,0,0-1.9-2.16A4.17,4.17,0,0,1,8.15,86,6.61,6.61,0,0,0,7,84.22,1.57,1.57,0,0,1,6.8,84c-1.37-2.51-3.57-4.38-5.18-6.7C.23,76-.67,74.31-2.12,73.1a6.76,6.76,0,0,1-1.09-1.18c-1.09-1.53-2.42-2.85-3.65-4.26A2.4,2.4,0,0,1-7.33,67a8.4,8.4,0,0,0-2-2.51c-.85-1-1.57-2-2.35-3a8.47,8.47,0,0,0-.79-1,18.1,18.1,0,0,1-3-3.92c-.45-.78-1.08-1.46-1.6-2.2-.3-.44-.57-.91-.85-1.36a2.15,2.15,0,0,0-.34-.54c-1.21-1-1.88-2.45-2.93-3.59-.32-.35-.62-.73-.92-1.1-.57-.71-1.12-1.42-1.71-2.12-.87-1-1.2-2.46-2.07-3.46-1.19-1.37-2.41-2.72-3.56-4.12-1.4-1.68-2.75-3.41-4.13-5.12a14.78,14.78,0,0,0-1-1.21,62.46,62.46,0,0,1-4.86-5.55c-1.25-1.53-2.53-3-3.74-4.6-.58-.76-1.17-1.5-1.72-2.29-.88-1.28-1.89-2.46-2.85-3.68-1.12-1.43-2.22-2.86-3.37-4.27A25.78,25.78,0,0,0-54,8.15a1.26,1.26,0,0,0-1.07-.32,2.9,2.9,0,0,0-.69.6,2.37,2.37,0,0,0,.22.77c.94,1.63,2.3,2.91,3.34,4.46.93,1.37,2,2.63,3.07,3.9a16.47,16.47,0,0,1,1.73,2.51,10.52,10.52,0,0,0,.89,1.32c.46.59,1,1.14,1.41,1.75a13.37,13.37,0,0,0,1.71,2.11,9.77,9.77,0,0,1,.76,1c.52.67,1.06,1.34,1.6,2,.34.41.71.81,1.07,1.2l2.38,2.6a7.29,7.29,0,0,1,.73.85,20.36,20.36,0,0,0,2.31,2.86c1,1.09,1.93,2.29,2.86,3.46a56.35,56.35,0,0,0,4,4.56c.46.46.32,1.39.69,1.92a63.89,63.89,0,0,0,5.39,6.35,17.45,17.45,0,0,1,2.38,3.21,2.19,2.19,0,0,0,.48.64,9.93,9.93,0,0,1,2,2.49A26.82,26.82,0,0,0-15,60.47a19.53,19.53,0,0,1,1.39,1.76,82.83,82.83,0,0,0,5.49,7.3,4.77,4.77,0,0,1,.62.74,21.94,21.94,0,0,0,2.84,3.67C-3.46,75.38-2.13,76.57-.94,78c.67.83,1.38,1.64,2.12,2.41a31.54,31.54,0,0,1,4,5.23,12.31,12.31,0,0,0,1.56,2,28.83,28.83,0,0,1,2.77,3.73c1.07,1.53,2.72,2.6,3.88,4.07s1.94,3.1,3.11,4.48c.69.82,1.43,1.6,2.08,2.44a22.27,22.27,0,0,1,1.73,2.5,15.21,15.21,0,0,0,3.7,4.39c.39.31.69.56,1.21.17a1,1,0,0,0,.35-1.22,5.06,5.06,0,0,0-.65-1.1,23.05,23.05,0,0,1-1.58-2.62C22.6,103.38,21.74,102.35,20.83,101.1Z"/><path d="M-63.8,7.47c.94,1,2,2.21,3.1,3.41s1.59,2.57,2.54,3.73c.71.87,1.54,1.8,2.19,2.72a22.08,22.08,0,0,1,1.32,2.2,7.57,7.57,0,0,0,1.9,2.16,4.2,4.2,0,0,1,1.22,1.47,7.28,7.28,0,0,0,1.16,1.73,1.57,1.57,0,0,1,.2.25c1.4,2.5,3.58,4.38,5.2,6.71,1.38,1.27,2.29,3,3.73,4.19a6.76,6.76,0,0,1,1.09,1.18c1.1,1.53,2.42,2.86,3.64,4.28a2.24,2.24,0,0,1,.48.64,9.05,9.05,0,0,0,2,2.51c.85,1,1.58,2,2.36,3a10.84,10.84,0,0,0,.79,1,19,19,0,0,1,3,3.92c.46.78,1.08,1.47,1.61,2.21.31.44.57.9.85,1.35a2.28,2.28,0,0,0,.35.54c1.2,1,1.89,2.46,2.94,3.6.32.36.61.74.91,1.11.58.7,1.13,1.42,1.72,2.12.86,1,1.22,2.44,2.1,3.45,1.19,1.38,2.4,2.73,3.56,4.13,1.4,1.7,2.75,3.43,4.12,5.14a15.17,15.17,0,0,0,1.05,1.21A71.23,71.23,0,0,1-3.81,83c1.24,1.55,2.52,3,3.74,4.62.58.76,1.17,1.51,1.72,2.29.89,1.28,1.9,2.46,2.86,3.68,1.12,1.43,2.23,2.88,3.38,4.29a29.3,29.3,0,0,0,2.88,3.22,1.27,1.27,0,0,0,1.05.33,2.4,2.4,0,0,0,.65-.57,2.4,2.4,0,0,0-.23-.76c-1-1.62-2.3-2.92-3.35-4.47C8,94.3,6.87,93,5.81,91.76a16.67,16.67,0,0,1-1.74-2.5,11,11,0,0,0-.9-1.32c-.46-.59-1-1.14-1.41-1.75A13.92,13.92,0,0,0,.05,84.07a8.55,8.55,0,0,1-.76-1c-.53-.68-1.06-1.34-1.61-2-.34-.41-.7-.81-1.06-1.2C-4.17,79-5,78.1-5.76,77.22a7.33,7.33,0,0,1-.73-.84A22.08,22.08,0,0,0-8.8,73.5c-1-1.09-1.93-2.29-2.87-3.46a56.42,56.42,0,0,0-4-4.59c-.46-.45-.34-1.37-.72-1.89a65.41,65.41,0,0,0-5.39-6.38A18.85,18.85,0,0,1-24.19,54a2.36,2.36,0,0,0-.47-.64,10.2,10.2,0,0,1-2-2.5c-.52-.75-1.2-1.37-1.79-2.07A17.79,17.79,0,0,1-29.82,47a85.33,85.33,0,0,0-5.52-7.31,5.33,5.33,0,0,1-.61-.74,23.57,23.57,0,0,0-2.85-3.67c-1.19-1.45-2.33-2.94-3.52-4.39-.67-.83-1.38-1.64-2.12-2.41a33.74,33.74,0,0,1-4-5.24,13,13,0,0,0-1.56-2,28,28,0,0,1-2.78-3.73c-1.08-1.53-2.71-2.62-3.87-4.1s-2-3.08-3.14-4.47c-.69-.82-1.42-1.6-2.08-2.45A25.36,25.36,0,0,1-63.58,4a16,16,0,0,0-3.7-4.41,1.06,1.06,0,0,0-1.37.1c-.35.26-.1.28.11.7a5.1,5.1,0,0,0,.66,1.1,24,24,0,0,1,1.6,2.61C-65.57,5.19-64.72,6.22-63.8,7.47Z"/><path d="M102.83,67.1c-1-1-2-2.19-3.11-3.39S98.15,61.14,97.2,60c-.71-.87-2-1.29-2.62-2.21a22,22,0,0,1-1.31-2.2,7,7,0,0,0-1.9-2.16A4.17,4.17,0,0,1,90.15,52,6.61,6.61,0,0,0,89,50.22a1.57,1.57,0,0,1-.2-.25c-1.37-2.51-3.57-4.38-5.18-6.7-1.39-1.27-2.29-3-3.74-4.17a6.76,6.76,0,0,1-1.09-1.18c-1.09-1.53-2.42-2.85-3.65-4.26a2.4,2.4,0,0,1-.47-.64,8.4,8.4,0,0,0-2-2.51c-.85-1-1.57-2-2.35-3a8.47,8.47,0,0,0-.79-1,18.1,18.1,0,0,1-3-3.92c-.45-.78-1.08-1.46-1.6-2.2-.3-.44-.57-.91-.85-1.36a2.15,2.15,0,0,0-.34-.54c-1.21-1-1.88-2.45-2.93-3.59-.32-.35-.62-.73-.92-1.1-.57-.71-1.12-1.42-1.71-2.12-.87-1-1.2-2.46-2.07-3.46-1.19-1.37-2.41-2.72-3.56-4.12C51.16,2.39,49.81.66,48.43-1a14.78,14.78,0,0,0-1-1.21,62.46,62.46,0,0,1-4.86-5.55c-1.25-1.53-2.53-3-3.74-4.6-.58-.76-1.17-1.5-1.72-2.29-.88-1.28-1.89-2.46-2.85-3.68-1.12-1.43-2.22-2.86-3.37-4.27A25.78,25.78,0,0,0,28-25.85a1.26,1.26,0,0,0-1.07-.32,2.9,2.9,0,0,0-.69.6,2.37,2.37,0,0,0,.22.77c.94,1.63,2.3,2.91,3.34,4.46.93,1.37,2,2.63,3.07,3.9a16.47,16.47,0,0,1,1.73,2.51,10.52,10.52,0,0,0,.89,1.32c.46.59,1,1.14,1.41,1.75a12.84,12.84,0,0,0,1.71,2.11,9.77,9.77,0,0,1,.76,1c.52.67,1.06,1.34,1.6,2,.34.41.71.81,1.07,1.2l2.38,2.6a7.29,7.29,0,0,1,.73.85,20.36,20.36,0,0,0,2.31,2.86c1,1.09,1.93,2.29,2.86,3.46a56.35,56.35,0,0,0,4,4.56c.46.46.32,1.39.69,1.92a63.89,63.89,0,0,0,5.39,6.35,17.45,17.45,0,0,1,2.38,3.21,2.19,2.19,0,0,0,.48.64,9.93,9.93,0,0,1,2,2.49A26.82,26.82,0,0,0,67,26.47a19.53,19.53,0,0,1,1.39,1.76,82.83,82.83,0,0,0,5.49,7.3,4.77,4.77,0,0,1,.62.74,21.94,21.94,0,0,0,2.84,3.67c1.19,1.44,2.52,2.63,3.71,4.07.67.83,1.38,1.64,2.12,2.41a31.54,31.54,0,0,1,4,5.23,12.31,12.31,0,0,0,1.56,2,28.83,28.83,0,0,1,2.77,3.73c1.07,1.53,2.72,2.6,3.88,4.07s1.94,3.1,3.11,4.48c.69.82,1.43,1.6,2.08,2.44a22.27,22.27,0,0,1,1.73,2.5,15.21,15.21,0,0,0,3.7,4.39c.39.31.69.56,1.21.17a1,1,0,0,0,.35-1.22,5.06,5.06,0,0,0-.65-1.1,23.05,23.05,0,0,1-1.58-2.62C104.6,69.38,103.74,68.35,102.83,67.1Z"/><path d="M18.2-26.53c.94,1,2,2.21,3.1,3.41s1.59,2.57,2.54,3.73c.71.87,1.54,1.8,2.19,2.72a22.08,22.08,0,0,1,1.32,2.2,7.57,7.57,0,0,0,1.9,2.16,4.2,4.2,0,0,1,1.22,1.47,7.28,7.28,0,0,0,1.16,1.73,1.57,1.57,0,0,1,.2.25c1.4,2.5,3.58,4.38,5.2,6.71C38.41-.87,39.32.81,40.76,2a6.76,6.76,0,0,1,1.09,1.18C43,4.75,44.27,6.08,45.49,7.5a2.24,2.24,0,0,1,.48.64,9.05,9.05,0,0,0,2,2.51c.85,1,1.58,2,2.36,3a10.84,10.84,0,0,0,.79,1,19,19,0,0,1,3,3.92c.46.78,1.08,1.47,1.61,2.21.31.44.57.9.85,1.35a2.28,2.28,0,0,0,.35.54c1.2,1,1.89,2.46,2.94,3.6.32.36.61.74.91,1.11.58.7,1.13,1.42,1.72,2.12.86,1,1.22,2.44,2.1,3.45,1.19,1.38,2.4,2.73,3.56,4.13,1.4,1.7,2.75,3.43,4.12,5.14a15.17,15.17,0,0,0,1,1.21A71.23,71.23,0,0,1,78.19,49c1.24,1.55,2.52,3.05,3.74,4.62.58.76,1.17,1.51,1.72,2.29.89,1.28,1.9,2.46,2.86,3.68,1.12,1.43,2.23,2.88,3.38,4.29a29.3,29.3,0,0,0,2.88,3.22,1.27,1.27,0,0,0,1,.33,2.4,2.4,0,0,0,.65-.57,2.4,2.4,0,0,0-.23-.76c-.95-1.62-2.3-2.92-3.35-4.47-.93-1.37-2-2.63-3.08-3.91a16.67,16.67,0,0,1-1.74-2.5,11,11,0,0,0-.9-1.32c-.46-.59-1-1.14-1.41-1.75a13.92,13.92,0,0,0-1.71-2.12,8.55,8.55,0,0,1-.76-1c-.53-.68-1.06-1.34-1.61-2-.34-.41-.7-.81-1.06-1.2C77.83,45,77,44.1,76.24,43.22a7.33,7.33,0,0,1-.73-.84A22.08,22.08,0,0,0,73.2,39.5c-1-1.09-1.93-2.29-2.87-3.46a56.42,56.42,0,0,0-4-4.59c-.46-.45-.34-1.37-.72-1.89a65.41,65.41,0,0,0-5.39-6.38A18.85,18.85,0,0,1,57.81,20a2.36,2.36,0,0,0-.47-.64,10.2,10.2,0,0,1-2-2.5c-.52-.75-1.2-1.37-1.79-2.07A17.79,17.79,0,0,1,52.18,13a85.33,85.33,0,0,0-5.52-7.31A5.33,5.33,0,0,1,46.05,5,23.57,23.57,0,0,0,43.2,1.28C42-.17,40.87-1.66,39.68-3.11,39-3.94,38.3-4.75,37.56-5.52a33.74,33.74,0,0,1-4-5.24,13,13,0,0,0-1.56-2,28,28,0,0,1-2.78-3.73c-1.08-1.53-2.71-2.62-3.87-4.1s-2-3.08-3.14-4.47c-.69-.82-1.42-1.6-2.08-2.45A25.36,25.36,0,0,1,18.42-30a16,16,0,0,0-3.7-4.41,1.06,1.06,0,0,0-1.37.1c-.35.26-.1.28.11.7a5.1,5.1,0,0,0,.66,1.1,24,24,0,0,1,1.6,2.61C16.43-28.81,17.28-27.78,18.2-26.53Z"/><path d="M61.83,67.1c-.95-1-2-2.19-3.11-3.39S57.15,61.14,56.2,60c-.71-.87-2-1.29-2.62-2.21a22,22,0,0,1-1.31-2.2,7,7,0,0,0-1.9-2.16A4.17,4.17,0,0,1,49.15,52,6.61,6.61,0,0,0,48,50.22a1.57,1.57,0,0,1-.2-.25c-1.37-2.51-3.57-4.38-5.18-6.7-1.39-1.27-2.29-3-3.74-4.17a6.76,6.76,0,0,1-1.09-1.18c-1.09-1.53-2.42-2.85-3.65-4.26a2.4,2.4,0,0,1-.47-.64,8.4,8.4,0,0,0-2-2.51c-.85-1-1.57-2-2.35-3a8.47,8.47,0,0,0-.79-1,18.1,18.1,0,0,1-3-3.92c-.45-.78-1.08-1.46-1.6-2.2-.3-.44-.57-.91-.85-1.36a2.15,2.15,0,0,0-.34-.54c-1.21-1-1.88-2.45-2.93-3.59-.32-.35-.62-.73-.92-1.1-.57-.71-1.12-1.42-1.71-2.12-.87-1-1.2-2.46-2.07-3.46-1.19-1.37-2.41-2.72-3.56-4.12C10.16,2.39,8.81.66,7.43-1a14.78,14.78,0,0,0-1-1.21A62.46,62.46,0,0,1,1.53-7.81c-1.25-1.53-2.53-3-3.74-4.6-.58-.76-1.17-1.5-1.72-2.29-.88-1.28-1.89-2.46-2.85-3.68C-7.9-19.81-9-21.24-10.15-22.65A25.78,25.78,0,0,0-13-25.85a1.26,1.26,0,0,0-1.07-.32,2.9,2.9,0,0,0-.69.6,2.37,2.37,0,0,0,.22.77c.94,1.63,2.3,2.91,3.34,4.46.93,1.37,2,2.63,3.07,3.9a16.47,16.47,0,0,1,1.73,2.51,10.52,10.52,0,0,0,.89,1.32c.46.59,1,1.14,1.41,1.75A13.37,13.37,0,0,0-2.43-8.75a9.77,9.77,0,0,1,.76,1c.52.67,1.06,1.34,1.6,2,.34.41.71.81,1.07,1.2l2.38,2.6a7.29,7.29,0,0,1,.73.85A20.36,20.36,0,0,0,6.42,1.78c1,1.09,1.93,2.29,2.86,3.46a56.35,56.35,0,0,0,4,4.56c.46.46.32,1.39.69,1.92a63.89,63.89,0,0,0,5.39,6.35,17.45,17.45,0,0,1,2.38,3.21,2.19,2.19,0,0,0,.48.64,9.93,9.93,0,0,1,2,2.49A26.82,26.82,0,0,0,26,26.47a19.53,19.53,0,0,1,1.39,1.76,82.83,82.83,0,0,0,5.49,7.3,4.77,4.77,0,0,1,.62.74,21.94,21.94,0,0,0,2.84,3.67c1.19,1.44,2.52,2.63,3.71,4.07.67.83,1.38,1.64,2.12,2.41a31.54,31.54,0,0,1,4,5.23,12.31,12.31,0,0,0,1.56,2,28.83,28.83,0,0,1,2.77,3.73c1.07,1.53,2.72,2.6,3.88,4.07s1.94,3.1,3.11,4.48c.69.82,1.43,1.6,2.08,2.44a22.27,22.27,0,0,1,1.73,2.5A15.21,15.21,0,0,0,65,75.29c.39.31.69.56,1.21.17a1,1,0,0,0,.35-1.22,5.06,5.06,0,0,0-.65-1.1,23.05,23.05,0,0,1-1.58-2.62C63.6,69.38,62.74,68.35,61.83,67.1Z"/><path d="M-22.8-26.53c.94,1,2,2.21,3.1,3.41s1.59,2.57,2.54,3.73c.71.87,1.54,1.8,2.19,2.72a22.08,22.08,0,0,1,1.32,2.2,7.57,7.57,0,0,0,1.9,2.16,4.2,4.2,0,0,1,1.22,1.47A7.28,7.28,0,0,0-9.37-9.11a1.57,1.57,0,0,1,.2.25c1.4,2.5,3.58,4.38,5.2,6.71C-2.59-.87-1.68.81-.24,2A6.76,6.76,0,0,1,.85,3.22C2,4.75,3.27,6.08,4.49,7.5A2.24,2.24,0,0,1,5,8.14a9.05,9.05,0,0,0,2,2.51c.85,1,1.58,2,2.36,3a10.84,10.84,0,0,0,.79,1,19,19,0,0,1,3,3.92c.46.78,1.08,1.47,1.61,2.21.31.44.57.9.85,1.35a2.28,2.28,0,0,0,.35.54c1.2,1,1.89,2.46,2.94,3.6.32.36.61.74.91,1.11.58.7,1.13,1.42,1.72,2.12.86,1,1.22,2.44,2.1,3.45,1.19,1.38,2.4,2.73,3.56,4.13,1.4,1.7,2.75,3.43,4.12,5.14a15.17,15.17,0,0,0,1,1.21A71.23,71.23,0,0,1,37.19,49c1.24,1.55,2.52,3.05,3.74,4.62.58.76,1.17,1.51,1.72,2.29.89,1.28,1.9,2.46,2.86,3.68,1.12,1.43,2.23,2.88,3.38,4.29a29.3,29.3,0,0,0,2.88,3.22,1.27,1.27,0,0,0,1,.33,2.4,2.4,0,0,0,.65-.57,2.4,2.4,0,0,0-.23-.76c-1-1.62-2.3-2.92-3.35-4.47-.93-1.37-2-2.63-3.08-3.91a16.67,16.67,0,0,1-1.74-2.5,11,11,0,0,0-.9-1.32c-.46-.59-1-1.14-1.41-1.75a13.92,13.92,0,0,0-1.71-2.12,8.55,8.55,0,0,1-.76-1c-.53-.68-1.06-1.34-1.61-2-.34-.41-.7-.81-1.06-1.2C36.83,45,36,44.1,35.24,43.22a7.33,7.33,0,0,1-.73-.84A22.08,22.08,0,0,0,32.2,39.5c-1-1.09-1.93-2.29-2.87-3.46a56.42,56.42,0,0,0-4-4.59c-.46-.45-.34-1.37-.72-1.89a65.41,65.41,0,0,0-5.39-6.38A18.85,18.85,0,0,1,16.81,20a2.36,2.36,0,0,0-.47-.64,10.2,10.2,0,0,1-2-2.5c-.52-.75-1.2-1.37-1.79-2.07A17.79,17.79,0,0,1,11.18,13,85.33,85.33,0,0,0,5.66,5.69,5.33,5.33,0,0,1,5.05,5,23.57,23.57,0,0,0,2.2,1.28C1-.17-.13-1.66-1.32-3.11-2-3.94-2.7-4.75-3.44-5.52a33.74,33.74,0,0,1-4-5.24A13,13,0,0,0-9-12.8a28,28,0,0,1-2.78-3.73c-1.08-1.53-2.71-2.62-3.87-4.1s-2-3.08-3.14-4.47c-.69-.82-1.42-1.6-2.08-2.45A25.36,25.36,0,0,1-22.58-30a16,16,0,0,0-3.7-4.41,1.06,1.06,0,0,0-1.37.1c-.35.26-.1.28.11.7a5.1,5.1,0,0,0,.66,1.1,24,24,0,0,1,1.6,2.61C-24.57-28.81-23.72-27.78-22.8-26.53Z"/><path d="M20.83,67.1c-.95-1-2-2.19-3.11-3.39S16.15,61.14,15.2,60c-.71-.87-2-1.29-2.62-2.21a22,22,0,0,1-1.31-2.2,7,7,0,0,0-1.9-2.16A4.17,4.17,0,0,1,8.15,52,6.61,6.61,0,0,0,7,50.22,1.57,1.57,0,0,1,6.8,50c-1.37-2.51-3.57-4.38-5.18-6.7C.23,42-.67,40.31-2.12,39.1a6.76,6.76,0,0,1-1.09-1.18c-1.09-1.53-2.42-2.85-3.65-4.26A2.4,2.4,0,0,1-7.33,33a8.4,8.4,0,0,0-2-2.51c-.85-1-1.57-2-2.35-3a8.47,8.47,0,0,0-.79-1,18.1,18.1,0,0,1-3-3.92c-.45-.78-1.08-1.46-1.6-2.2-.3-.44-.57-.91-.85-1.36a2.15,2.15,0,0,0-.34-.54c-1.21-1-1.88-2.45-2.93-3.59-.32-.35-.62-.73-.92-1.1-.57-.71-1.12-1.42-1.71-2.12-.87-1-1.2-2.46-2.07-3.46-1.19-1.37-2.41-2.72-3.56-4.12C-30.84,2.39-32.19.66-33.57-1a14.78,14.78,0,0,0-1-1.21,62.46,62.46,0,0,1-4.86-5.55c-1.25-1.53-2.53-3-3.74-4.6-.58-.76-1.17-1.5-1.72-2.29-.88-1.28-1.89-2.46-2.85-3.68-1.12-1.43-2.22-2.86-3.37-4.27A25.78,25.78,0,0,0-54-25.85a1.26,1.26,0,0,0-1.07-.32,2.9,2.9,0,0,0-.69.6,2.37,2.37,0,0,0,.22.77c.94,1.63,2.3,2.91,3.34,4.46.93,1.37,2,2.63,3.07,3.9a16.47,16.47,0,0,1,1.73,2.51,10.52,10.52,0,0,0,.89,1.32c.46.59,1,1.14,1.41,1.75a13.37,13.37,0,0,0,1.71,2.11,9.77,9.77,0,0,1,.76,1c.52.67,1.06,1.34,1.6,2,.34.41.71.81,1.07,1.2l2.38,2.6a7.29,7.29,0,0,1,.73.85,20.36,20.36,0,0,0,2.31,2.86c1,1.09,1.93,2.29,2.86,3.46a56.35,56.35,0,0,0,4,4.56c.46.46.32,1.39.69,1.92a63.89,63.89,0,0,0,5.39,6.35,17.45,17.45,0,0,1,2.38,3.21,2.19,2.19,0,0,0,.48.64,9.93,9.93,0,0,1,2,2.49A26.82,26.82,0,0,0-15,26.47a19.53,19.53,0,0,1,1.39,1.76,82.83,82.83,0,0,0,5.49,7.3,4.77,4.77,0,0,1,.62.74,21.94,21.94,0,0,0,2.84,3.67C-3.46,41.38-2.13,42.57-.94,44c.67.83,1.38,1.64,2.12,2.41a31.54,31.54,0,0,1,4,5.23,12.31,12.31,0,0,0,1.56,2,28.83,28.83,0,0,1,2.77,3.73c1.07,1.53,2.72,2.6,3.88,4.07s1.94,3.1,3.11,4.48c.69.82,1.43,1.6,2.08,2.44a22.27,22.27,0,0,1,1.73,2.5A15.21,15.21,0,0,0,24,75.29c.39.31.69.56,1.21.17a1,1,0,0,0,.35-1.22,5.06,5.06,0,0,0-.65-1.1,23.05,23.05,0,0,1-1.58-2.62C22.6,69.38,21.74,68.35,20.83,67.1Z"/><path d="M-63.8-26.53c.94,1,2,2.21,3.1,3.41s1.59,2.57,2.54,3.73c.71.87,1.54,1.8,2.19,2.72a22.08,22.08,0,0,1,1.32,2.2,7.57,7.57,0,0,0,1.9,2.16,4.2,4.2,0,0,1,1.22,1.47,7.28,7.28,0,0,0,1.16,1.73,1.57,1.57,0,0,1,.2.25c1.4,2.5,3.58,4.38,5.2,6.71,1.38,1.28,2.29,3,3.73,4.19a6.76,6.76,0,0,1,1.09,1.18c1.1,1.53,2.42,2.86,3.64,4.28a2.24,2.24,0,0,1,.48.64,9.05,9.05,0,0,0,2,2.51c.85,1,1.58,2,2.36,3a10.84,10.84,0,0,0,.79,1,19,19,0,0,1,3,3.92c.46.78,1.08,1.47,1.61,2.21.31.44.57.9.85,1.35a2.28,2.28,0,0,0,.35.54c1.2,1,1.89,2.46,2.94,3.6.32.36.61.74.91,1.11.58.7,1.13,1.42,1.72,2.12.86,1,1.22,2.44,2.1,3.45,1.19,1.38,2.4,2.73,3.56,4.13,1.4,1.7,2.75,3.43,4.12,5.14a15.17,15.17,0,0,0,1.05,1.21A71.23,71.23,0,0,1-3.81,49c1.24,1.55,2.52,3.05,3.74,4.62.58.76,1.17,1.51,1.72,2.29.89,1.28,1.9,2.46,2.86,3.68,1.12,1.43,2.23,2.88,3.38,4.29a29.3,29.3,0,0,0,2.88,3.22,1.27,1.27,0,0,0,1.05.33,2.4,2.4,0,0,0,.65-.57,2.4,2.4,0,0,0-.23-.76c-1-1.62-2.3-2.92-3.35-4.47C8,60.3,6.87,59,5.81,57.76a16.67,16.67,0,0,1-1.74-2.5,11,11,0,0,0-.9-1.32c-.46-.59-1-1.14-1.41-1.75A13.92,13.92,0,0,0,.05,50.07a8.55,8.55,0,0,1-.76-1c-.53-.68-1.06-1.34-1.61-2-.34-.41-.7-.81-1.06-1.2C-4.17,45-5,44.1-5.76,43.22a7.33,7.33,0,0,1-.73-.84A22.08,22.08,0,0,0-8.8,39.5c-1-1.09-1.93-2.29-2.87-3.46a56.42,56.42,0,0,0-4-4.59c-.46-.45-.34-1.37-.72-1.89a65.41,65.41,0,0,0-5.39-6.38A18.85,18.85,0,0,1-24.19,20a2.36,2.36,0,0,0-.47-.64,10.2,10.2,0,0,1-2-2.5c-.52-.75-1.2-1.37-1.79-2.07A17.79,17.79,0,0,1-29.82,13a85.33,85.33,0,0,0-5.52-7.31A5.33,5.33,0,0,1-35.95,5,23.57,23.57,0,0,0-38.8,1.28C-40-.17-41.13-1.66-42.32-3.11c-.67-.83-1.38-1.64-2.12-2.41a33.74,33.74,0,0,1-4-5.24,13,13,0,0,0-1.56-2,28,28,0,0,1-2.78-3.73c-1.08-1.53-2.71-2.62-3.87-4.1s-2-3.08-3.14-4.47c-.69-.82-1.42-1.6-2.08-2.45A25.36,25.36,0,0,1-63.58-30a16,16,0,0,0-3.7-4.41,1.06,1.06,0,0,0-1.37.1c-.35.26-.1.28.11.7a5.1,5.1,0,0,0,.66,1.1,24,24,0,0,1,1.6,2.61C-65.57-28.81-64.72-27.78-63.8-26.53Z"/><path d="M102.83,33.1c-1-1-2-2.19-3.11-3.39S98.15,27.14,97.2,26c-.71-.87-2-1.29-2.62-2.21a22,22,0,0,1-1.31-2.2,7,7,0,0,0-1.9-2.16A4.17,4.17,0,0,1,90.15,18,6.61,6.61,0,0,0,89,16.22a1.57,1.57,0,0,1-.2-.25c-1.37-2.51-3.57-4.38-5.18-6.7-1.39-1.27-2.29-3-3.74-4.17a6.76,6.76,0,0,1-1.09-1.18C77.7,2.39,76.37,1.07,75.14-.34A2.4,2.4,0,0,1,74.67-1a8.4,8.4,0,0,0-2-2.51c-.85-1-1.57-2-2.35-3a8.47,8.47,0,0,0-.79-1,18.1,18.1,0,0,1-3-3.92c-.45-.78-1.08-1.46-1.6-2.2-.3-.44-.57-.91-.85-1.36a2.15,2.15,0,0,0-.34-.54c-1.21-1-1.88-2.45-2.93-3.59-.32-.35-.62-.73-.92-1.1-.57-.71-1.12-1.42-1.71-2.12-.87-1-1.2-2.46-2.07-3.46-1.19-1.37-2.41-2.72-3.56-4.12-1.4-1.68-2.75-3.41-4.13-5.12a14.78,14.78,0,0,0-1-1.21,62.46,62.46,0,0,1-4.86-5.55c-1.25-1.53-2.53-3-3.74-4.6-.58-.76-1.17-1.5-1.72-2.29-.88-1.28-1.89-2.46-2.85-3.68-1.12-1.43-2.22-2.86-3.37-4.27A25.78,25.78,0,0,0,28-59.85a1.26,1.26,0,0,0-1.07-.32,2.9,2.9,0,0,0-.69.6,2.37,2.37,0,0,0,.22.77c.94,1.63,2.3,2.91,3.34,4.46.93,1.37,2,2.63,3.07,3.9a16.47,16.47,0,0,1,1.73,2.51,10.52,10.52,0,0,0,.89,1.32c.46.59,1,1.14,1.41,1.75a12.84,12.84,0,0,0,1.71,2.11,9.77,9.77,0,0,1,.76,1c.52.67,1.06,1.34,1.6,2,.34.41.71.81,1.07,1.2l2.38,2.6a7.29,7.29,0,0,1,.73.85,20.36,20.36,0,0,0,2.31,2.86c1,1.09,1.93,2.29,2.86,3.46a56.35,56.35,0,0,0,4,4.56c.46.46.32,1.39.69,1.92a62.78,62.78,0,0,0,5.39,6.35,17.45,17.45,0,0,1,2.38,3.21,2.19,2.19,0,0,0,.48.64,9.93,9.93,0,0,1,2,2.49A26.82,26.82,0,0,0,67-7.53,19.53,19.53,0,0,1,68.4-5.77a82.83,82.83,0,0,0,5.49,7.3,4.77,4.77,0,0,1,.62.74,21.94,21.94,0,0,0,2.84,3.67c1.19,1.44,2.52,2.63,3.71,4.07.67.83,1.38,1.64,2.12,2.41a31.54,31.54,0,0,1,4,5.23,12.31,12.31,0,0,0,1.56,2,28.83,28.83,0,0,1,2.77,3.73c1.07,1.53,2.72,2.6,3.88,4.07s1.94,3.1,3.11,4.48c.69.82,1.43,1.6,2.08,2.44a22.27,22.27,0,0,1,1.73,2.5,15.21,15.21,0,0,0,3.7,4.39c.39.31.69.56,1.21.17a1,1,0,0,0,.35-1.22,5.06,5.06,0,0,0-.65-1.1,23.05,23.05,0,0,1-1.58-2.62C104.6,35.38,103.74,34.35,102.83,33.1Z"/><path d="M18.2-60.53c.94,1,2,2.21,3.1,3.41s1.59,2.57,2.54,3.73c.71.87,1.54,1.8,2.19,2.72a22.08,22.08,0,0,1,1.32,2.2,7.57,7.57,0,0,0,1.9,2.16,4.2,4.2,0,0,1,1.22,1.47,7.28,7.28,0,0,0,1.16,1.73,1.57,1.57,0,0,1,.2.25c1.4,2.5,3.58,4.38,5.2,6.71,1.38,1.28,2.29,3,3.73,4.19a6.76,6.76,0,0,1,1.09,1.18c1.1,1.53,2.42,2.86,3.64,4.28a2.24,2.24,0,0,1,.48.64,9.05,9.05,0,0,0,2,2.51c.85,1,1.58,2,2.36,3a10.84,10.84,0,0,0,.79,1,19,19,0,0,1,3,3.92c.46.78,1.08,1.47,1.61,2.21.31.44.57.9.85,1.35a2.28,2.28,0,0,0,.35.54c1.2,1,1.89,2.46,2.94,3.6.32.36.61.74.91,1.11.58.7,1.13,1.42,1.72,2.12.86,1,1.22,2.44,2.1,3.45C65.79.37,67,1.72,68.16,3.12c1.4,1.7,2.75,3.43,4.12,5.14a15.17,15.17,0,0,0,1,1.21A71.23,71.23,0,0,1,78.19,15c1.24,1.55,2.52,3.05,3.74,4.62.58.76,1.17,1.51,1.72,2.29.89,1.28,1.9,2.46,2.86,3.68,1.12,1.43,2.23,2.88,3.38,4.29a29.3,29.3,0,0,0,2.88,3.22,1.27,1.27,0,0,0,1,.33,2.4,2.4,0,0,0,.65-.57,2.4,2.4,0,0,0-.23-.76c-.95-1.62-2.3-2.92-3.35-4.47-.93-1.37-2-2.63-3.08-3.91a16.67,16.67,0,0,1-1.74-2.5,11,11,0,0,0-.9-1.32c-.46-.59-1-1.14-1.41-1.75a13.92,13.92,0,0,0-1.71-2.12,8.55,8.55,0,0,1-.76-1c-.53-.68-1.06-1.34-1.61-2-.34-.41-.7-.81-1.06-1.2C77.83,11,77,10.1,76.24,9.22a7.33,7.33,0,0,1-.73-.84A22.08,22.08,0,0,0,73.2,5.5c-1-1.09-1.93-2.29-2.87-3.46a56.42,56.42,0,0,0-4-4.59C65.85-3,66-3.92,65.59-4.44a65.41,65.41,0,0,0-5.39-6.38A18.85,18.85,0,0,1,57.81-14a2.36,2.36,0,0,0-.47-.64,10.2,10.2,0,0,1-2-2.5c-.52-.75-1.2-1.37-1.79-2.07A17.79,17.79,0,0,1,52.18-21a85.33,85.33,0,0,0-5.52-7.31,5.33,5.33,0,0,1-.61-.74,23.57,23.57,0,0,0-2.85-3.67c-1.19-1.45-2.33-2.94-3.52-4.39-.67-.83-1.38-1.64-2.12-2.41a33.74,33.74,0,0,1-4-5.24,13,13,0,0,0-1.56-2,28,28,0,0,1-2.78-3.73c-1.08-1.53-2.71-2.62-3.87-4.1s-2-3.08-3.14-4.47c-.69-.82-1.42-1.6-2.08-2.45A25.36,25.36,0,0,1,18.42-64a16,16,0,0,0-3.7-4.41,1.06,1.06,0,0,0-1.37.1c-.35.26-.1.28.11.7a5.1,5.1,0,0,0,.66,1.1,24,24,0,0,1,1.6,2.61C16.43-62.81,17.28-61.78,18.2-60.53Z"/><path d="M61.83,33.1c-.95-1-2-2.19-3.11-3.39S57.15,27.14,56.2,26c-.71-.87-2-1.29-2.62-2.21a22,22,0,0,1-1.31-2.2,7,7,0,0,0-1.9-2.16A4.17,4.17,0,0,1,49.15,18,6.61,6.61,0,0,0,48,16.22a1.57,1.57,0,0,1-.2-.25c-1.37-2.51-3.57-4.38-5.18-6.7-1.39-1.27-2.29-3-3.74-4.17a6.76,6.76,0,0,1-1.09-1.18C36.7,2.39,35.37,1.07,34.14-.34A2.4,2.4,0,0,1,33.67-1a8.4,8.4,0,0,0-2-2.51c-.85-1-1.57-2-2.35-3a8.47,8.47,0,0,0-.79-1,18.1,18.1,0,0,1-3-3.92c-.45-.78-1.08-1.46-1.6-2.2-.3-.44-.57-.91-.85-1.36a2.15,2.15,0,0,0-.34-.54c-1.21-1-1.88-2.45-2.93-3.59-.32-.35-.62-.73-.92-1.1-.57-.71-1.12-1.42-1.71-2.12-.87-1-1.2-2.46-2.07-3.46-1.19-1.37-2.41-2.72-3.56-4.12-1.4-1.68-2.75-3.41-4.13-5.12a14.78,14.78,0,0,0-1-1.21,62.46,62.46,0,0,1-4.86-5.55c-1.25-1.53-2.53-3-3.74-4.6-.58-.76-1.17-1.5-1.72-2.29-.88-1.28-1.89-2.46-2.85-3.68C-7.9-53.81-9-55.24-10.15-56.65A25.78,25.78,0,0,0-13-59.85a1.26,1.26,0,0,0-1.07-.32,2.9,2.9,0,0,0-.69.6,2.37,2.37,0,0,0,.22.77c.94,1.63,2.3,2.91,3.34,4.46.93,1.37,2,2.63,3.07,3.9a16.47,16.47,0,0,1,1.73,2.51,10.52,10.52,0,0,0,.89,1.32c.46.59,1,1.14,1.41,1.75a13.37,13.37,0,0,0,1.71,2.11,9.77,9.77,0,0,1,.76,1c.52.67,1.06,1.34,1.6,2,.34.41.71.81,1.07,1.2l2.38,2.6a7.29,7.29,0,0,1,.73.85,20.36,20.36,0,0,0,2.31,2.86c1,1.09,1.93,2.29,2.86,3.46a56.35,56.35,0,0,0,4,4.56c.46.46.32,1.39.69,1.92a62.78,62.78,0,0,0,5.39,6.35,17.45,17.45,0,0,1,2.38,3.21,2.19,2.19,0,0,0,.48.64,9.93,9.93,0,0,1,2,2.49A26.82,26.82,0,0,0,26-7.53,19.53,19.53,0,0,1,27.4-5.77a82.83,82.83,0,0,0,5.49,7.3,4.77,4.77,0,0,1,.62.74,21.94,21.94,0,0,0,2.84,3.67c1.19,1.44,2.52,2.63,3.71,4.07.67.83,1.38,1.64,2.12,2.41a31.54,31.54,0,0,1,4,5.23,12.31,12.31,0,0,0,1.56,2,28.83,28.83,0,0,1,2.77,3.73c1.07,1.53,2.72,2.6,3.88,4.07s1.94,3.1,3.11,4.48c.69.82,1.43,1.6,2.08,2.44a22.27,22.27,0,0,1,1.73,2.5A15.21,15.21,0,0,0,65,41.29c.39.31.69.56,1.21.17a1,1,0,0,0,.35-1.22,5.06,5.06,0,0,0-.65-1.1,23.05,23.05,0,0,1-1.58-2.62C63.6,35.38,62.74,34.35,61.83,33.1Z"/><path d="M-22.8-60.53c.94,1,2,2.21,3.1,3.41s1.59,2.57,2.54,3.73c.71.87,1.54,1.8,2.19,2.72a22.08,22.08,0,0,1,1.32,2.2,7.57,7.57,0,0,0,1.9,2.16,4.2,4.2,0,0,1,1.22,1.47,7.28,7.28,0,0,0,1.16,1.73,1.57,1.57,0,0,1,.2.25c1.4,2.5,3.58,4.38,5.2,6.71,1.38,1.28,2.29,3,3.73,4.19A6.76,6.76,0,0,1,.85-30.78C2-29.25,3.27-27.92,4.49-26.5a2.24,2.24,0,0,1,.48.64,9.05,9.05,0,0,0,2,2.51c.85,1,1.58,2,2.36,3a10.84,10.84,0,0,0,.79,1,19,19,0,0,1,3,3.92c.46.78,1.08,1.47,1.61,2.21.31.44.57.9.85,1.35a2.28,2.28,0,0,0,.35.54c1.2,1,1.89,2.46,2.94,3.6.32.36.61.74.91,1.11.58.7,1.13,1.42,1.72,2.12.86,1,1.22,2.44,2.1,3.45C24.79.37,26,1.72,27.16,3.12c1.4,1.7,2.75,3.43,4.12,5.14a15.17,15.17,0,0,0,1,1.21A71.23,71.23,0,0,1,37.19,15c1.24,1.55,2.52,3.05,3.74,4.62.58.76,1.17,1.51,1.72,2.29.89,1.28,1.9,2.46,2.86,3.68,1.12,1.43,2.23,2.88,3.38,4.29a29.3,29.3,0,0,0,2.88,3.22,1.27,1.27,0,0,0,1,.33,2.4,2.4,0,0,0,.65-.57,2.4,2.4,0,0,0-.23-.76c-1-1.62-2.3-2.92-3.35-4.47-.93-1.37-2-2.63-3.08-3.91a16.67,16.67,0,0,1-1.74-2.5,11,11,0,0,0-.9-1.32c-.46-.59-1-1.14-1.41-1.75a13.92,13.92,0,0,0-1.71-2.12,8.55,8.55,0,0,1-.76-1c-.53-.68-1.06-1.34-1.61-2-.34-.41-.7-.81-1.06-1.2C36.83,11,36,10.1,35.24,9.22a7.33,7.33,0,0,1-.73-.84A22.08,22.08,0,0,0,32.2,5.5c-1-1.09-1.93-2.29-2.87-3.46a56.42,56.42,0,0,0-4-4.59C24.85-3,25-3.92,24.59-4.44a65.41,65.41,0,0,0-5.39-6.38A18.85,18.85,0,0,1,16.81-14a2.36,2.36,0,0,0-.47-.64,10.2,10.2,0,0,1-2-2.5c-.52-.75-1.2-1.37-1.79-2.07A17.79,17.79,0,0,1,11.18-21a85.33,85.33,0,0,0-5.52-7.31A5.33,5.33,0,0,1,5.05-29,23.57,23.57,0,0,0,2.2-32.72C1-34.17-.13-35.66-1.32-37.11c-.67-.83-1.38-1.64-2.12-2.41a33.74,33.74,0,0,1-4-5.24A13,13,0,0,0-9-46.8a28,28,0,0,1-2.78-3.73c-1.08-1.53-2.71-2.62-3.87-4.1s-2-3.08-3.14-4.47c-.69-.82-1.42-1.6-2.08-2.45A25.36,25.36,0,0,1-22.58-64a16,16,0,0,0-3.7-4.41,1.06,1.06,0,0,0-1.37.1c-.35.26-.1.28.11.7a5.1,5.1,0,0,0,.66,1.1,24,24,0,0,1,1.6,2.61C-24.57-62.81-23.72-61.78-22.8-60.53Z"/><path d="M20.83,33.1c-.95-1-2-2.19-3.11-3.39S16.15,27.14,15.2,26c-.71-.87-2-1.29-2.62-2.21a22,22,0,0,1-1.31-2.2,7,7,0,0,0-1.9-2.16A4.17,4.17,0,0,1,8.15,18,6.61,6.61,0,0,0,7,16.22,1.57,1.57,0,0,1,6.8,16c-1.37-2.51-3.57-4.38-5.18-6.7C.23,8-.67,6.31-2.12,5.1A6.76,6.76,0,0,1-3.21,3.92C-4.3,2.39-5.63,1.07-6.86-.34A2.4,2.4,0,0,1-7.33-1a8.4,8.4,0,0,0-2-2.51c-.85-1-1.57-2-2.35-3a8.47,8.47,0,0,0-.79-1,18.1,18.1,0,0,1-3-3.92c-.45-.78-1.08-1.46-1.6-2.2-.3-.44-.57-.91-.85-1.36a2.15,2.15,0,0,0-.34-.54c-1.21-1-1.88-2.45-2.93-3.59-.32-.35-.62-.73-.92-1.1-.57-.71-1.12-1.42-1.71-2.12-.87-1-1.2-2.46-2.07-3.46-1.19-1.37-2.41-2.72-3.56-4.12-1.4-1.68-2.75-3.41-4.13-5.12a14.78,14.78,0,0,0-1-1.21,62.46,62.46,0,0,1-4.86-5.55c-1.25-1.53-2.53-3-3.74-4.6-.58-.76-1.17-1.5-1.72-2.29-.88-1.28-1.89-2.46-2.85-3.68-1.12-1.43-2.22-2.86-3.37-4.27A25.78,25.78,0,0,0-54-59.85a1.26,1.26,0,0,0-1.07-.32,2.9,2.9,0,0,0-.69.6,2.37,2.37,0,0,0,.22.77c.94,1.63,2.3,2.91,3.34,4.46.93,1.37,2,2.63,3.07,3.9a16.47,16.47,0,0,1,1.73,2.51,10.52,10.52,0,0,0,.89,1.32c.46.59,1,1.14,1.41,1.75a13.37,13.37,0,0,0,1.71,2.11,9.77,9.77,0,0,1,.76,1c.52.67,1.06,1.34,1.6,2,.34.41.71.81,1.07,1.2l2.38,2.6a7.29,7.29,0,0,1,.73.85,20.36,20.36,0,0,0,2.31,2.86c1,1.09,1.93,2.29,2.86,3.46a56.35,56.35,0,0,0,4,4.56c.46.46.32,1.39.69,1.92a62.78,62.78,0,0,0,5.39,6.35,17.45,17.45,0,0,1,2.38,3.21,2.19,2.19,0,0,0,.48.64,9.93,9.93,0,0,1,2,2.49A26.82,26.82,0,0,0-15-7.53,19.53,19.53,0,0,1-13.6-5.77a82.83,82.83,0,0,0,5.49,7.3,4.77,4.77,0,0,1,.62.74A21.94,21.94,0,0,0-4.65,5.94C-3.46,7.38-2.13,8.57-.94,10c.67.83,1.38,1.64,2.12,2.41a31.54,31.54,0,0,1,4,5.23,12.31,12.31,0,0,0,1.56,2,28.83,28.83,0,0,1,2.77,3.73c1.07,1.53,2.72,2.6,3.88,4.07s1.94,3.1,3.11,4.48c.69.82,1.43,1.6,2.08,2.44a22.27,22.27,0,0,1,1.73,2.5A15.21,15.21,0,0,0,24,41.29c.39.31.69.56,1.21.17a1,1,0,0,0,.35-1.22,5.06,5.06,0,0,0-.65-1.1,23.05,23.05,0,0,1-1.58-2.62C22.6,35.38,21.74,34.35,20.83,33.1Z"/><path d="M-63.8-60.53c.94,1,2,2.21,3.1,3.41s1.59,2.57,2.54,3.73c.71.87,1.54,1.8,2.19,2.72a22.08,22.08,0,0,1,1.32,2.2,7.57,7.57,0,0,0,1.9,2.16,4.2,4.2,0,0,1,1.22,1.47,7.28,7.28,0,0,0,1.16,1.73,1.57,1.57,0,0,1,.2.25c1.4,2.5,3.58,4.38,5.2,6.71,1.38,1.28,2.29,3,3.73,4.19a6.76,6.76,0,0,1,1.09,1.18c1.1,1.53,2.42,2.86,3.64,4.28a2.24,2.24,0,0,1,.48.64,9.05,9.05,0,0,0,2,2.51c.85,1,1.58,2,2.36,3a10.84,10.84,0,0,0,.79,1,19,19,0,0,1,3,3.92c.46.78,1.08,1.47,1.61,2.21.31.44.57.9.85,1.35a2.28,2.28,0,0,0,.35.54c1.2,1,1.89,2.46,2.94,3.6.32.36.61.74.91,1.11.58.7,1.13,1.42,1.72,2.12.86,1,1.22,2.44,2.1,3.45C-16.21.37-15,1.72-13.84,3.12c1.4,1.7,2.75,3.43,4.12,5.14A15.17,15.17,0,0,0-8.67,9.47,71.23,71.23,0,0,1-3.81,15c1.24,1.55,2.52,3.05,3.74,4.62.58.76,1.17,1.51,1.72,2.29.89,1.28,1.9,2.46,2.86,3.68,1.12,1.43,2.23,2.88,3.38,4.29a29.3,29.3,0,0,0,2.88,3.22,1.27,1.27,0,0,0,1.05.33,2.4,2.4,0,0,0,.65-.57,2.4,2.4,0,0,0-.23-.76c-1-1.62-2.3-2.92-3.35-4.47C8,26.3,6.87,25,5.81,23.76a16.67,16.67,0,0,1-1.74-2.5,11,11,0,0,0-.9-1.32c-.46-.59-1-1.14-1.41-1.75A13.92,13.92,0,0,0,.05,16.07a8.55,8.55,0,0,1-.76-1c-.53-.68-1.06-1.34-1.61-2-.34-.41-.7-.81-1.06-1.2C-4.17,11-5,10.1-5.76,9.22a7.33,7.33,0,0,1-.73-.84A22.08,22.08,0,0,0-8.8,5.5c-1-1.09-1.93-2.29-2.87-3.46a56.42,56.42,0,0,0-4-4.59c-.46-.45-.34-1.37-.72-1.89a65.41,65.41,0,0,0-5.39-6.38A18.85,18.85,0,0,1-24.19-14a2.36,2.36,0,0,0-.47-.64,10.2,10.2,0,0,1-2-2.5c-.52-.75-1.2-1.37-1.79-2.07A17.79,17.79,0,0,1-29.82-21a85.33,85.33,0,0,0-5.52-7.31,5.33,5.33,0,0,1-.61-.74,23.57,23.57,0,0,0-2.85-3.67c-1.19-1.45-2.33-2.94-3.52-4.39-.67-.83-1.38-1.64-2.12-2.41a33.74,33.74,0,0,1-4-5.24,13,13,0,0,0-1.56-2,28,28,0,0,1-2.78-3.73c-1.08-1.53-2.71-2.62-3.87-4.1s-2-3.08-3.14-4.47c-.69-.82-1.42-1.6-2.08-2.45A25.36,25.36,0,0,1-63.58-64a16,16,0,0,0-3.7-4.41,1.06,1.06,0,0,0-1.37.1c-.35.26-.1.28.11.7a5.1,5.1,0,0,0,.66,1.1,24,24,0,0,1,1.6,2.61C-65.57-62.81-64.72-61.78-63.8-60.53Z"/><path d="M102.83-.9c-1-1-2-2.19-3.11-3.39S98.15-6.86,97.2-8c-.71-.87-2-1.29-2.62-2.21a22,22,0,0,1-1.31-2.2,7,7,0,0,0-1.9-2.16A4.17,4.17,0,0,1,90.15-16,6.61,6.61,0,0,0,89-17.78a1.57,1.57,0,0,1-.2-.25c-1.37-2.51-3.57-4.38-5.18-6.7-1.39-1.27-2.29-3-3.74-4.17a6.76,6.76,0,0,1-1.09-1.18c-1.09-1.53-2.42-2.85-3.65-4.26a2.4,2.4,0,0,1-.47-.64,8.4,8.4,0,0,0-2-2.51c-.85-.95-1.57-2-2.35-3a8.47,8.47,0,0,0-.79-1,18.1,18.1,0,0,1-3-3.92c-.45-.78-1.08-1.46-1.6-2.2-.3-.44-.57-.91-.85-1.36a2.15,2.15,0,0,0-.34-.54c-1.21-1-1.88-2.45-2.93-3.59-.32-.35-.62-.73-.92-1.1-.57-.71-1.12-1.42-1.71-2.12-.87-1-1.2-2.46-2.07-3.46-1.19-1.37-2.41-2.72-3.56-4.12-1.4-1.68-2.75-3.41-4.13-5.12a14.78,14.78,0,0,0-1-1.21,62.46,62.46,0,0,1-4.86-5.55c-1.25-1.53-2.53-3-3.74-4.6-.58-.76-1.17-1.5-1.72-2.29-.88-1.28-1.89-2.46-2.85-3.68-1.12-1.43-2.22-2.86-3.37-4.27A25.78,25.78,0,0,0,28-93.85a1.26,1.26,0,0,0-1.07-.32,2.9,2.9,0,0,0-.69.6,2.37,2.37,0,0,0,.22.77c.94,1.63,2.3,2.91,3.34,4.46.93,1.37,2,2.63,3.07,3.9a16.47,16.47,0,0,1,1.73,2.51,10.52,10.52,0,0,0,.89,1.32c.46.59,1,1.14,1.41,1.75a12.84,12.84,0,0,0,1.71,2.11,9.77,9.77,0,0,1,.76,1c.52.67,1.06,1.34,1.6,2,.34.41.71.81,1.07,1.2l2.38,2.6a7.29,7.29,0,0,1,.73.85,20.36,20.36,0,0,0,2.31,2.86c1,1.09,1.93,2.29,2.86,3.46a56.35,56.35,0,0,0,4,4.56c.46.46.32,1.39.69,1.92a62.78,62.78,0,0,0,5.39,6.35,17.45,17.45,0,0,1,2.38,3.21,2.19,2.19,0,0,0,.48.64,9.93,9.93,0,0,1,2,2.49A26.82,26.82,0,0,0,67-41.53a19.53,19.53,0,0,1,1.39,1.76,82.83,82.83,0,0,0,5.49,7.3,4.77,4.77,0,0,1,.62.74,21.94,21.94,0,0,0,2.84,3.67c1.19,1.44,2.52,2.63,3.71,4.07.67.83,1.38,1.64,2.12,2.41a31.54,31.54,0,0,1,4,5.23,12.31,12.31,0,0,0,1.56,2,28.83,28.83,0,0,1,2.77,3.73c1.07,1.53,2.72,2.6,3.88,4.07S97.29-3.42,98.46-2c.69.82,1.43,1.6,2.08,2.44a22.27,22.27,0,0,1,1.73,2.5A15.21,15.21,0,0,0,106,7.29c.39.31.69.56,1.21.17a1,1,0,0,0,.35-1.22,5.06,5.06,0,0,0-.65-1.1,23.05,23.05,0,0,1-1.58-2.62C104.6,1.38,103.74.35,102.83-.9Z"/><path d="M61.83-.9c-.95-1-2-2.19-3.11-3.39S57.15-6.86,56.2-8c-.71-.87-2-1.29-2.62-2.21a22,22,0,0,1-1.31-2.2,7,7,0,0,0-1.9-2.16A4.17,4.17,0,0,1,49.15-16,6.61,6.61,0,0,0,48-17.78a1.57,1.57,0,0,1-.2-.25c-1.37-2.51-3.57-4.38-5.18-6.7-1.39-1.27-2.29-3-3.74-4.17a6.76,6.76,0,0,1-1.09-1.18c-1.09-1.53-2.42-2.85-3.65-4.26a2.4,2.4,0,0,1-.47-.64,8.4,8.4,0,0,0-2-2.51c-.85-.95-1.57-2-2.35-3a8.47,8.47,0,0,0-.79-1,18.1,18.1,0,0,1-3-3.92c-.45-.78-1.08-1.46-1.6-2.2-.3-.44-.57-.91-.85-1.36a2.15,2.15,0,0,0-.34-.54c-1.21-1-1.88-2.45-2.93-3.59-.32-.35-.62-.73-.92-1.1-.57-.71-1.12-1.42-1.71-2.12-.87-1-1.2-2.46-2.07-3.46-1.19-1.37-2.41-2.72-3.56-4.12-1.4-1.68-2.75-3.41-4.13-5.12a14.78,14.78,0,0,0-1-1.21,62.46,62.46,0,0,1-4.86-5.55c-1.25-1.53-2.53-3-3.74-4.6-.58-.76-1.17-1.5-1.72-2.29-.88-1.28-1.89-2.46-2.85-3.68C-7.9-87.81-9-89.24-10.15-90.65A25.78,25.78,0,0,0-13-93.85a1.26,1.26,0,0,0-1.07-.32,2.9,2.9,0,0,0-.69.6,2.37,2.37,0,0,0,.22.77c.94,1.63,2.3,2.91,3.34,4.46.93,1.37,2,2.63,3.07,3.9a16.47,16.47,0,0,1,1.73,2.51,10.52,10.52,0,0,0,.89,1.32c.46.59,1,1.14,1.41,1.75a13.37,13.37,0,0,0,1.71,2.11,9.77,9.77,0,0,1,.76,1c.52.67,1.06,1.34,1.6,2,.34.41.71.81,1.07,1.2l2.38,2.6a7.29,7.29,0,0,1,.73.85,20.36,20.36,0,0,0,2.31,2.86c1,1.09,1.93,2.29,2.86,3.46a56.35,56.35,0,0,0,4,4.56c.46.46.32,1.39.69,1.92a62.78,62.78,0,0,0,5.39,6.35,17.45,17.45,0,0,1,2.38,3.21,2.19,2.19,0,0,0,.48.64,9.93,9.93,0,0,1,2,2.49A26.82,26.82,0,0,0,26-41.53a19.53,19.53,0,0,1,1.39,1.76,82.83,82.83,0,0,0,5.49,7.3,4.77,4.77,0,0,1,.62.74,21.94,21.94,0,0,0,2.84,3.67c1.19,1.44,2.52,2.63,3.71,4.07.67.83,1.38,1.64,2.12,2.41a31.54,31.54,0,0,1,4,5.23,12.31,12.31,0,0,0,1.56,2,28.83,28.83,0,0,1,2.77,3.73c1.07,1.53,2.72,2.6,3.88,4.07S56.29-3.42,57.46-2c.69.82,1.43,1.6,2.08,2.44a22.27,22.27,0,0,1,1.73,2.5A15.21,15.21,0,0,0,65,7.29c.39.31.69.56,1.21.17a1,1,0,0,0,.35-1.22,5.06,5.06,0,0,0-.65-1.1A23.05,23.05,0,0,1,64.3,2.52C63.6,1.38,62.74.35,61.83-.9Z"/><path d="M20.83-.9c-.95-1-2-2.19-3.11-3.39S16.15-6.86,15.2-8c-.71-.87-2-1.29-2.62-2.21a22,22,0,0,1-1.31-2.2,7,7,0,0,0-1.9-2.16A4.17,4.17,0,0,1,8.15-16,6.61,6.61,0,0,0,7-17.78,1.57,1.57,0,0,1,6.8-18c-1.37-2.51-3.57-4.38-5.18-6.7C.23-26-.67-27.69-2.12-28.9a6.76,6.76,0,0,1-1.09-1.18c-1.09-1.53-2.42-2.85-3.65-4.26A2.4,2.4,0,0,1-7.33-35a8.4,8.4,0,0,0-2-2.51c-.85-.95-1.57-2-2.35-3a8.47,8.47,0,0,0-.79-1,18.1,18.1,0,0,1-3-3.92c-.45-.78-1.08-1.46-1.6-2.2-.3-.44-.57-.91-.85-1.36a2.15,2.15,0,0,0-.34-.54c-1.21-1-1.88-2.45-2.93-3.59-.32-.35-.62-.73-.92-1.1-.57-.71-1.12-1.42-1.71-2.12-.87-1-1.2-2.46-2.07-3.46-1.19-1.37-2.41-2.72-3.56-4.12-1.4-1.68-2.75-3.41-4.13-5.12a14.78,14.78,0,0,0-1-1.21,62.46,62.46,0,0,1-4.86-5.55c-1.25-1.53-2.53-3-3.74-4.6-.58-.76-1.17-1.5-1.72-2.29-.88-1.28-1.89-2.46-2.85-3.68-1.12-1.43-2.22-2.86-3.37-4.27A25.78,25.78,0,0,0-54-93.85a1.26,1.26,0,0,0-1.07-.32,2.9,2.9,0,0,0-.69.6,2.37,2.37,0,0,0,.22.77c.94,1.63,2.3,2.91,3.34,4.46.93,1.37,2,2.63,3.07,3.9a16.47,16.47,0,0,1,1.73,2.51,10.52,10.52,0,0,0,.89,1.32c.46.59,1,1.14,1.41,1.75a13.37,13.37,0,0,0,1.71,2.11,9.77,9.77,0,0,1,.76,1c.52.67,1.06,1.34,1.6,2,.34.41.71.81,1.07,1.2l2.38,2.6a7.29,7.29,0,0,1,.73.85,20.36,20.36,0,0,0,2.31,2.86c1,1.09,1.93,2.29,2.86,3.46a56.35,56.35,0,0,0,4,4.56c.46.46.32,1.39.69,1.92a62.78,62.78,0,0,0,5.39,6.35,17.45,17.45,0,0,1,2.38,3.21,2.19,2.19,0,0,0,.48.64,9.93,9.93,0,0,1,2,2.49A26.82,26.82,0,0,0-15-41.53a19.53,19.53,0,0,1,1.39,1.76,82.83,82.83,0,0,0,5.49,7.3,4.77,4.77,0,0,1,.62.74,21.94,21.94,0,0,0,2.84,3.67C-3.46-26.62-2.13-25.43-.94-24c.67.83,1.38,1.64,2.12,2.41a31.54,31.54,0,0,1,4,5.23,12.31,12.31,0,0,0,1.56,2,28.83,28.83,0,0,1,2.77,3.73c1.07,1.53,2.72,2.6,3.88,4.07S15.29-3.42,16.46-2c.69.82,1.43,1.6,2.08,2.44a22.27,22.27,0,0,1,1.73,2.5A15.21,15.21,0,0,0,24,7.29c.39.31.69.56,1.21.17a1,1,0,0,0,.35-1.22,5.06,5.06,0,0,0-.65-1.1A23.05,23.05,0,0,1,23.3,2.52C22.6,1.38,21.74.35,20.83-.9Z"/></pattern></defs><g id="Layer_2" data-name="Layer 2"><g id="Layer_1-2" data-name="Layer 1"><path class="cls-2" d="M8,13.35a2.85,2.85,0,0,1,2.85-2.85H71.9a2.85,2.85,0,0,1,2.85,2.85v12.3A2.85,2.85,0,0,1,71.9,28.5H27.5V53.1H64.55A3,3,0,0,1,67.4,56V68.4a2.85,2.85,0,0,1-2.85,2.85h-37V97.5H71.9a2.85,2.85,0,0,1,2.85,2.85v12.3a2.85,2.85,0,0,1-2.85,2.85h-61A2.85,2.85,0,0,1,8,112.65Z"/><path class="cls-2" d="M82.55,14.4a2.65,2.65,0,0,1,2.55-3.9h15.3A2.76,2.76,0,0,1,103,12.15l28.8,64.5h1.05l28.8-64.5a2.76,2.76,0,0,1,2.55-1.65h15.3A2.65,2.65,0,0,1,182,14.4L135.5,115.35A2.7,2.7,0,0,1,133,117h-1.5a2.7,2.7,0,0,1-2.55-1.65Z"/><path class="cls-2" d="M174.5,111.6,221.15,10.65A2.7,2.7,0,0,1,223.7,9h1.5a2.55,2.55,0,0,1,2.55,1.65L274,111.6a2.65,2.65,0,0,1-2.55,3.9h-13c-2.25,0-3.3-.9-4.35-3l-7.35-16.2H201.8l-7.35,16.2a4.52,4.52,0,0,1-4.35,3h-13A2.65,2.65,0,0,1,174.5,111.6Zm64.8-31.95-15-33h-.45l-14.7,33Z"/><path class="cls-2" d="M287.6,11.7A2.82,2.82,0,0,1,290.45,9h3.75l62.4,66.3h.15V13.35a2.85,2.85,0,0,1,2.85-2.85h13.8a3,3,0,0,1,2.85,2.85v101a2.82,2.82,0,0,1-2.85,2.7h-3.6L307.1,48.15H307v64.5a2.85,2.85,0,0,1-2.85,2.85H290.45a3,3,0,0,1-2.85-2.85Z"/><path class="cls-2" d="M406.25,92.25A12.61,12.61,0,0,1,418.7,104.7,12.49,12.49,0,0,1,406.25,117,12.36,12.36,0,0,1,394,104.7,12.49,12.49,0,0,1,406.25,92.25Z"/><path class="cls-2" d="M447.65,28.5H424.7a2.85,2.85,0,0,1-2.85-2.85V13.35a2.85,2.85,0,0,1,2.85-2.85h65.55a2.85,2.85,0,0,1,2.85,2.85v12.3a2.85,2.85,0,0,1-2.85,2.85H467.3v84.15a3,3,0,0,1-2.85,2.85H450.5a3,3,0,0,1-2.85-2.85Z"/><path class="cls-2" d="M554,9a54,54,0,1,1-53.85,54.15A53.89,53.89,0,0,1,554,9Zm0,88.5a34.5,34.5,0,1,0,0-69c-18.9,0-34.35,15.75-34.35,34.65A34.44,34.44,0,0,0,554,97.5Z"/><path class="cls-2" d="M617.6,14.1a2.61,2.61,0,0,1,2.7-3.6h13.8a3.08,3.08,0,0,1,2.7,2.1l15.6,59.85h.6l23.85-61.8A2.42,2.42,0,0,1,679.4,9h2.7a2.42,2.42,0,0,1,2.55,1.65l24,61.8h.6l15.3-59.85a3.08,3.08,0,0,1,2.69-2.1H741a2.61,2.61,0,0,1,2.7,3.6L715.4,114.9a2.88,2.88,0,0,1-2.7,2.1h-2.4a2.55,2.55,0,0,1-2.55-1.65L680.9,47.4h-.75L653.6,115.35a2.55,2.55,0,0,1-2.55,1.65h-2.4a2.88,2.88,0,0,1-2.7-2.1Z"/><path class="cls-2" d="M761.3,11.7A2.82,2.82,0,0,1,764.15,9h3.75l62.39,66.3h.15V13.35a2.85,2.85,0,0,1,2.85-2.85h13.8a3,3,0,0,1,2.85,2.85v101a2.82,2.82,0,0,1-2.85,2.7h-3.6L780.8,48.15h-.15v64.5a2.85,2.85,0,0,1-2.85,2.85H764.15a3,3,0,0,1-2.85-2.85Z"/><path class="cls-3" d="M2,7.35A2.85,2.85,0,0,1,4.85,4.5H65.9a2.85,2.85,0,0,1,2.85,2.85v12.3A2.85,2.85,0,0,1,65.9,22.5H21.5V47.1H58.55A3,3,0,0,1,61.4,50V62.4a2.85,2.85,0,0,1-2.85,2.85h-37V91.5H65.9a2.85,2.85,0,0,1,2.85,2.85v12.3a2.85,2.85,0,0,1-2.85,2.85h-61A2.85,2.85,0,0,1,2,106.65Z"/><path class="cls-3" d="M76.55,8.4A2.65,2.65,0,0,1,79.1,4.5H94.4A2.76,2.76,0,0,1,97,6.15l28.8,64.5h1l28.8-64.5a2.76,2.76,0,0,1,2.55-1.65h15.3A2.65,2.65,0,0,1,176,8.4L129.5,109.35A2.7,2.7,0,0,1,127,111h-1.5a2.7,2.7,0,0,1-2.55-1.65Z"/><path class="cls-3" d="M168.5,105.6,215.15,4.65A2.7,2.7,0,0,1,217.7,3h1.5a2.55,2.55,0,0,1,2.55,1.65L268,105.6a2.65,2.65,0,0,1-2.55,3.9h-13c-2.25,0-3.3-.9-4.35-3l-7.35-16.2H195.8l-7.35,16.2a4.52,4.52,0,0,1-4.35,3h-13A2.65,2.65,0,0,1,168.5,105.6Zm64.8-31.95-15-33h-.45l-14.7,33Z"/><path class="cls-3" d="M281.6,5.7A2.82,2.82,0,0,1,284.45,3h3.75l62.4,66.3h.15V7.35A2.85,2.85,0,0,1,353.6,4.5h13.8a3,3,0,0,1,2.85,2.85v101a2.82,2.82,0,0,1-2.85,2.7h-3.6L301.1,42.15H301v64.5a2.85,2.85,0,0,1-2.85,2.85H284.45a3,3,0,0,1-2.85-2.85Z"/><path class="cls-3" d="M400.25,86.25A12.61,12.61,0,0,1,412.7,98.7,12.49,12.49,0,0,1,400.25,111,12.36,12.36,0,0,1,388,98.7,12.49,12.49,0,0,1,400.25,86.25Z"/><path class="cls-3" d="M441.65,22.5H418.7a2.85,2.85,0,0,1-2.85-2.85V7.35A2.85,2.85,0,0,1,418.7,4.5h65.55a2.85,2.85,0,0,1,2.85,2.85v12.3a2.85,2.85,0,0,1-2.85,2.85H461.3v84.15a3,3,0,0,1-2.85,2.85H444.5a3,3,0,0,1-2.85-2.85Z"/><path class="cls-3" d="M548,3a54,54,0,0,1,0,108,53.52,53.52,0,0,1-53.85-53.85A53.78,53.78,0,0,1,548,3Zm0,88.5a34.5,34.5,0,1,0,0-69c-18.9,0-34.35,15.75-34.35,34.65A34.44,34.44,0,0,0,548,91.5Z"/><path class="cls-3" d="M611.6,8.1a2.61,2.61,0,0,1,2.7-3.6h13.8a3.08,3.08,0,0,1,2.7,2.1l15.6,59.85h.6l23.85-61.8A2.42,2.42,0,0,1,673.4,3h2.7a2.42,2.42,0,0,1,2.55,1.65l24,61.8h.6L718.55,6.6a3.08,3.08,0,0,1,2.69-2.1H735a2.61,2.61,0,0,1,2.7,3.6L709.4,108.9a2.88,2.88,0,0,1-2.7,2.1h-2.4a2.55,2.55,0,0,1-2.55-1.65L674.9,41.4h-.75L647.6,109.35a2.55,2.55,0,0,1-2.55,1.65h-2.4a2.88,2.88,0,0,1-2.7-2.1Z"/><path class="cls-3" d="M755.3,5.7A2.82,2.82,0,0,1,758.15,3h3.75l62.39,66.3h.15V7.35a2.85,2.85,0,0,1,2.85-2.85h13.8a3,3,0,0,1,2.85,2.85v101a2.82,2.82,0,0,1-2.85,2.7h-3.6L774.8,42.15h-.15v64.5a2.85,2.85,0,0,1-2.85,2.85H758.15a3,3,0,0,1-2.85-2.85Z"/><path class="cls-1" d="M546,19.5c-18.9,0-34.35,15.75-34.35,34.65a34.43,34.43,0,0,0,68.85,0A34.83,34.83,0,0,0,546,19.5Z"/><polygon class="cls-1" points="215.85 37.65 201.15 70.65 231.3 70.65 216.3 37.65 215.85 37.65"/><path d="M63.9,1.5h-61A2.85,2.85,0,0,0,0,4.35v99.3a2.85,2.85,0,0,0,2.85,2.85H63.9a2.85,2.85,0,0,0,2.85-2.85V91.35A2.85,2.85,0,0,0,63.9,88.5H19.5V62.25H56.55A2.85,2.85,0,0,0,59.4,59.4V47a3,3,0,0,0-2.85-2.85h-37V19.5H63.9a2.85,2.85,0,0,0,2.85-2.85V4.35A2.85,2.85,0,0,0,63.9,1.5Z"/><path d="M171.45,1.5h-15.3a2.76,2.76,0,0,0-2.55,1.65l-28.8,64.5h-1L95,3.15A2.76,2.76,0,0,0,92.4,1.5H77.1a2.65,2.65,0,0,0-2.55,3.9L120.9,106.35a2.7,2.7,0,0,0,2.55,1.65H125a2.7,2.7,0,0,0,2.55-1.65L174,5.4A2.65,2.65,0,0,0,171.45,1.5Z"/><path d="M219.75,1.65A2.55,2.55,0,0,0,217.2,0h-1.5a2.7,2.7,0,0,0-2.55,1.65L166.5,102.6a2.65,2.65,0,0,0,2.55,3.9h13a4.52,4.52,0,0,0,4.35-3l7.35-16.2h44.85L246,103.5c1.05,2.1,2.1,3,4.35,3h13a2.65,2.65,0,0,0,2.55-3.9Zm-18.6,69,14.7-33h.45l15,33Z"/><path d="M365.4,1.5H351.6a2.85,2.85,0,0,0-2.85,2.85v62h-.15L286.2,0h-3.75a2.82,2.82,0,0,0-2.85,2.7v101a3,3,0,0,0,2.85,2.85H296.1a2.85,2.85,0,0,0,2.85-2.85V39.15h.15L361.8,108h3.6a2.82,2.82,0,0,0,2.85-2.7V4.35A3,3,0,0,0,365.4,1.5Z"/><path d="M398.25,83.25A12.49,12.49,0,0,0,386,95.7a12.36,12.36,0,0,0,12.3,12.3A12.49,12.49,0,0,0,410.7,95.7,12.61,12.61,0,0,0,398.25,83.25Z"/><path d="M482.25,1.5H416.7a2.85,2.85,0,0,0-2.85,2.85v12.3a2.85,2.85,0,0,0,2.85,2.85h22.95v84.15a3,3,0,0,0,2.85,2.85h13.95a3,3,0,0,0,2.85-2.85V19.5h22.95a2.85,2.85,0,0,0,2.85-2.85V4.35A2.85,2.85,0,0,0,482.25,1.5Z"/><path d="M546,0a53.78,53.78,0,0,0-53.85,54.15,53.92,53.92,0,0,0,107.84,0A53.89,53.89,0,0,0,546,0Zm0,88.5a34.44,34.44,0,0,1-34.35-34.35c0-18.9,15.45-34.65,34.35-34.65a34.5,34.5,0,1,1,0,69Z"/><path d="M733,1.5h-13.8a3.08,3.08,0,0,0-2.69,2.1l-15.3,59.85h-.6l-24-61.8A2.42,2.42,0,0,0,674.1,0h-2.7a2.42,2.42,0,0,0-2.55,1.65L645,63.45h-.6L628.8,3.6a3.08,3.08,0,0,0-2.7-2.1H612.3a2.61,2.61,0,0,0-2.7,3.6L638,105.9a2.88,2.88,0,0,0,2.7,2.1h2.4a2.55,2.55,0,0,0,2.55-1.65L672.15,38.4h.75l26.85,67.95A2.55,2.55,0,0,0,702.3,108h2.4a2.88,2.88,0,0,0,2.7-2.1L735.74,5.1A2.61,2.61,0,0,0,733,1.5Z"/><path d="M839.09,1.5h-13.8a2.85,2.85,0,0,0-2.85,2.85v62h-.15L759.9,0h-3.75a2.82,2.82,0,0,0-2.85,2.7v101a3,3,0,0,0,2.85,2.85H769.8a2.85,2.85,0,0,0,2.85-2.85V39.15h.15L835.49,108h3.6a2.82,2.82,0,0,0,2.85-2.7V4.35A3,3,0,0,0,839.09,1.5Z"/></g></g></svg>
