<svg xmlns="http://www.w3.org/2000/svg" xmlns:xlink="http://www.w3.org/1999/xlink" viewBox="0 0 1145.69 166.1"><defs><style>.a{fill:none;}.b{fill:#a7a9ac;}.c{fill:url(#a);}.d{fill:#fff;}.e{fill:#434c5e;}</style><pattern id="a" width="41" height="34" patternTransform="matrix(1, 0, 0, -1, -52.02, 764.5)" patternUnits="userSpaceOnUse" viewBox="0 0 41 34"><rect class="a" width="41" height="34"/><rect class="a" width="41" height="34"/><path class="b" d="M18.2-7.47c.94-1,2-2.21,3.1-3.41s1.59-2.57,2.54-3.73c.71-.87,1.54-1.8,2.19-2.72a24.24,24.24,0,0,0,1.33-2.2,7.39,7.39,0,0,1,1.89-2.16,4.2,4.2,0,0,0,1.22-1.47,7.28,7.28,0,0,1,1.16-1.73,1.21,1.21,0,0,0,.21-.25c1.39-2.5,3.57-4.38,5.19-6.71,1.38-1.28,2.29-3,3.73-4.19a6.76,6.76,0,0,0,1.09-1.18c1.1-1.53,2.42-2.86,3.65-4.28a2.4,2.4,0,0,0,.47-.64,9.25,9.25,0,0,1,2-2.52c.85-1,1.58-2,2.36-3a9.65,9.65,0,0,1,.79-1,19,19,0,0,0,3-3.93c.46-.78,1.08-1.46,1.61-2.2.31-.44.57-.9.86-1.36a2.19,2.19,0,0,1,.34-.53c1.2-1,1.89-2.46,2.94-3.61.32-.35.61-.73.92-1.1.57-.71,1.13-1.43,1.71-2.12.87-1,1.22-2.44,2.1-3.46,1.19-1.37,2.4-2.73,3.56-4.13,1.4-1.69,2.75-3.42,4.13-5.13a14.91,14.91,0,0,1,1-1.22A67.75,67.75,0,0,0,78.19-83c1.24-1.54,2.53-3,3.74-4.61.59-.76,1.18-1.51,1.73-2.3.88-1.27,1.89-2.46,2.85-3.68,1.12-1.43,2.23-2.87,3.38-4.28a29.39,29.39,0,0,1,2.89-3.22,1.26,1.26,0,0,1,1-.34,2.81,2.81,0,0,1,.65.58,2.7,2.7,0,0,1-.24.76c-.95,1.62-2.3,2.92-3.35,4.46-.93,1.37-2,2.64-3.08,3.91a17.22,17.22,0,0,0-1.73,2.51,11.49,11.49,0,0,1-.91,1.32c-.45.59-1,1.14-1.4,1.75a14.62,14.62,0,0,1-1.72,2.12,9.77,9.77,0,0,0-.76,1c-.52.67-1.06,1.34-1.61,2-.34.41-.7.8-1.06,1.2l-2.38,2.61a8.4,8.4,0,0,0-.73.85,22,22,0,0,1-2.31,2.87c-1,1.1-1.93,2.3-2.87,3.47a56.42,56.42,0,0,1-4,4.59c-.46.45-.34,1.37-.72,1.89a64.13,64.13,0,0,1-5.39,6.37A18.93,18.93,0,0,0,57.81-54a2.36,2.36,0,0,1-.47.64,10.44,10.44,0,0,0-2,2.5c-.52.75-1.2,1.37-1.78,2.07A17.9,17.9,0,0,0,52.18-47a85.33,85.33,0,0,1-5.52,7.31,5.33,5.33,0,0,0-.61.74,23.57,23.57,0,0,1-2.85,3.67c-1.19,1.45-2.33,2.94-3.52,4.39-.67.83-1.37,1.64-2.11,2.41a33.19,33.19,0,0,0-4,5.24,12.88,12.88,0,0,1-1.56,2,29.71,29.71,0,0,0-2.78,3.74c-1.08,1.52-2.71,2.62-3.87,4.09s-2,3.09-3.14,4.48c-.69.82-1.42,1.6-2.08,2.45a25.36,25.36,0,0,0-1.74,2.5,15.86,15.86,0,0,1-3.7,4.4A1,1,0,0,1,13.36.36c-.36-.26-.1-.28.1-.71a5.76,5.76,0,0,1,.66-1.09,23.2,23.2,0,0,0,1.6-2.62C16.43-5.19,17.28-6.22,18.2-7.47Z"/><path class="b" d="M-22.8-7.47c.94-1,2-2.21,3.1-3.41s1.59-2.57,2.54-3.73c.71-.87,1.54-1.8,2.19-2.72a24.24,24.24,0,0,0,1.33-2.2,7.39,7.39,0,0,1,1.89-2.16,4.2,4.2,0,0,0,1.22-1.47,7.28,7.28,0,0,1,1.16-1.73,1.21,1.21,0,0,0,.21-.25c1.39-2.5,3.57-4.38,5.19-6.71,1.38-1.28,2.29-3,3.73-4.19A6.76,6.76,0,0,0,.85-37.22C2-38.75,3.27-40.08,4.49-41.5A2.24,2.24,0,0,0,5-42.14a9.25,9.25,0,0,1,2-2.52c.85-1,1.58-2,2.36-3a9.65,9.65,0,0,1,.79-1,19,19,0,0,0,3-3.93c.46-.78,1.08-1.46,1.61-2.2.31-.44.57-.9.86-1.36a2.19,2.19,0,0,1,.34-.53c1.2-1,1.89-2.46,2.94-3.61.32-.35.61-.73.92-1.1.57-.71,1.12-1.43,1.71-2.12.87-1,1.22-2.44,2.1-3.46,1.19-1.37,2.4-2.73,3.56-4.13,1.4-1.69,2.75-3.42,4.13-5.13a14.91,14.91,0,0,1,1-1.22A67.75,67.75,0,0,0,37.19-83c1.24-1.54,2.53-3,3.74-4.61.59-.76,1.17-1.51,1.73-2.3.88-1.27,1.89-2.46,2.85-3.68,1.12-1.43,2.23-2.87,3.38-4.28a28.4,28.4,0,0,1,2.89-3.22,1.24,1.24,0,0,1,1-.34,2.62,2.62,0,0,1,.65.58,2.4,2.4,0,0,1-.23.76c-1,1.62-2.3,2.92-3.35,4.46-.93,1.37-2,2.64-3.08,3.91a17.28,17.28,0,0,0-1.74,2.51,12.81,12.81,0,0,1-.9,1.32c-.46.59-1,1.14-1.41,1.75a13.92,13.92,0,0,1-1.71,2.12,9.77,9.77,0,0,0-.76,1c-.53.67-1.06,1.34-1.61,2-.34.41-.7.8-1.06,1.2l-2.38,2.61a8.4,8.4,0,0,0-.73.85,22,22,0,0,1-2.31,2.87c-1,1.1-1.93,2.3-2.87,3.47a56.42,56.42,0,0,1-4,4.59c-.46.45-.34,1.37-.72,1.89a64.13,64.13,0,0,1-5.39,6.37A18.93,18.93,0,0,0,16.81-54a2.36,2.36,0,0,1-.47.64,10.44,10.44,0,0,0-2,2.5c-.52.75-1.2,1.37-1.78,2.07A16.52,16.52,0,0,0,11.18-47a85.33,85.33,0,0,1-5.52,7.31,5.33,5.33,0,0,0-.61.74A23.57,23.57,0,0,1,2.2-35.28C1-33.83-.13-32.34-1.32-30.89c-.67.83-1.38,1.64-2.12,2.41a33.74,33.74,0,0,0-4,5.24,12.88,12.88,0,0,1-1.56,2,28.77,28.77,0,0,0-2.78,3.74c-1.08,1.52-2.71,2.62-3.87,4.09s-2,3.09-3.14,4.48c-.69.82-1.42,1.6-2.08,2.45a25.36,25.36,0,0,0-1.74,2.5,15.86,15.86,0,0,1-3.7,4.4A1,1,0,0,1-27.65.36c-.35-.26-.1-.28.11-.71a5.28,5.28,0,0,1,.66-1.09,23.2,23.2,0,0,0,1.6-2.62C-24.57-5.19-23.72-6.22-22.8-7.47Z"/><path class="b" d="M-63.8-7.47c.94-1,2-2.21,3.1-3.41s1.59-2.57,2.54-3.73c.71-.87,1.54-1.8,2.19-2.72a24.24,24.24,0,0,0,1.33-2.2,7.39,7.39,0,0,1,1.89-2.16,4.2,4.2,0,0,0,1.22-1.47,7.28,7.28,0,0,1,1.16-1.73,1.21,1.21,0,0,0,.21-.25c1.39-2.5,3.57-4.38,5.19-6.71,1.38-1.28,2.29-3,3.73-4.19a6.76,6.76,0,0,0,1.09-1.18c1.1-1.53,2.42-2.86,3.64-4.28a2.24,2.24,0,0,0,.48-.64,9.09,9.09,0,0,1,2-2.52c.84-1,1.57-2,2.35-3a9.65,9.65,0,0,1,.79-1,19,19,0,0,0,3-3.93c.46-.78,1.08-1.46,1.61-2.2.31-.44.57-.9.86-1.36a2.19,2.19,0,0,1,.34-.53c1.2-1,1.89-2.46,2.94-3.61.32-.35.61-.73.92-1.1.57-.71,1.13-1.43,1.71-2.12.87-1,1.22-2.44,2.1-3.46,1.19-1.37,2.4-2.73,3.56-4.13,1.4-1.69,2.75-3.42,4.13-5.13a14.91,14.91,0,0,1,1-1.22A67.75,67.75,0,0,0-3.81-83c1.24-1.54,2.53-3,3.74-4.61.59-.76,1.17-1.51,1.73-2.3.88-1.27,1.89-2.46,2.85-3.68,1.12-1.43,2.23-2.87,3.38-4.28a28.4,28.4,0,0,1,2.89-3.22,1.24,1.24,0,0,1,1-.34,2.62,2.62,0,0,1,.65.58,2.4,2.4,0,0,1-.23.76c-1,1.62-2.3,2.92-3.35,4.46C8-94.31,6.87-93,5.81-91.77a17.28,17.28,0,0,0-1.74,2.51,12.81,12.81,0,0,1-.9,1.32c-.46.59-1,1.14-1.41,1.75A13.92,13.92,0,0,1,.05-84.07a8.55,8.55,0,0,0-.76,1c-.53.67-1.06,1.34-1.61,2-.34.41-.7.8-1.06,1.2l-2.38,2.61a8.4,8.4,0,0,0-.73.85A22,22,0,0,1-8.8-73.51c-1,1.1-1.93,2.3-2.87,3.47a56.42,56.42,0,0,1-4,4.59c-.46.45-.34,1.37-.72,1.89a64.13,64.13,0,0,1-5.39,6.37A18.93,18.93,0,0,0-24.19-54a2.36,2.36,0,0,1-.47.64,10.2,10.2,0,0,0-2,2.5c-.52.75-1.2,1.37-1.79,2.07A17.79,17.79,0,0,0-29.82-47a85.33,85.33,0,0,1-5.52,7.31,5.33,5.33,0,0,0-.61.74,23,23,0,0,1-2.86,3.67c-1.18,1.45-2.32,2.94-3.51,4.39-.68.83-1.38,1.64-2.12,2.41a33.74,33.74,0,0,0-4,5.24,12.88,12.88,0,0,1-1.56,2,28.77,28.77,0,0,0-2.78,3.74c-1.08,1.52-2.71,2.62-3.87,4.09s-2,3.09-3.14,4.48c-.69.82-1.42,1.6-2.08,2.45a25.36,25.36,0,0,0-1.74,2.5,15.86,15.86,0,0,1-3.7,4.4A1,1,0,0,1-68.65.36c-.35-.26-.1-.28.11-.71a5.28,5.28,0,0,1,.66-1.09,23.2,23.2,0,0,0,1.6-2.62C-65.57-5.19-64.72-6.22-63.8-7.47Z"/><path class="b" d="M102.83-67.1c-1,1-2,2.19-3.11,3.39S98.15-61.14,97.2-60c-.71.87-2,1.29-2.62,2.21a22,22,0,0,0-1.31,2.2,7,7,0,0,1-1.9,2.16,4.17,4.17,0,0,0-1.22,1.46A6.78,6.78,0,0,1,89-50.22a1.57,1.57,0,0,0-.2.25c-1.37,2.51-3.58,4.38-5.18,6.7-1.39,1.27-2.29,3-3.74,4.17a6.76,6.76,0,0,0-1.09,1.18c-1.1,1.53-2.42,2.85-3.65,4.26a2.4,2.4,0,0,0-.47.64,8.56,8.56,0,0,1-2,2.51c-.85,1-1.57,2-2.35,3a9.65,9.65,0,0,1-.79,1,17.79,17.79,0,0,0-3,3.92c-.46.78-1.08,1.46-1.6,2.2-.31.44-.57.91-.85,1.36a1.93,1.93,0,0,1-.34.53c-1.21,1-1.88,2.46-2.93,3.6-.33.35-.62.73-.92,1.1-.57.7-1.13,1.42-1.71,2.12-.87,1-1.2,2.45-2.07,3.46-1.2,1.37-2.41,2.72-3.57,4.12-1.4,1.68-2.74,3.41-4.12,5.12a14.91,14.91,0,0,1-1,1.21,65.87,65.87,0,0,0-4.86,5.55c-1.24,1.53-2.52,3-3.73,4.6-.59.76-1.18,1.5-1.72,2.29-.88,1.27-1.89,2.46-2.85,3.68C33.1,19.8,32,21.24,30.85,22.65A28.3,28.3,0,0,1,28,25.85a1.27,1.27,0,0,1-1.08.32,3,3,0,0,1-.68-.6,2.37,2.37,0,0,1,.22-.77c.94-1.63,2.29-2.91,3.34-4.46a47.81,47.81,0,0,1,3.07-3.9,15.72,15.72,0,0,0,1.72-2.51,11,11,0,0,1,.9-1.32c.46-.59,1-1.14,1.41-1.75a12.34,12.34,0,0,1,1.71-2.11,8.47,8.47,0,0,0,.75-1c.53-.67,1.06-1.34,1.61-2,.34-.41.7-.81,1.06-1.2l2.39-2.6a7.2,7.2,0,0,0,.72-.85,21.17,21.17,0,0,1,2.32-2.86c1-1.09,1.92-2.29,2.86-3.46a54.41,54.41,0,0,1,4-4.57c.45-.45.31-1.39.68-1.91a62.87,62.87,0,0,1,5.4-6.35,17.92,17.92,0,0,0,2.38-3.21,2,2,0,0,1,.47-.64,10,10,0,0,0,2-2.5c.51-.74,1.19-1.36,1.78-2.06a19.39,19.39,0,0,0,1.39-1.75,80,80,0,0,1,5.49-7.3,4.7,4.7,0,0,0,.61-.74,22.12,22.12,0,0,1,2.85-3.67c1.18-1.45,2.52-2.63,3.7-4.08.68-.82,1.38-1.63,2.13-2.4a31.54,31.54,0,0,0,4-5.23,11.85,11.85,0,0,1,1.55-2,28.59,28.59,0,0,0,2.77-3.73c1.08-1.53,2.73-2.61,3.88-4.08s1.94-3.09,3.12-4.47c.69-.82,1.43-1.6,2.08-2.44a23.67,23.67,0,0,0,1.73-2.5,14.78,14.78,0,0,1,3.7-4.39c.39-.31.69-.56,1.21-.17a1,1,0,0,1,.35,1.22,5.1,5.1,0,0,1-.66,1.1,23,23,0,0,0-1.57,2.62C104.6-69.38,103.74-68.35,102.83-67.1Z"/><path class="b" d="M18.2,26.53c.94-1,2-2.21,3.1-3.41s1.59-2.57,2.54-3.73c.71-.87,1.54-1.8,2.19-2.72a24.24,24.24,0,0,0,1.33-2.2,7.39,7.39,0,0,1,1.89-2.16,4.2,4.2,0,0,0,1.22-1.47,7.28,7.28,0,0,1,1.16-1.73,1.21,1.21,0,0,0,.21-.25c1.39-2.5,3.57-4.38,5.19-6.71C38.41.87,39.32-.81,40.76-2a6.76,6.76,0,0,0,1.09-1.18C43-4.75,44.27-6.08,45.5-7.5A2.4,2.4,0,0,0,46-8.14a9.25,9.25,0,0,1,2-2.52c.85-.95,1.58-2,2.36-3a9.65,9.65,0,0,1,.79-1,19,19,0,0,0,3-3.93c.46-.78,1.08-1.46,1.61-2.2.31-.44.57-.9.86-1.36a2.19,2.19,0,0,1,.34-.53c1.2-1,1.89-2.46,2.94-3.61.32-.35.61-.73.92-1.1.57-.71,1.13-1.43,1.71-2.12.87-1,1.22-2.45,2.1-3.46,1.19-1.37,2.4-2.73,3.56-4.13,1.4-1.69,2.75-3.42,4.13-5.13a14.91,14.91,0,0,1,1-1.22A67.75,67.75,0,0,0,78.19-49c1.24-1.54,2.53-3.05,3.74-4.61.59-.76,1.18-1.51,1.73-2.3.88-1.27,1.89-2.46,2.85-3.68,1.12-1.43,2.23-2.87,3.38-4.28a29.39,29.39,0,0,1,2.89-3.22,1.26,1.26,0,0,1,1-.34,2.81,2.81,0,0,1,.65.58,2.7,2.7,0,0,1-.24.76c-.95,1.62-2.3,2.92-3.35,4.46-.93,1.37-2,2.64-3.08,3.91a17.22,17.22,0,0,0-1.73,2.51,11.49,11.49,0,0,1-.91,1.32c-.45.59-1,1.14-1.4,1.75a14.62,14.62,0,0,1-1.72,2.12,8.84,8.84,0,0,0-.76,1c-.52.67-1.06,1.34-1.61,2-.34.41-.7.8-1.06,1.2l-2.38,2.61a8.4,8.4,0,0,0-.73.85,22,22,0,0,1-2.31,2.87c-1,1.1-1.93,2.3-2.87,3.47a56.42,56.42,0,0,1-4,4.59c-.46.45-.34,1.37-.72,1.89a64.13,64.13,0,0,1-5.39,6.37A18.93,18.93,0,0,0,57.81-20a2.36,2.36,0,0,1-.47.64,10.44,10.44,0,0,0-2,2.5c-.52.74-1.2,1.37-1.78,2.07A17.9,17.9,0,0,0,52.18-13a86.92,86.92,0,0,1-5.52,7.31,4.8,4.8,0,0,0-.61.74A23.57,23.57,0,0,1,43.2-1.28C42,.17,40.87,1.66,39.68,3.11c-.67.82-1.37,1.64-2.11,2.41a33.19,33.19,0,0,0-4,5.24,12.88,12.88,0,0,1-1.56,2,30.35,30.35,0,0,0-2.78,3.73c-1.08,1.53-2.71,2.63-3.87,4.1s-2,3.09-3.14,4.48c-.69.82-1.42,1.6-2.08,2.45a25.36,25.36,0,0,0-1.74,2.5,16,16,0,0,1-3.7,4.4,1,1,0,0,1-1.36-.09c-.36-.27-.1-.28.1-.71a5.76,5.76,0,0,1,.66-1.09,23.2,23.2,0,0,0,1.6-2.62C16.43,28.81,17.28,27.78,18.2,26.53Z"/><path class="b" d="M61.83-67.1c-.95,1-2,2.19-3.11,3.39S57.15-61.14,56.2-60c-.71.87-2,1.29-2.62,2.21a22,22,0,0,0-1.31,2.2,7,7,0,0,1-1.9,2.16,4.17,4.17,0,0,0-1.22,1.46A6.78,6.78,0,0,1,48-50.22a1.57,1.57,0,0,0-.2.25c-1.37,2.51-3.57,4.38-5.18,6.7-1.39,1.27-2.29,3-3.74,4.17a6.76,6.76,0,0,0-1.09,1.18c-1.09,1.53-2.42,2.85-3.65,4.26a2.4,2.4,0,0,0-.47.64,8.4,8.4,0,0,1-2,2.51c-.85,1-1.57,2-2.35,3a9.65,9.65,0,0,1-.79,1,17.79,17.79,0,0,0-3,3.92c-.46.78-1.08,1.46-1.6,2.2-.3.44-.57.91-.85,1.36a1.93,1.93,0,0,1-.34.53c-1.21,1-1.88,2.46-2.93,3.6-.32.35-.62.73-.92,1.1-.57.7-1.12,1.42-1.71,2.12-.87,1-1.19,2.45-2.07,3.46-1.19,1.37-2.41,2.72-3.56,4.12C10.16-2.39,8.81-.66,7.43,1.05a14.78,14.78,0,0,1-1,1.21A62.46,62.46,0,0,0,1.53,7.81c-1.24,1.53-2.53,3-3.74,4.6-.58.76-1.17,1.5-1.72,2.29-.88,1.27-1.89,2.46-2.85,3.68C-7.9,19.8-9,21.24-10.15,22.65A26.51,26.51,0,0,1-13,25.85a1.25,1.25,0,0,1-1.07.32,2.9,2.9,0,0,1-.69-.6,2.37,2.37,0,0,1,.22-.77c.94-1.63,2.3-2.91,3.34-4.46.93-1.37,2-2.63,3.07-3.9a16.47,16.47,0,0,0,1.73-2.51,9.84,9.84,0,0,1,.89-1.32c.46-.59,1-1.14,1.41-1.75A13.37,13.37,0,0,1-2.43,8.75a8.47,8.47,0,0,0,.75-1c.53-.67,1.07-1.34,1.61-2C.27,5.32.64,4.92,1,4.53l2.38-2.6a7.29,7.29,0,0,0,.73-.85A20.36,20.36,0,0,1,6.42-1.78c1-1.09,1.93-2.29,2.86-3.46a58.25,58.25,0,0,1,4-4.57c.46-.45.32-1.39.69-1.91a61.51,61.51,0,0,1,5.39-6.35,17.92,17.92,0,0,0,2.38-3.21,2.21,2.21,0,0,1,.47-.64,10,10,0,0,0,2-2.5c.51-.74,1.2-1.36,1.78-2.06a19.39,19.39,0,0,0,1.39-1.75,80,80,0,0,1,5.49-7.3,4.7,4.7,0,0,0,.61-.74,22.12,22.12,0,0,1,2.85-3.67c1.19-1.45,2.52-2.63,3.71-4.08.67-.82,1.37-1.63,2.12-2.4a31.54,31.54,0,0,0,4-5.23,11.41,11.41,0,0,1,1.56-2,29.45,29.45,0,0,0,2.76-3.73c1.08-1.53,2.73-2.61,3.88-4.08s1.95-3.09,3.12-4.47c.69-.82,1.43-1.6,2.08-2.44a23.67,23.67,0,0,0,1.73-2.5A14.78,14.78,0,0,1,65-75.29c.39-.31.69-.56,1.21-.17a1,1,0,0,1,.35,1.22,5.1,5.1,0,0,1-.66,1.1,23,23,0,0,0-1.57,2.62C63.6-69.38,62.74-68.35,61.83-67.1Z"/><path class="b" d="M-22.8,26.53c.94-1,2-2.21,3.1-3.41s1.59-2.57,2.54-3.73c.71-.87,1.54-1.8,2.19-2.72a24.24,24.24,0,0,0,1.33-2.2,7.39,7.39,0,0,1,1.89-2.16,4.2,4.2,0,0,0,1.22-1.47A7.28,7.28,0,0,1-9.37,9.11a1.21,1.21,0,0,0,.21-.25C-7.77,6.36-5.59,4.48-4,2.15-2.59.87-1.68-.81-.24-2A6.76,6.76,0,0,0,.85-3.22C2-4.75,3.27-6.08,4.49-7.5A2.24,2.24,0,0,0,5-8.14a9.25,9.25,0,0,1,2-2.52c.85-.95,1.58-2,2.36-3a9.65,9.65,0,0,1,.79-1,19,19,0,0,0,3-3.93c.46-.78,1.08-1.46,1.61-2.2.31-.44.57-.9.86-1.36a2.19,2.19,0,0,1,.34-.53c1.2-1,1.89-2.46,2.94-3.61.32-.35.61-.73.92-1.1.57-.71,1.12-1.43,1.71-2.12.87-1,1.22-2.45,2.1-3.46,1.19-1.37,2.4-2.73,3.56-4.13,1.4-1.69,2.75-3.42,4.13-5.13a14.91,14.91,0,0,1,1-1.22A67.75,67.75,0,0,0,37.19-49c1.24-1.54,2.53-3.05,3.74-4.61.59-.76,1.17-1.51,1.73-2.3.88-1.27,1.89-2.46,2.85-3.68,1.12-1.43,2.23-2.87,3.38-4.28a28.4,28.4,0,0,1,2.89-3.22,1.24,1.24,0,0,1,1-.34,2.62,2.62,0,0,1,.65.58,2.4,2.4,0,0,1-.23.76c-1,1.62-2.3,2.92-3.35,4.46-.93,1.37-2,2.64-3.08,3.91a17.28,17.28,0,0,0-1.74,2.51,12.81,12.81,0,0,1-.9,1.32c-.46.59-1,1.14-1.41,1.75a13.92,13.92,0,0,1-1.71,2.12,8.84,8.84,0,0,0-.76,1c-.53.67-1.06,1.34-1.61,2-.34.41-.7.8-1.06,1.2l-2.38,2.61a8.4,8.4,0,0,0-.73.85,22,22,0,0,1-2.31,2.87c-1,1.1-1.93,2.3-2.87,3.47a56.42,56.42,0,0,1-4,4.59c-.46.45-.34,1.37-.72,1.89a64.13,64.13,0,0,1-5.39,6.37A18.93,18.93,0,0,0,16.81-20a2.36,2.36,0,0,1-.47.64,10.44,10.44,0,0,0-2,2.5c-.52.74-1.2,1.37-1.78,2.07A16.52,16.52,0,0,0,11.18-13,86.92,86.92,0,0,1,5.66-5.69a4.8,4.8,0,0,0-.61.74A23.57,23.57,0,0,1,2.2-1.28C1,.17-.13,1.66-1.32,3.11-2,3.93-2.7,4.75-3.44,5.52a33.74,33.74,0,0,0-4,5.24,12.88,12.88,0,0,1-1.56,2,29.36,29.36,0,0,0-2.78,3.73c-1.08,1.53-2.71,2.63-3.87,4.1s-2,3.09-3.14,4.48c-.69.82-1.42,1.6-2.08,2.45a25.36,25.36,0,0,0-1.74,2.5,16,16,0,0,1-3.7,4.4,1,1,0,0,1-1.37-.09c-.35-.27-.1-.28.11-.71a5.28,5.28,0,0,1,.66-1.09,23.2,23.2,0,0,0,1.6-2.62C-24.57,28.81-23.72,27.78-22.8,26.53Z"/><path class="b" d="M20.83-67.1c-.95,1-2,2.19-3.11,3.39S16.15-61.14,15.2-60c-.71.87-2,1.29-2.62,2.21a22,22,0,0,0-1.31,2.2,7,7,0,0,1-1.9,2.16,4.17,4.17,0,0,0-1.22,1.46A6.78,6.78,0,0,1,7-50.22a1.57,1.57,0,0,0-.2.25c-1.37,2.51-3.58,4.38-5.18,6.7C.23-42-.67-40.31-2.12-39.1a6.76,6.76,0,0,0-1.09,1.18c-1.1,1.53-2.42,2.85-3.65,4.26a2.4,2.4,0,0,0-.47.64,8.56,8.56,0,0,1-2,2.51c-.85,1-1.57,2-2.35,3a9.65,9.65,0,0,1-.79,1,17.79,17.79,0,0,0-3,3.92c-.46.78-1.08,1.46-1.6,2.2-.31.44-.57.91-.85,1.36a1.93,1.93,0,0,1-.34.53c-1.21,1-1.88,2.46-2.93,3.6-.33.35-.62.73-.92,1.1-.57.7-1.13,1.42-1.71,2.12-.87,1-1.2,2.45-2.07,3.46-1.19,1.37-2.41,2.72-3.57,4.12-1.4,1.68-2.74,3.41-4.12,5.12a14.78,14.78,0,0,1-1,1.21,64.23,64.23,0,0,0-4.87,5.55c-1.24,1.53-2.52,3-3.73,4.6-.59.76-1.17,1.5-1.72,2.29-.88,1.27-1.89,2.46-2.85,3.68-1.12,1.42-2.22,2.86-3.37,4.27A27.38,27.38,0,0,1-54,25.85a1.27,1.27,0,0,1-1.08.32,3,3,0,0,1-.68-.6,2.37,2.37,0,0,1,.22-.77c.94-1.63,2.3-2.91,3.34-4.46.93-1.37,2-2.63,3.07-3.9a16.47,16.47,0,0,0,1.73-2.51,9.84,9.84,0,0,1,.89-1.32c.46-.59,1-1.14,1.41-1.75a12.84,12.84,0,0,1,1.71-2.11,8.47,8.47,0,0,0,.75-1c.53-.67,1.06-1.34,1.61-2,.34-.41.7-.81,1.06-1.2l2.39-2.6a7.2,7.2,0,0,0,.72-.85,21.17,21.17,0,0,1,2.32-2.86c1-1.09,1.93-2.29,2.86-3.46a54.41,54.41,0,0,1,4-4.57c.46-.45.31-1.39.69-1.91a61.51,61.51,0,0,1,5.39-6.35,17.92,17.92,0,0,0,2.38-3.21,2.21,2.21,0,0,1,.47-.64,10,10,0,0,0,2-2.5c.51-.74,1.19-1.36,1.78-2.06a19.39,19.39,0,0,0,1.39-1.75,80,80,0,0,1,5.49-7.3,4.7,4.7,0,0,0,.61-.74,22.12,22.12,0,0,1,2.85-3.67c1.18-1.45,2.52-2.63,3.7-4.08.68-.82,1.38-1.63,2.13-2.4a31.54,31.54,0,0,0,4-5.23,11.85,11.85,0,0,1,1.55-2,28.59,28.59,0,0,0,2.77-3.73c1.08-1.53,2.73-2.61,3.88-4.08s1.94-3.09,3.12-4.47c.69-.82,1.43-1.6,2.08-2.44a23.67,23.67,0,0,0,1.73-2.5A14.78,14.78,0,0,1,24-75.29c.39-.31.69-.56,1.21-.17a1,1,0,0,1,.35,1.22,5.1,5.1,0,0,1-.66,1.1,23,23,0,0,0-1.57,2.62C22.6-69.38,21.74-68.35,20.83-67.1Z"/><path class="b" d="M-63.8,26.53c.94-1,2-2.21,3.1-3.41s1.59-2.57,2.54-3.73c.71-.87,1.54-1.8,2.19-2.72a24.24,24.24,0,0,0,1.33-2.2,7.39,7.39,0,0,1,1.89-2.16,4.2,4.2,0,0,0,1.22-1.47,7.28,7.28,0,0,1,1.16-1.73,1.21,1.21,0,0,0,.21-.25c1.39-2.5,3.57-4.38,5.19-6.71,1.38-1.28,2.29-3,3.73-4.19a6.76,6.76,0,0,0,1.09-1.18c1.1-1.53,2.42-2.86,3.64-4.28A2.24,2.24,0,0,0-36-8.14a9.09,9.09,0,0,1,2-2.52c.84-.95,1.57-2,2.35-3a9.65,9.65,0,0,1,.79-1,19,19,0,0,0,3-3.93c.46-.78,1.08-1.46,1.61-2.2.31-.44.57-.9.86-1.36a2.19,2.19,0,0,1,.34-.53c1.2-1,1.89-2.46,2.94-3.61.32-.35.61-.73.92-1.1.57-.71,1.13-1.43,1.71-2.12.87-1,1.22-2.45,2.1-3.46,1.19-1.37,2.4-2.73,3.56-4.13,1.4-1.69,2.75-3.42,4.13-5.13a14.91,14.91,0,0,1,1-1.22A67.75,67.75,0,0,0-3.81-49c1.24-1.54,2.53-3.05,3.74-4.61.59-.76,1.17-1.51,1.73-2.3.88-1.27,1.89-2.46,2.85-3.68,1.12-1.43,2.23-2.87,3.38-4.28a28.4,28.4,0,0,1,2.89-3.22,1.24,1.24,0,0,1,1-.34,2.62,2.62,0,0,1,.65.58,2.4,2.4,0,0,1-.23.76c-1,1.62-2.3,2.92-3.35,4.46C8-60.31,6.87-59,5.81-57.77a17.28,17.28,0,0,0-1.74,2.51,12.81,12.81,0,0,1-.9,1.32c-.46.59-1,1.14-1.41,1.75A13.92,13.92,0,0,1,.05-50.07a7.82,7.82,0,0,0-.76,1c-.53.67-1.06,1.34-1.61,2-.34.41-.7.8-1.06,1.2l-2.38,2.61a8.4,8.4,0,0,0-.73.85A22,22,0,0,1-8.8-39.51c-1,1.1-1.93,2.3-2.87,3.47a56.42,56.42,0,0,1-4,4.59c-.46.45-.34,1.37-.72,1.89a64.13,64.13,0,0,1-5.39,6.37A18.93,18.93,0,0,0-24.19-20a2.36,2.36,0,0,1-.47.64,10.2,10.2,0,0,0-2,2.5c-.52.74-1.2,1.37-1.79,2.07A17.79,17.79,0,0,0-29.82-13a86.92,86.92,0,0,1-5.52,7.31,4.8,4.8,0,0,0-.61.74,23,23,0,0,1-2.86,3.67C-40,.17-41.13,1.66-42.32,3.11c-.68.82-1.38,1.64-2.12,2.41a33.74,33.74,0,0,0-4,5.24,12.88,12.88,0,0,1-1.56,2,29.36,29.36,0,0,0-2.78,3.73c-1.08,1.53-2.71,2.63-3.87,4.1s-2,3.09-3.14,4.48c-.69.82-1.42,1.6-2.08,2.45a25.36,25.36,0,0,0-1.74,2.5,16,16,0,0,1-3.7,4.4,1,1,0,0,1-1.37-.09c-.35-.27-.1-.28.11-.71a5.28,5.28,0,0,1,.66-1.09,23.2,23.2,0,0,0,1.6-2.62C-65.57,28.81-64.72,27.78-63.8,26.53Z"/><path class="b" d="M102.83-33.1c-1,1-2,2.19-3.11,3.39S98.15-27.14,97.2-26c-.71.87-2,1.29-2.62,2.21a22,22,0,0,0-1.31,2.2,7,7,0,0,1-1.9,2.16,4.17,4.17,0,0,0-1.22,1.46A6.61,6.61,0,0,1,89-16.22a1.57,1.57,0,0,0-.2.25c-1.37,2.51-3.58,4.38-5.18,6.7-1.39,1.27-2.29,3-3.74,4.17a6.76,6.76,0,0,0-1.09,1.18c-1.1,1.53-2.42,2.85-3.65,4.26a2.4,2.4,0,0,0-.47.64,8.56,8.56,0,0,1-2,2.51c-.85,1-1.57,2-2.35,3a9.65,9.65,0,0,1-.79,1,17.79,17.79,0,0,0-3,3.92c-.46.78-1.08,1.46-1.6,2.2-.31.44-.57.91-.85,1.36a1.93,1.93,0,0,1-.34.53c-1.21,1-1.88,2.46-2.93,3.6-.33.35-.62.73-.92,1.1-.57.7-1.13,1.42-1.71,2.12-.87,1-1.2,2.45-2.07,3.46-1.2,1.37-2.41,2.72-3.57,4.12-1.4,1.68-2.74,3.41-4.12,5.12a14.91,14.91,0,0,1-1,1.21,65.87,65.87,0,0,0-4.86,5.55c-1.24,1.53-2.52,3-3.73,4.6-.59.76-1.18,1.5-1.72,2.29-.88,1.27-1.89,2.46-2.85,3.68C33.1,53.8,32,55.24,30.85,56.65A28.3,28.3,0,0,1,28,59.85a1.27,1.27,0,0,1-1.08.32,3,3,0,0,1-.68-.6,2.37,2.37,0,0,1,.22-.77c.94-1.63,2.29-2.91,3.34-4.46a47.81,47.81,0,0,1,3.07-3.9,15.72,15.72,0,0,0,1.72-2.51,11,11,0,0,1,.9-1.32c.46-.59,1-1.14,1.41-1.75a12.34,12.34,0,0,1,1.71-2.11,8.47,8.47,0,0,0,.75-1c.53-.67,1.06-1.34,1.61-2,.34-.41.7-.81,1.06-1.2l2.39-2.6a7.2,7.2,0,0,0,.72-.85,21.17,21.17,0,0,1,2.32-2.86c1-1.09,1.92-2.29,2.86-3.46a54.41,54.41,0,0,1,4-4.57c.45-.45.31-1.39.68-1.91a62.87,62.87,0,0,1,5.4-6.35,17.92,17.92,0,0,0,2.38-3.21,2,2,0,0,1,.47-.64,10,10,0,0,0,2-2.5c.51-.74,1.19-1.36,1.78-2.06A19.39,19.39,0,0,0,68.4,5.77a80,80,0,0,1,5.49-7.3,4.7,4.7,0,0,0,.61-.74,22.12,22.12,0,0,1,2.85-3.67c1.18-1.45,2.52-2.63,3.7-4.08.68-.82,1.38-1.63,2.13-2.4a31.54,31.54,0,0,0,4-5.23,11.85,11.85,0,0,1,1.55-2,28.59,28.59,0,0,0,2.77-3.73c1.08-1.53,2.73-2.61,3.88-4.08s1.94-3.09,3.12-4.48c.69-.81,1.43-1.59,2.08-2.43a22.81,22.81,0,0,0,1.73-2.51,14.87,14.87,0,0,1,3.7-4.38c.39-.31.69-.56,1.21-.17a1,1,0,0,1,.35,1.22,5.1,5.1,0,0,1-.66,1.1,23,23,0,0,0-1.57,2.62C104.6-35.38,103.74-34.35,102.83-33.1Z"/><path class="b" d="M18.2,60.53c.94-1,2-2.21,3.1-3.41s1.59-2.57,2.54-3.73c.71-.87,1.54-1.8,2.19-2.72a24.24,24.24,0,0,0,1.33-2.2,7.39,7.39,0,0,1,1.89-2.16,4.2,4.2,0,0,0,1.22-1.47,7.28,7.28,0,0,1,1.16-1.73,1.21,1.21,0,0,0,.21-.25c1.39-2.5,3.57-4.38,5.19-6.71,1.38-1.28,2.29-3,3.73-4.19a6.76,6.76,0,0,0,1.09-1.18c1.1-1.53,2.42-2.86,3.65-4.28a2.4,2.4,0,0,0,.47-.64,9.25,9.25,0,0,1,2-2.52c.85-.95,1.58-2,2.36-3a9.65,9.65,0,0,1,.79-1,19,19,0,0,0,3-3.93c.46-.78,1.08-1.46,1.61-2.2.31-.44.57-.9.86-1.36a2.19,2.19,0,0,1,.34-.53c1.2-1,1.89-2.46,2.94-3.61.32-.35.61-.73.92-1.1.57-.71,1.13-1.43,1.71-2.12.87-1,1.22-2.45,2.1-3.46C65.79-.37,67-1.73,68.16-3.13c1.4-1.69,2.75-3.42,4.13-5.13a14.91,14.91,0,0,1,1-1.22A67.75,67.75,0,0,0,78.19-15c1.24-1.54,2.53-3.05,3.74-4.61.59-.76,1.18-1.51,1.73-2.3.88-1.27,1.89-2.46,2.85-3.68,1.12-1.43,2.23-2.87,3.38-4.28a29.39,29.39,0,0,1,2.89-3.22,1.26,1.26,0,0,1,1-.34,2.81,2.81,0,0,1,.65.58,2.7,2.7,0,0,1-.24.76c-.95,1.62-2.3,2.92-3.35,4.46-.93,1.37-2,2.64-3.08,3.91a17.22,17.22,0,0,0-1.73,2.51,11.49,11.49,0,0,1-.91,1.32c-.45.59-1,1.14-1.4,1.75a14.62,14.62,0,0,1-1.72,2.12,8.84,8.84,0,0,0-.76,1c-.52.67-1.06,1.34-1.61,2-.34.41-.7.8-1.06,1.2L76.24-9.23a8.4,8.4,0,0,0-.73.85A22,22,0,0,1,73.2-5.51c-1,1.1-1.93,2.3-2.87,3.47a56.42,56.42,0,0,1-4,4.59c-.46.45-.34,1.37-.72,1.89a64.13,64.13,0,0,1-5.39,6.37A18.93,18.93,0,0,0,57.81,14a2.52,2.52,0,0,1-.47.64,10.44,10.44,0,0,0-2,2.5c-.52.74-1.2,1.37-1.78,2.07A16.79,16.79,0,0,0,52.18,21a86.92,86.92,0,0,1-5.52,7.31,4.8,4.8,0,0,0-.61.74,23.57,23.57,0,0,1-2.85,3.67c-1.19,1.45-2.33,2.94-3.52,4.39-.67.82-1.37,1.64-2.11,2.41a33.19,33.19,0,0,0-4,5.24,12.88,12.88,0,0,1-1.56,2,30.35,30.35,0,0,0-2.78,3.73c-1.08,1.53-2.71,2.63-3.87,4.1s-2,3.09-3.14,4.48c-.69.82-1.42,1.6-2.08,2.44a26.74,26.74,0,0,0-1.74,2.51,16,16,0,0,1-3.7,4.4,1.06,1.06,0,0,1-1.36-.09c-.36-.27-.1-.28.1-.71a5.46,5.46,0,0,1,.66-1.09,24.12,24.12,0,0,0,1.6-2.62C16.43,62.81,17.28,61.78,18.2,60.53Z"/><path class="b" d="M61.83-33.1c-.95,1-2,2.19-3.11,3.39S57.15-27.14,56.2-26c-.71.87-2,1.29-2.62,2.21a22,22,0,0,0-1.31,2.2,7,7,0,0,1-1.9,2.16,4.17,4.17,0,0,0-1.22,1.46A6.61,6.61,0,0,1,48-16.22a1.57,1.57,0,0,0-.2.25c-1.37,2.51-3.57,4.38-5.18,6.7-1.39,1.27-2.29,3-3.74,4.17a6.76,6.76,0,0,0-1.09,1.18C36.7-2.39,35.37-1.07,34.14.34a2.4,2.4,0,0,0-.47.64,8.4,8.4,0,0,1-2,2.51c-.85,1-1.57,2-2.35,3a9.65,9.65,0,0,1-.79,1,17.79,17.79,0,0,0-3,3.92c-.46.78-1.08,1.46-1.6,2.2-.3.44-.57.91-.85,1.36a1.93,1.93,0,0,1-.34.53c-1.21,1-1.88,2.46-2.93,3.6-.32.35-.62.73-.92,1.1-.57.7-1.12,1.42-1.71,2.12-.87,1-1.19,2.45-2.07,3.46-1.19,1.37-2.41,2.72-3.56,4.12-1.4,1.68-2.75,3.41-4.13,5.12a14.78,14.78,0,0,1-1,1.21,62.46,62.46,0,0,0-4.86,5.55c-1.24,1.53-2.53,3-3.74,4.6-.58.76-1.17,1.5-1.72,2.29-.88,1.27-1.89,2.46-2.85,3.68C-7.9,53.8-9,55.24-10.15,56.65A26.51,26.51,0,0,1-13,59.85a1.25,1.25,0,0,1-1.07.32,2.9,2.9,0,0,1-.69-.6,2.37,2.37,0,0,1,.22-.77c.94-1.63,2.3-2.91,3.34-4.46.93-1.37,2-2.63,3.07-3.9a16.47,16.47,0,0,0,1.73-2.51,9.84,9.84,0,0,1,.89-1.32c.46-.59,1-1.14,1.41-1.75a13.37,13.37,0,0,1,1.71-2.11,8.47,8.47,0,0,0,.75-1c.53-.67,1.07-1.34,1.61-2,.34-.41.71-.81,1.07-1.2l2.38-2.6a7.29,7.29,0,0,0,.73-.85,20.36,20.36,0,0,1,2.31-2.86c1-1.09,1.93-2.29,2.86-3.46a58.25,58.25,0,0,1,4-4.57c.46-.45.32-1.39.69-1.91a61.51,61.51,0,0,1,5.39-6.35,17.92,17.92,0,0,0,2.38-3.21,2.21,2.21,0,0,1,.47-.64,10,10,0,0,0,2-2.5c.51-.74,1.2-1.36,1.78-2.06A19.39,19.39,0,0,0,27.4,5.77a80,80,0,0,1,5.49-7.3,4.7,4.7,0,0,0,.61-.74,22.12,22.12,0,0,1,2.85-3.67c1.19-1.45,2.52-2.63,3.71-4.08.67-.82,1.37-1.63,2.12-2.4a31.54,31.54,0,0,0,4-5.23,11.41,11.41,0,0,1,1.56-2,29.45,29.45,0,0,0,2.76-3.73c1.08-1.53,2.73-2.61,3.88-4.08s1.95-3.09,3.12-4.48c.69-.81,1.43-1.59,2.08-2.43a22.81,22.81,0,0,0,1.73-2.51A14.87,14.87,0,0,1,65-41.29c.39-.31.69-.56,1.21-.17a1,1,0,0,1,.35,1.22,5.1,5.1,0,0,1-.66,1.1,23,23,0,0,0-1.57,2.62C63.6-35.38,62.74-34.35,61.83-33.1Z"/><path class="b" d="M-22.8,60.53c.94-1,2-2.21,3.1-3.41s1.59-2.57,2.54-3.73c.71-.87,1.54-1.8,2.19-2.72a24.24,24.24,0,0,0,1.33-2.2,7.39,7.39,0,0,1,1.89-2.16,4.2,4.2,0,0,0,1.22-1.47,7.28,7.28,0,0,1,1.16-1.73,1.21,1.21,0,0,0,.21-.25c1.39-2.5,3.57-4.38,5.19-6.71,1.38-1.28,2.29-3,3.73-4.19A6.76,6.76,0,0,0,.85,30.78C2,29.25,3.27,27.92,4.49,26.5A2.24,2.24,0,0,0,5,25.86a9.25,9.25,0,0,1,2-2.52c.85-.95,1.58-2,2.36-3a9.65,9.65,0,0,1,.79-1,19,19,0,0,0,3-3.93c.46-.78,1.08-1.46,1.61-2.2.31-.44.57-.9.86-1.36a2.19,2.19,0,0,1,.34-.53c1.2-1,1.89-2.46,2.94-3.61.32-.35.61-.73.92-1.1.57-.71,1.12-1.43,1.71-2.12.87-1,1.22-2.45,2.1-3.46C24.79-.37,26-1.73,27.16-3.13c1.4-1.69,2.75-3.42,4.13-5.13a14.91,14.91,0,0,1,1-1.22A67.75,67.75,0,0,0,37.19-15c1.24-1.54,2.53-3.05,3.74-4.61.59-.76,1.17-1.51,1.73-2.3.88-1.27,1.89-2.46,2.85-3.68,1.12-1.43,2.23-2.87,3.38-4.28a28.4,28.4,0,0,1,2.89-3.22,1.24,1.24,0,0,1,1-.34,2.62,2.62,0,0,1,.65.58,2.4,2.4,0,0,1-.23.76c-1,1.62-2.3,2.92-3.35,4.46-.93,1.37-2,2.64-3.08,3.91a17.28,17.28,0,0,0-1.74,2.51,12.81,12.81,0,0,1-.9,1.32c-.46.59-1,1.14-1.41,1.75a13.92,13.92,0,0,1-1.71,2.12,8.84,8.84,0,0,0-.76,1c-.53.67-1.06,1.34-1.61,2-.34.41-.7.8-1.06,1.2L35.24-9.23a8.4,8.4,0,0,0-.73.85A22,22,0,0,1,32.2-5.51c-1,1.1-1.93,2.3-2.87,3.47a56.42,56.42,0,0,1-4,4.59c-.46.45-.34,1.37-.72,1.89a64.13,64.13,0,0,1-5.39,6.37A18.93,18.93,0,0,0,16.81,14a2.52,2.52,0,0,1-.47.64,10.44,10.44,0,0,0-2,2.5c-.52.74-1.2,1.37-1.78,2.07A15.57,15.57,0,0,0,11.18,21a86.92,86.92,0,0,1-5.52,7.31,4.8,4.8,0,0,0-.61.74A23.57,23.57,0,0,1,2.2,32.72C1,34.17-.13,35.66-1.32,37.11c-.67.82-1.38,1.64-2.12,2.41a33.74,33.74,0,0,0-4,5.24,12.88,12.88,0,0,1-1.56,2,29.36,29.36,0,0,0-2.78,3.73c-1.08,1.53-2.71,2.63-3.87,4.1s-2,3.09-3.14,4.48c-.69.82-1.42,1.6-2.08,2.44a26.74,26.74,0,0,0-1.74,2.51,16,16,0,0,1-3.7,4.4,1.07,1.07,0,0,1-1.37-.09c-.35-.27-.1-.28.11-.71a5,5,0,0,1,.66-1.09,24.12,24.12,0,0,0,1.6-2.62C-24.57,62.81-23.72,61.78-22.8,60.53Z"/><path class="b" d="M20.83-33.1c-.95,1-2,2.19-3.11,3.39S16.15-27.14,15.2-26c-.71.87-2,1.29-2.62,2.21a22,22,0,0,0-1.31,2.2,7,7,0,0,1-1.9,2.16,4.17,4.17,0,0,0-1.22,1.46A6.61,6.61,0,0,1,7-16.22a1.57,1.57,0,0,0-.2.25c-1.37,2.51-3.58,4.38-5.18,6.7C.23-8-.67-6.31-2.12-5.1A6.76,6.76,0,0,0-3.21-3.92C-4.31-2.39-5.63-1.07-6.86.34A2.4,2.4,0,0,0-7.33,1a8.56,8.56,0,0,1-2,2.51c-.85,1-1.57,2-2.35,3a9.65,9.65,0,0,1-.79,1,17.79,17.79,0,0,0-3,3.92c-.46.78-1.08,1.46-1.6,2.2-.31.44-.57.91-.85,1.36a1.93,1.93,0,0,1-.34.53c-1.21,1-1.88,2.46-2.93,3.6-.33.35-.62.73-.92,1.1-.57.7-1.13,1.42-1.71,2.12-.87,1-1.2,2.45-2.07,3.46-1.19,1.37-2.41,2.72-3.57,4.12-1.4,1.68-2.74,3.41-4.12,5.12a14.78,14.78,0,0,1-1,1.21,64.23,64.23,0,0,0-4.87,5.55c-1.24,1.53-2.52,3-3.73,4.6-.59.76-1.17,1.5-1.72,2.29-.88,1.27-1.89,2.46-2.85,3.68-1.12,1.42-2.22,2.86-3.37,4.27A27.38,27.38,0,0,1-54,59.85a1.27,1.27,0,0,1-1.08.32,3,3,0,0,1-.68-.6,2.37,2.37,0,0,1,.22-.77c.94-1.63,2.3-2.91,3.34-4.46.93-1.37,2-2.63,3.07-3.9a16.47,16.47,0,0,0,1.73-2.51,9.84,9.84,0,0,1,.89-1.32c.46-.59,1-1.14,1.41-1.75a12.84,12.84,0,0,1,1.71-2.11,8.47,8.47,0,0,0,.75-1c.53-.67,1.06-1.34,1.61-2,.34-.41.7-.81,1.06-1.2l2.39-2.6a7.2,7.2,0,0,0,.72-.85,21.17,21.17,0,0,1,2.32-2.86c1-1.09,1.93-2.29,2.86-3.46a54.41,54.41,0,0,1,4-4.57c.46-.45.31-1.39.69-1.91a61.51,61.51,0,0,1,5.39-6.35,17.92,17.92,0,0,0,2.38-3.21,2.21,2.21,0,0,1,.47-.64,10,10,0,0,0,2-2.5c.51-.74,1.19-1.36,1.78-2.06A19.39,19.39,0,0,0-13.6,5.77a80,80,0,0,1,5.49-7.3,4.7,4.7,0,0,0,.61-.74A22.12,22.12,0,0,1-4.65-5.94C-3.47-7.39-2.13-8.57-.95-10c.68-.82,1.38-1.63,2.13-2.4a31.54,31.54,0,0,0,4-5.23,11.85,11.85,0,0,1,1.55-2,28.59,28.59,0,0,0,2.77-3.73c1.08-1.53,2.73-2.61,3.88-4.08s1.94-3.09,3.12-4.48c.69-.81,1.43-1.59,2.08-2.43a22.81,22.81,0,0,0,1.73-2.51A14.87,14.87,0,0,1,24-41.29c.39-.31.69-.56,1.21-.17a1,1,0,0,1,.35,1.22,5.1,5.1,0,0,1-.66,1.1,23,23,0,0,0-1.57,2.62C22.6-35.38,21.74-34.35,20.83-33.1Z"/><path class="b" d="M-63.8,60.53c.94-1,2-2.21,3.1-3.41s1.59-2.57,2.54-3.73c.71-.87,1.54-1.8,2.19-2.72a24.24,24.24,0,0,0,1.33-2.2,7.39,7.39,0,0,1,1.89-2.16,4.2,4.2,0,0,0,1.22-1.47,7.28,7.28,0,0,1,1.16-1.73,1.21,1.21,0,0,0,.21-.25c1.39-2.5,3.57-4.38,5.19-6.71,1.38-1.28,2.29-3,3.73-4.19a6.76,6.76,0,0,0,1.09-1.18c1.1-1.53,2.42-2.86,3.64-4.28a2.24,2.24,0,0,0,.48-.64,9.09,9.09,0,0,1,2-2.52c.84-.95,1.57-2,2.35-3a9.65,9.65,0,0,1,.79-1,19,19,0,0,0,3-3.93c.46-.78,1.08-1.46,1.61-2.2.31-.44.57-.9.86-1.36a2.19,2.19,0,0,1,.34-.53c1.2-1,1.89-2.46,2.94-3.61.32-.35.61-.73.92-1.1.57-.71,1.13-1.43,1.71-2.12.87-1,1.22-2.45,2.1-3.46,1.19-1.37,2.4-2.73,3.56-4.13,1.4-1.69,2.75-3.42,4.13-5.13a14.91,14.91,0,0,1,1-1.22A67.75,67.75,0,0,0-3.81-15c1.24-1.54,2.53-3.05,3.74-4.61.59-.76,1.17-1.51,1.73-2.3.88-1.27,1.89-2.46,2.85-3.68,1.12-1.43,2.23-2.87,3.38-4.28a28.4,28.4,0,0,1,2.89-3.22,1.24,1.24,0,0,1,1-.34,2.62,2.62,0,0,1,.65.58,2.4,2.4,0,0,1-.23.76c-1,1.62-2.3,2.92-3.35,4.46C8-26.31,6.87-25,5.81-23.77a17.28,17.28,0,0,0-1.74,2.51,12.81,12.81,0,0,1-.9,1.32c-.46.59-1,1.14-1.41,1.75A13.92,13.92,0,0,1,.05-16.07a7.82,7.82,0,0,0-.76,1c-.53.67-1.06,1.34-1.61,2-.34.41-.7.8-1.06,1.2L-5.76-9.23a8.4,8.4,0,0,0-.73.85A22,22,0,0,1-8.8-5.51c-1,1.1-1.93,2.3-2.87,3.47a56.42,56.42,0,0,1-4,4.59c-.46.45-.34,1.37-.72,1.89a64.13,64.13,0,0,1-5.39,6.37A18.93,18.93,0,0,0-24.19,14a2.52,2.52,0,0,1-.47.64,10.2,10.2,0,0,0-2,2.5c-.52.74-1.2,1.37-1.79,2.07A16.7,16.7,0,0,0-29.82,21a86.92,86.92,0,0,1-5.52,7.31,4.8,4.8,0,0,0-.61.74,23,23,0,0,1-2.86,3.67c-1.18,1.45-2.32,2.94-3.51,4.39-.68.82-1.38,1.64-2.12,2.41a33.74,33.74,0,0,0-4,5.24,12.88,12.88,0,0,1-1.56,2,29.36,29.36,0,0,0-2.78,3.73c-1.08,1.53-2.71,2.63-3.87,4.1s-2,3.09-3.14,4.48c-.69.82-1.42,1.6-2.08,2.44a26.74,26.74,0,0,0-1.74,2.51,16,16,0,0,1-3.7,4.4,1.07,1.07,0,0,1-1.37-.09c-.35-.27-.1-.28.11-.71a5,5,0,0,1,.66-1.09,24.12,24.12,0,0,0,1.6-2.62C-65.57,62.81-64.72,61.78-63.8,60.53Z"/><path class="b" d="M102.83.9c-1,1-2,2.19-3.11,3.39S98.15,6.86,97.2,8c-.71.87-2,1.29-2.62,2.21a22,22,0,0,0-1.31,2.2,7,7,0,0,1-1.9,2.16,4.17,4.17,0,0,0-1.22,1.46A6.61,6.61,0,0,1,89,17.78a1.57,1.57,0,0,0-.2.25c-1.37,2.51-3.58,4.38-5.18,6.7-1.39,1.27-2.29,3-3.74,4.17a6.76,6.76,0,0,0-1.09,1.18c-1.1,1.53-2.42,2.85-3.65,4.26a2.4,2.4,0,0,0-.47.64,8.56,8.56,0,0,1-2,2.51c-.85.95-1.57,2-2.35,3a9.65,9.65,0,0,1-.79,1,17.79,17.79,0,0,0-3,3.92c-.46.78-1.08,1.46-1.6,2.2-.31.44-.57.91-.85,1.36a1.93,1.93,0,0,1-.34.53c-1.21,1-1.88,2.46-2.93,3.6-.33.35-.62.73-.92,1.1-.57.7-1.13,1.42-1.71,2.12-.87,1-1.2,2.45-2.07,3.46-1.2,1.37-2.41,2.72-3.57,4.12-1.4,1.68-2.74,3.41-4.12,5.12a14.91,14.91,0,0,1-1,1.21,65.87,65.87,0,0,0-4.86,5.55c-1.24,1.53-2.52,3-3.73,4.6-.59.76-1.18,1.5-1.72,2.29-.88,1.27-1.89,2.46-2.85,3.68C33.1,87.8,32,89.24,30.85,90.65A28.3,28.3,0,0,1,28,93.85a1.27,1.27,0,0,1-1.08.32,3,3,0,0,1-.68-.6,2.37,2.37,0,0,1,.22-.77c.94-1.63,2.29-2.91,3.34-4.46a47.81,47.81,0,0,1,3.07-3.9,15.72,15.72,0,0,0,1.72-2.51,11,11,0,0,1,.9-1.32c.46-.59,1-1.14,1.41-1.75a12.34,12.34,0,0,1,1.71-2.11,8.47,8.47,0,0,0,.75-1c.53-.67,1.06-1.34,1.61-2,.34-.41.7-.81,1.06-1.2l2.39-2.6a7.2,7.2,0,0,0,.72-.85,21.17,21.17,0,0,1,2.32-2.86c1-1.09,1.92-2.29,2.86-3.46a54.41,54.41,0,0,1,4-4.57c.45-.45.31-1.39.68-1.91a62.87,62.87,0,0,1,5.4-6.35,17.92,17.92,0,0,0,2.38-3.21,2.17,2.17,0,0,1,.47-.64,9.84,9.84,0,0,0,2-2.5c.51-.74,1.19-1.36,1.78-2.06a19.39,19.39,0,0,0,1.39-1.75,80,80,0,0,1,5.49-7.3,4.7,4.7,0,0,0,.61-.74,22.54,22.54,0,0,1,2.85-3.67c1.18-1.44,2.52-2.63,3.7-4.07.68-.83,1.38-1.64,2.13-2.41a31.54,31.54,0,0,0,4-5.23,11.85,11.85,0,0,1,1.55-2,27.93,27.93,0,0,0,2.77-3.73C92.54,9.06,94.19,8,95.34,6.51S97.28,3.42,98.46,2c.69-.82,1.43-1.6,2.08-2.44a23.67,23.67,0,0,0,1.73-2.5A14.78,14.78,0,0,1,106-7.29c.39-.31.69-.56,1.21-.17a1,1,0,0,1,.35,1.22,5.1,5.1,0,0,1-.66,1.1,23,23,0,0,0-1.57,2.62C104.6-1.38,103.74-.35,102.83.9Z"/><path class="b" d="M18.2,94.53c.94-1,2-2.21,3.1-3.41s1.59-2.57,2.54-3.73c.71-.87,1.54-1.8,2.19-2.72a24.24,24.24,0,0,0,1.33-2.2,7.39,7.39,0,0,1,1.89-2.16,4.2,4.2,0,0,0,1.22-1.47,7.28,7.28,0,0,1,1.16-1.73,1.21,1.21,0,0,0,.21-.25c1.39-2.5,3.57-4.38,5.19-6.71,1.38-1.28,2.29-3,3.73-4.19a6.76,6.76,0,0,0,1.09-1.18c1.1-1.53,2.42-2.86,3.65-4.28a2.4,2.4,0,0,0,.47-.64,9.25,9.25,0,0,1,2-2.52c.85-1,1.58-2,2.36-3a9.65,9.65,0,0,1,.79-1,19.31,19.31,0,0,0,3-3.93c.46-.78,1.08-1.46,1.61-2.2.31-.44.57-.9.86-1.36a2.19,2.19,0,0,1,.34-.53c1.2-1,1.89-2.46,2.94-3.61.32-.35.61-.73.92-1.1.57-.71,1.13-1.43,1.71-2.12.87-1,1.22-2.45,2.1-3.46,1.19-1.37,2.4-2.73,3.56-4.13,1.4-1.69,2.75-3.42,4.13-5.13a13.4,13.4,0,0,1,1-1.22A67.75,67.75,0,0,0,78.19,19c1.24-1.54,2.53-3,3.74-4.61.59-.76,1.18-1.51,1.73-2.3.88-1.27,1.89-2.46,2.85-3.68,1.12-1.43,2.23-2.87,3.38-4.28A29.39,29.39,0,0,1,92.78.86a1.26,1.26,0,0,1,1-.34,2.81,2.81,0,0,1,.65.58,2.7,2.7,0,0,1-.24.76c-.95,1.62-2.3,2.91-3.35,4.46-.93,1.37-2,2.64-3.08,3.91a17.22,17.22,0,0,0-1.73,2.51,11.49,11.49,0,0,1-.91,1.32c-.45.59-1,1.14-1.4,1.75a14.62,14.62,0,0,1-1.72,2.12,8.84,8.84,0,0,0-.76,1c-.52.67-1.06,1.34-1.61,2-.34.41-.7.8-1.06,1.2l-2.38,2.61a8.4,8.4,0,0,0-.73.85,22,22,0,0,1-2.31,2.87c-1,1.1-1.93,2.3-2.87,3.47a56.42,56.42,0,0,1-4,4.59c-.46.45-.34,1.37-.72,1.89a64.13,64.13,0,0,1-5.39,6.37A18.93,18.93,0,0,0,57.81,48a2.52,2.52,0,0,1-.47.64,10.44,10.44,0,0,0-2,2.5c-.52.74-1.2,1.37-1.78,2.07A16.79,16.79,0,0,0,52.18,55a86.92,86.92,0,0,1-5.52,7.31,4.8,4.8,0,0,0-.61.74,23.57,23.57,0,0,1-2.85,3.67c-1.19,1.45-2.33,2.94-3.52,4.39-.67.82-1.37,1.64-2.11,2.41a33.19,33.19,0,0,0-4,5.24,12.88,12.88,0,0,1-1.56,2,30.35,30.35,0,0,0-2.78,3.73c-1.08,1.53-2.71,2.63-3.87,4.1s-2,3.09-3.14,4.48c-.69.82-1.42,1.6-2.08,2.45a25.36,25.36,0,0,0-1.74,2.5,16,16,0,0,1-3.7,4.4,1,1,0,0,1-1.36-.09c-.36-.27-.1-.28.1-.71a5.76,5.76,0,0,1,.66-1.09,23.2,23.2,0,0,0,1.6-2.62C16.43,96.81,17.28,95.78,18.2,94.53Z"/><path class="b" d="M61.83.9c-.95,1-2,2.19-3.11,3.39S57.15,6.86,56.2,8c-.71.87-2,1.29-2.62,2.21a22,22,0,0,0-1.31,2.2,7,7,0,0,1-1.9,2.16,4.17,4.17,0,0,0-1.22,1.46A6.61,6.61,0,0,1,48,17.78a1.57,1.57,0,0,0-.2.25c-1.37,2.51-3.57,4.38-5.18,6.7-1.39,1.27-2.29,3-3.74,4.17a6.76,6.76,0,0,0-1.09,1.18c-1.09,1.53-2.42,2.85-3.65,4.26a2.4,2.4,0,0,0-.47.64,8.4,8.4,0,0,1-2,2.51c-.85.95-1.57,2-2.35,3a9.65,9.65,0,0,1-.79,1,17.79,17.79,0,0,0-3,3.92c-.46.78-1.08,1.46-1.6,2.2-.3.44-.57.91-.85,1.36a1.93,1.93,0,0,1-.34.53c-1.21,1-1.88,2.46-2.93,3.6-.32.35-.62.73-.92,1.1-.57.7-1.12,1.42-1.71,2.12-.87,1-1.19,2.45-2.07,3.46-1.19,1.37-2.41,2.72-3.56,4.12-1.4,1.68-2.75,3.41-4.13,5.12a14.78,14.78,0,0,1-1,1.21,62.46,62.46,0,0,0-4.86,5.55c-1.24,1.53-2.53,3-3.74,4.6-.58.76-1.17,1.5-1.72,2.29-.88,1.27-1.89,2.46-2.85,3.68C-7.9,87.8-9,89.24-10.15,90.65A26.51,26.51,0,0,1-13,93.85a1.25,1.25,0,0,1-1.07.32,2.9,2.9,0,0,1-.69-.6,2.37,2.37,0,0,1,.22-.77c.94-1.63,2.3-2.91,3.34-4.46.93-1.37,2-2.63,3.07-3.9a16.47,16.47,0,0,0,1.73-2.51,9.84,9.84,0,0,1,.89-1.32c.46-.59,1-1.14,1.41-1.75a13.37,13.37,0,0,1,1.71-2.11,8.47,8.47,0,0,0,.75-1c.53-.67,1.07-1.34,1.61-2,.34-.41.71-.81,1.07-1.2l2.38-2.6a7.29,7.29,0,0,0,.73-.85,20.36,20.36,0,0,1,2.31-2.86c1-1.09,1.93-2.29,2.86-3.46a58.25,58.25,0,0,1,4-4.57c.46-.45.32-1.39.69-1.91a61.51,61.51,0,0,1,5.39-6.35,17.92,17.92,0,0,0,2.38-3.21,2.36,2.36,0,0,1,.47-.64,9.84,9.84,0,0,0,2-2.5c.51-.74,1.2-1.36,1.78-2.06a19.39,19.39,0,0,0,1.39-1.75,80,80,0,0,1,5.49-7.3,4.7,4.7,0,0,0,.61-.74,22.54,22.54,0,0,1,2.85-3.67c1.19-1.44,2.52-2.63,3.71-4.07.67-.83,1.37-1.64,2.12-2.41a31.54,31.54,0,0,0,4-5.23,11.41,11.41,0,0,1,1.56-2,28.75,28.75,0,0,0,2.76-3.73C51.54,9.06,53.19,8,54.34,6.51S56.29,3.42,57.46,2c.69-.82,1.43-1.6,2.08-2.44a23.67,23.67,0,0,0,1.73-2.5A14.78,14.78,0,0,1,65-7.29c.39-.31.69-.56,1.21-.17a1,1,0,0,1,.35,1.22,5.1,5.1,0,0,1-.66,1.1A23,23,0,0,0,64.3-2.52C63.6-1.38,62.74-.35,61.83.9Z"/><path class="b" d="M-22.8,94.53c.94-1,2-2.21,3.1-3.41s1.59-2.57,2.54-3.73c.71-.87,1.54-1.8,2.19-2.72a24.24,24.24,0,0,0,1.33-2.2,7.39,7.39,0,0,1,1.89-2.16,4.2,4.2,0,0,0,1.22-1.47,7.28,7.28,0,0,1,1.16-1.73,1.21,1.21,0,0,0,.21-.25c1.39-2.5,3.57-4.38,5.19-6.71,1.38-1.28,2.29-3,3.73-4.19A6.76,6.76,0,0,0,.85,64.78C2,63.25,3.27,61.92,4.49,60.5A2.24,2.24,0,0,0,5,59.86a9.25,9.25,0,0,1,2-2.52c.85-1,1.58-2,2.36-3a9.65,9.65,0,0,1,.79-1,19.31,19.31,0,0,0,3-3.93c.46-.78,1.08-1.46,1.61-2.2.31-.44.57-.9.86-1.36a2.19,2.19,0,0,1,.34-.53c1.2-1,1.89-2.46,2.94-3.61.32-.35.61-.73.92-1.1.57-.71,1.12-1.43,1.71-2.12.87-1,1.22-2.45,2.1-3.46,1.19-1.37,2.4-2.73,3.56-4.13,1.4-1.69,2.75-3.42,4.13-5.13a13.4,13.4,0,0,1,1-1.22A67.75,67.75,0,0,0,37.19,19c1.24-1.54,2.53-3,3.74-4.61.59-.76,1.17-1.51,1.73-2.3.88-1.27,1.89-2.46,2.85-3.68,1.12-1.43,2.23-2.87,3.38-4.28A28.4,28.4,0,0,1,51.78.86a1.24,1.24,0,0,1,1-.34,2.62,2.62,0,0,1,.65.58,2.4,2.4,0,0,1-.23.76c-1,1.62-2.3,2.91-3.35,4.46-.93,1.37-2,2.64-3.08,3.91a17.28,17.28,0,0,0-1.74,2.51,12.81,12.81,0,0,1-.9,1.32c-.46.59-1,1.14-1.41,1.75a13.92,13.92,0,0,1-1.71,2.12,8.84,8.84,0,0,0-.76,1c-.53.67-1.06,1.34-1.61,2-.34.41-.7.8-1.06,1.2l-2.38,2.61a8.4,8.4,0,0,0-.73.85,22,22,0,0,1-2.31,2.87c-1,1.1-1.93,2.3-2.87,3.47a56.42,56.42,0,0,1-4,4.59c-.46.45-.34,1.37-.72,1.89a64.13,64.13,0,0,1-5.39,6.37A18.93,18.93,0,0,0,16.81,48a2.52,2.52,0,0,1-.47.64,10.44,10.44,0,0,0-2,2.5c-.52.74-1.2,1.37-1.78,2.07A15.57,15.57,0,0,0,11.18,55a86.92,86.92,0,0,1-5.52,7.31,4.8,4.8,0,0,0-.61.74A23.57,23.57,0,0,1,2.2,66.72C1,68.17-.13,69.66-1.32,71.11c-.67.82-1.38,1.64-2.12,2.41a33.74,33.74,0,0,0-4,5.24,12.88,12.88,0,0,1-1.56,2,29.36,29.36,0,0,0-2.78,3.73c-1.08,1.53-2.71,2.63-3.87,4.1s-2,3.09-3.14,4.48c-.69.82-1.42,1.6-2.08,2.45a25.36,25.36,0,0,0-1.74,2.5,16,16,0,0,1-3.7,4.4,1,1,0,0,1-1.37-.09c-.35-.27-.1-.28.11-.71a5.28,5.28,0,0,1,.66-1.09,23.2,23.2,0,0,0,1.6-2.62C-24.57,96.81-23.72,95.78-22.8,94.53Z"/><path class="b" d="M20.83.9c-.95,1-2,2.19-3.11,3.39S16.15,6.86,15.2,8c-.71.87-2,1.29-2.62,2.21a22,22,0,0,0-1.31,2.2,7,7,0,0,1-1.9,2.16,4.17,4.17,0,0,0-1.22,1.46A6.61,6.61,0,0,1,7,17.78a1.57,1.57,0,0,0-.2.25c-1.37,2.51-3.58,4.38-5.18,6.7C.23,26-.67,27.69-2.12,28.9a6.76,6.76,0,0,0-1.09,1.18c-1.1,1.53-2.42,2.85-3.65,4.26a2.4,2.4,0,0,0-.47.64,8.56,8.56,0,0,1-2,2.51c-.85.95-1.57,2-2.35,3a9.65,9.65,0,0,1-.79,1,17.79,17.79,0,0,0-3,3.92c-.46.78-1.08,1.46-1.6,2.2-.31.44-.57.91-.85,1.36a1.93,1.93,0,0,1-.34.53c-1.21,1-1.88,2.46-2.93,3.6-.33.35-.62.73-.92,1.1-.57.7-1.13,1.42-1.71,2.12-.87,1-1.2,2.45-2.07,3.46-1.19,1.37-2.41,2.72-3.57,4.12-1.4,1.68-2.74,3.41-4.12,5.12a14.78,14.78,0,0,1-1,1.21,64.23,64.23,0,0,0-4.87,5.55c-1.24,1.53-2.52,3-3.73,4.6-.59.76-1.17,1.5-1.72,2.29-.88,1.27-1.89,2.46-2.85,3.68-1.12,1.42-2.22,2.86-3.37,4.27A27.38,27.38,0,0,1-54,93.85a1.27,1.27,0,0,1-1.08.32,3,3,0,0,1-.68-.6,2.37,2.37,0,0,1,.22-.77c.94-1.63,2.3-2.91,3.34-4.46.93-1.37,2-2.63,3.07-3.9a16.47,16.47,0,0,0,1.73-2.51,9.84,9.84,0,0,1,.89-1.32c.46-.59,1-1.14,1.41-1.75a12.84,12.84,0,0,1,1.71-2.11,8.47,8.47,0,0,0,.75-1c.53-.67,1.06-1.34,1.61-2,.34-.41.7-.81,1.06-1.2l2.39-2.6a7.2,7.2,0,0,0,.72-.85,21.17,21.17,0,0,1,2.32-2.86c1-1.09,1.93-2.29,2.86-3.46a54.41,54.41,0,0,1,4-4.57c.46-.45.31-1.39.69-1.91a61.51,61.51,0,0,1,5.39-6.35,17.92,17.92,0,0,0,2.38-3.21,2.36,2.36,0,0,1,.47-.64,9.84,9.84,0,0,0,2-2.5c.51-.74,1.19-1.36,1.78-2.06a19.39,19.39,0,0,0,1.39-1.75,80,80,0,0,1,5.49-7.3,4.7,4.7,0,0,0,.61-.74,22.54,22.54,0,0,1,2.85-3.67c1.18-1.44,2.52-2.63,3.7-4.07.68-.83,1.38-1.64,2.13-2.41a31.54,31.54,0,0,0,4-5.23,11.85,11.85,0,0,1,1.55-2,27.93,27.93,0,0,0,2.77-3.73C10.54,9.06,12.19,8,13.34,6.51S15.28,3.42,16.46,2c.69-.82,1.43-1.6,2.08-2.44a23.67,23.67,0,0,0,1.73-2.5A14.78,14.78,0,0,1,24-7.29c.39-.31.69-.56,1.21-.17a1,1,0,0,1,.35,1.22,5.1,5.1,0,0,1-.66,1.1A23,23,0,0,0,23.3-2.52C22.6-1.38,21.74-.35,20.83.9Z"/><path class="b" d="M-63.8,94.53c.94-1,2-2.21,3.1-3.41s1.59-2.57,2.54-3.73c.71-.87,1.54-1.8,2.19-2.72a24.24,24.24,0,0,0,1.33-2.2,7.39,7.39,0,0,1,1.89-2.16,4.2,4.2,0,0,0,1.22-1.47,7.28,7.28,0,0,1,1.16-1.73,1.21,1.21,0,0,0,.21-.25c1.39-2.5,3.57-4.38,5.19-6.71,1.38-1.28,2.29-3,3.73-4.19a6.76,6.76,0,0,0,1.09-1.18c1.1-1.53,2.42-2.86,3.64-4.28a2.24,2.24,0,0,0,.48-.64,9.09,9.09,0,0,1,2-2.52c.84-1,1.57-2,2.35-3a9.65,9.65,0,0,1,.79-1,19.31,19.31,0,0,0,3-3.93c.46-.78,1.08-1.46,1.61-2.2.31-.44.57-.9.86-1.36a2.19,2.19,0,0,1,.34-.53c1.2-1,1.89-2.46,2.94-3.61.32-.35.61-.73.92-1.1.57-.71,1.13-1.43,1.71-2.12.87-1,1.22-2.45,2.1-3.46,1.19-1.37,2.4-2.73,3.56-4.13,1.4-1.69,2.75-3.42,4.13-5.13a13.4,13.4,0,0,1,1-1.22A67.75,67.75,0,0,0-3.81,19c1.24-1.54,2.53-3,3.74-4.61.59-.76,1.17-1.51,1.73-2.3.88-1.27,1.89-2.46,2.85-3.68C5.63,6.93,6.74,5.49,7.89,4.08A28.4,28.4,0,0,1,10.78.86a1.24,1.24,0,0,1,1-.34,2.62,2.62,0,0,1,.65.58,2.4,2.4,0,0,1-.23.76c-1,1.62-2.3,2.91-3.35,4.46C8,7.69,6.87,9,5.81,10.23a17.28,17.28,0,0,0-1.74,2.51,12.81,12.81,0,0,1-.9,1.32c-.46.59-1,1.14-1.41,1.75A13.92,13.92,0,0,1,.05,17.93a7.82,7.82,0,0,0-.76,1c-.53.67-1.06,1.34-1.61,2-.34.41-.7.8-1.06,1.2l-2.38,2.61a8.4,8.4,0,0,0-.73.85A22,22,0,0,1-8.8,28.49c-1,1.1-1.93,2.3-2.87,3.47a56.42,56.42,0,0,1-4,4.59c-.46.45-.34,1.37-.72,1.89a64.13,64.13,0,0,1-5.39,6.37A18.93,18.93,0,0,0-24.19,48a2.52,2.52,0,0,1-.47.64,10.2,10.2,0,0,0-2,2.5c-.52.74-1.2,1.37-1.79,2.07A16.7,16.7,0,0,0-29.82,55a86.92,86.92,0,0,1-5.52,7.31,4.8,4.8,0,0,0-.61.74,23,23,0,0,1-2.86,3.67c-1.18,1.45-2.32,2.94-3.51,4.39-.68.82-1.38,1.64-2.12,2.41a33.74,33.74,0,0,0-4,5.24,12.88,12.88,0,0,1-1.56,2,29.36,29.36,0,0,0-2.78,3.73c-1.08,1.53-2.71,2.63-3.87,4.1s-2,3.09-3.14,4.48c-.69.82-1.42,1.6-2.08,2.45a25.36,25.36,0,0,0-1.74,2.5,16,16,0,0,1-3.7,4.4,1,1,0,0,1-1.37-.09c-.35-.27-.1-.28.11-.71a5.28,5.28,0,0,1,.66-1.09,23.2,23.2,0,0,0,1.6-2.62C-65.57,96.81-64.72,95.78-63.8,94.53Z"/><path class="b" d="M102.83,34.9c-1,1-2,2.19-3.11,3.39S98.15,40.86,97.2,42c-.71.87-2,1.29-2.62,2.21a22,22,0,0,0-1.31,2.2,7,7,0,0,1-1.9,2.16,4.08,4.08,0,0,0-1.22,1.46A6.78,6.78,0,0,1,89,51.78a1.57,1.57,0,0,0-.2.25c-1.37,2.51-3.58,4.38-5.18,6.7-1.39,1.26-2.29,3-3.74,4.17a6.76,6.76,0,0,0-1.09,1.18c-1.1,1.53-2.42,2.85-3.65,4.26a2.4,2.4,0,0,0-.47.64,8.56,8.56,0,0,1-2,2.51c-.85,1-1.57,2-2.35,3a9.65,9.65,0,0,1-.79,1,17.79,17.79,0,0,0-3,3.92c-.46.78-1.08,1.46-1.6,2.2-.31.44-.57.91-.85,1.36a1.93,1.93,0,0,1-.34.53c-1.21,1-1.88,2.46-2.93,3.6-.33.35-.62.73-.92,1.1-.57.7-1.13,1.42-1.71,2.12-.87,1-1.2,2.45-2.07,3.46-1.2,1.37-2.41,2.72-3.57,4.12-1.4,1.68-2.74,3.41-4.12,5.12a14.91,14.91,0,0,1-1,1.21,65.87,65.87,0,0,0-4.86,5.55c-1.24,1.53-2.52,3-3.73,4.6-.59.76-1.18,1.5-1.72,2.29-.88,1.27-1.89,2.46-2.85,3.68-1.12,1.42-2.23,2.86-3.37,4.27a28.3,28.3,0,0,1-2.89,3.2,1.27,1.27,0,0,1-1.08.32,3,3,0,0,1-.68-.6,2.37,2.37,0,0,1,.22-.77c.94-1.63,2.29-2.91,3.34-4.46a47.81,47.81,0,0,1,3.07-3.9,15.72,15.72,0,0,0,1.72-2.51,11,11,0,0,1,.9-1.32c.46-.59,1-1.14,1.41-1.75a12.34,12.34,0,0,1,1.71-2.11,8.47,8.47,0,0,0,.75-1c.53-.67,1.06-1.34,1.61-2,.34-.41.7-.81,1.06-1.2l2.39-2.6a7.2,7.2,0,0,0,.72-.85,21.17,21.17,0,0,1,2.32-2.86c1-1.09,1.92-2.29,2.86-3.46a54.41,54.41,0,0,1,4-4.57c.45-.45.31-1.39.68-1.91a62.87,62.87,0,0,1,5.4-6.35,17.92,17.92,0,0,0,2.38-3.21,2.17,2.17,0,0,1,.47-.64,9.84,9.84,0,0,0,2-2.5c.51-.74,1.19-1.36,1.78-2.06a19.39,19.39,0,0,0,1.39-1.75,80,80,0,0,1,5.49-7.3,4.7,4.7,0,0,0,.61-.74,22.54,22.54,0,0,1,2.85-3.67c1.18-1.44,2.52-2.63,3.7-4.07.68-.83,1.38-1.64,2.13-2.41a31.54,31.54,0,0,0,4-5.23,11.85,11.85,0,0,1,1.55-2,27.93,27.93,0,0,0,2.77-3.73c1.08-1.53,2.73-2.61,3.88-4.08s1.94-3.09,3.12-4.47c.69-.82,1.43-1.6,2.08-2.44a23.67,23.67,0,0,0,1.73-2.5,14.78,14.78,0,0,1,3.7-4.39c.39-.31.69-.56,1.21-.17a1,1,0,0,1,.35,1.22,5.1,5.1,0,0,1-.66,1.1,23,23,0,0,0-1.57,2.62C104.6,32.62,103.74,33.65,102.83,34.9Z"/><path class="b" d="M61.83,34.9c-.95,1-2,2.19-3.11,3.39S57.15,40.86,56.2,42c-.71.87-2,1.29-2.62,2.21a22,22,0,0,0-1.31,2.2,7,7,0,0,1-1.9,2.16,4.08,4.08,0,0,0-1.22,1.46A6.78,6.78,0,0,1,48,51.78a1.57,1.57,0,0,0-.2.25c-1.37,2.51-3.57,4.38-5.18,6.7-1.39,1.26-2.29,3-3.74,4.17a6.76,6.76,0,0,0-1.09,1.18c-1.09,1.53-2.42,2.85-3.65,4.26a2.4,2.4,0,0,0-.47.64,8.4,8.4,0,0,1-2,2.51c-.85,1-1.57,2-2.35,3a9.65,9.65,0,0,1-.79,1,17.79,17.79,0,0,0-3,3.92c-.46.78-1.08,1.46-1.6,2.2-.3.44-.57.91-.85,1.36a1.93,1.93,0,0,1-.34.53c-1.21,1-1.88,2.46-2.93,3.6-.32.35-.62.73-.92,1.1-.57.7-1.12,1.42-1.71,2.12-.87,1-1.19,2.45-2.07,3.46-1.19,1.37-2.41,2.72-3.56,4.12-1.4,1.68-2.75,3.41-4.13,5.12a14.78,14.78,0,0,1-1,1.21,62.46,62.46,0,0,0-4.86,5.55c-1.24,1.53-2.53,3-3.74,4.6-.58.76-1.17,1.5-1.72,2.29-.88,1.27-1.89,2.46-2.85,3.68-1.12,1.42-2.22,2.86-3.37,4.27a26.51,26.51,0,0,1-2.89,3.2,1.25,1.25,0,0,1-1.07.32,2.9,2.9,0,0,1-.69-.6,2.37,2.37,0,0,1,.22-.77c.94-1.63,2.3-2.91,3.34-4.46.93-1.37,2-2.63,3.07-3.9a16.47,16.47,0,0,0,1.73-2.51,9.84,9.84,0,0,1,.89-1.32c.46-.59,1-1.14,1.41-1.75a13.37,13.37,0,0,1,1.71-2.11,8.47,8.47,0,0,0,.75-1c.53-.67,1.07-1.34,1.61-2,.34-.41.71-.81,1.07-1.2l2.38-2.6a7.29,7.29,0,0,0,.73-.85,20.36,20.36,0,0,1,2.31-2.86c1-1.09,1.93-2.29,2.86-3.46a58.25,58.25,0,0,1,4-4.57c.46-.45.32-1.39.69-1.91a61.51,61.51,0,0,1,5.39-6.35,17.92,17.92,0,0,0,2.38-3.21,2.36,2.36,0,0,1,.47-.64,9.84,9.84,0,0,0,2-2.5c.51-.74,1.2-1.36,1.78-2.06a19.39,19.39,0,0,0,1.39-1.75,80,80,0,0,1,5.49-7.3,4.7,4.7,0,0,0,.61-.74,22.54,22.54,0,0,1,2.85-3.67c1.19-1.44,2.52-2.63,3.71-4.07.67-.83,1.37-1.64,2.12-2.41a31.54,31.54,0,0,0,4-5.23,11.41,11.41,0,0,1,1.56-2,28.75,28.75,0,0,0,2.76-3.73c1.08-1.53,2.73-2.61,3.88-4.08s1.95-3.09,3.12-4.47c.69-.82,1.43-1.6,2.08-2.44a23.67,23.67,0,0,0,1.73-2.5A14.78,14.78,0,0,1,65,26.71c.39-.31.69-.56,1.21-.17a1,1,0,0,1,.35,1.22,5.1,5.1,0,0,1-.66,1.1,23,23,0,0,0-1.57,2.62C63.6,32.62,62.74,33.65,61.83,34.9Z"/><path class="b" d="M20.83,34.9c-.95,1-2,2.19-3.11,3.39S16.15,40.86,15.2,42c-.71.87-2,1.29-2.62,2.21a22,22,0,0,0-1.31,2.2,7,7,0,0,1-1.9,2.16,4.08,4.08,0,0,0-1.22,1.46A6.78,6.78,0,0,1,7,51.78a1.57,1.57,0,0,0-.2.25c-1.37,2.51-3.58,4.38-5.18,6.7C.23,60-.67,61.69-2.12,62.9a6.76,6.76,0,0,0-1.09,1.18c-1.1,1.53-2.42,2.85-3.65,4.26a2.4,2.4,0,0,0-.47.64,8.56,8.56,0,0,1-2,2.51c-.85,1-1.57,2-2.35,3a9.65,9.65,0,0,1-.79,1,17.79,17.79,0,0,0-3,3.92c-.46.78-1.08,1.46-1.6,2.2-.31.44-.57.91-.85,1.36a1.93,1.93,0,0,1-.34.53c-1.21,1-1.88,2.46-2.93,3.6-.33.35-.62.73-.92,1.1-.57.7-1.13,1.42-1.71,2.12-.87,1-1.2,2.45-2.07,3.46-1.19,1.37-2.41,2.72-3.57,4.12-1.4,1.68-2.74,3.41-4.12,5.12a14.78,14.78,0,0,1-1,1.21,64.23,64.23,0,0,0-4.87,5.55c-1.24,1.53-2.52,3-3.73,4.6-.59.76-1.17,1.5-1.72,2.29-.88,1.27-1.89,2.46-2.85,3.68-1.12,1.42-2.22,2.86-3.37,4.27a27.38,27.38,0,0,1-2.89,3.2,1.27,1.27,0,0,1-1.08.32,3,3,0,0,1-.68-.6,2.37,2.37,0,0,1,.22-.77c.94-1.63,2.3-2.91,3.34-4.46.93-1.37,2-2.63,3.07-3.9a16.47,16.47,0,0,0,1.73-2.51,9.84,9.84,0,0,1,.89-1.32c.46-.59,1-1.14,1.41-1.75a12.84,12.84,0,0,1,1.71-2.11,8.47,8.47,0,0,0,.75-1c.53-.67,1.06-1.34,1.61-2,.34-.41.7-.81,1.06-1.2l2.39-2.6a7.2,7.2,0,0,0,.72-.85,21.17,21.17,0,0,1,2.32-2.86c1-1.09,1.93-2.29,2.86-3.46a54.41,54.41,0,0,1,4-4.57c.46-.45.31-1.39.69-1.91a61.51,61.51,0,0,1,5.39-6.35,17.92,17.92,0,0,0,2.38-3.21,2.36,2.36,0,0,1,.47-.64,9.84,9.84,0,0,0,2-2.5c.51-.74,1.19-1.36,1.78-2.06a19.39,19.39,0,0,0,1.39-1.75,80,80,0,0,1,5.49-7.3,4.7,4.7,0,0,0,.61-.74,22.54,22.54,0,0,1,2.85-3.67c1.18-1.44,2.52-2.63,3.7-4.07.68-.83,1.38-1.64,2.13-2.41a31.54,31.54,0,0,0,4-5.23,11.85,11.85,0,0,1,1.55-2,27.93,27.93,0,0,0,2.77-3.73c1.08-1.53,2.73-2.61,3.88-4.08s1.94-3.09,3.12-4.47c.69-.82,1.43-1.6,2.08-2.44a23.67,23.67,0,0,0,1.73-2.5A14.78,14.78,0,0,1,24,26.71c.39-.31.69-.56,1.21-.17a1,1,0,0,1,.35,1.22,5.1,5.1,0,0,1-.66,1.1,23,23,0,0,0-1.57,2.62C22.6,32.62,21.74,33.65,20.83,34.9Z"/></pattern></defs><path class="c" d="M110.42,24.75a3.8,3.8,0,0,0-1-1,3.8,3.8,0,0,0-1-1,3.8,3.8,0,0,0-1-1,3.8,3.8,0,0,0-1-1,3.8,3.8,0,0,0-1-1,3.8,3.8,0,0,0-1-1,3.8,3.8,0,0,0-1-1,3.8,3.8,0,0,0-1-1,3.8,3.8,0,0,0-1-1,3.8,3.8,0,0,0-1-1,3.8,3.8,0,0,0-1-1,3.8,3.8,0,0,0-1-1,3.8,3.8,0,0,0-1-1A3.74,3.74,0,0,0,94.3,10.1H12.9a3.8,3.8,0,0,0-3.8,3.8V146.3a3.83,3.83,0,0,0,1.68,3.15,3.8,3.8,0,0,0,1,1,3.8,3.8,0,0,0,1,1,3.8,3.8,0,0,0,1,1,3.8,3.8,0,0,0,1,1,3.8,3.8,0,0,0,1,1,3.8,3.8,0,0,0,1,1,3.8,3.8,0,0,0,1,1,3.8,3.8,0,0,0,1,1,3.8,3.8,0,0,0,1,1,3.8,3.8,0,0,0,1,1,3.8,3.8,0,0,0,1,1,3.8,3.8,0,0,0,1,1,3.8,3.8,0,0,0,1,1,3.76,3.76,0,0,0,3.12,1.65h81.4a3.8,3.8,0,0,0,3.8-3.8V143.9a3.82,3.82,0,0,0-1.68-3.15,3.66,3.66,0,0,0-1-1,3.66,3.66,0,0,0-1-1,3.66,3.66,0,0,0-1-1,3.66,3.66,0,0,0-1-1,3.66,3.66,0,0,0-1-1,3.66,3.66,0,0,0-1-1,3.66,3.66,0,0,0-1-1,3.66,3.66,0,0,0-1-1,3.66,3.66,0,0,0-1-1,3.66,3.66,0,0,0-1-1,3.66,3.66,0,0,0-1-1,3.66,3.66,0,0,0-1-1,3.66,3.66,0,0,0-1-1,3.74,3.74,0,0,0-3.12-1.65H49.1v-21H98.5a3.8,3.8,0,0,0,3.8-3.8V84.7a3.89,3.89,0,0,0-1.7-3.11,4.13,4.13,0,0,0-1-1,4.13,4.13,0,0,0-1-1,4.13,4.13,0,0,0-1-1,4.13,4.13,0,0,0-1-1,4.13,4.13,0,0,0-1-1,4.13,4.13,0,0,0-1-1,4.13,4.13,0,0,0-1-1,4.13,4.13,0,0,0-1-1,4.13,4.13,0,0,0-1-1,4.13,4.13,0,0,0-1-1,4.13,4.13,0,0,0-1-1,4.13,4.13,0,0,0-1-1,4.13,4.13,0,0,0-1-1,3.87,3.87,0,0,0-3.1-1.69H49.1V48.1h59.2a3.8,3.8,0,0,0,3.8-3.8V27.9A3.83,3.83,0,0,0,110.42,24.75Z"/><path class="c" d="M254,24.74a3.18,3.18,0,0,0-1-1,3.18,3.18,0,0,0-1-1,3.18,3.18,0,0,0-1-1,3.18,3.18,0,0,0-1-1,3.18,3.18,0,0,0-1-1,3.18,3.18,0,0,0-1-1,3.18,3.18,0,0,0-1-1,3.18,3.18,0,0,0-1-1,3.18,3.18,0,0,0-1-1,3.18,3.18,0,0,0-1-1,3.18,3.18,0,0,0-1-1,3.18,3.18,0,0,0-1-1,3.18,3.18,0,0,0-1-1,3.76,3.76,0,0,0-3.28-1.64H217.3a3.68,3.68,0,0,0-3.4,2.2L178.67,91.19l-29-64.89a3.5,3.5,0,0,0-1.31-1.56,3.65,3.65,0,0,0-1-1,3.65,3.65,0,0,0-1-1,3.65,3.65,0,0,0-1-1,3.65,3.65,0,0,0-1-1,3.65,3.65,0,0,0-1-1,3.65,3.65,0,0,0-1-1,3.65,3.65,0,0,0-1-1,3.65,3.65,0,0,0-1-1,3.65,3.65,0,0,0-1-1,3.65,3.65,0,0,0-1-1,3.65,3.65,0,0,0-1-1,3.65,3.65,0,0,0-1-1,3.65,3.65,0,0,0-1-1,3.69,3.69,0,0,0-3.09-1.64H111.9a3.53,3.53,0,0,0-3.4,5.2l61.8,134.6a4.1,4.1,0,0,0,1.38,1.63,3.66,3.66,0,0,0,1,1,3.66,3.66,0,0,0,1,1,3.66,3.66,0,0,0,1,1,3.66,3.66,0,0,0,1,1,3.66,3.66,0,0,0,1,1,3.66,3.66,0,0,0,1,1,3.66,3.66,0,0,0,1,1,3.66,3.66,0,0,0,1,1,3.66,3.66,0,0,0,1,1,3.66,3.66,0,0,0,1,1,3.66,3.66,0,0,0,1,1,3.66,3.66,0,0,0,1,1,3.66,3.66,0,0,0,1,1,3.45,3.45,0,0,0,3,1.57h2a3.59,3.59,0,0,0,3.4-2.2l62-134.6A3.5,3.5,0,0,0,254,24.74Z"/><path class="c" d="M316.1,24.3a3.92,3.92,0,0,0-1.4-1.69,3.18,3.18,0,0,0-1-1,3.18,3.18,0,0,0-1-1,3.18,3.18,0,0,0-1-1,3.18,3.18,0,0,0-1-1,3.18,3.18,0,0,0-1-1,3.18,3.18,0,0,0-1-1,3.18,3.18,0,0,0-1-1,3.18,3.18,0,0,0-1-1,3.18,3.18,0,0,0-1-1,3.18,3.18,0,0,0-1-1,3.18,3.18,0,0,0-1-1,3.18,3.18,0,0,0-1-1,3.18,3.18,0,0,0-1-1,3.24,3.24,0,0,0-3-1.51h-2a3.59,3.59,0,0,0-3.4,2.2L231.1,144.9a3.5,3.5,0,0,0,1.12,4.56,3.18,3.18,0,0,0,1,1,3.18,3.18,0,0,0,1,1,3.18,3.18,0,0,0,1,1,3.18,3.18,0,0,0,1,1,3.18,3.18,0,0,0,1,1,3.18,3.18,0,0,0,1,1,3.18,3.18,0,0,0,1,1,3.18,3.18,0,0,0,1,1,3.18,3.18,0,0,0,1,1,3.18,3.18,0,0,0,1,1,3.18,3.18,0,0,0,1,1,3.18,3.18,0,0,0,1,1,3.18,3.18,0,0,0,1,1,3.75,3.75,0,0,0,3.28,1.64h17.4a6,6,0,0,0,5.8-4l9.8-21.6h52.15l3.45,7.6a8.19,8.19,0,0,0,2.23,3,5.56,5.56,0,0,0,1,1,5.56,5.56,0,0,0,1,1,5.56,5.56,0,0,0,1,1,5.56,5.56,0,0,0,1,1,5.56,5.56,0,0,0,1,1,5.56,5.56,0,0,0,1,1,5.56,5.56,0,0,0,1,1,5.56,5.56,0,0,0,1,1,5.56,5.56,0,0,0,1,1,5.56,5.56,0,0,0,1,1,5.56,5.56,0,0,0,1,1,5.56,5.56,0,0,0,1,1,5.56,5.56,0,0,0,1,1,5.23,5.23,0,0,0,4.57,2h17.4a3.53,3.53,0,0,0,3.4-5.2Zm-18.56,78,9.88-22.18L317.5,102.3Z"/><path class="c" d="M512.4,24.8a4,4,0,0,0-1-1,4,4,0,0,0-1-1,4,4,0,0,0-1-1,4,4,0,0,0-1-1,4,4,0,0,0-1-1,4,4,0,0,0-1-1,4,4,0,0,0-1-1,4,4,0,0,0-1-1,4,4,0,0,0-1-1,4,4,0,0,0-1-1,4,4,0,0,0-1-1,4,4,0,0,0-1-1,4,4,0,0,0-1-1,3.85,3.85,0,0,0-3.1-1.7H477.9a3.8,3.8,0,0,0-3.8,3.8V95.84L404.7,22.1h-.06l-.94-1h-.06l-.94-1h-.06l-.94-1h-.06l-.94-1h-.06l-.94-1h-.06l-.94-1h-.06l-.94-1h-.06l-.94-1h-.06l-.94-1h-.06l-.94-1h-.06l-.94-1h-.06l-.94-1h-.06l-.94-1h-.06l-.94-1h-5a3.76,3.76,0,0,0-3.8,3.6V146.3a3.87,3.87,0,0,0,1.69,3.1,4.31,4.31,0,0,0,1,1,4.31,4.31,0,0,0,1,1,4.31,4.31,0,0,0,1,1,4.31,4.31,0,0,0,1,1,4.31,4.31,0,0,0,1,1,4.31,4.31,0,0,0,1,1,4.31,4.31,0,0,0,1,1,4.31,4.31,0,0,0,1,1,4.31,4.31,0,0,0,1,1,4.31,4.31,0,0,0,1,1,4.31,4.31,0,0,0,1,1,4.31,4.31,0,0,0,1,1,4.31,4.31,0,0,0,1,1,3.91,3.91,0,0,0,3.11,1.7h18.2a3.8,3.8,0,0,0,3.8-3.8V75.45l69.8,76.65h.09l.91,1h.09l.91,1h.09l.91,1h.09l.91,1h.09l.91,1h.09l.91,1h.09l.91,1h.09l.91,1h.09l.91,1h.09l.91,1h.09l.91,1h.09l.91,1h.09l.91,1h.09l.91,1h4.8a3.76,3.76,0,0,0,3.8-3.6V27.9A3.88,3.88,0,0,0,512.4,24.8Z"/><path class="c" d="M565.25,137.55c-.32-.35-.65-.68-1-1s-.65-.68-1-1-.65-.68-1-1-.65-.68-1-1-.65-.68-1-1-.65-.68-1-1-.65-.68-1-1-.65-.68-1-1-.65-.68-1-1-.65-.68-1-1-.65-.68-1-1-.65-.68-1-1-.65-.68-1-1A16.36,16.36,0,0,0,523.7,135.7a16.37,16.37,0,0,0,5.35,12.05c.32.35.65.68,1,1s.65.68,1,1,.65.68,1,1,.65.68,1,1,.65.68,1,1,.65.68,1,1,.65.68,1,1,.65.68,1,1,.65.68,1,1,.65.68,1,1,.65.68,1,1,.65.68,1,1,.65.68,1,1a16.36,16.36,0,0,0,12.05,5.35,16.36,16.36,0,0,0,11.15-28.55Z"/><path class="c" d="M669.9,44.3V27.9a3.83,3.83,0,0,0-1.68-3.15,4,4,0,0,0-1-1,4,4,0,0,0-1-1,4,4,0,0,0-1-1,4,4,0,0,0-1-1,4,4,0,0,0-1-1,4,4,0,0,0-1-1,4,4,0,0,0-1-1,4,4,0,0,0-1-1,4,4,0,0,0-1-1,4,4,0,0,0-1-1,4,4,0,0,0-1-1,4,4,0,0,0-1-1,4,4,0,0,0-1-1,3.74,3.74,0,0,0-3.12-1.65H564.7a3.8,3.8,0,0,0-3.8,3.8V30.3a3.8,3.8,0,0,0,1.68,3.15,3.66,3.66,0,0,0,1,1,3.66,3.66,0,0,0,1,1,3.66,3.66,0,0,0,1,1,3.66,3.66,0,0,0,1,1,3.66,3.66,0,0,0,1,1,3.66,3.66,0,0,0,1,1,3.66,3.66,0,0,0,1,1,3.66,3.66,0,0,0,1,1,3.66,3.66,0,0,0,1,1,3.66,3.66,0,0,0,1,1,3.66,3.66,0,0,0,1,1,3.66,3.66,0,0,0,1,1,3.66,3.66,0,0,0,1,1,3.73,3.73,0,0,0,3.12,1.65h16.6v98.2a3.87,3.87,0,0,0,1.69,3.1,4,4,0,0,0,1,1,4,4,0,0,0,1,1,4,4,0,0,0,1,1,4,4,0,0,0,1,1,4,4,0,0,0,1,1,4,4,0,0,0,1,1,4,4,0,0,0,1,1,4,4,0,0,0,1,1,4,4,0,0,0,1,1,4,4,0,0,0,1,1,4,4,0,0,0,1,1,4,4,0,0,0,1,1,4,4,0,0,0,1,1,3.91,3.91,0,0,0,3.11,1.7h18.6a3.93,3.93,0,0,0,3.8-3.8V48.1h30.6A3.8,3.8,0,0,0,669.9,44.3Z"/><path class="c" d="M801.54,42.67c-.33-.34-.66-.67-1-1s-.66-.67-1-1-.66-.67-1-1-.66-.67-1-1-.66-.67-1-1-.66-.67-1-1-.66-.67-1-1-.66-.67-1-1-.66-.67-1-1-.66-.67-1-1-.66-.67-1-1-.66-.67-1-1-.66-.67-1-1A71.9,71.9,0,0,0,665.3,80.3a71.54,71.54,0,0,0,21.41,51.39c.33.33.66.67,1,1s.66.67,1,1,.66.67,1,1,.66.67,1,1,.66.67,1,1,.66.67,1,1,.66.67,1,1,.66.67,1,1,.66.67,1,1,.66.67,1,1,.66.67,1,1,.66.67,1,1,.66.67,1,1a72.07,72.07,0,1,0,101.83-102ZM751.1,48.1a45.23,45.23,0,0,1,24.6,7.31,45.83,45.83,0,0,1-63.19,63.47A45.49,45.49,0,0,1,705.3,94.3C705.3,69.1,725.9,48.1,751.1,48.1Z"/><path class="c" d="M1002.8,24.72a3.08,3.08,0,0,0-1-1,3.08,3.08,0,0,0-1-1,3.08,3.08,0,0,0-1-1,3.08,3.08,0,0,0-1-1,3.08,3.08,0,0,0-1-1,3.08,3.08,0,0,0-1-1,3.08,3.08,0,0,0-1-1,3.08,3.08,0,0,0-1-1,3.08,3.08,0,0,0-1-1,3.08,3.08,0,0,0-1-1,3.08,3.08,0,0,0-1-1,3.08,3.08,0,0,0-1-1,3.08,3.08,0,0,0-1-1,3.7,3.7,0,0,0-3.31-1.62H968.1a4.12,4.12,0,0,0-3.61,2.8L947.18,80.64,925.3,24.3A3.06,3.06,0,0,0,924,22.62a2.9,2.9,0,0,0-1-1,2.9,2.9,0,0,0-1-1,2.9,2.9,0,0,0-1-1,2.9,2.9,0,0,0-1-1,2.9,2.9,0,0,0-1-1,2.9,2.9,0,0,0-1-1,2.9,2.9,0,0,0-1-1,2.9,2.9,0,0,0-1-1,2.9,2.9,0,0,0-1-1,2.9,2.9,0,0,0-1-1,2.9,2.9,0,0,0-1-1,2.9,2.9,0,0,0-1-1,2.9,2.9,0,0,0-1-1A3.31,3.31,0,0,0,907.9,8.1h-3.6a3.23,3.23,0,0,0-3.4,2.2L874.8,77.93l-13.3-51a4,4,0,0,0-1.52-2,4.31,4.31,0,0,0-1-1,4.31,4.31,0,0,0-1-1,4.31,4.31,0,0,0-1-1,4.31,4.31,0,0,0-1-1,4.31,4.31,0,0,0-1-1,4.31,4.31,0,0,0-1-1,4.31,4.31,0,0,0-1-1,4.31,4.31,0,0,0-1-1,4.31,4.31,0,0,0-1-1,4.31,4.31,0,0,0-1-1,4.31,4.31,0,0,0-1-1,4.31,4.31,0,0,0-1-1,4.31,4.31,0,0,0-1-1,4,4,0,0,0-3.08-1.76H825.5c-2.8,0-4.4,2-3.6,4.8l37.8,134.4a12.25,12.25,0,0,0,2.5,3.09,3.66,3.66,0,0,0,1,1,3.66,3.66,0,0,0,1,1,3.66,3.66,0,0,0,1,1,3.66,3.66,0,0,0,1,1,3.66,3.66,0,0,0,1,1,3.66,3.66,0,0,0,1,1,3.66,3.66,0,0,0,1,1,3.66,3.66,0,0,0,1,1,3.66,3.66,0,0,0,1,1,3.66,3.66,0,0,0,1,1,3.66,3.66,0,0,0,1,1,3.66,3.66,0,0,0,1,1,3.87,3.87,0,0,0,3.1,1.71h3.2a3.4,3.4,0,0,0,3.4-2.2l31.68-81.1,26.52,67.1a3.05,3.05,0,0,0,1.3,1.62,3.08,3.08,0,0,0,1,1,3.08,3.08,0,0,0,1,1,3.08,3.08,0,0,0,1,1,3.08,3.08,0,0,0,1,1,3.08,3.08,0,0,0,1,1,3.08,3.08,0,0,0,1,1,3.08,3.08,0,0,0,1,1,3.08,3.08,0,0,0,1,1,3.08,3.08,0,0,0,1,1,3.08,3.08,0,0,0,1,1,3.08,3.08,0,0,0,1,1,3.08,3.08,0,0,0,1,1,3.08,3.08,0,0,0,1,1,3.51,3.51,0,0,0,3.1,1.58h3.2a3.84,3.84,0,0,0,3.6-2.8l37.79-134.4A3.48,3.48,0,0,0,1002.8,24.72Z"/><path class="c" d="M1144,24.8a4,4,0,0,0-1-1,4,4,0,0,0-1-1,4,4,0,0,0-1-1,4,4,0,0,0-1-1,4,4,0,0,0-1-1,4,4,0,0,0-1-1,4,4,0,0,0-1-1,4,4,0,0,0-1-1,4,4,0,0,0-1-1,4,4,0,0,0-1-1,4,4,0,0,0-1-1,4,4,0,0,0-1-1,4,4,0,0,0-1-1,3.89,3.89,0,0,0-3.11-1.7h-18.4a3.8,3.8,0,0,0-3.8,3.8V95.84L1036.3,22.1h-.06l-.94-1h-.06l-.94-1h-.06l-.94-1h-.06l-.94-1h-.06l-.94-1h-.06l-.94-1h-.06l-.94-1h-.06l-.94-1h-.06l-.94-1h-.06l-.94-1h-.06l-.94-1h-.06l-.94-1h-.06l-.94-1h-.06l-.94-1h-5a3.76,3.76,0,0,0-3.8,3.6V146.3a3.87,3.87,0,0,0,1.69,3.1,4,4,0,0,0,1,1,4,4,0,0,0,1,1,4,4,0,0,0,1,1,4,4,0,0,0,1,1,4,4,0,0,0,1,1,4,4,0,0,0,1,1,4,4,0,0,0,1,1,4,4,0,0,0,1,1,4,4,0,0,0,1,1,4,4,0,0,0,1,1,4,4,0,0,0,1,1,4,4,0,0,0,1,1,4,4,0,0,0,1,1,3.91,3.91,0,0,0,3.11,1.7h18.2a3.8,3.8,0,0,0,3.8-3.8V75.45l69.79,76.65h.09l.91,1h.09l.91,1h.09l.91,1h.09l.91,1h.09l.91,1h.09l.91,1h.09l.91,1h.09l.91,1h.09l.91,1h.09l.91,1h.09l.91,1h.09l.91,1h.09l.91,1h.09l.91,1h4.8a3.76,3.76,0,0,0,3.8-3.6V27.9A3.87,3.87,0,0,0,1144,24.8Z"/><path class="d" d="M8,10.8A3.8,3.8,0,0,1,11.8,7H93.2A3.8,3.8,0,0,1,97,10.8V27.2A3.8,3.8,0,0,1,93.2,31H34V63.8H83.4a3.93,3.93,0,0,1,3.8,3.8V84.2A3.8,3.8,0,0,1,83.4,88H34v35H93.2a3.8,3.8,0,0,1,3.8,3.8v16.4a3.8,3.8,0,0,1-3.8,3.8H11.8A3.8,3.8,0,0,1,8,143.2Z"/><path class="d" d="M107.4,12.2A3.53,3.53,0,0,1,110.8,7h20.4a3.68,3.68,0,0,1,3.4,2.2l38.4,86h1.4l38.4-86A3.68,3.68,0,0,1,216.2,7h20.4a3.53,3.53,0,0,1,3.4,5.2L178,146.8a3.59,3.59,0,0,1-3.4,2.2h-2a3.59,3.59,0,0,1-3.4-2.2Z"/><path class="d" d="M230,141.8,292.2,7.2A3.59,3.59,0,0,1,295.6,5h2A3.4,3.4,0,0,1,301,7.2l61.6,134.6a3.53,3.53,0,0,1-3.4,5.2H341.8c-3,0-4.4-1.2-5.8-4l-9.8-21.6H266.4L256.6,143a6,6,0,0,1-5.8,4H233.4A3.53,3.53,0,0,1,230,141.8Zm86.4-42.6-20-44h-.6l-19.6,44Z"/><path class="d" d="M380.8,8.6A3.76,3.76,0,0,1,384.6,5h5l83.2,88.4h.2V10.8A3.8,3.8,0,0,1,476.8,7h18.4a3.93,3.93,0,0,1,3.8,3.8V145.4a3.76,3.76,0,0,1-3.8,3.6h-4.8L406.8,57.2h-.2v86a3.8,3.8,0,0,1-3.8,3.8H384.6a3.93,3.93,0,0,1-3.8-3.8Z"/><path class="d" d="M539,116a16.82,16.82,0,0,1,16.6,16.6A16.65,16.65,0,0,1,539,149a16.47,16.47,0,0,1-16.4-16.4A16.65,16.65,0,0,1,539,116Z"/><path class="d" d="M594.2,31H563.6a3.8,3.8,0,0,1-3.8-3.8V10.8A3.8,3.8,0,0,1,563.6,7H651a3.8,3.8,0,0,1,3.8,3.8V27.2A3.8,3.8,0,0,1,651,31H620.4V143.2a3.93,3.93,0,0,1-3.8,3.8H598a3.93,3.93,0,0,1-3.8-3.8V31Z"/><path class="d" d="M736,5a72,72,0,1,1-71.8,72.2A71.87,71.87,0,0,1,736,5Zm0,118a46.09,46.09,0,0,0,46-45.8C782,52,761.2,31,736,31s-45.8,21-45.8,46.2A45.92,45.92,0,0,0,736,123Z"/><path class="d" d="M820.8,11.8C820,9,821.6,7,824.4,7h18.4a4.11,4.11,0,0,1,3.6,2.8l20.8,79.8h.8L899.8,7.2A3.23,3.23,0,0,1,903.2,5h3.6a3.23,3.23,0,0,1,3.4,2.2l32,82.4h.8L963.4,9.8A4.11,4.11,0,0,1,967,7h18.4c2.8,0,4.39,2,3.59,4.8L951.2,146.2a3.84,3.84,0,0,1-3.61,2.8H944.4a3.39,3.39,0,0,1-3.4-2.2L905.2,56.2h-1l-35.4,90.6a3.4,3.4,0,0,1-3.4,2.2h-3.2a3.84,3.84,0,0,1-3.6-2.8Z"/><path class="d" d="M1012.4,8.6a3.76,3.76,0,0,1,3.8-3.6h5l83.19,88.4h.2V10.8a3.8,3.8,0,0,1,3.8-3.8h18.4a3.93,3.93,0,0,1,3.8,3.8V145.4a3.76,3.76,0,0,1-3.8,3.6H1122l-83.6-91.8h-.2v86a3.8,3.8,0,0,1-3.8,3.8H1016.2a3.93,3.93,0,0,1-3.8-3.8V8.6Z"/><path class="e" d="M0,5.8A3.8,3.8,0,0,1,3.8,2H85.2A3.8,3.8,0,0,1,89,5.8V22.2A3.8,3.8,0,0,1,85.2,26H26V58.8H75.4a3.93,3.93,0,0,1,3.8,3.8V79.2A3.8,3.8,0,0,1,75.4,83H26v35H85.2a3.8,3.8,0,0,1,3.8,3.8v16.4a3.8,3.8,0,0,1-3.8,3.8H3.8A3.8,3.8,0,0,1,0,138.2Z"/><path class="e" d="M99.4,7.2A3.53,3.53,0,0,1,102.8,2h20.4a3.68,3.68,0,0,1,3.4,2.2l38.4,86h1.4l38.4-86A3.68,3.68,0,0,1,208.2,2h20.4A3.53,3.53,0,0,1,232,7.2L170,141.8a3.59,3.59,0,0,1-3.4,2.2h-2a3.59,3.59,0,0,1-3.4-2.2Z"/><path class="e" d="M222,136.8,284.2,2.2A3.59,3.59,0,0,1,287.6,0h2A3.4,3.4,0,0,1,293,2.2l61.6,134.6a3.53,3.53,0,0,1-3.4,5.2H333.8c-3,0-4.4-1.2-5.8-4l-9.8-21.6H258.4L248.6,138a6,6,0,0,1-5.8,4H225.4A3.53,3.53,0,0,1,222,136.8Zm86.4-42.6-20-44h-.6l-19.6,44Z"/><path class="e" d="M372.8,3.6A3.76,3.76,0,0,1,376.6,0h5l83.2,88.4h.2V5.8A3.8,3.8,0,0,1,468.8,2h18.4A3.93,3.93,0,0,1,491,5.8V140.4a3.76,3.76,0,0,1-3.8,3.6h-4.8L398.8,52.2h-.2v86a3.8,3.8,0,0,1-3.8,3.8H376.6a3.93,3.93,0,0,1-3.8-3.8Z"/><path class="e" d="M531,111a16.82,16.82,0,0,1,16.6,16.6A16.65,16.65,0,0,1,531,144a16.47,16.47,0,0,1-16.4-16.4A16.65,16.65,0,0,1,531,111Z"/><path class="e" d="M586.2,26H555.6a3.8,3.8,0,0,1-3.8-3.8V5.8A3.8,3.8,0,0,1,555.6,2H643a3.8,3.8,0,0,1,3.8,3.8V22.2A3.8,3.8,0,0,1,643,26H612.4V138.2a3.93,3.93,0,0,1-3.8,3.8H590a3.93,3.93,0,0,1-3.8-3.8V26Z"/><path class="e" d="M728,0a72,72,0,1,1,0,144,71.36,71.36,0,0,1-71.8-71.8A71.7,71.7,0,0,1,728,0Zm0,118a46.09,46.09,0,0,0,46-45.8C774,47,753.2,26,728,26s-45.8,21-45.8,46.2A45.92,45.92,0,0,0,728,118Z"/><path class="e" d="M812.8,6.8C812,4,813.6,2,816.4,2h18.4a4.11,4.11,0,0,1,3.6,2.8l20.8,79.8h.8L891.8,2.2A3.23,3.23,0,0,1,895.2,0h3.6a3.23,3.23,0,0,1,3.4,2.2l32,82.4h.8L955.4,4.8A4.11,4.11,0,0,1,959,2h18.4c2.8,0,4.39,2,3.59,4.8L943.2,141.2a3.84,3.84,0,0,1-3.61,2.8H936.4a3.39,3.39,0,0,1-3.4-2.2L897.2,51.2h-1l-35.4,90.6a3.4,3.4,0,0,1-3.4,2.2h-3.2a3.84,3.84,0,0,1-3.6-2.8Z"/><path class="e" d="M1004.4,3.6a3.76,3.76,0,0,1,3.8-3.6h5l83.19,88.4h.2V5.8a3.8,3.8,0,0,1,3.8-3.8h18.4a3.93,3.93,0,0,1,3.8,3.8V140.4a3.76,3.76,0,0,1-3.8,3.6H1114l-83.6-91.8h-.2v86a3.8,3.8,0,0,1-3.8,3.8H1008.2a3.93,3.93,0,0,1-3.8-3.8V3.6Z"/></svg>