<?xml version="1.0" standalone="no"?>
<!DOCTYPE svg PUBLIC "-//W3C//DTD SVG 20010904//EN"
 "http://www.w3.org/TR/2001/REC-SVG-20010904/DTD/svg10.dtd">
<svg version="1.0" xmlns="http://www.w3.org/2000/svg"
 width="752.000000pt" height="752.000000pt" viewBox="0 0 752.000000 752.000000"
 preserveAspectRatio="xMidYMid meet">
<metadata>
Created by potrace 1.14, written by Peter Selinger 2001-2017
</metadata>
<g transform="translate(0.000000,752.000000) scale(0.100000,-0.100000)"
fill="#000000" stroke="none">
<path d="M2517 6333 c-4 -3 -7 -28 -7 -55 0 -37 -3 -47 -12 -41 -19 11 -37 12
-43 3 -3 -5 3 -7 12 -5 22 3 45 -14 36 -27 -3 -6 -6 -30 -6 -54 0 -24 -4 -44
-9 -44 -6 0 -7 8 -3 18 5 13 4 14 -6 5 -9 -9 -9 -16 -1 -26 9 -10 9 -16 0 -25
-7 -7 -8 -12 -2 -12 6 0 11 -7 11 -15 0 -11 -4 -12 -14 -3 -7 6 -16 8 -20 4
-3 -3 -1 -6 5 -6 7 0 12 -4 12 -9 0 -5 -10 -7 -22 -5 -21 4 -21 4 -3 -4 11 -5
27 -7 35 -5 10 3 9 1 -2 -7 -10 -6 -18 -16 -18 -23 0 -8 3 -8 9 1 5 8 8 -2 7
-27 0 -23 -4 -41 -8 -41 -4 0 -5 -9 -3 -20 2 -11 -1 -20 -6 -20 -6 0 -7 -6 -2
-12 11 -19 12 -37 3 -43 -5 -3 -7 -12 -4 -19 3 -7 -2 -16 -10 -19 -9 -4 -16
-2 -16 2 0 5 6 12 13 14 6 3 8 6 2 6 -5 0 -17 -4 -25 -9 -13 -9 -13 -11 0 -20
8 -5 20 -8 26 -6 9 3 12 -32 5 -66 -2 -14 -18 -8 -18 7 0 8 4 12 8 9 4 -2 7 4
6 15 -1 11 -3 18 -6 16 -2 -3 -10 0 -16 5 -9 8 -12 4 -10 -12 1 -13 4 -24 5
-25 3 -3 7 -19 9 -34 0 -5 6 -7 12 -3 8 5 8 1 0 -14 -8 -15 -8 -22 2 -25 9 -4
8 -6 -2 -6 -11 -1 -11 -4 0 -18 10 -12 11 -15 1 -9 -9 6 -11 1 -8 -18 3 -18 1
-24 -6 -20 -8 5 -9 1 -4 -12 13 -32 15 -55 5 -49 -5 4 -19 -1 -31 -9 -12 -9
-18 -16 -12 -16 5 0 15 5 21 11 8 8 13 7 18 -2 5 -8 4 -10 -3 -5 -7 4 -12 3
-12 -3 0 -5 6 -12 13 -15 6 -3 -2 -3 -20 0 -26 3 -36 -1 -49 -21 -13 -19 -19
-22 -29 -12 -7 6 -23 19 -35 27 -13 8 -32 23 -42 33 -10 9 -22 17 -28 17 -5 0
-10 5 -10 11 0 5 5 7 12 3 7 -4 8 -3 4 5 -4 6 -12 8 -18 5 -6 -4 -22 6 -36 22
-13 16 -21 23 -17 15 6 -10 4 -12 -4 -7 -7 5 -10 15 -7 23 3 8 1 11 -4 8 -12
-7 -62 26 -102 67 -16 15 -28 25 -28 21 0 -3 -10 3 -22 14 -37 32 -48 36 -48
16 0 -10 11 -31 26 -46 14 -15 22 -32 19 -37 -4 -6 -1 -9 6 -8 6 2 14 -3 17
-11 3 -10 0 -12 -12 -8 -10 4 -15 3 -11 -4 4 -5 16 -7 27 -3 16 5 20 3 15 -9
-4 -10 2 -17 14 -20 11 -3 23 -15 26 -26 3 -12 9 -21 14 -21 5 0 9 -7 9 -16 0
-9 5 -12 13 -8 7 5 6 1 -2 -10 -13 -16 -13 -17 4 -14 14 2 20 -3 21 -18 1 -26
12 -44 25 -44 6 0 3 7 -6 16 -9 9 -13 19 -10 22 7 7 34 -29 35 -46 0 -7 -4
-10 -10 -7 -6 4 -7 -1 -3 -11 5 -15 7 -15 15 0 5 9 14 14 19 10 6 -4 6 -10 -1
-19 -8 -9 -8 -15 0 -20 7 -4 7 -13 -1 -28 -10 -21 -9 -21 5 -3 12 14 13 23 5
33 -15 17 -1 17 16 -1 10 -10 11 -16 2 -25 -6 -6 -7 -11 -1 -11 5 0 2 -5 -6
-10 -9 -6 -11 -10 -3 -10 7 0 10 -7 7 -15 -4 -8 -11 -12 -18 -8 -6 4 -6 0 2
-9 9 -11 9 -18 2 -21 -6 -3 -5 -4 2 -3 7 2 12 9 11 15 -2 6 1 11 6 11 6 0 8 9
6 20 -3 14 0 18 8 13 7 -4 6 0 -2 10 -12 15 -11 17 2 17 10 0 15 -7 12 -20 -2
-11 3 -24 13 -30 14 -8 14 -10 2 -11 -8 -1 -18 -1 -22 0 -5 0 -8 -4 -8 -9 0
-6 5 -10 12 -10 18 0 3 -10 -21 -15 -32 -6 -51 4 -44 23 7 18 5 17 -17 -12 -8
-11 -10 -17 -3 -13 6 4 14 3 17 -1 3 -5 -7 -8 -22 -7 -15 1 -33 -2 -39 -8 -8
-6 -13 -6 -13 0 0 5 -7 18 -15 29 -14 18 -15 18 -9 0 6 -17 5 -17 -17 -6 -13
7 -21 9 -17 5 4 -4 0 -14 -10 -22 -9 -8 -11 -11 -3 -7 21 11 61 13 61 4 0 -5
-8 -9 -17 -8 -10 0 -35 -3 -55 -6 -23 -5 -46 -2 -60 5 -31 17 -57 18 -51 3 2
-7 13 -11 24 -9 10 2 21 0 24 -5 3 -4 -3 -7 -12 -5 -10 1 -26 -2 -35 -7 -14
-7 -16 -5 -11 8 4 11 2 15 -4 11 -6 -4 -14 -1 -17 5 -3 7 -4 4 -1 -7 4 -17 0
-20 -25 -21 -20 -1 -27 2 -23 10 3 6 -2 3 -13 -6 -11 -10 -30 -16 -42 -13 -12
2 -22 0 -22 -4 0 -4 -13 -8 -30 -9 -16 0 -30 4 -30 9 0 5 -4 9 -10 9 -5 0 -7
-6 -4 -13 3 -8 -2 -14 -10 -14 -8 0 -13 3 -11 7 2 4 -2 7 -10 7 -8 0 -12 -4
-9 -9 3 -4 0 -8 -5 -8 -6 0 -11 5 -11 11 0 6 -7 4 -15 -5 -9 -8 -31 -15 -49
-14 -18 1 -38 -2 -44 -6 -24 -14 -11 -26 27 -26 22 0 42 -3 44 -7 3 -5 26 -8
51 -8 25 0 46 -3 46 -6 0 -4 10 -5 22 -1 12 3 19 1 15 -5 -3 -5 0 -10 8 -10 8
0 12 4 9 9 -3 4 0 8 5 8 6 0 11 -4 11 -9 0 -5 8 -8 18 -7 9 2 28 -4 42 -12 24
-14 24 -14 5 3 -20 17 -20 17 5 11 14 -3 31 -6 38 -6 7 0 10 -5 6 -12 -5 -7
-3 -8 7 -2 21 13 49 15 49 4 0 -7 6 -7 18 -1 11 6 28 5 49 -4 24 -10 33 -11
37 -2 3 9 5 9 5 1 1 -8 14 -10 37 -7 24 3 34 1 30 -6 -5 -7 6 -9 34 -5 29 4
40 2 40 -8 0 -10 3 -9 10 2 8 12 10 12 10 -5 0 -14 3 -16 8 -7 5 7 23 12 40
10 21 -1 28 -6 22 -13 -5 -6 -7 -23 -4 -38 2 -16 0 -27 -6 -27 -6 0 -8 6 -4
13 5 8 2 8 -9 -2 -12 -9 -17 -10 -17 -2 0 6 7 14 16 18 13 5 13 7 2 14 -11 7
-10 11 2 19 12 7 10 9 -7 7 -13 0 -25 -7 -27 -14 -3 -7 -2 -12 2 -10 10 3 13
-10 6 -28 -5 -11 -11 -12 -27 -4 -19 9 -18 7 2 -9 23 -19 23 -20 5 -24 -17 -3
-16 -5 4 -10 13 -4 21 -4 18 -1 -8 9 14 34 25 28 4 -3 -3 -22 -17 -43 -31 -45
-37 -51 -28 -29 4 13 2 16 -9 11 -8 -3 -18 -1 -22 5 -3 6 -11 11 -18 11 -6 0
-2 -7 10 -15 22 -16 24 -28 7 -59 -10 -16 -12 -17 -17 -2 -4 10 -3 15 1 12 4
-2 8 4 9 14 1 10 -5 21 -14 24 -13 5 -14 4 -3 -9 7 -9 8 -15 2 -15 -6 0 -9
-16 -8 -35 2 -20 -1 -33 -7 -32 -6 1 -11 -3 -12 -10 0 -7 -4 -16 -10 -21 -14
-14 -59 -26 -52 -15 4 5 0 10 -7 10 -8 0 -13 -7 -11 -16 3 -17 7 -17 40 -5
l20 7 -20 -20 c-11 -11 -23 -19 -27 -16 -4 2 -5 -3 -2 -11 3 -9 1 -16 -5 -16
-6 0 -12 5 -12 10 -1 6 -2 14 -3 19 0 5 -4 13 -8 17 -8 7 -4 -20 6 -46 3 -8
-4 -27 -16 -42 -13 -14 -30 -36 -38 -48 -8 -12 -21 -29 -28 -36 -25 -26 16
-29 43 -4 14 13 29 19 36 15 7 -5 10 -4 6 2 -4 6 5 21 18 33 14 13 25 19 25
14 0 -5 5 -1 11 9 6 9 15 14 21 11 6 -4 8 -3 5 3 -4 6 10 24 31 39 40 31 68
53 86 69 50 45 104 84 109 78 4 -3 7 1 7 9 0 11 6 14 20 11 11 -3 17 -9 14
-14 -3 -5 0 -8 8 -7 8 2 12 -5 10 -17 -2 -11 1 -16 5 -10 4 6 15 10 23 11 12
1 16 -8 15 -35 -1 -20 3 -41 7 -48 6 -7 4 -14 -3 -19 -8 -5 -9 -3 -4 6 6 9 4
11 -5 5 -10 -6 -9 -11 5 -22 12 -8 14 -13 6 -13 -11 0 -11 -3 0 -17 10 -11 10
-14 2 -9 -7 4 -13 2 -13 -3 0 -6 4 -11 9 -11 15 0 6 -32 -14 -46 -10 -8 -13
-14 -7 -14 19 0 27 4 24 13 -1 4 2 7 7 7 5 0 8 -16 7 -35 -2 -20 1 -38 5 -41
12 -7 11 -24 -2 -24 -5 0 -7 5 -3 12 4 7 3 8 -4 4 -6 -4 -9 -13 -5 -22 3 -9 0
-14 -7 -12 -7 2 -15 -4 -17 -12 -3 -9 -1 -11 4 -5 11 13 47 19 39 7 -3 -6 -3
-12 1 -15 5 -2 2 -2 -5 0 -22 5 -34 -7 -22 -22 7 -8 9 -19 5 -24 -3 -7 0 -8
10 -5 12 5 13 9 4 20 -8 10 -8 14 0 14 11 0 13 -5 15 -55 1 -16 5 -36 9 -42 5
-8 4 -13 -2 -13 -12 0 -14 11 -13 50 1 19 -1 21 -8 10 -5 -8 -6 -18 -3 -23 3
-5 -5 -6 -18 -3 l-24 7 24 -14 c15 -9 20 -17 12 -21 -6 -4 -16 -4 -23 0 -7 4
-8 3 -4 -5 4 -7 16 -9 28 -5 18 5 19 4 8 -18 -10 -21 -10 -21 3 -5 19 23 22
22 25 -8 1 -13 -5 -28 -14 -33 -15 -8 -15 -10 0 -15 10 -4 15 -3 11 3 -3 6 -1
10 4 10 15 0 14 -13 -1 -29 -9 -10 -9 -12 -1 -7 8 4 11 -1 10 -14 -1 -11 -4
-20 -7 -20 -3 0 -15 -7 -26 -16 -18 -15 -18 -15 3 -5 30 15 43 14 43 -5 0 -8
-4 -13 -8 -10 -5 3 -9 -1 -9 -9 0 -8 4 -12 8 -10 4 3 9 -2 13 -10 3 -8 -3 -19
-12 -24 -16 -10 -16 -10 1 -11 15 0 18 -7 16 -32 -1 -18 1 -41 5 -50 3 -10 8
-25 11 -33 2 -9 -4 -37 -14 -62 l-18 -47 -7 32 c-4 17 -8 35 -8 39 -1 5 -7 13
-15 18 -9 7 -12 23 -9 47 2 21 1 37 -2 37 -22 -3 -32 2 -26 14 5 9 4 9 -6 0
-10 -9 -24 -2 -67 32 -123 101 -320 113 -453 30 -53 -33 -110 -87 -126 -118
-8 -15 -19 -25 -23 -22 -5 2 -9 -1 -8 -8 1 -34 -4 -48 -15 -41 -6 4 -8 3 -5
-4 4 -5 3 -21 -2 -34 -9 -21 -10 -21 -12 -3 -1 11 -2 28 -2 37 0 9 -5 16 -11
15 -6 -1 -10 3 -9 10 1 6 -4 17 -12 23 -8 7 -15 18 -15 26 0 7 -8 18 -17 23
-10 6 -14 11 -8 11 5 0 -1 7 -13 16 -12 8 -19 20 -16 26 4 6 2 8 -4 4 -6 -3
-17 0 -25 8 -8 9 -43 29 -77 47 -132 67 -307 48 -426 -47 -23 -18 -45 -30 -49
-26 -3 4 -5 2 -3 -3 4 -15 -27 -56 -37 -47 -5 4 -5 2 -2 -5 8 -12 -23 -73 -36
-73 -5 0 -6 -3 -4 -7 3 -5 -1 -36 -8 -70 -13 -64 -10 -129 10 -213 0 -3 9 -20
18 -38 10 -18 15 -38 11 -44 -4 -7 -3 -8 4 -4 7 4 12 3 12 -1 0 -5 11 -21 25
-36 25 -26 25 -27 5 -27 -47 0 -62 -62 -19 -75 10 -4 19 -11 19 -16 0 -5 7 -9
15 -9 14 0 21 37 15 79 -1 11 2 11 14 -2 18 -17 22 -32 6 -22 -6 4 -7 -1 -3
-11 4 -11 8 -13 11 -6 5 16 25 15 41 0 6 -7 15 -13 19 -13 20 -1 52 -27 45
-38 -5 -9 -3 -9 8 -1 24 18 44 11 42 -16 -1 -14 1 -19 3 -12 3 6 10 12 15 12
6 0 7 -4 4 -10 -10 -16 1 -11 16 7 8 10 9 14 2 10 -6 -4 -14 -3 -18 3 -3 5 1
10 9 10 8 0 17 -4 21 -10 3 -5 12 -7 20 -3 8 3 15 1 15 -5 0 -6 -8 -9 -17 -8
-10 2 -23 -2 -29 -9 -7 -6 -169 -74 -360 -150 -414 -164 -433 -173 -500 -236
-169 -162 -176 -446 -16 -620 44 -48 138 -109 192 -124 14 -4 49 -18 78 -31
29 -13 54 -24 57 -24 2 0 167 -65 367 -144 200 -79 552 -219 783 -310 231 -92
560 -223 730 -290 171 -68 373 -149 450 -179 77 -30 261 -103 408 -161 147
-58 270 -106 272 -106 3 0 226 88 497 195 271 108 651 258 843 335 193 76 562
222 820 324 259 103 479 190 490 195 11 5 52 21 90 36 39 15 79 31 90 36 11 4
99 40 195 78 224 89 235 95 296 156 205 205 162 555 -86 697 -42 25 -820 338
-838 338 -5 0 -9 7 -9 15 0 11 4 12 14 4 7 -6 13 -8 13 -3 0 5 4 3 9 -5 7 -11
11 -10 19 6 9 15 8 20 -3 20 -8 0 -12 -3 -10 -7 2 -4 -2 -7 -10 -7 -8 0 -15 4
-15 9 0 7 16 12 23 6 1 -2 17 8 35 20 32 23 70 23 56 1 -4 -7 -3 -9 3 -6 6 4
8 19 5 33 -3 19 -1 25 7 20 6 -4 9 -11 7 -15 -3 -4 0 -13 6 -21 8 -12 9 -12 4
2 -6 19 25 42 40 30 5 -4 6 -3 2 2 -4 5 -3 17 2 27 7 12 7 20 0 24 -6 4 -10 3
-9 -2 3 -20 -2 -34 -10 -28 -6 3 -15 -3 -21 -12 -11 -17 -11 -17 -6 0 3 10 6
21 6 23 0 2 7 4 15 4 8 0 14 5 12 12 -1 7 9 12 25 12 21 -1 26 3 23 18 -3 12
0 18 8 15 7 -3 11 -11 9 -18 -3 -11 -1 -12 10 -1 11 11 10 14 -2 22 -18 11
-35 8 -35 -8 0 -5 -3 -14 -7 -18 -13 -13 -9 11 8 44 8 18 20 32 25 32 6 0 7 5
4 10 -3 5 -3 16 2 23 8 13 9 18 11 55 1 15 6 21 14 16 7 -5 8 -3 3 7 -13 21
-14 53 -1 61 8 5 8 8 0 8 -12 0 -12 29 1 49 5 9 4 12 -2 8 -13 -8 -27 39 -17
56 4 7 3 9 -1 4 -10 -9 -37 51 -29 64 3 5 2 8 -3 7 -4 -2 -9 0 -10 5 -2 4 -14
18 -28 31 -14 13 -25 26 -25 29 0 7 -47 55 -58 59 -4 2 -6 7 -4 11 1 5 -2 6
-8 2 -5 -3 -10 -1 -10 5 0 6 -4 9 -9 6 -9 -6 -64 18 -57 25 8 8 -59 13 -159
13 -91 1 -105 -2 -160 -29 -69 -34 -151 -112 -180 -170 -11 -22 -27 -46 -35
-53 -8 -8 -9 -11 -2 -7 14 7 17 -11 3 -19 -10 -7 -33 49 -24 58 4 3 2 6 -4 6
-6 0 -16 14 -23 30 -7 17 -17 30 -22 30 -6 0 -7 7 -4 16 3 8 2 13 -3 9 -5 -3
-18 6 -29 20 -11 14 -25 25 -30 25 -6 0 -15 6 -19 13 -10 15 -98 59 -133 67
-54 11 -272 1 -264 -12 7 -10 -55 -38 -72 -31 -10 3 -12 0 -8 -10 3 -10 -2
-18 -15 -22 -12 -3 -26 -15 -32 -26 -5 -11 -14 -17 -20 -14 -5 4 -8 1 -7 -7 2
-7 -3 -12 -10 -10 -8 1 -11 -2 -7 -8 8 -13 -14 -52 -25 -45 -6 3 -7 -1 -4 -9
3 -9 1 -16 -6 -16 -6 0 -8 -4 -5 -10 3 -5 -1 -22 -9 -37 l-14 -28 -8 30 c-4
17 -11 35 -16 42 -5 7 -6 18 -2 24 4 7 3 9 -4 5 -5 -3 -20 10 -32 29 -27 44
-90 96 -158 130 -73 37 -186 45 -277 20 -36 -9 -68 -21 -71 -26 -11 -18 -48
-7 -286 87 l-243 96 -40 -15 c-22 -8 -156 -61 -297 -117 l-257 -102 -35 27
c-76 58 -242 83 -334 51 -22 -8 -42 -12 -45 -10 -2 3 -14 7 -26 9 -16 3 -27
-4 -41 -28 -25 -43 -72 -87 -83 -80 -6 3 -7 1 -3 -6 9 -13 -10 -41 -28 -41 -7
0 -7 3 -1 8 6 4 10 25 10 47 1 22 5 84 9 138 8 88 10 96 25 85 13 -10 12 -9
-2 8 -9 11 -14 23 -11 27 3 3 6 22 6 41 0 20 4 34 8 31 5 -3 12 -1 15 5 4 6 1
9 -7 8 -14 -3 -14 -4 3 147 15 140 17 154 18 203 0 24 4 41 9 39 4 -3 7 21 6
53 -1 60 3 64 41 43 20 -11 20 -11 0 -35 -19 -22 -19 -22 -1 -8 18 14 19 13
13 -3 -4 -11 -3 -16 4 -12 6 4 8 13 5 21 -3 8 1 14 9 14 18 0 18 -4 4 -33 -10
-22 -10 -22 7 -2 11 14 18 16 21 8 3 -7 9 -13 15 -13 15 0 42 -31 45 -53 2
-12 6 -23 10 -26 3 -3 3 4 0 17 -6 27 4 29 23 2 8 -11 20 -20 26 -20 7 0 21
-11 32 -25 11 -13 21 -22 24 -20 3 3 16 -5 29 -17 14 -13 44 -36 67 -52 23
-16 39 -33 35 -39 -3 -5 -1 -7 4 -4 6 4 26 -7 44 -23 37 -33 59 -38 59 -15 0
8 -4 15 -9 15 -13 0 -107 121 -103 132 1 5 -2 7 -7 4 -5 -3 -19 10 -32 29 -13
19 -27 35 -31 35 -5 0 -8 7 -8 16 0 9 5 12 13 8 7 -4 8 -3 4 2 -5 5 -15 9 -24
9 -9 0 -21 9 -27 20 -6 11 -19 26 -28 33 -20 14 -25 48 -6 36 7 -4 8 -3 4 4
-4 6 -13 9 -20 6 -14 -5 -56 44 -56 67 0 7 -3 10 -6 6 -3 -3 -18 8 -31 24 -28
33 -26 40 14 45 15 2 49 7 76 12 26 5 47 6 47 1 0 -5 5 -9 11 -9 5 0 7 6 3 13
-5 7 0 6 11 -3 11 -9 16 -10 11 -2 -5 8 -1 12 13 12 15 0 19 -5 16 -21 -3 -12
-1 -18 3 -15 4 4 8 12 8 17 1 5 2 14 3 19 0 6 17 10 37 10 25 0 33 -4 29 -12
-4 -7 -1 -6 7 3 7 9 20 16 28 16 8 0 32 3 53 7 29 5 36 3 31 -6 -6 -10 -5 -10
8 -1 8 7 18 10 21 6 4 -3 7 -2 7 4 0 5 7 10 15 10 8 0 15 -5 15 -11 0 -7 3 -7
8 1 4 6 25 14 47 17 23 4 50 8 60 10 22 4 152 19 174 20 8 1 16 6 18 13 3 7
-19 14 -64 18 -37 4 -80 13 -96 20 -15 8 -25 9 -21 4 4 -7 -11 -8 -43 -4 -66
9 -96 13 -111 14 -8 1 -10 6 -6 14 6 9 5 9 -7 0 -8 -6 -24 -10 -34 -8 -11 2
-26 4 -33 4 -7 1 -10 6 -6 12 4 8 1 8 -12 2 -11 -5 -32 -8 -49 -5 -16 2 -40 4
-52 5 -13 0 -23 5 -23 10 0 5 -7 4 -15 -3 -18 -15 -20 1 -2 19 10 10 9 11 -5
6 -10 -4 -18 -11 -18 -15 0 -4 -13 -7 -30 -6 -34 1 -38 10 -12 25 9 6 12 11 6
11 -6 0 -14 -3 -18 -7 -13 -13 -96 -24 -96 -13 0 4 -12 6 -26 4 l-25 -2 24 31
c13 18 34 46 47 64 13 18 27 30 32 27 5 -3 7 -1 6 4 -4 15 42 73 52 67 6 -3 8
0 5 7 -3 7 8 27 23 43 16 17 36 42 46 57 10 15 22 25 27 22 5 -3 8 -1 7 4 -5
15 44 72 55 65 6 -3 7 -1 3 6 -4 6 4 25 18 42 25 29 33 49 20 49 -12 0 -74
-42 -74 -49 0 -4 -16 -16 -35 -27 -19 -10 -35 -22 -35 -26 0 -5 -7 -8 -16 -8
-9 0 -12 -5 -8 -12 5 -8 2 -9 -10 -5 -9 4 -15 3 -12 -2 3 -5 -1 -14 -9 -21 -8
-7 -15 -10 -15 -7 0 3 -16 -10 -35 -29 -20 -19 -45 -34 -57 -34 -23 0 -20 10
4 14 8 1 27 12 44 24 17 13 21 19 10 15 -14 -5 -17 -3 -11 7 5 9 4 11 -4 6 -6
-4 -9 -11 -6 -16 3 -4 -3 -14 -12 -21 -14 -12 -15 -11 -10 11 4 14 4 19 1 12
-3 -6 -10 -10 -15 -7 -5 4 -6 -1 -3 -9 3 -9 -3 -17 -17 -21 l-22 -7 22 -13
c22 -11 22 -12 5 -19 -12 -5 -23 -1 -31 10 -11 15 -12 13 -8 -15 3 -26 -1 -34
-25 -46 -16 -8 -34 -23 -40 -32 -9 -15 -10 -14 -5 7 6 24 5 24 -9 6 -9 -11
-19 -17 -22 -13 -4 4 -12 3 -18 -3 -8 -6 -12 -2 -13 13 -2 17 0 19 7 7 5 -8
10 -10 10 -5 0 6 -5 16 -11 22 -6 6 -13 28 -15 49 -3 22 -6 47 -8 57 -2 9 0
15 4 12 5 -3 12 -1 15 5 4 6 1 9 -7 8 -9 -2 -13 9 -13 37 0 22 -3 42 -7 45 -3
3 -9 43 -12 90 -3 47 -10 106 -14 133 -6 32 -5 47 2 47 7 0 8 3 1 8 -6 4 -10
16 -10 27 0 11 -3 28 -8 39 -7 13 -6 16 3 11 9 -6 9 -3 1 13 -6 12 -11 34 -11
49 1 15 -3 49 -8 75 -6 32 -5 51 2 59 8 9 8 10 -1 5 -9 -5 -13 3 -14 26 -1 18
-2 38 -4 43 -1 6 -3 18 -3 28 -2 17 -13 22 -25 10z m-92 -863 c6 0 3 -6 -6
-13 -9 -7 -17 -16 -17 -21 -2 -13 -26 -16 -42 -6 -21 13 6 51 33 46 12 -3 27
-5 32 -6z m262 -66 c-3 -3 -12 -4 -19 -1 -8 3 -5 6 6 6 11 1 17 -2 13 -5z
m-400 -379 c0 -8 -4 -15 -9 -15 -10 0 -11 14 -1 23 9 10 10 9 10 -8z m120
-132 c-4 -3 0 -17 8 -30 23 -35 8 -47 -25 -21 -16 13 -29 27 -29 32 -1 5 2 7
5 3 4 -3 13 0 21 8 8 8 17 15 20 15 4 0 3 -3 0 -7z m-680 -1229 c-3 -4 0 -12
7 -20 7 -7 12 -25 10 -41 -4 -24 -3 -25 5 -8 5 11 10 14 10 8 2 -23 4 -28 20
-40 14 -10 12 -13 -14 -23 -145 -56 -145 -56 -145 -40 0 5 7 6 17 3 10 -4 14
-2 10 4 -4 6 -1 18 7 26 8 8 12 17 9 21 -3 3 2 8 11 12 9 3 14 10 11 14 -3 5
3 16 12 26 10 10 19 26 19 36 2 25 3 28 11 28 3 0 4 -3 0 -6z m3909 -37 c5 -1
9 -10 8 -19 0 -9 4 -16 10 -15 5 1 12 -7 14 -18 4 -16 2 -17 -10 -7 -8 6 -18
9 -21 5 -4 -3 -7 -1 -7 6 0 7 -4 10 -8 7 -4 -2 -13 -1 -20 3 -9 5 -9 13 0 33
7 15 16 22 19 16 3 -5 10 -10 15 -11z"/>
<path d="M2369 5453 c-6 -7 -10 -13 -8 -14 31 -6 40 -7 35 -2 -3 4 -1 11 4 18
7 8 5 12 -5 12 -9 0 -20 -6 -26 -14z"/>
<path d="M2386 4872 c-3 -5 4 -16 15 -25 10 -9 19 -12 19 -7 0 6 -7 13 -15 16
-8 4 -12 10 -9 15 3 5 3 9 0 9 -3 0 -7 -4 -10 -8z"/>
<path d="M1723 3635 c4 -5 -2 -18 -13 -30 -20 -21 -20 -21 3 -22 12 0 16 1 9
4 -10 4 -10 9 3 23 13 14 14 20 3 26 -7 4 -10 3 -5 -1z"/>
<path d="M1690 3560 c0 -5 5 -10 10 -10 6 0 10 5 10 10 0 6 -4 10 -10 10 -5 0
-10 -4 -10 -10z"/>
<path d="M1665 3529 c-4 -6 -4 -13 -1 -16 3 -4 6 -1 6 6 0 7 5 9 10 6 6 -3 10
-1 10 4 0 14 -17 14 -25 0z"/>
<path d="M5630 3621 c0 -7 -4 -10 -9 -6 -5 3 -12 1 -15 -4 -4 -5 -2 -12 3 -15
11 -7 36 22 27 31 -3 3 -6 1 -6 -6z"/>
<path d="M2475 6160 c3 -5 8 -10 11 -10 2 0 4 5 4 10 0 6 -5 10 -11 10 -5 0
-7 -4 -4 -10z"/>
<path d="M2445 6140 c-16 -7 -17 -9 -3 -9 9 -1 20 4 23 9 7 11 7 11 -20 0z"/>
<path d="M2440 6106 c0 -2 7 -7 16 -10 8 -3 12 -2 9 4 -6 10 -25 14 -25 6z"/>
<path d="M2430 6067 c-12 -21 -12 -21 6 -7 10 8 20 15 22 16 2 1 -1 4 -5 7 -5
3 -15 -4 -23 -16z"/>
<path d="M2433 5984 c0 -7 4 -11 8 -8 14 8 5 -41 -9 -51 -11 -9 -10 -11 6 -11
10 0 19 5 20 11 0 5 3 19 5 31 3 13 -1 24 -12 31 -14 9 -18 8 -18 -3z"/>
<path d="M2410 5939 c0 -5 5 -7 10 -4 6 3 10 8 10 11 0 2 -4 4 -10 4 -5 0 -10
-5 -10 -11z"/>
<path d="M2393 5915 c0 -8 4 -12 9 -9 5 3 6 10 3 15 -9 13 -12 11 -12 -6z"/>
<path d="M2430 5885 c0 -8 4 -15 9 -15 6 0 8 -9 6 -20 -2 -11 0 -18 5 -15 7 4
7 26 0 45 -1 3 -2 8 -1 13 0 4 -3 7 -9 7 -5 0 -10 -7 -10 -15z"/>
<path d="M2380 5866 c0 -2 8 -10 18 -17 15 -13 16 -12 3 4 -13 16 -21 21 -21
13z"/>
<path d="M2417 5841 c-4 -17 -3 -21 5 -13 5 5 8 16 6 23 -3 8 -7 3 -11 -10z"/>
<path d="M2370 5740 c0 -5 5 -10 11 -10 5 0 7 5 4 10 -3 6 -8 10 -11 10 -2 0
-4 -4 -4 -10z"/>
<path d="M2395 5720 c-3 -5 -1 -10 4 -10 6 0 11 5 11 10 0 6 -2 10 -4 10 -3 0
-8 -4 -11 -10z"/>
<path d="M2416 5687 c3 -10 9 -15 12 -12 3 3 0 11 -7 18 -10 9 -11 8 -5 -6z"/>
<path d="M2070 5666 c0 -2 7 -7 16 -10 8 -3 12 -2 9 4 -6 10 -25 14 -25 6z"/>
<path d="M2401 5638 c-13 -20 -12 -22 1 -11 8 7 17 11 20 8 2 -3 5 2 5 10 0
21 -10 19 -26 -7z"/>
<path d="M2900 5638 c0 -4 7 -8 15 -8 8 0 15 4 15 8 0 5 -7 9 -15 9 -8 0 -15
-4 -15 -9z"/>
<path d="M2403 5613 c-7 -3 -13 -8 -13 -13 0 -10 24 -7 28 4 5 11 -1 14 -15 9z"/>
<path d="M2915 5610 c3 -5 8 -10 11 -10 2 0 4 5 4 10 0 6 -5 10 -11 10 -5 0
-7 -4 -4 -10z"/>
<path d="M2400 5570 c13 -9 12 -12 -4 -25 -11 -8 -15 -15 -9 -15 7 0 15 5 18
10 4 6 11 7 17 4 6 -4 6 2 -1 15 -7 11 -17 21 -24 21 -8 0 -7 -4 3 -10z"/>
<path d="M2010 5546 c0 -2 7 -7 16 -10 8 -3 12 -2 9 4 -6 10 -25 14 -25 6z"/>
<path d="M2053 5525 c0 -8 4 -12 9 -9 5 3 6 10 3 15 -9 13 -12 11 -12 -6z"/>
<path d="M2740 5524 c0 -13 18 -39 24 -34 2 3 -2 14 -10 24 -8 11 -14 16 -14
10z"/>
<path d="M2335 5500 c-3 -5 -1 -10 4 -10 6 0 11 5 11 10 0 6 -2 10 -4 10 -3 0
-8 -4 -11 -10z"/>
<path d="M2731 5483 c0 -13 -5 -23 -11 -23 -5 0 -6 8 -3 18 7 16 6 16 -11 0
-9 -10 -22 -18 -27 -18 -5 0 -9 -8 -9 -17 1 -17 1 -17 11 0 6 10 18 16 27 13
9 -3 28 2 42 10 14 9 17 13 8 10 -10 -3 -18 2 -21 12 -3 12 -5 11 -6 -5z"/>
<path d="M2650 5478 c0 -11 12 -10 30 2 12 7 10 9 -8 7 -12 0 -22 -5 -22 -9z"/>
<path d="M2127 5399 c7 -7 15 -10 18 -7 3 3 -2 9 -12 12 -14 6 -15 5 -6 -5z"/>
<path d="M2834 5316 c1 -8 5 -18 8 -22 4 -3 5 1 4 10 -1 8 -5 18 -8 22 -4 3
-5 -1 -4 -10z"/>
<path d="M2076 5302 c-3 -4 4 -9 15 -9 23 -2 25 3 4 10 -8 4 -16 3 -19 -1z"/>
<path d="M2135 5300 c-3 -5 -1 -10 4 -10 6 0 11 5 11 10 0 6 -2 10 -4 10 -3 0
-8 -4 -11 -10z"/>
<path d="M2865 5300 c-3 -6 1 -7 9 -4 18 7 21 14 7 14 -6 0 -13 -4 -16 -10z"/>
<path d="M2805 5291 c3 -5 -1 -11 -7 -14 -7 -3 -3 -4 10 -4 25 1 29 12 6 21
-8 3 -13 2 -9 -3z"/>
<path d="M2953 5272 c-1 -22 0 -24 9 -8 6 10 6 22 2 26 -5 5 -10 -3 -11 -18z"/>
<path d="M2014 5278 c6 -20 -9 -34 -19 -18 -4 6 -11 8 -16 5 -12 -8 -12 -35 1
-35 5 0 7 8 4 18 -5 16 -5 16 8 0 13 -15 15 -15 25 1 8 12 8 22 1 32 -8 11 -9
11 -4 -3z"/>
<path d="M2120 5269 c0 -5 -6 -7 -12 -3 -7 4 -9 3 -5 -1 13 -15 36 -14 30 1
-6 17 -13 18 -13 3z"/>
<path d="M2845 5270 c-3 -6 1 -7 9 -4 18 7 21 14 7 14 -6 0 -13 -4 -16 -10z"/>
<path d="M3016 5271 c-3 -5 2 -15 12 -22 15 -12 16 -12 5 2 -7 9 -10 19 -6 22
3 4 4 7 0 7 -3 0 -8 -4 -11 -9z"/>
<path d="M3053 5265 c0 -8 4 -12 9 -9 5 3 6 10 3 15 -9 13 -12 11 -12 -6z"/>
<path d="M3172 5265 c4 -4 3 -14 -3 -21 -7 -9 -6 -14 3 -20 7 -4 10 -4 6 1 -4
4 -3 14 3 21 7 9 6 14 -3 20 -7 4 -10 4 -6 -1z"/>
<path d="M1850 5245 c-11 -13 -11 -18 0 -28 10 -9 11 -9 6 1 -4 7 -2 19 4 27
7 8 10 15 7 15 -2 0 -10 -7 -17 -15z"/>
<path d="M3075 5251 c-3 -5 -2 -12 3 -15 5 -3 9 1 9 9 0 17 -3 19 -12 6z"/>
<path d="M1806 5238 c3 -4 9 -8 15 -8 5 0 9 4 9 8 0 5 -7 9 -15 9 -8 0 -12 -4
-9 -9z"/>
<path d="M3195 5241 c-3 -5 -2 -12 3 -15 5 -3 9 1 9 9 0 17 -3 19 -12 6z"/>
<path d="M1757 5233 c-10 -9 -9 -23 1 -23 5 0 9 7 9 15 0 17 -1 18 -10 8z"/>
<path d="M1615 5220 c3 -5 8 -10 11 -10 2 0 4 5 4 10 0 6 -5 10 -11 10 -5 0
-7 -4 -4 -10z"/>
<path d="M1717 5208 c9 -10 19 -15 22 -12 3 4 0 9 -7 11 -6 3 -10 8 -8 12 3 4
-1 8 -9 8 -13 0 -12 -4 2 -19z"/>
<path d="M1787 5216 c-4 -10 -1 -13 8 -9 8 3 12 9 9 14 -7 12 -11 11 -17 -5z"/>
<path d="M3246 5218 c3 -4 11 -5 19 -1 21 7 19 12 -4 10 -11 0 -18 -5 -15 -9z"/>
<path d="M3298 5218 c6 -6 18 -8 28 -6 14 3 12 5 -9 10 -19 3 -25 2 -19 -4z"/>
<path d="M1940 5065 c0 -7 30 -13 34 -7 3 4 -4 9 -15 9 -10 1 -19 0 -19 -2z"/>
<path d="M2873 5033 c0 -9 4 -10 14 -2 7 6 13 12 13 14 0 1 -6 2 -13 2 -8 0
-14 -6 -14 -14z"/>
<path d="M2785 5030 c-8 -13 9 -20 24 -11 10 6 9 10 -3 14 -8 3 -18 2 -21 -3z"/>
<path d="M2167 5019 c7 -7 15 -10 18 -7 3 3 -2 9 -12 12 -14 6 -15 5 -6 -5z"/>
<path d="M2815 5000 c3 -5 8 -10 11 -10 2 0 4 5 4 10 0 6 -5 10 -11 10 -5 0
-7 -4 -4 -10z"/>
<path d="M2164 4931 c20 -22 26 -25 26 -13 0 4 -10 13 -22 21 -23 14 -23 14
-4 -8z"/>
<path d="M2659 4900 c-1 -3 -3 -15 -4 -28 -2 -22 -1 -22 13 -8 13 12 14 19 4
28 -7 7 -13 10 -13 8z"/>
<path d="M2110 4830 c-8 -5 -16 -14 -16 -20 -1 -5 -2 -14 -3 -20 0 -5 -6 -10
-12 -10 -6 0 -8 7 -4 18 5 14 4 15 -6 5 -9 -9 -10 -16 -3 -23 15 -15 43 -2 40
18 -2 9 4 22 13 29 19 15 12 17 -9 3z"/>
<path d="M2735 4820 c-3 -5 -1 -10 4 -10 6 0 11 5 11 10 0 6 -2 10 -4 10 -3 0
-8 -4 -11 -10z"/>
<path d="M2400 4790 c-10 -7 -11 -10 -2 -10 6 0 12 -5 12 -11 0 -5 -4 -8 -9
-4 -5 3 -13 0 -17 -7 -4 -7 -3 -10 1 -5 5 4 16 0 25 -8 15 -13 16 -12 16 14
-1 36 -7 43 -26 31z"/>
<path d="M2375 4731 c-3 -5 -2 -12 3 -15 5 -3 9 1 9 9 0 17 -3 19 -12 6z"/>
<path d="M1975 4700 c-3 -5 -1 -10 4 -10 6 0 11 5 11 10 0 6 -2 10 -4 10 -3 0
-8 -4 -11 -10z"/>
<path d="M2851 4707 c2 -1 14 -10 26 -20 16 -14 23 -15 29 -6 4 7 3 10 -3 6
-6 -4 -16 0 -23 8 -7 8 -17 15 -23 15 -6 0 -8 -1 -6 -3z"/>
<path d="M2375 4691 c-3 -5 -2 -12 3 -15 5 -3 9 1 9 9 0 17 -3 19 -12 6z"/>
<path d="M2410 4691 c0 -6 4 -12 8 -15 5 -3 9 1 9 9 0 8 -4 15 -9 15 -4 0 -8
-4 -8 -9z"/>
<path d="M1991 4667 c-13 -21 -12 -21 5 -5 10 10 16 20 13 22 -3 3 -11 -5 -18
-17z"/>
<path d="M2919 4673 c-13 -17 -13 -17 5 -3 18 14 19 13 12 -5 -6 -16 -5 -18 5
-7 9 8 10 15 3 22 -8 8 -15 5 -25 -7z"/>
<path d="M2395 4660 c-4 -6 -1 -9 7 -8 7 2 12 -2 11 -9 -1 -6 4 -14 13 -17 12
-4 12 -2 4 14 -13 25 -27 33 -35 20z"/>
<path d="M2421 4558 c15 -34 24 -36 26 -5 0 12 -1 16 -4 9 -4 -10 -9 -8 -19 5
-13 16 -13 15 -3 -9z"/>
<path d="M2410 4520 c0 -5 5 -10 11 -10 5 0 7 5 4 10 -3 6 -8 10 -11 10 -2 0
-4 -4 -4 -10z"/>
<path d="M2391 4493 c7 -12 15 -20 18 -17 3 2 -3 12 -13 22 -17 16 -18 16 -5
-5z"/>
<path d="M3923 4502 c-12 -8 -16 -24 -14 -64 1 -30 27 -39 37 -13 4 8 12 15
19 15 21 0 25 37 6 54 -19 18 -30 19 -48 8z"/>
<path d="M3516 4478 c-17 -23 -13 -35 18 -58 31 -22 39 -19 47 18 11 55 -35
84 -65 40z"/>
<path d="M2616 4462 c-3 -5 1 -9 9 -9 8 0 12 4 9 9 -3 4 -7 8 -9 8 -2 0 -6 -4
-9 -8z"/>
<path d="M2417 4407 c-3 -8 1 -14 8 -14 7 0 11 6 8 14 -3 7 -6 13 -8 13 -2 0
-5 -6 -8 -13z"/>
<path d="M4195 4384 c-9 -9 -14 -23 -11 -31 3 -8 6 -23 6 -34 0 -22 28 -26 36
-4 4 8 12 15 19 15 24 0 27 34 5 52 -27 22 -34 22 -55 2z"/>
<path d="M3238 4373 c-18 -21 -13 -40 16 -65 36 -30 47 -23 44 30 -2 39 -7 48
-24 50 -11 2 -27 -5 -36 -15z"/>
<path d="M2454 4284 c-18 -14 -18 -15 4 -4 12 6 22 13 22 15 0 8 -5 6 -26 -11z"/>
<path d="M4478 4276 c-16 -15 -12 -86 3 -86 14 0 69 42 69 52 0 11 -38 48 -49
48 -5 0 -16 -6 -23 -14z"/>
<path d="M2962 4267 c-22 -29 -21 -37 5 -61 15 -14 33 -26 39 -26 13 0 24 64
14 80 -10 16 -48 20 -58 7z"/>
<path d="M2446 4242 c-3 -5 1 -9 9 -9 8 0 15 4 15 9 0 4 -4 8 -9 8 -6 0 -12
-4 -15 -8z"/>
<path d="M4756 4164 c-11 -10 -14 -25 -10 -42 12 -54 12 -54 43 -31 40 29 45
45 21 69 -24 24 -34 25 -54 4z"/>
<path d="M2400 4166 c0 -2 8 -10 18 -17 15 -13 16 -12 3 4 -13 16 -21 21 -21
13z"/>
<path d="M6430 3831 c0 -6 4 -13 10 -16 6 -3 7 1 4 9 -7 18 -14 21 -14 7z"/>
<path d="M6410 3680 c0 -5 5 -10 10 -10 6 0 10 5 10 10 0 6 -4 10 -10 10 -5 0
-10 -4 -10 -10z"/>
<path d="M6410 3645 c-7 -9 -8 -15 -2 -15 5 0 12 7 16 15 3 8 4 15 2 15 -2 0
-9 -7 -16 -15z"/>
<path d="M6380 3600 c0 -6 7 -10 15 -10 8 0 15 2 15 4 0 2 -7 6 -15 10 -8 3
-15 1 -15 -4z"/>
<path d="M6435 3502 c-6 -4 -10 -13 -9 -19 1 -7 2 -26 3 -43 1 -38 12 -38 51
0 35 34 35 34 14 54 -16 17 -42 20 -59 8z"/>
<path d="M6229 3433 c-1 -5 -1 -12 0 -17 1 -5 -5 -6 -12 -3 -11 4 -13 0 -9
-15 3 -13 7 -16 12 -8 4 6 11 10 15 8 4 -1 10 7 11 20 2 12 -1 22 -6 22 -6 0
-11 -3 -11 -7z"/>
<path d="M1117 3413 c-4 -3 -7 -11 -7 -17 0 -6 5 -5 12 2 6 6 9 14 7 17 -3 3
-9 2 -12 -2z"/>
<path d="M1145 3410 c-4 -6 -4 -14 -1 -17 3 -4 6 0 6 8 1 10 5 8 15 -5 8 -11
15 -15 15 -9 0 18 -27 36 -35 23z"/>
<path d="M6717 3394 c-11 -11 -8 -94 3 -94 10 0 22 8 56 39 13 12 13 16 1 35
-15 21 -47 32 -60 20z"/>
<path d="M716 3375 c-18 -18 -11 -42 19 -67 29 -25 42 -22 47 11 9 61 -29 93
-66 56z"/>
<path d="M1210 3378 c0 -4 4 -8 9 -8 6 0 12 4 15 8 3 5 -1 9 -9 9 -8 0 -15 -4
-15 -9z"/>
<path d="M6998 3276 c-18 -18 -11 -86 8 -86 8 0 17 7 20 15 4 8 12 15 19 15
21 0 25 37 6 54 -22 20 -35 20 -53 2z"/>
<path d="M439 3263 c-9 -10 -15 -23 -15 -30 1 -16 54 -56 65 -49 11 7 20 62
12 74 -13 20 -48 22 -62 5z"/>
<path d="M242 3119 c-15 -6 -22 -17 -22 -34 0 -19 8 -28 36 -40 20 -8 38 -15
40 -15 2 0 3 18 1 39 -2 45 -22 62 -55 50z"/>
<path d="M7242 3101 c-12 -7 -29 -91 -19 -91 2 0 21 7 41 15 31 13 37 20 34
42 -3 27 -36 47 -56 34z"/>
<path d="M74 2942 c-40 -27 -15 -74 36 -69 43 5 49 21 19 53 -23 25 -36 29
-55 16z"/>
<path d="M7391 2904 c-29 -33 -23 -46 22 -51 32 -3 39 0 46 19 11 28 -3 58
-28 58 -9 0 -27 -12 -40 -26z"/>
<path d="M22 2699 c-15 -6 -22 -17 -22 -33 0 -37 39 -56 61 -30 6 8 18 14 25
14 24 0 15 24 -14 41 -19 11 -35 13 -50 8z"/>
<path d="M7453 2672 c-43 -20 -42 -36 5 -55 42 -17 62 -8 62 29 0 34 -28 45
-67 26z"/>
<path d="M64 2450 c-19 -19 -4 -60 24 -67 16 -4 27 -2 30 6 2 6 10 18 19 26 8
8 13 20 11 27 -5 15 -71 21 -84 8z"/>
<path d="M7373 2423 c-3 -7 2 -20 11 -28 9 -9 16 -21 16 -26 0 -16 48 -9 55 9
13 29 14 42 2 49 -19 13 -79 9 -84 -4z"/>
<path d="M231 2280 c-30 -21 -9 -70 29 -70 18 0 50 45 50 69 0 10 -65 11 -79
1z"/>
<path d="M7210 2262 c0 -5 7 -23 16 -40 17 -36 56 -44 72 -16 10 17 5 54 -7
54 -3 1 -23 3 -43 6 -21 3 -38 1 -38 -4z"/>
<path d="M6988 2094 c-5 -46 11 -69 44 -61 39 10 41 41 5 71 -17 15 -34 26
-38 26 -4 0 -9 -16 -11 -36z"/>
<path d="M467 2105 c-9 -8 -20 -15 -26 -15 -6 0 -12 -4 -12 -10 -5 -38 -2 -45
24 -55 36 -12 56 10 49 55 -5 37 -16 45 -35 25z"/>
<path d="M6716 2008 c-20 -63 -6 -95 36 -85 35 9 41 40 14 64 -35 31 -46 35
-50 21z"/>
<path d="M733 1982 c-26 -22 -30 -31 -22 -49 9 -25 52 -32 65 -11 9 15 6 70
-4 80 -4 4 -21 -5 -39 -20z"/>
<path d="M6436 1899 c-7 -18 -9 -39 -7 -66 1 -19 7 -23 31 -23 18 0 33 7 39
19 11 20 5 31 -36 65 -18 15 -24 16 -27 5z"/>
<path d="M1014 1875 c-42 -36 -37 -75 12 -75 28 0 39 16 36 55 -4 44 -15 48
-48 20z"/>
<path d="M6156 1792 c-9 -15 -10 -67 -2 -80 9 -16 51 -16 64 1 5 6 7 20 3 29
-8 22 -58 61 -65 50z"/>
<path d="M1293 1762 c-26 -22 -30 -31 -22 -49 9 -25 52 -32 66 -11 8 15 5 69
-5 80 -4 4 -21 -5 -39 -20z"/>
<path d="M5877 1682 c-3 -4 -7 -25 -8 -46 -3 -33 0 -40 19 -47 26 -10 65 21
56 44 -7 19 -62 59 -67 49z"/>
<path d="M1569 1647 c-31 -26 -32 -45 -2 -64 19 -13 24 -12 41 5 13 13 18 28
14 50 -5 38 -18 40 -53 9z"/>
<path d="M5588 1543 c-8 -60 20 -85 61 -57 23 17 19 40 -13 66 -30 25 -43 22
-48 -9z"/>
<path d="M1846 1535 c-21 -20 -25 -29 -17 -44 13 -24 48 -33 64 -16 16 16 10
85 -8 85 -6 0 -24 -11 -39 -25z"/>
<path d="M5309 1438 c0 -13 -2 -31 -4 -41 -4 -23 29 -41 54 -28 31 17 32 39 3
66 -33 31 -52 32 -53 3z"/>
<path d="M2127 1424 c-26 -24 -27 -28 -14 -47 15 -22 55 -26 67 -7 10 16 -1
80 -14 80 -6 0 -24 -12 -39 -26z"/>
<path d="M5029 1323 c-2 -38 1 -56 11 -66 12 -13 48 1 60 23 8 15 5 24 -17 45
-36 32 -53 32 -54 -2z"/>
<path d="M2407 1315 c-15 -14 -27 -29 -27 -34 0 -7 39 -48 44 -45 0 0 10 6 21
12 17 8 20 18 17 51 -5 48 -17 51 -55 16z"/>
<path d="M4748 1213 c-6 -42 1 -61 25 -69 15 -5 26 0 38 15 19 23 16 51 -6 51
-7 0 -15 7 -19 15 -9 25 -33 17 -38 -12z"/>
<path d="M2687 1204 c-26 -24 -27 -28 -14 -47 33 -49 76 -25 69 37 -5 43 -18
45 -55 10z"/>
<path d="M4468 1101 c-9 -63 33 -96 66 -50 16 23 11 49 -9 49 -7 0 -15 7 -19
15 -9 25 -33 17 -38 -14z"/>
<path d="M2970 1097 c-34 -30 -32 -59 3 -72 38 -13 57 11 48 57 -8 40 -19 43
-51 15z"/>
<path d="M4188 980 c-6 -61 30 -81 68 -39 18 20 18 21 -15 50 -19 16 -37 29
-41 29 -4 0 -10 -18 -12 -40z"/>
<path d="M3260 993 c-33 -22 -39 -32 -33 -54 6 -23 50 -36 65 -21 13 13 13 71
1 83 -5 5 -20 1 -33 -8z"/>
<path d="M3909 888 c0 -13 -2 -31 -4 -40 -8 -41 67 -49 78 -9 3 14 -5 28 -26
45 -38 32 -47 32 -48 4z"/>
<path d="M3529 872 c-30 -32 -27 -60 8 -68 34 -9 53 15 44 58 -8 41 -20 43
-52 10z"/>
</g>
</svg>
