<?xml version="1.0" encoding="utf-8"?>
<!-- Generator: Adobe Illustrator 26.0.2, SVG Export Plug-In . SVG Version: 6.00 Build 0)  -->
<svg version="1.1" id="Layer_1" xmlns="http://www.w3.org/2000/svg" xmlns:xlink="http://www.w3.org/1999/xlink" x="0px" y="0px"
	 viewBox="0 0 1145.7 166.1" style="enable-background:new 0 0 1145.7 166.1;" xml:space="preserve">
<style type="text/css">
	.st0{fill:none;}
	.st1{fill:#A7A9AC;}
	.st2{fill:url(#SVGID_1_);}
	.st3{fill:url(#SVGID_00000028304171920766627590000015835162130938298017_);}
	.st4{fill:url(#SVGID_00000005248864001413459990000002990566787808615086_);}
	.st5{fill:url(#SVGID_00000021839426875797974700000013839191875683315092_);}
	.st6{fill:url(#SVGID_00000021106537005556971640000006839401503939065531_);}
	.st7{fill:url(#SVGID_00000005960038784451741570000014011700833018875542_);}
	.st8{fill:url(#SVGID_00000071546461588837930550000016188792149324994487_);}
	.st9{fill:url(#SVGID_00000062889234645908754750000001820856433996543379_);}
	.st10{fill:url(#SVGID_00000113351678165913298440000006052135510077528202_);}
	.st11{fill:#FFFFFF;}
	.st12{fill:#434C5E;}
</style>
<pattern  y="166.1" width="41" height="34" patternUnits="userSpaceOnUse" id="Hand_Drawn_Lines_Gray_RL" viewBox="68.8 -128.2 41 34" style="overflow:visible;">
	<g>
		<rect x="68.8" y="-128.2" class="st0" width="41" height="34"/>
		<g>
			<rect x="68.8" y="-128.2" class="st0" width="41" height="34"/>
			<g>
				<path class="st1" d="M87-135.7c0.9-1,2-2.2,3.1-3.4c1-1.1,1.6-2.6,2.5-3.7c0.7-0.9,1.5-1.8,2.2-2.7c0.5-0.7,0.9-1.5,1.3-2.2
					c0.5-0.9,1.1-1.6,1.9-2.2c0.5-0.4,0.9-0.9,1.2-1.5c0.3-0.6,0.7-1.2,1.2-1.7c0.1-0.1,0.2-0.2,0.2-0.2c1.4-2.5,3.6-4.4,5.2-6.7
					c1.4-1.3,2.3-3,3.7-4.2c0.4-0.3,0.8-0.8,1.1-1.2c1.1-1.5,2.4-2.9,3.6-4.3c0.2-0.2,0.4-0.4,0.5-0.6c0.4-1,1.3-1.7,2-2.5
					c0.8-1,1.6-2,2.4-3c0.3-0.3,0.5-0.7,0.8-1c1.2-1.2,2.2-2.5,3-3.9c0.5-0.8,1.1-1.5,1.6-2.2c0.3-0.4,0.6-0.9,0.9-1.4
					c0.1-0.2,0.2-0.4,0.3-0.5c1.2-1,1.9-2.5,2.9-3.6c0.3-0.4,0.6-0.7,0.9-1.1c0.6-0.7,1.1-1.4,1.7-2.1c0.9-1,1.2-2.4,2.1-3.5
					c1.2-1.4,2.4-2.7,3.6-4.1c1.4-1.7,2.8-3.4,4.1-5.1c0.3-0.4,0.7-0.8,1-1.2c1.7-1.7,3.3-3.7,4.9-5.6c1.2-1.5,2.5-3,3.7-4.6
					c0.6-0.8,1.2-1.5,1.7-2.3c0.9-1.3,1.9-2.5,2.9-3.7c1.1-1.4,2.2-2.9,3.4-4.3c0.9-1.1,1.8-2.2,2.9-3.2c0.3-0.3,0.6-0.4,1-0.3
					c0.1,0,0.7,0.5,0.6,0.6c-0.1,0.3-0.1,0.5-0.2,0.8c-0.9,1.6-2.3,2.9-3.4,4.5c-0.9,1.4-2,2.6-3.1,3.9c-0.7,0.8-1.2,1.6-1.7,2.5
					c-0.3,0.5-0.6,0.9-0.9,1.3c-0.5,0.6-1,1.1-1.4,1.8c-0.5,0.7-1,1.5-1.7,2.1c-0.3,0.3-0.5,0.7-0.8,1c-0.5,0.7-1.1,1.3-1.6,2
					c-0.3,0.4-0.7,0.8-1.1,1.2c-0.8,0.9-1.6,1.7-2.4,2.6c-0.3,0.3-0.5,0.5-0.7,0.8c-0.7,1-1.5,2-2.3,2.9c-1,1.1-1.9,2.3-2.9,3.5
					c-1.3,1.6-2.6,3.1-4,4.6c-0.5,0.5-0.3,1.4-0.7,1.9c-1.6,2.3-3.5,4.3-5.4,6.4c-0.9,1-1.7,2.1-2.4,3.2c-0.1,0.2-0.3,0.5-0.5,0.6
					c-0.9,0.7-1.4,1.6-2,2.5c-0.5,0.7-1.2,1.4-1.8,2.1c-0.5,0.6-1,1.1-1.4,1.8c-1.7,2.6-3.6,4.9-5.5,7.3c-0.2,0.2-0.5,0.5-0.6,0.7
					c-0.7,1.4-1.9,2.5-2.9,3.7c-1.2,1.4-2.3,2.9-3.5,4.4c-0.7,0.8-1.4,1.6-2.1,2.4c-1.5,1.6-2.8,3.4-4,5.2c-0.5,0.7-1,1.4-1.6,2
					c-1.1,1.1-1.9,2.5-2.8,3.7c-1.1,1.5-2.7,2.6-3.9,4.1c-1.1,1.4-2,3.1-3.1,4.5c-0.7,0.8-1.4,1.6-2.1,2.4c-0.6,0.8-1.2,1.6-1.7,2.5
					c-1,1.7-2.2,3.2-3.7,4.4c-0.4,0.3-0.9,0.3-1.4-0.1c-0.4-0.3-0.1-0.3,0.1-0.7c0.2-0.4,0.4-0.8,0.7-1.1c0.6-0.8,1.1-1.7,1.6-2.6
					C85.2-133.4,86.1-134.4,87-135.7z"/>
			</g>
			<g>
				<path class="st1" d="M46-135.7c0.9-1,2-2.2,3.1-3.4c1-1.1,1.6-2.6,2.5-3.7c0.7-0.9,1.5-1.8,2.2-2.7c0.5-0.7,0.9-1.5,1.3-2.2
					c0.5-0.9,1.1-1.6,1.9-2.2c0.5-0.4,0.9-0.9,1.2-1.5c0.3-0.6,0.7-1.2,1.2-1.7c0.1-0.1,0.2-0.2,0.2-0.2c1.4-2.5,3.6-4.4,5.2-6.7
					c1.4-1.3,2.3-3,3.7-4.2c0.4-0.3,0.8-0.8,1.1-1.2c1.1-1.5,2.4-2.9,3.6-4.3c0.2-0.2,0.4-0.4,0.5-0.6c0.4-1,1.3-1.7,2-2.5
					c0.8-1,1.6-2,2.4-3c0.3-0.3,0.5-0.7,0.8-1c1.2-1.2,2.2-2.5,3-3.9c0.5-0.8,1.1-1.5,1.6-2.2c0.3-0.4,0.6-0.9,0.9-1.4
					c0.1-0.2,0.2-0.4,0.3-0.5c1.2-1,1.9-2.5,2.9-3.6c0.3-0.4,0.6-0.7,0.9-1.1c0.6-0.7,1.1-1.4,1.7-2.1c0.9-1,1.2-2.4,2.1-3.5
					c1.2-1.4,2.4-2.7,3.6-4.1c1.4-1.7,2.8-3.4,4.1-5.1c0.3-0.4,0.7-0.8,1-1.2c1.7-1.7,3.3-3.7,4.9-5.6c1.2-1.5,2.5-3,3.7-4.6
					c0.6-0.8,1.2-1.5,1.7-2.3c0.9-1.3,1.9-2.5,2.9-3.7c1.1-1.4,2.2-2.9,3.4-4.3c0.9-1.1,1.8-2.2,2.9-3.2c0.3-0.3,0.6-0.4,1-0.3
					c0.1,0,0.7,0.5,0.6,0.6c-0.1,0.3-0.1,0.5-0.2,0.8c-0.9,1.6-2.3,2.9-3.4,4.5c-0.9,1.4-2,2.6-3.1,3.9c-0.7,0.8-1.2,1.6-1.7,2.5
					c-0.3,0.5-0.6,0.9-0.9,1.3c-0.5,0.6-1,1.1-1.4,1.8c-0.5,0.7-1,1.5-1.7,2.1c-0.3,0.3-0.5,0.7-0.8,1c-0.5,0.7-1.1,1.3-1.6,2
					c-0.3,0.4-0.7,0.8-1.1,1.2c-0.8,0.9-1.6,1.7-2.4,2.6c-0.2,0.3-0.5,0.5-0.7,0.8c-0.7,1-1.5,2-2.3,2.9c-1,1.1-1.9,2.3-2.9,3.5
					c-1.3,1.6-2.6,3.1-4,4.6c-0.5,0.5-0.3,1.4-0.7,1.9c-1.6,2.3-3.5,4.3-5.4,6.4c-0.9,1-1.7,2.1-2.4,3.2c-0.1,0.2-0.3,0.5-0.5,0.6
					c-0.9,0.7-1.4,1.6-2,2.5c-0.5,0.7-1.2,1.4-1.8,2.1c-0.5,0.6-1,1.1-1.4,1.8c-1.7,2.6-3.6,4.9-5.5,7.3c-0.2,0.2-0.5,0.5-0.6,0.7
					c-0.7,1.4-1.9,2.5-2.9,3.7c-1.2,1.4-2.3,2.9-3.5,4.4c-0.7,0.8-1.4,1.6-2.1,2.4c-1.5,1.6-2.8,3.4-4,5.2c-0.5,0.7-1,1.4-1.6,2
					c-1.1,1.1-1.9,2.5-2.8,3.7c-1.1,1.5-2.7,2.6-3.9,4.1c-1.1,1.4-2,3.1-3.1,4.5c-0.7,0.8-1.4,1.6-2.1,2.4c-0.6,0.8-1.2,1.6-1.7,2.5
					c-1,1.7-2.2,3.2-3.7,4.4c-0.4,0.3-0.9,0.3-1.4-0.1c-0.4-0.3-0.1-0.3,0.1-0.7c0.2-0.4,0.4-0.8,0.7-1.1c0.6-0.8,1.1-1.7,1.6-2.6
					C44.2-133.4,45.1-134.4,46-135.7z"/>
			</g>
			<g>
				<path class="st1" d="M5-135.7c0.9-1,2-2.2,3.1-3.4c1-1.1,1.6-2.6,2.5-3.7c0.7-0.9,1.5-1.8,2.2-2.7c0.5-0.7,0.9-1.5,1.3-2.2
					c0.5-0.9,1.1-1.6,1.9-2.2c0.5-0.4,0.9-0.9,1.2-1.5c0.3-0.6,0.7-1.2,1.2-1.7c0.1-0.1,0.2-0.2,0.2-0.2c1.4-2.5,3.6-4.4,5.2-6.7
					c1.4-1.3,2.3-3,3.7-4.2c0.4-0.3,0.8-0.8,1.1-1.2c1.1-1.5,2.4-2.9,3.6-4.3c0.2-0.2,0.4-0.4,0.5-0.6c0.4-1,1.3-1.7,2-2.5
					c0.8-1,1.6-2,2.4-3c0.3-0.3,0.5-0.7,0.8-1c1.2-1.2,2.2-2.5,3-3.9c0.5-0.8,1.1-1.5,1.6-2.2c0.3-0.4,0.6-0.9,0.9-1.4
					c0.1-0.2,0.2-0.4,0.3-0.5c1.2-1,1.9-2.5,2.9-3.6c0.3-0.4,0.6-0.7,0.9-1.1c0.6-0.7,1.1-1.4,1.7-2.1c0.9-1,1.2-2.4,2.1-3.5
					c1.2-1.4,2.4-2.7,3.6-4.1c1.4-1.7,2.8-3.4,4.1-5.1c0.3-0.4,0.7-0.8,1-1.2c1.7-1.7,3.3-3.7,4.9-5.6c1.2-1.5,2.5-3,3.7-4.6
					c0.6-0.8,1.2-1.5,1.7-2.3c0.9-1.3,1.9-2.5,2.9-3.7c1.1-1.4,2.2-2.9,3.4-4.3c0.9-1.1,1.8-2.2,2.9-3.2c0.3-0.3,0.6-0.4,1-0.3
					c0.1,0,0.7,0.5,0.6,0.6c-0.1,0.3-0.1,0.5-0.2,0.8c-0.9,1.6-2.3,2.9-3.4,4.5c-0.9,1.4-2,2.6-3.1,3.9c-0.7,0.8-1.2,1.6-1.7,2.5
					c-0.3,0.5-0.6,0.9-0.9,1.3c-0.5,0.6-1,1.1-1.4,1.8c-0.5,0.7-1,1.5-1.7,2.1c-0.3,0.3-0.5,0.7-0.8,1c-0.5,0.7-1.1,1.3-1.6,2
					c-0.3,0.4-0.7,0.8-1.1,1.2c-0.8,0.9-1.6,1.7-2.4,2.6c-0.2,0.3-0.5,0.5-0.7,0.8c-0.7,1-1.5,2-2.3,2.9c-1,1.1-1.9,2.3-2.9,3.5
					c-1.3,1.6-2.6,3.1-4,4.6c-0.5,0.5-0.3,1.4-0.7,1.9c-1.6,2.3-3.5,4.3-5.4,6.4c-0.9,1-1.7,2.1-2.4,3.2c-0.1,0.2-0.3,0.5-0.5,0.6
					c-0.9,0.7-1.4,1.6-2,2.5c-0.5,0.7-1.2,1.4-1.8,2.1c-0.5,0.6-1,1.1-1.4,1.8c-1.7,2.6-3.6,4.9-5.5,7.3c-0.2,0.2-0.5,0.5-0.6,0.7
					c-0.7,1.4-1.9,2.5-2.9,3.7c-1.2,1.4-2.3,2.9-3.5,4.4c-0.7,0.8-1.4,1.6-2.1,2.4c-1.5,1.6-2.8,3.4-4,5.2c-0.5,0.7-1,1.4-1.6,2
					c-1.1,1.1-1.9,2.5-2.8,3.7c-1.1,1.5-2.7,2.6-3.9,4.1c-1.1,1.4-2,3.1-3.1,4.5c-0.7,0.8-1.4,1.6-2.1,2.4c-0.6,0.8-1.2,1.6-1.7,2.5
					c-1,1.7-2.2,3.2-3.7,4.4c-0.4,0.3-0.9,0.3-1.4-0.1c-0.4-0.3-0.1-0.3,0.1-0.7c0.2-0.4,0.4-0.8,0.7-1.1c0.6-0.8,1.1-1.7,1.6-2.6
					C3.2-133.4,4.1-134.4,5-135.7z"/>
			</g>
			<g>
				<path class="st1" d="M171.7-195.3c-0.9,1-2,2.2-3.1,3.4c-1,1.1-1.6,2.6-2.5,3.7c-0.7,0.9-2,1.3-2.6,2.2
					c-0.5,0.7-0.9,1.5-1.3,2.2c-0.5,0.9-1.1,1.6-1.9,2.2c-0.5,0.4-0.9,0.9-1.2,1.5c-0.3,0.6-0.7,1.2-1.2,1.7
					c-0.1,0.1-0.2,0.2-0.2,0.2c-1.4,2.5-3.6,4.4-5.2,6.7c-1.4,1.3-2.3,3-3.7,4.2c-0.4,0.3-0.8,0.7-1.1,1.2c-1.1,1.5-2.4,2.8-3.6,4.3
					c-0.2,0.2-0.4,0.4-0.5,0.6c-0.4,1-1.2,1.7-2,2.5c-0.8,1-1.6,2-2.3,3c-0.3,0.3-0.5,0.7-0.8,1c-1.2,1.2-2.2,2.5-3,3.9
					c-0.5,0.8-1.1,1.5-1.6,2.2c-0.3,0.4-0.6,0.9-0.8,1.4c-0.1,0.2-0.2,0.4-0.3,0.5c-1.2,1-1.9,2.5-2.9,3.6c-0.3,0.4-0.6,0.7-0.9,1.1
					c-0.6,0.7-1.1,1.4-1.7,2.1c-0.9,1-1.2,2.5-2.1,3.5c-1.2,1.4-2.4,2.7-3.6,4.1c-1.4,1.7-2.7,3.4-4.1,5.1c-0.3,0.4-0.7,0.8-1,1.2
					c-1.8,1.7-3.3,3.6-4.9,5.5c-1.2,1.5-2.5,3-3.7,4.6c-0.6,0.8-1.2,1.5-1.7,2.3c-0.9,1.3-1.9,2.5-2.8,3.7c-1.1,1.4-2.2,2.9-3.4,4.3
					c-0.9,1.1-1.8,2.2-2.9,3.2c-0.3,0.3-0.7,0.4-1.1,0.3c-0.1,0-0.7-0.5-0.7-0.6c0-0.3,0.1-0.5,0.2-0.8c0.9-1.6,2.3-2.9,3.3-4.5
					c0.9-1.4,2-2.6,3.1-3.9c0.7-0.8,1.2-1.6,1.7-2.5c0.3-0.5,0.6-0.9,0.9-1.3c0.5-0.6,1-1.1,1.4-1.7c0.5-0.7,1-1.5,1.7-2.1
					c0.3-0.3,0.5-0.7,0.8-1c0.5-0.7,1.1-1.3,1.6-2c0.3-0.4,0.7-0.8,1.1-1.2c0.8-0.9,1.6-1.7,2.4-2.6c0.3-0.3,0.5-0.5,0.7-0.8
					c0.7-1,1.5-2,2.3-2.9c1-1.1,1.9-2.3,2.9-3.5c1.3-1.6,2.6-3.1,4-4.6c0.5-0.5,0.3-1.4,0.7-1.9c1.6-2.3,3.5-4.3,5.4-6.4
					c0.9-1,1.7-2.1,2.4-3.2c0.1-0.2,0.3-0.5,0.5-0.6c0.9-0.7,1.4-1.6,2-2.5c0.5-0.7,1.2-1.4,1.8-2.1c0.5-0.6,1-1.1,1.4-1.8
					c1.7-2.6,3.6-4.9,5.5-7.3c0.2-0.2,0.5-0.5,0.6-0.7c0.7-1.4,1.9-2.5,2.8-3.7c1.2-1.4,2.5-2.6,3.7-4.1c0.7-0.8,1.4-1.6,2.1-2.4
					c1.5-1.6,2.8-3.4,4-5.2c0.5-0.7,1-1.4,1.6-2c1.1-1.1,1.9-2.5,2.8-3.7c1.1-1.5,2.7-2.6,3.9-4.1c1.1-1.4,1.9-3.1,3.1-4.5
					c0.7-0.8,1.4-1.6,2.1-2.4c0.6-0.8,1.2-1.6,1.7-2.5c1-1.7,2.2-3.2,3.7-4.4c0.4-0.3,0.7-0.6,1.2-0.2c0.4,0.3,0.5,0.8,0.3,1.2
					c-0.2,0.4-0.4,0.8-0.7,1.1c-0.6,0.8-1,1.8-1.6,2.6C173.4-197.6,172.6-196.5,171.7-195.3z"/>
				<path class="st1" d="M87-101.7c0.9-1,2-2.2,3.1-3.4c1-1.1,1.6-2.6,2.5-3.7c0.7-0.9,1.5-1.8,2.2-2.7c0.5-0.7,0.9-1.5,1.3-2.2
					c0.5-0.9,1.1-1.6,1.9-2.2c0.5-0.4,0.9-0.9,1.2-1.5c0.3-0.6,0.7-1.2,1.2-1.7c0.1-0.1,0.2-0.2,0.2-0.2c1.4-2.5,3.6-4.4,5.2-6.7
					c1.4-1.3,2.3-3,3.7-4.2c0.4-0.3,0.8-0.8,1.1-1.2c1.1-1.5,2.4-2.9,3.6-4.3c0.2-0.2,0.4-0.4,0.5-0.6c0.4-1,1.3-1.7,2-2.5
					c0.8-1,1.6-2,2.4-3c0.3-0.3,0.5-0.7,0.8-1c1.2-1.2,2.2-2.5,3-3.9c0.5-0.8,1.1-1.5,1.6-2.2c0.3-0.4,0.6-0.9,0.9-1.4
					c0.1-0.2,0.2-0.4,0.3-0.5c1.2-1,1.9-2.5,2.9-3.6c0.3-0.4,0.6-0.7,0.9-1.1c0.6-0.7,1.1-1.4,1.7-2.1c0.9-1,1.2-2.4,2.1-3.5
					c1.2-1.4,2.4-2.7,3.6-4.1c1.4-1.7,2.8-3.4,4.1-5.1c0.3-0.4,0.7-0.8,1-1.2c1.7-1.7,3.3-3.7,4.9-5.6c1.2-1.5,2.5-3,3.7-4.6
					c0.6-0.8,1.2-1.5,1.7-2.3c0.9-1.3,1.9-2.5,2.9-3.7c1.1-1.4,2.2-2.9,3.4-4.3c0.9-1.1,1.8-2.2,2.9-3.2c0.3-0.3,0.6-0.4,1-0.3
					c0.1,0,0.7,0.5,0.6,0.6c-0.1,0.3-0.1,0.5-0.2,0.8c-0.9,1.6-2.3,2.9-3.4,4.5c-0.9,1.4-2,2.6-3.1,3.9c-0.7,0.8-1.2,1.6-1.7,2.5
					c-0.3,0.5-0.6,0.9-0.9,1.3c-0.5,0.6-1,1.1-1.4,1.8c-0.5,0.7-1,1.5-1.7,2.1c-0.3,0.3-0.5,0.7-0.8,1c-0.5,0.7-1.1,1.3-1.6,2
					c-0.3,0.4-0.7,0.8-1.1,1.2c-0.8,0.9-1.6,1.7-2.4,2.6c-0.3,0.3-0.5,0.5-0.7,0.8c-0.7,1-1.5,2-2.3,2.9c-1,1.1-1.9,2.3-2.9,3.5
					c-1.3,1.6-2.6,3.1-4,4.6c-0.5,0.5-0.3,1.4-0.7,1.9c-1.6,2.3-3.5,4.3-5.4,6.4c-0.9,1-1.7,2.1-2.4,3.2c-0.1,0.2-0.3,0.5-0.5,0.6
					c-0.9,0.7-1.4,1.6-2,2.5c-0.5,0.7-1.2,1.4-1.8,2.1c-0.5,0.6-1,1.1-1.4,1.8c-1.7,2.6-3.6,4.9-5.5,7.3c-0.2,0.2-0.5,0.5-0.6,0.7
					c-0.7,1.4-1.9,2.5-2.9,3.7c-1.2,1.4-2.3,2.9-3.5,4.4c-0.7,0.8-1.4,1.6-2.1,2.4c-1.5,1.6-2.8,3.4-4,5.2c-0.5,0.7-1,1.4-1.6,2
					c-1.1,1.1-1.9,2.5-2.8,3.7c-1.1,1.5-2.7,2.6-3.9,4.1c-1.1,1.4-2,3.1-3.1,4.5c-0.7,0.8-1.4,1.6-2.1,2.4c-0.6,0.8-1.2,1.6-1.7,2.5
					c-1,1.7-2.2,3.2-3.7,4.4c-0.4,0.3-0.9,0.3-1.4-0.1c-0.4-0.3-0.1-0.3,0.1-0.7c0.2-0.4,0.4-0.8,0.7-1.1c0.6-0.8,1.1-1.7,1.6-2.6
					C85.2-99.4,86.1-100.4,87-101.7z"/>
			</g>
			<g>
				<path class="st1" d="M130.7-195.3c-0.9,1-2,2.2-3.1,3.4c-1,1.1-1.6,2.6-2.5,3.7c-0.7,0.9-2,1.3-2.6,2.2
					c-0.5,0.7-0.9,1.5-1.3,2.2c-0.5,0.9-1.1,1.6-1.9,2.2c-0.5,0.4-0.9,0.9-1.2,1.5c-0.3,0.6-0.7,1.2-1.2,1.7
					c-0.1,0.1-0.2,0.2-0.2,0.2c-1.4,2.5-3.6,4.4-5.2,6.7c-1.4,1.3-2.3,3-3.7,4.2c-0.4,0.3-0.8,0.7-1.1,1.2c-1.1,1.5-2.4,2.8-3.6,4.3
					c-0.2,0.2-0.4,0.4-0.5,0.6c-0.4,1-1.2,1.7-2,2.5c-0.8,1-1.6,2-2.3,3c-0.3,0.3-0.5,0.7-0.8,1c-1.2,1.2-2.2,2.5-3,3.9
					c-0.5,0.8-1.1,1.5-1.6,2.2c-0.3,0.4-0.6,0.9-0.8,1.4c-0.1,0.2-0.2,0.4-0.3,0.5c-1.2,1-1.9,2.5-2.9,3.6c-0.3,0.4-0.6,0.7-0.9,1.1
					c-0.6,0.7-1.1,1.4-1.7,2.1c-0.9,1-1.2,2.5-2.1,3.5c-1.2,1.4-2.4,2.7-3.6,4.1c-1.4,1.7-2.7,3.4-4.1,5.1c-0.3,0.4-0.7,0.8-1,1.2
					c-1.8,1.7-3.3,3.6-4.9,5.5c-1.2,1.5-2.5,3-3.7,4.6c-0.6,0.8-1.2,1.5-1.7,2.3c-0.9,1.3-1.9,2.5-2.8,3.7c-1.1,1.4-2.2,2.9-3.4,4.3
					c-0.9,1.1-1.8,2.2-2.9,3.2c-0.3,0.3-0.7,0.4-1.1,0.3c-0.1,0-0.7-0.5-0.7-0.6c0-0.3,0.1-0.5,0.2-0.8c0.9-1.6,2.3-2.9,3.3-4.5
					c0.9-1.4,2-2.6,3.1-3.9c0.7-0.8,1.2-1.6,1.7-2.5c0.3-0.5,0.6-0.9,0.9-1.3c0.5-0.6,1-1.1,1.4-1.7c0.5-0.7,1-1.5,1.7-2.1
					c0.3-0.3,0.5-0.7,0.8-1c0.5-0.7,1.1-1.3,1.6-2c0.3-0.4,0.7-0.8,1.1-1.2c0.8-0.9,1.6-1.7,2.4-2.6c0.3-0.3,0.5-0.5,0.7-0.8
					c0.7-1,1.5-2,2.3-2.9c1-1.1,1.9-2.3,2.9-3.5c1.3-1.6,2.6-3.1,4-4.6c0.5-0.5,0.3-1.4,0.7-1.9c1.6-2.3,3.5-4.3,5.4-6.4
					c0.9-1,1.7-2.1,2.4-3.2c0.1-0.2,0.3-0.5,0.5-0.6c0.9-0.7,1.4-1.6,2-2.5c0.5-0.7,1.2-1.4,1.8-2.1c0.5-0.6,1-1.1,1.4-1.8
					c1.7-2.6,3.6-4.9,5.5-7.3c0.2-0.2,0.5-0.5,0.6-0.7c0.7-1.4,1.9-2.5,2.8-3.7c1.2-1.4,2.5-2.6,3.7-4.1c0.7-0.8,1.4-1.6,2.1-2.4
					c1.5-1.6,2.8-3.4,4-5.2c0.5-0.7,1-1.4,1.6-2c1.1-1.1,1.9-2.5,2.8-3.7c1.1-1.5,2.7-2.6,3.9-4.1c1.1-1.4,1.9-3.1,3.1-4.5
					c0.7-0.8,1.4-1.6,2.1-2.4c0.6-0.8,1.2-1.6,1.7-2.5c1-1.7,2.2-3.2,3.7-4.4c0.4-0.3,0.7-0.6,1.2-0.2c0.4,0.3,0.5,0.8,0.3,1.2
					c-0.2,0.4-0.4,0.8-0.7,1.1c-0.6,0.8-1,1.8-1.6,2.6C132.4-197.6,131.6-196.5,130.7-195.3z"/>
				<path class="st1" d="M46-101.7c0.9-1,2-2.2,3.1-3.4c1-1.1,1.6-2.6,2.5-3.7c0.7-0.9,1.5-1.8,2.2-2.7c0.5-0.7,0.9-1.5,1.3-2.2
					c0.5-0.9,1.1-1.6,1.9-2.2c0.5-0.4,0.9-0.9,1.2-1.5c0.3-0.6,0.7-1.2,1.2-1.7c0.1-0.1,0.2-0.2,0.2-0.2c1.4-2.5,3.6-4.4,5.2-6.7
					c1.4-1.3,2.3-3,3.7-4.2c0.4-0.3,0.8-0.8,1.1-1.2c1.1-1.5,2.4-2.9,3.6-4.3c0.2-0.2,0.4-0.4,0.5-0.6c0.4-1,1.3-1.7,2-2.5
					c0.8-1,1.6-2,2.4-3c0.3-0.3,0.5-0.7,0.8-1c1.2-1.2,2.2-2.5,3-3.9c0.5-0.8,1.1-1.5,1.6-2.2c0.3-0.4,0.6-0.9,0.9-1.4
					c0.1-0.2,0.2-0.4,0.3-0.5c1.2-1,1.9-2.5,2.9-3.6c0.3-0.4,0.6-0.7,0.9-1.1c0.6-0.7,1.1-1.4,1.7-2.1c0.9-1,1.2-2.4,2.1-3.5
					c1.2-1.4,2.4-2.7,3.6-4.1c1.4-1.7,2.8-3.4,4.1-5.1c0.3-0.4,0.7-0.8,1-1.2c1.7-1.7,3.3-3.7,4.9-5.6c1.2-1.5,2.5-3,3.7-4.6
					c0.6-0.8,1.2-1.5,1.7-2.3c0.9-1.3,1.9-2.5,2.9-3.7c1.1-1.4,2.2-2.9,3.4-4.3c0.9-1.1,1.8-2.2,2.9-3.2c0.3-0.3,0.6-0.4,1-0.3
					c0.1,0,0.7,0.5,0.6,0.6c-0.1,0.3-0.1,0.5-0.2,0.8c-0.9,1.6-2.3,2.9-3.4,4.5c-0.9,1.4-2,2.6-3.1,3.9c-0.7,0.8-1.2,1.6-1.7,2.5
					c-0.3,0.5-0.6,0.9-0.9,1.3c-0.5,0.6-1,1.1-1.4,1.8c-0.5,0.7-1,1.5-1.7,2.1c-0.3,0.3-0.5,0.7-0.8,1c-0.5,0.7-1.1,1.3-1.6,2
					c-0.3,0.4-0.7,0.8-1.1,1.2c-0.8,0.9-1.6,1.7-2.4,2.6c-0.2,0.3-0.5,0.5-0.7,0.8c-0.7,1-1.5,2-2.3,2.9c-1,1.1-1.9,2.3-2.9,3.5
					c-1.3,1.6-2.6,3.1-4,4.6c-0.5,0.5-0.3,1.4-0.7,1.9c-1.6,2.3-3.5,4.3-5.4,6.4c-0.9,1-1.7,2.1-2.4,3.2c-0.1,0.2-0.3,0.5-0.5,0.6
					c-0.9,0.7-1.4,1.6-2,2.5c-0.5,0.7-1.2,1.4-1.8,2.1c-0.5,0.6-1,1.1-1.4,1.8c-1.7,2.6-3.6,4.9-5.5,7.3c-0.2,0.2-0.5,0.5-0.6,0.7
					c-0.7,1.4-1.9,2.5-2.9,3.7c-1.2,1.4-2.3,2.9-3.5,4.4c-0.7,0.8-1.4,1.6-2.1,2.4c-1.5,1.6-2.8,3.4-4,5.2c-0.5,0.7-1,1.4-1.6,2
					c-1.1,1.1-1.9,2.5-2.8,3.7c-1.1,1.5-2.7,2.6-3.9,4.1c-1.1,1.4-2,3.1-3.1,4.5c-0.7,0.8-1.4,1.6-2.1,2.4c-0.6,0.8-1.2,1.6-1.7,2.5
					c-1,1.7-2.2,3.2-3.7,4.4c-0.4,0.3-0.9,0.3-1.4-0.1c-0.4-0.3-0.1-0.3,0.1-0.7c0.2-0.4,0.4-0.8,0.7-1.1c0.6-0.8,1.1-1.7,1.6-2.6
					C44.2-99.4,45.1-100.4,46-101.7z"/>
			</g>
			<g>
				<path class="st1" d="M89.7-195.3c-0.9,1-2,2.2-3.1,3.4c-1,1.1-1.6,2.6-2.5,3.7c-0.7,0.9-2,1.3-2.6,2.2c-0.5,0.7-0.9,1.5-1.3,2.2
					c-0.5,0.9-1.1,1.6-1.9,2.2c-0.5,0.4-0.9,0.9-1.2,1.5c-0.3,0.6-0.7,1.2-1.2,1.7c-0.1,0.1-0.2,0.2-0.2,0.2
					c-1.4,2.5-3.6,4.4-5.2,6.7c-1.4,1.3-2.3,3-3.7,4.2c-0.4,0.3-0.8,0.7-1.1,1.2c-1.1,1.5-2.4,2.8-3.6,4.3c-0.2,0.2-0.4,0.4-0.5,0.6
					c-0.4,1-1.2,1.7-2,2.5c-0.8,1-1.6,2-2.3,3c-0.3,0.3-0.5,0.7-0.8,1c-1.2,1.2-2.2,2.5-3,3.9c-0.5,0.8-1.1,1.5-1.6,2.2
					c-0.3,0.4-0.6,0.9-0.8,1.4c-0.1,0.2-0.2,0.4-0.3,0.5c-1.2,1-1.9,2.5-2.9,3.6c-0.3,0.4-0.6,0.7-0.9,1.1c-0.6,0.7-1.1,1.4-1.7,2.1
					c-0.9,1-1.2,2.5-2.1,3.5c-1.2,1.4-2.4,2.7-3.6,4.1c-1.4,1.7-2.7,3.4-4.1,5.1c-0.3,0.4-0.7,0.8-1,1.2c-1.8,1.7-3.3,3.6-4.9,5.5
					c-1.2,1.5-2.5,3-3.7,4.6c-0.6,0.8-1.2,1.5-1.7,2.3c-0.9,1.3-1.9,2.5-2.8,3.7c-1.1,1.4-2.2,2.9-3.4,4.3c-0.9,1.1-1.8,2.2-2.9,3.2
					c-0.3,0.3-0.7,0.4-1.1,0.3c-0.1,0-0.7-0.5-0.7-0.6c0-0.3,0.1-0.5,0.2-0.8c0.9-1.6,2.3-2.9,3.3-4.5c0.9-1.4,2-2.6,3.1-3.9
					c0.7-0.8,1.2-1.6,1.7-2.5c0.3-0.5,0.6-0.9,0.9-1.3c0.5-0.6,1-1.1,1.4-1.7c0.5-0.7,1-1.5,1.7-2.1c0.3-0.3,0.5-0.7,0.8-1
					c0.5-0.7,1.1-1.3,1.6-2c0.3-0.4,0.7-0.8,1.1-1.2c0.8-0.9,1.6-1.7,2.4-2.6c0.3-0.3,0.5-0.5,0.7-0.8c0.7-1,1.5-2,2.3-2.9
					c1-1.1,1.9-2.3,2.9-3.5c1.3-1.6,2.6-3.1,4-4.6c0.5-0.5,0.3-1.4,0.7-1.9c1.6-2.3,3.5-4.3,5.4-6.4c0.9-1,1.7-2.1,2.4-3.2
					c0.1-0.2,0.3-0.5,0.5-0.6c0.9-0.7,1.4-1.6,2-2.5c0.5-0.7,1.2-1.4,1.8-2.1c0.5-0.6,1-1.1,1.4-1.8c1.7-2.6,3.6-4.9,5.5-7.3
					c0.2-0.2,0.5-0.5,0.6-0.7c0.7-1.4,1.9-2.5,2.8-3.7c1.2-1.4,2.5-2.6,3.7-4.1c0.7-0.8,1.4-1.6,2.1-2.4c1.5-1.6,2.8-3.4,4-5.2
					c0.5-0.7,1-1.4,1.6-2c1.1-1.1,1.9-2.5,2.8-3.7c1.1-1.5,2.7-2.6,3.9-4.1c1.1-1.4,1.9-3.1,3.1-4.5c0.7-0.8,1.4-1.6,2.1-2.4
					c0.6-0.8,1.2-1.6,1.7-2.5c1-1.7,2.2-3.2,3.7-4.4c0.4-0.3,0.7-0.6,1.2-0.2c0.4,0.3,0.5,0.8,0.3,1.2c-0.2,0.4-0.4,0.8-0.7,1.1
					c-0.6,0.8-1,1.8-1.6,2.6C91.4-197.6,90.6-196.5,89.7-195.3z"/>
				<path class="st1" d="M5-101.7c0.9-1,2-2.2,3.1-3.4c1-1.1,1.6-2.6,2.5-3.7c0.7-0.9,1.5-1.8,2.2-2.7c0.5-0.7,0.9-1.5,1.3-2.2
					c0.5-0.9,1.1-1.6,1.9-2.2c0.5-0.4,0.9-0.9,1.2-1.5c0.3-0.6,0.7-1.2,1.2-1.7c0.1-0.1,0.2-0.2,0.2-0.2c1.4-2.5,3.6-4.4,5.2-6.7
					c1.4-1.3,2.3-3,3.7-4.2c0.4-0.3,0.8-0.8,1.1-1.2c1.1-1.5,2.4-2.9,3.6-4.3c0.2-0.2,0.4-0.4,0.5-0.6c0.4-1,1.3-1.7,2-2.5
					c0.8-1,1.6-2,2.4-3c0.3-0.3,0.5-0.7,0.8-1c1.2-1.2,2.2-2.5,3-3.9c0.5-0.8,1.1-1.5,1.6-2.2c0.3-0.4,0.6-0.9,0.9-1.4
					c0.1-0.2,0.2-0.4,0.3-0.5c1.2-1,1.9-2.5,2.9-3.6c0.3-0.4,0.6-0.7,0.9-1.1c0.6-0.7,1.1-1.4,1.7-2.1c0.9-1,1.2-2.4,2.1-3.5
					c1.2-1.4,2.4-2.7,3.6-4.1c1.4-1.7,2.8-3.4,4.1-5.1c0.3-0.4,0.7-0.8,1-1.2c1.7-1.7,3.3-3.7,4.9-5.6c1.2-1.5,2.5-3,3.7-4.6
					c0.6-0.8,1.2-1.5,1.7-2.3c0.9-1.3,1.9-2.5,2.9-3.7c1.1-1.4,2.2-2.9,3.4-4.3c0.9-1.1,1.8-2.2,2.9-3.2c0.3-0.3,0.6-0.4,1-0.3
					c0.1,0,0.7,0.5,0.6,0.6c-0.1,0.3-0.1,0.5-0.2,0.8c-0.9,1.6-2.3,2.9-3.4,4.5c-0.9,1.4-2,2.6-3.1,3.9c-0.7,0.8-1.2,1.6-1.7,2.5
					c-0.3,0.5-0.6,0.9-0.9,1.3c-0.5,0.6-1,1.1-1.4,1.8c-0.5,0.7-1,1.5-1.7,2.1c-0.3,0.3-0.5,0.7-0.8,1c-0.5,0.7-1.1,1.3-1.6,2
					c-0.3,0.4-0.7,0.8-1.1,1.2c-0.8,0.9-1.6,1.7-2.4,2.6c-0.2,0.3-0.5,0.5-0.7,0.8c-0.7,1-1.5,2-2.3,2.9c-1,1.1-1.9,2.3-2.9,3.5
					c-1.3,1.6-2.6,3.1-4,4.6c-0.5,0.5-0.3,1.4-0.7,1.9c-1.6,2.3-3.5,4.3-5.4,6.4c-0.9,1-1.7,2.1-2.4,3.2c-0.1,0.2-0.3,0.5-0.5,0.6
					c-0.9,0.7-1.4,1.6-2,2.5c-0.5,0.7-1.2,1.4-1.8,2.1c-0.5,0.6-1,1.1-1.4,1.8c-1.7,2.6-3.6,4.9-5.5,7.3c-0.2,0.2-0.5,0.5-0.6,0.7
					c-0.7,1.4-1.9,2.5-2.9,3.7c-1.2,1.4-2.3,2.9-3.5,4.4c-0.7,0.8-1.4,1.6-2.1,2.4c-1.5,1.6-2.8,3.4-4,5.2c-0.5,0.7-1,1.4-1.6,2
					c-1.1,1.1-1.9,2.5-2.8,3.7c-1.1,1.5-2.7,2.6-3.9,4.1c-1.1,1.4-2,3.1-3.1,4.5c-0.7,0.8-1.4,1.6-2.1,2.4c-0.6,0.8-1.2,1.6-1.7,2.5
					c-1,1.7-2.2,3.2-3.7,4.4c-0.4,0.3-0.9,0.3-1.4-0.1c-0.4-0.3-0.1-0.3,0.1-0.7c0.2-0.4,0.4-0.8,0.7-1.1c0.6-0.8,1.1-1.7,1.6-2.6
					C3.2-99.4,4.1-100.4,5-101.7z"/>
			</g>
			<g>
				<path class="st1" d="M171.7-161.3c-0.9,1-2,2.2-3.1,3.4c-1,1.1-1.6,2.6-2.5,3.7c-0.7,0.9-2,1.3-2.6,2.2
					c-0.5,0.7-0.9,1.5-1.3,2.2c-0.5,0.9-1.1,1.6-1.9,2.2c-0.5,0.4-0.9,0.9-1.2,1.5c-0.3,0.6-0.7,1.2-1.2,1.7
					c-0.1,0.1-0.2,0.2-0.2,0.2c-1.4,2.5-3.6,4.4-5.2,6.7c-1.4,1.3-2.3,3-3.7,4.2c-0.4,0.3-0.8,0.7-1.1,1.2c-1.1,1.5-2.4,2.8-3.6,4.3
					c-0.2,0.2-0.4,0.4-0.5,0.6c-0.4,1-1.2,1.7-2,2.5c-0.8,1-1.6,2-2.3,3c-0.3,0.3-0.5,0.7-0.8,1c-1.2,1.2-2.2,2.5-3,3.9
					c-0.5,0.8-1.1,1.5-1.6,2.2c-0.3,0.4-0.6,0.9-0.8,1.4c-0.1,0.2-0.2,0.4-0.3,0.5c-1.2,1-1.9,2.5-2.9,3.6c-0.3,0.3-0.6,0.7-0.9,1.1
					c-0.6,0.7-1.1,1.4-1.7,2.1c-0.9,1-1.2,2.5-2.1,3.5c-1.2,1.4-2.4,2.7-3.6,4.1c-1.4,1.7-2.7,3.4-4.1,5.1c-0.3,0.4-0.7,0.8-1,1.2
					c-1.8,1.7-3.3,3.6-4.9,5.5c-1.2,1.5-2.5,3-3.7,4.6c-0.6,0.8-1.2,1.5-1.7,2.3c-0.9,1.3-1.9,2.5-2.8,3.7c-1.1,1.4-2.2,2.9-3.4,4.3
					c-0.9,1.1-1.8,2.2-2.9,3.2c-0.3,0.3-0.7,0.4-1.1,0.3c-0.1,0-0.7-0.5-0.7-0.6c0-0.3,0.1-0.5,0.2-0.8c0.9-1.6,2.3-2.9,3.3-4.5
					c0.9-1.4,2-2.6,3.1-3.9c0.7-0.8,1.2-1.6,1.7-2.5c0.3-0.5,0.6-0.9,0.9-1.3c0.5-0.6,1-1.1,1.4-1.7c0.5-0.7,1-1.5,1.7-2.1
					c0.3-0.3,0.5-0.7,0.8-1c0.5-0.7,1.1-1.3,1.6-2c0.3-0.4,0.7-0.8,1.1-1.2c0.8-0.9,1.6-1.7,2.4-2.6c0.3-0.3,0.5-0.5,0.7-0.8
					c0.7-1,1.5-2,2.3-2.9c1-1.1,1.9-2.3,2.9-3.5c1.3-1.6,2.6-3.1,4-4.6c0.5-0.5,0.3-1.4,0.7-1.9c1.6-2.3,3.5-4.3,5.4-6.4
					c0.9-1,1.7-2.1,2.4-3.2c0.1-0.2,0.3-0.5,0.5-0.6c0.9-0.7,1.4-1.6,2-2.5c0.5-0.7,1.2-1.4,1.8-2.1c0.5-0.6,1-1.1,1.4-1.8
					c1.7-2.6,3.6-4.9,5.5-7.3c0.2-0.2,0.5-0.5,0.6-0.7c0.7-1.4,1.9-2.5,2.8-3.7c1.2-1.4,2.5-2.6,3.7-4.1c0.7-0.8,1.4-1.6,2.1-2.4
					c1.5-1.6,2.8-3.4,4-5.2c0.5-0.7,1-1.4,1.6-2c1.1-1.1,1.9-2.5,2.8-3.7c1.1-1.5,2.7-2.6,3.9-4.1c1.1-1.4,1.9-3.1,3.1-4.5
					c0.7-0.8,1.4-1.6,2.1-2.4c0.6-0.8,1.2-1.6,1.7-2.5c1-1.7,2.2-3.2,3.7-4.4c0.4-0.3,0.7-0.6,1.2-0.2c0.4,0.3,0.5,0.8,0.3,1.2
					c-0.2,0.4-0.4,0.8-0.7,1.1c-0.6,0.8-1,1.8-1.6,2.6C173.4-163.6,172.6-162.5,171.7-161.3z"/>
				<path class="st1" d="M87-67.7c0.9-1,2-2.2,3.1-3.4c1-1.1,1.6-2.6,2.5-3.7c0.7-0.9,1.5-1.8,2.2-2.7c0.5-0.7,0.9-1.5,1.3-2.2
					c0.5-0.9,1.1-1.6,1.9-2.2c0.5-0.4,0.9-0.9,1.2-1.5c0.3-0.6,0.7-1.2,1.2-1.7c0.1-0.1,0.2-0.2,0.2-0.2c1.4-2.5,3.6-4.4,5.2-6.7
					c1.4-1.3,2.3-3,3.7-4.2c0.4-0.3,0.8-0.8,1.1-1.2c1.1-1.5,2.4-2.9,3.6-4.3c0.2-0.2,0.4-0.4,0.5-0.6c0.4-1,1.3-1.7,2-2.5
					c0.8-1,1.6-2,2.4-3c0.3-0.3,0.5-0.7,0.8-1c1.2-1.2,2.2-2.5,3-3.9c0.5-0.8,1.1-1.5,1.6-2.2c0.3-0.4,0.6-0.9,0.9-1.4
					c0.1-0.2,0.2-0.4,0.3-0.5c1.2-1,1.9-2.5,2.9-3.6c0.3-0.4,0.6-0.7,0.9-1.1c0.6-0.7,1.1-1.4,1.7-2.1c0.9-1,1.2-2.4,2.1-3.5
					c1.2-1.4,2.4-2.7,3.6-4.1c1.4-1.7,2.8-3.4,4.1-5.1c0.3-0.4,0.7-0.8,1-1.2c1.7-1.7,3.3-3.7,4.9-5.6c1.2-1.5,2.5-3,3.7-4.6
					c0.6-0.8,1.2-1.5,1.7-2.3c0.9-1.3,1.9-2.5,2.9-3.7c1.1-1.4,2.2-2.9,3.4-4.3c0.9-1.1,1.8-2.2,2.9-3.2c0.3-0.3,0.6-0.4,1-0.3
					c0.1,0,0.7,0.5,0.6,0.6c-0.1,0.3-0.1,0.5-0.2,0.8c-0.9,1.6-2.3,2.9-3.4,4.5c-0.9,1.4-2,2.6-3.1,3.9c-0.7,0.8-1.2,1.6-1.7,2.5
					c-0.3,0.5-0.6,0.9-0.9,1.3c-0.5,0.6-1,1.1-1.4,1.8c-0.5,0.7-1,1.5-1.7,2.1c-0.3,0.3-0.5,0.7-0.8,1c-0.5,0.7-1.1,1.3-1.6,2
					c-0.3,0.4-0.7,0.8-1.1,1.2c-0.8,0.9-1.6,1.7-2.4,2.6c-0.3,0.3-0.5,0.5-0.7,0.8c-0.7,1-1.5,2-2.3,2.9c-1,1.1-1.9,2.3-2.9,3.5
					c-1.3,1.6-2.6,3.1-4,4.6c-0.5,0.5-0.3,1.4-0.7,1.9c-1.6,2.3-3.5,4.3-5.4,6.4c-0.9,1-1.7,2.1-2.4,3.2c-0.1,0.2-0.3,0.5-0.5,0.6
					c-0.9,0.7-1.4,1.6-2,2.5c-0.5,0.7-1.2,1.4-1.8,2.1c-0.5,0.6-1,1.1-1.4,1.8c-1.7,2.6-3.6,4.9-5.5,7.3c-0.2,0.2-0.5,0.5-0.6,0.7
					c-0.7,1.4-1.9,2.5-2.9,3.7c-1.2,1.4-2.3,2.9-3.5,4.4c-0.7,0.8-1.4,1.6-2.1,2.4c-1.5,1.6-2.8,3.4-4,5.2c-0.5,0.7-1,1.4-1.6,2
					c-1.1,1.1-1.9,2.5-2.8,3.7c-1.1,1.5-2.7,2.6-3.9,4.1c-1.1,1.4-2,3.1-3.1,4.5c-0.7,0.8-1.4,1.6-2.1,2.4c-0.6,0.8-1.2,1.6-1.7,2.5
					c-1,1.7-2.2,3.2-3.7,4.4c-0.4,0.3-0.9,0.3-1.4-0.1c-0.4-0.3-0.1-0.3,0.1-0.7c0.2-0.4,0.4-0.8,0.7-1.1c0.6-0.8,1.1-1.7,1.6-2.6
					C85.2-65.4,86.1-66.4,87-67.7z"/>
			</g>
			<g>
				<path class="st1" d="M130.7-161.3c-0.9,1-2,2.2-3.1,3.4c-1,1.1-1.6,2.6-2.5,3.7c-0.7,0.9-2,1.3-2.6,2.2
					c-0.5,0.7-0.9,1.5-1.3,2.2c-0.5,0.9-1.1,1.6-1.9,2.2c-0.5,0.4-0.9,0.9-1.2,1.5c-0.3,0.6-0.7,1.2-1.2,1.7
					c-0.1,0.1-0.2,0.2-0.2,0.2c-1.4,2.5-3.6,4.4-5.2,6.7c-1.4,1.3-2.3,3-3.7,4.2c-0.4,0.3-0.8,0.7-1.1,1.2c-1.1,1.5-2.4,2.8-3.6,4.3
					c-0.2,0.2-0.4,0.4-0.5,0.6c-0.4,1-1.2,1.7-2,2.5c-0.8,1-1.6,2-2.3,3c-0.3,0.3-0.5,0.7-0.8,1c-1.2,1.2-2.2,2.5-3,3.9
					c-0.5,0.8-1.1,1.5-1.6,2.2c-0.3,0.4-0.6,0.9-0.8,1.4c-0.1,0.2-0.2,0.4-0.3,0.5c-1.2,1-1.9,2.5-2.9,3.6c-0.3,0.3-0.6,0.7-0.9,1.1
					c-0.6,0.7-1.1,1.4-1.7,2.1c-0.9,1-1.2,2.5-2.1,3.5c-1.2,1.4-2.4,2.7-3.6,4.1c-1.4,1.7-2.7,3.4-4.1,5.1c-0.3,0.4-0.7,0.8-1,1.2
					c-1.8,1.7-3.3,3.6-4.9,5.5c-1.2,1.5-2.5,3-3.7,4.6c-0.6,0.8-1.2,1.5-1.7,2.3C64-78.2,63-77,62-75.8c-1.1,1.4-2.2,2.9-3.4,4.3
					c-0.9,1.1-1.8,2.2-2.9,3.2c-0.3,0.3-0.7,0.4-1.1,0.3c-0.1,0-0.7-0.5-0.7-0.6c0-0.3,0.1-0.5,0.2-0.8c0.9-1.6,2.3-2.9,3.3-4.5
					c0.9-1.4,2-2.6,3.1-3.9c0.7-0.8,1.2-1.6,1.7-2.5c0.3-0.5,0.6-0.9,0.9-1.3c0.5-0.6,1-1.1,1.4-1.7c0.5-0.7,1-1.5,1.7-2.1
					c0.3-0.3,0.5-0.7,0.8-1c0.5-0.7,1.1-1.3,1.6-2c0.3-0.4,0.7-0.8,1.1-1.2c0.8-0.9,1.6-1.7,2.4-2.6c0.3-0.3,0.5-0.5,0.7-0.8
					c0.7-1,1.5-2,2.3-2.9c1-1.1,1.9-2.3,2.9-3.5c1.3-1.6,2.6-3.1,4-4.6c0.5-0.5,0.3-1.4,0.7-1.9c1.6-2.3,3.5-4.3,5.4-6.4
					c0.9-1,1.7-2.1,2.4-3.2c0.1-0.2,0.3-0.5,0.5-0.6c0.9-0.7,1.4-1.6,2-2.5c0.5-0.7,1.2-1.4,1.8-2.1c0.5-0.6,1-1.1,1.4-1.8
					c1.7-2.6,3.6-4.9,5.5-7.3c0.2-0.2,0.5-0.5,0.6-0.7c0.7-1.4,1.9-2.5,2.8-3.7c1.2-1.4,2.5-2.6,3.7-4.1c0.7-0.8,1.4-1.6,2.1-2.4
					c1.5-1.6,2.8-3.4,4-5.2c0.5-0.7,1-1.4,1.6-2c1.1-1.1,1.9-2.5,2.8-3.7c1.1-1.5,2.7-2.6,3.9-4.1c1.1-1.4,1.9-3.1,3.1-4.5
					c0.7-0.8,1.4-1.6,2.1-2.4c0.6-0.8,1.2-1.6,1.7-2.5c1-1.7,2.2-3.2,3.7-4.4c0.4-0.3,0.7-0.6,1.2-0.2c0.4,0.3,0.5,0.8,0.3,1.2
					c-0.2,0.4-0.4,0.8-0.7,1.1c-0.6,0.8-1,1.8-1.6,2.6C132.4-163.6,131.6-162.5,130.7-161.3z"/>
				<path class="st1" d="M46-67.7c0.9-1,2-2.2,3.1-3.4c1-1.1,1.6-2.6,2.5-3.7c0.7-0.9,1.5-1.8,2.2-2.7c0.5-0.7,0.9-1.5,1.3-2.2
					c0.5-0.9,1.1-1.6,1.9-2.2c0.5-0.4,0.9-0.9,1.2-1.5c0.3-0.6,0.7-1.2,1.2-1.7c0.1-0.1,0.2-0.2,0.2-0.2c1.4-2.5,3.6-4.4,5.2-6.7
					c1.4-1.3,2.3-3,3.7-4.2c0.4-0.3,0.8-0.8,1.1-1.2c1.1-1.5,2.4-2.9,3.6-4.3c0.2-0.2,0.4-0.4,0.5-0.6c0.4-1,1.3-1.7,2-2.5
					c0.8-1,1.6-2,2.4-3c0.3-0.3,0.5-0.7,0.8-1c1.2-1.2,2.2-2.5,3-3.9c0.5-0.8,1.1-1.5,1.6-2.2c0.3-0.4,0.6-0.9,0.9-1.4
					c0.1-0.2,0.2-0.4,0.3-0.5c1.2-1,1.9-2.5,2.9-3.6c0.3-0.4,0.6-0.7,0.9-1.1c0.6-0.7,1.1-1.4,1.7-2.1c0.9-1,1.2-2.4,2.1-3.5
					c1.2-1.4,2.4-2.7,3.6-4.1c1.4-1.7,2.8-3.4,4.1-5.1c0.3-0.4,0.7-0.8,1-1.2c1.7-1.7,3.3-3.7,4.9-5.6c1.2-1.5,2.5-3,3.7-4.6
					c0.6-0.8,1.2-1.5,1.7-2.3c0.9-1.3,1.9-2.5,2.9-3.7c1.1-1.4,2.2-2.9,3.4-4.3c0.9-1.1,1.8-2.2,2.9-3.2c0.3-0.3,0.6-0.4,1-0.3
					c0.1,0,0.7,0.5,0.6,0.6c-0.1,0.3-0.1,0.5-0.2,0.8c-0.9,1.6-2.3,2.9-3.4,4.5c-0.9,1.4-2,2.6-3.1,3.9c-0.7,0.8-1.2,1.6-1.7,2.5
					c-0.3,0.5-0.6,0.9-0.9,1.3c-0.5,0.6-1,1.1-1.4,1.8c-0.5,0.7-1,1.5-1.7,2.1c-0.3,0.3-0.5,0.7-0.8,1c-0.5,0.7-1.1,1.3-1.6,2
					c-0.3,0.4-0.7,0.8-1.1,1.2c-0.8,0.9-1.6,1.7-2.4,2.6c-0.2,0.3-0.5,0.5-0.7,0.8c-0.7,1-1.5,2-2.3,2.9c-1,1.1-1.9,2.3-2.9,3.5
					c-1.3,1.6-2.6,3.1-4,4.6c-0.5,0.5-0.3,1.4-0.7,1.9c-1.6,2.3-3.5,4.3-5.4,6.4c-0.9,1-1.7,2.1-2.4,3.2c-0.1,0.2-0.3,0.5-0.5,0.6
					c-0.9,0.7-1.4,1.6-2,2.5c-0.5,0.7-1.2,1.4-1.8,2.1c-0.5,0.6-1,1.1-1.4,1.8c-1.7,2.6-3.6,4.9-5.5,7.3c-0.2,0.2-0.5,0.5-0.6,0.7
					c-0.7,1.4-1.9,2.5-2.9,3.7c-1.2,1.4-2.3,2.9-3.5,4.4c-0.7,0.8-1.4,1.6-2.1,2.4c-1.5,1.6-2.8,3.4-4,5.2c-0.5,0.7-1,1.4-1.6,2
					c-1.1,1.1-1.9,2.5-2.8,3.7c-1.1,1.5-2.7,2.6-3.9,4.1c-1.1,1.4-2,3.1-3.1,4.5c-0.7,0.8-1.4,1.6-2.1,2.4c-0.6,0.8-1.2,1.6-1.7,2.5
					c-1,1.7-2.2,3.2-3.7,4.4c-0.4,0.3-0.9,0.3-1.4-0.1c-0.4-0.3-0.1-0.3,0.1-0.7c0.2-0.4,0.4-0.8,0.7-1.1c0.6-0.8,1.1-1.7,1.6-2.6
					C44.2-65.4,45.1-66.4,46-67.7z"/>
			</g>
			<g>
				<path class="st1" d="M89.7-161.3c-0.9,1-2,2.2-3.1,3.4c-1,1.1-1.6,2.6-2.5,3.7c-0.7,0.9-2,1.3-2.6,2.2c-0.5,0.7-0.9,1.5-1.3,2.2
					c-0.5,0.9-1.1,1.6-1.9,2.2c-0.5,0.4-0.9,0.9-1.2,1.5c-0.3,0.6-0.7,1.2-1.2,1.7c-0.1,0.1-0.2,0.2-0.2,0.2
					c-1.4,2.5-3.6,4.4-5.2,6.7c-1.4,1.3-2.3,3-3.7,4.2c-0.4,0.3-0.8,0.7-1.1,1.2c-1.1,1.5-2.4,2.8-3.6,4.3c-0.2,0.2-0.4,0.4-0.5,0.6
					c-0.4,1-1.2,1.7-2,2.5c-0.8,1-1.6,2-2.3,3c-0.3,0.3-0.5,0.7-0.8,1c-1.2,1.2-2.2,2.5-3,3.9c-0.5,0.8-1.1,1.5-1.6,2.2
					c-0.3,0.4-0.6,0.9-0.8,1.4c-0.1,0.2-0.2,0.4-0.3,0.5c-1.2,1-1.9,2.5-2.9,3.6c-0.3,0.3-0.6,0.7-0.9,1.1c-0.6,0.7-1.1,1.4-1.7,2.1
					c-0.9,1-1.2,2.5-2.1,3.5c-1.2,1.4-2.4,2.7-3.6,4.1c-1.4,1.7-2.7,3.4-4.1,5.1c-0.3,0.4-0.7,0.8-1,1.2c-1.8,1.7-3.3,3.6-4.9,5.5
					c-1.2,1.5-2.5,3-3.7,4.6c-0.6,0.8-1.2,1.5-1.7,2.3C23-78.2,22-77,21-75.8c-1.1,1.4-2.2,2.9-3.4,4.3c-0.9,1.1-1.8,2.2-2.9,3.2
					c-0.3,0.3-0.7,0.4-1.1,0.3c-0.1,0-0.7-0.5-0.7-0.6c0-0.3,0.1-0.5,0.2-0.8c0.9-1.6,2.3-2.9,3.3-4.5c0.9-1.4,2-2.6,3.1-3.9
					c0.7-0.8,1.2-1.6,1.7-2.5c0.3-0.5,0.6-0.9,0.9-1.3c0.5-0.6,1-1.1,1.4-1.7c0.5-0.7,1-1.5,1.7-2.1c0.3-0.3,0.5-0.7,0.8-1
					c0.5-0.7,1.1-1.3,1.6-2c0.3-0.4,0.7-0.8,1.1-1.2c0.8-0.9,1.6-1.7,2.4-2.6c0.3-0.3,0.5-0.5,0.7-0.8c0.7-1,1.5-2,2.3-2.9
					c1-1.1,1.9-2.3,2.9-3.5c1.3-1.6,2.6-3.1,4-4.6c0.5-0.5,0.3-1.4,0.7-1.9c1.6-2.3,3.5-4.3,5.4-6.4c0.9-1,1.7-2.1,2.4-3.2
					c0.1-0.2,0.3-0.5,0.5-0.6c0.9-0.7,1.4-1.6,2-2.5c0.5-0.7,1.2-1.4,1.8-2.1c0.5-0.6,1-1.1,1.4-1.8c1.7-2.6,3.6-4.9,5.5-7.3
					c0.2-0.2,0.5-0.5,0.6-0.7c0.7-1.4,1.9-2.5,2.8-3.7c1.2-1.4,2.5-2.6,3.7-4.1c0.7-0.8,1.4-1.6,2.1-2.4c1.5-1.6,2.8-3.4,4-5.2
					c0.5-0.7,1-1.4,1.6-2c1.1-1.1,1.9-2.5,2.8-3.7c1.1-1.5,2.7-2.6,3.9-4.1c1.1-1.4,1.9-3.1,3.1-4.5c0.7-0.8,1.4-1.6,2.1-2.4
					c0.6-0.8,1.2-1.6,1.7-2.5c1-1.7,2.2-3.2,3.7-4.4c0.4-0.3,0.7-0.6,1.2-0.2c0.4,0.3,0.5,0.8,0.3,1.2c-0.2,0.4-0.4,0.8-0.7,1.1
					c-0.6,0.8-1,1.8-1.6,2.6C91.4-163.6,90.6-162.5,89.7-161.3z"/>
				<path class="st1" d="M5-67.7c0.9-1,2-2.2,3.1-3.4c1-1.1,1.6-2.6,2.5-3.7c0.7-0.9,1.5-1.8,2.2-2.7c0.5-0.7,0.9-1.5,1.3-2.2
					c0.5-0.9,1.1-1.6,1.9-2.2c0.5-0.4,0.9-0.9,1.2-1.5c0.3-0.6,0.7-1.2,1.2-1.7c0.1-0.1,0.2-0.2,0.2-0.2c1.4-2.5,3.6-4.4,5.2-6.7
					c1.4-1.3,2.3-3,3.7-4.2c0.4-0.3,0.8-0.8,1.1-1.2c1.1-1.5,2.4-2.9,3.6-4.3c0.2-0.2,0.4-0.4,0.5-0.6c0.4-1,1.3-1.7,2-2.5
					c0.8-1,1.6-2,2.4-3c0.3-0.3,0.5-0.7,0.8-1c1.2-1.2,2.2-2.5,3-3.9c0.5-0.8,1.1-1.5,1.6-2.2c0.3-0.4,0.6-0.9,0.9-1.4
					c0.1-0.2,0.2-0.4,0.3-0.5c1.2-1,1.9-2.5,2.9-3.6c0.3-0.4,0.6-0.7,0.9-1.1c0.6-0.7,1.1-1.4,1.7-2.1c0.9-1,1.2-2.4,2.1-3.5
					c1.2-1.4,2.4-2.7,3.6-4.1c1.4-1.7,2.8-3.4,4.1-5.1c0.3-0.4,0.7-0.8,1-1.2c1.7-1.7,3.3-3.7,4.9-5.6c1.2-1.5,2.5-3,3.7-4.6
					c0.6-0.8,1.2-1.5,1.7-2.3c0.9-1.3,1.9-2.5,2.9-3.7c1.1-1.4,2.2-2.9,3.4-4.3c0.9-1.1,1.8-2.2,2.9-3.2c0.3-0.3,0.6-0.4,1-0.3
					c0.1,0,0.7,0.5,0.6,0.6c-0.1,0.3-0.1,0.5-0.2,0.8c-0.9,1.6-2.3,2.9-3.4,4.5c-0.9,1.4-2,2.6-3.1,3.9c-0.7,0.8-1.2,1.6-1.7,2.5
					c-0.3,0.5-0.6,0.9-0.9,1.3c-0.5,0.6-1,1.1-1.4,1.8c-0.5,0.7-1,1.5-1.7,2.1c-0.3,0.3-0.5,0.7-0.8,1c-0.5,0.7-1.1,1.3-1.6,2
					c-0.3,0.4-0.7,0.8-1.1,1.2c-0.8,0.9-1.6,1.7-2.4,2.6c-0.2,0.3-0.5,0.5-0.7,0.8c-0.7,1-1.5,2-2.3,2.9c-1,1.1-1.9,2.3-2.9,3.5
					c-1.3,1.6-2.6,3.1-4,4.6c-0.5,0.5-0.3,1.4-0.7,1.9c-1.6,2.3-3.5,4.3-5.4,6.4c-0.9,1-1.7,2.1-2.4,3.2c-0.1,0.2-0.3,0.5-0.5,0.6
					c-0.9,0.7-1.4,1.6-2,2.5c-0.5,0.7-1.2,1.4-1.8,2.1c-0.5,0.6-1,1.1-1.4,1.8c-1.7,2.6-3.6,4.9-5.5,7.3c-0.2,0.2-0.5,0.5-0.6,0.7
					c-0.7,1.4-1.9,2.5-2.9,3.7c-1.2,1.4-2.3,2.9-3.5,4.4c-0.7,0.8-1.4,1.6-2.1,2.4c-1.5,1.6-2.8,3.4-4,5.2c-0.5,0.7-1,1.4-1.6,2
					c-1.1,1.1-1.9,2.5-2.8,3.7c-1.1,1.5-2.7,2.6-3.9,4.1c-1.1,1.4-2,3.1-3.1,4.5c-0.7,0.8-1.4,1.6-2.1,2.4c-0.6,0.8-1.2,1.6-1.7,2.5
					c-1,1.7-2.2,3.2-3.7,4.4c-0.4,0.3-0.9,0.3-1.4-0.1c-0.4-0.3-0.1-0.3,0.1-0.7c0.2-0.4,0.4-0.8,0.7-1.1c0.6-0.8,1.1-1.7,1.6-2.6
					C3.2-65.4,4.1-66.4,5-67.7z"/>
			</g>
			<g>
				<path class="st1" d="M171.7-127.3c-0.9,1-2,2.2-3.1,3.4c-1,1.1-1.6,2.6-2.5,3.7c-0.7,0.9-2,1.3-2.6,2.2
					c-0.5,0.7-0.9,1.5-1.3,2.2c-0.5,0.9-1.1,1.6-1.9,2.2c-0.5,0.4-0.9,0.9-1.2,1.5c-0.3,0.6-0.7,1.2-1.2,1.7
					c-0.1,0.1-0.2,0.2-0.2,0.2c-1.4,2.5-3.6,4.4-5.2,6.7c-1.4,1.3-2.3,3-3.7,4.2c-0.4,0.3-0.8,0.7-1.1,1.2c-1.1,1.5-2.4,2.9-3.6,4.3
					c-0.2,0.2-0.4,0.4-0.5,0.6c-0.4,1-1.2,1.7-2,2.5c-0.8,1-1.6,2-2.3,3c-0.3,0.3-0.5,0.7-0.8,1c-1.2,1.2-2.2,2.5-3,3.9
					c-0.5,0.8-1.1,1.5-1.6,2.2c-0.3,0.4-0.6,0.9-0.8,1.4c-0.1,0.2-0.2,0.4-0.3,0.5c-1.2,1-1.9,2.5-2.9,3.6c-0.3,0.4-0.6,0.7-0.9,1.1
					c-0.6,0.7-1.1,1.4-1.7,2.1c-0.9,1-1.2,2.5-2.1,3.5c-1.2,1.4-2.4,2.7-3.6,4.1c-1.4,1.7-2.7,3.4-4.1,5.1c-0.3,0.4-0.7,0.8-1,1.2
					c-1.8,1.7-3.3,3.6-4.9,5.5c-1.2,1.5-2.5,3-3.7,4.6c-0.6,0.8-1.2,1.5-1.7,2.3c-0.9,1.3-1.9,2.5-2.8,3.7c-1.1,1.4-2.2,2.9-3.4,4.3
					c-0.9,1.1-1.8,2.2-2.9,3.2c-0.3,0.3-0.7,0.4-1.1,0.3c-0.1,0-0.7-0.5-0.7-0.6c0-0.3,0.1-0.5,0.2-0.8c0.9-1.6,2.3-2.9,3.3-4.5
					c0.9-1.4,2-2.6,3.1-3.9c0.7-0.8,1.2-1.6,1.7-2.5c0.3-0.5,0.6-0.9,0.9-1.3c0.5-0.6,1-1.1,1.4-1.7c0.5-0.7,1-1.5,1.7-2.1
					c0.3-0.3,0.5-0.7,0.8-1c0.5-0.7,1.1-1.3,1.6-2c0.3-0.4,0.7-0.8,1.1-1.2c0.8-0.9,1.6-1.7,2.4-2.6c0.3-0.3,0.5-0.5,0.7-0.8
					c0.7-1,1.5-2,2.3-2.9c1-1.1,1.9-2.3,2.9-3.5c1.3-1.6,2.6-3.1,4-4.6c0.5-0.5,0.3-1.4,0.7-1.9c1.6-2.3,3.5-4.3,5.4-6.4
					c0.9-1,1.7-2.1,2.4-3.2c0.1-0.2,0.3-0.5,0.5-0.6c0.9-0.7,1.4-1.6,2-2.5c0.5-0.7,1.2-1.4,1.8-2.1c0.5-0.6,1-1.1,1.4-1.8
					c1.7-2.6,3.6-4.9,5.5-7.3c0.2-0.2,0.5-0.5,0.6-0.7c0.7-1.4,1.9-2.5,2.8-3.7c1.2-1.4,2.5-2.6,3.7-4.1c0.7-0.8,1.4-1.6,2.1-2.4
					c1.5-1.6,2.8-3.4,4-5.2c0.5-0.7,1-1.4,1.6-2c1.1-1.1,1.9-2.5,2.8-3.7c1.1-1.5,2.7-2.6,3.9-4.1c1.1-1.4,1.9-3.1,3.1-4.5
					c0.7-0.8,1.4-1.6,2.1-2.4c0.6-0.8,1.2-1.6,1.7-2.5c1-1.7,2.2-3.2,3.7-4.4c0.4-0.3,0.7-0.6,1.2-0.2c0.4,0.3,0.5,0.8,0.3,1.2
					c-0.2,0.4-0.4,0.8-0.7,1.1c-0.6,0.8-1,1.8-1.6,2.6C173.4-129.6,172.6-128.5,171.7-127.3z"/>
				<path class="st1" d="M87-33.7c0.9-1,2-2.2,3.1-3.4c1-1.1,1.6-2.6,2.5-3.7c0.7-0.9,1.5-1.8,2.2-2.7c0.5-0.7,0.9-1.5,1.3-2.2
					c0.5-0.9,1.1-1.6,1.9-2.2c0.5-0.4,0.9-0.9,1.2-1.5c0.3-0.6,0.7-1.2,1.2-1.7c0.1-0.1,0.2-0.2,0.2-0.2c1.4-2.5,3.6-4.4,5.2-6.7
					c1.4-1.3,2.3-3,3.7-4.2c0.4-0.3,0.8-0.8,1.1-1.2c1.1-1.5,2.4-2.9,3.6-4.3c0.2-0.2,0.4-0.4,0.5-0.6c0.4-1,1.3-1.7,2-2.5
					c0.8-1,1.6-2,2.4-3c0.3-0.3,0.5-0.7,0.8-1c1.2-1.2,2.2-2.5,3-3.9c0.5-0.8,1.1-1.5,1.6-2.2c0.3-0.4,0.6-0.9,0.9-1.4
					c0.1-0.2,0.2-0.4,0.3-0.5c1.2-1,1.9-2.5,2.9-3.6c0.3-0.4,0.6-0.7,0.9-1.1c0.6-0.7,1.1-1.4,1.7-2.1c0.9-1,1.2-2.4,2.1-3.5
					c1.2-1.4,2.4-2.7,3.6-4.1c1.4-1.7,2.8-3.4,4.1-5.1c0.3-0.4,0.7-0.8,1-1.2c1.7-1.7,3.3-3.7,4.9-5.6c1.2-1.5,2.5-3,3.7-4.6
					c0.6-0.8,1.2-1.5,1.7-2.3c0.9-1.3,1.9-2.5,2.9-3.7c1.1-1.4,2.2-2.9,3.4-4.3c0.9-1.1,1.8-2.2,2.9-3.2c0.3-0.3,0.6-0.4,1-0.3
					c0.1,0,0.7,0.5,0.6,0.6c-0.1,0.3-0.1,0.5-0.2,0.8c-0.9,1.6-2.3,2.9-3.4,4.5c-0.9,1.4-2,2.6-3.1,3.9c-0.7,0.8-1.2,1.6-1.7,2.5
					c-0.3,0.5-0.6,0.9-0.9,1.3c-0.5,0.6-1,1.1-1.4,1.8c-0.5,0.7-1,1.5-1.7,2.1c-0.3,0.3-0.5,0.7-0.8,1c-0.5,0.7-1.1,1.3-1.6,2
					c-0.3,0.4-0.7,0.8-1.1,1.2c-0.8,0.9-1.6,1.7-2.4,2.6c-0.3,0.3-0.5,0.5-0.7,0.8c-0.7,1-1.5,2-2.3,2.9c-1,1.1-1.9,2.3-2.9,3.5
					c-1.3,1.6-2.6,3.1-4,4.6c-0.5,0.5-0.3,1.4-0.7,1.9c-1.6,2.3-3.5,4.3-5.4,6.4c-0.9,1-1.7,2.1-2.4,3.2c-0.1,0.2-0.3,0.5-0.5,0.6
					c-0.9,0.7-1.4,1.6-2,2.5c-0.5,0.7-1.2,1.4-1.8,2.1c-0.5,0.6-1,1.1-1.4,1.8c-1.7,2.6-3.6,4.9-5.5,7.3c-0.2,0.2-0.5,0.5-0.6,0.7
					c-0.7,1.4-1.9,2.5-2.9,3.7c-1.2,1.4-2.3,2.9-3.5,4.4c-0.7,0.8-1.4,1.6-2.1,2.4c-1.5,1.6-2.8,3.4-4,5.2c-0.5,0.7-1,1.4-1.6,2
					c-1.1,1.1-1.9,2.5-2.8,3.7c-1.1,1.5-2.7,2.6-3.9,4.1c-1.1,1.4-2,3.1-3.1,4.5c-0.7,0.8-1.4,1.6-2.1,2.4c-0.6,0.8-1.2,1.6-1.7,2.5
					c-1,1.7-2.2,3.2-3.7,4.4c-0.4,0.3-0.9,0.3-1.4-0.1c-0.4-0.3-0.1-0.3,0.1-0.7c0.2-0.4,0.4-0.8,0.7-1.1c0.6-0.8,1.1-1.7,1.6-2.6
					C85.2-31.4,86.1-32.4,87-33.7z"/>
			</g>
			<g>
				<path class="st1" d="M130.7-127.3c-0.9,1-2,2.2-3.1,3.4c-1,1.1-1.6,2.6-2.5,3.7c-0.7,0.9-2,1.3-2.6,2.2
					c-0.5,0.7-0.9,1.5-1.3,2.2c-0.5,0.9-1.1,1.6-1.9,2.2c-0.5,0.4-0.9,0.9-1.2,1.5c-0.3,0.6-0.7,1.2-1.2,1.7
					c-0.1,0.1-0.2,0.2-0.2,0.2c-1.4,2.5-3.6,4.4-5.2,6.7c-1.4,1.3-2.3,3-3.7,4.2c-0.4,0.3-0.8,0.7-1.1,1.2c-1.1,1.5-2.4,2.9-3.6,4.3
					c-0.2,0.2-0.4,0.4-0.5,0.6c-0.4,1-1.2,1.7-2,2.5c-0.8,1-1.6,2-2.3,3c-0.3,0.3-0.5,0.7-0.8,1c-1.2,1.2-2.2,2.5-3,3.9
					c-0.5,0.8-1.1,1.5-1.6,2.2c-0.3,0.4-0.6,0.9-0.8,1.4c-0.1,0.2-0.2,0.4-0.3,0.5c-1.2,1-1.9,2.5-2.9,3.6c-0.3,0.4-0.6,0.7-0.9,1.1
					c-0.6,0.7-1.1,1.4-1.7,2.1c-0.9,1-1.2,2.5-2.1,3.5c-1.2,1.4-2.4,2.7-3.6,4.1c-1.4,1.7-2.7,3.4-4.1,5.1c-0.3,0.4-0.7,0.8-1,1.2
					c-1.8,1.7-3.3,3.6-4.9,5.5c-1.2,1.5-2.5,3-3.7,4.6c-0.6,0.8-1.2,1.5-1.7,2.3C64-44.2,63-43,62-41.8c-1.1,1.4-2.2,2.9-3.4,4.3
					c-0.9,1.1-1.8,2.2-2.9,3.2c-0.3,0.3-0.7,0.4-1.1,0.3c-0.1,0-0.7-0.5-0.7-0.6c0-0.3,0.1-0.5,0.2-0.8c0.9-1.6,2.3-2.9,3.3-4.5
					c0.9-1.4,2-2.6,3.1-3.9c0.7-0.8,1.2-1.6,1.7-2.5c0.3-0.5,0.6-0.9,0.9-1.3c0.5-0.6,1-1.1,1.4-1.7c0.5-0.7,1-1.5,1.7-2.1
					c0.3-0.3,0.5-0.7,0.8-1c0.5-0.7,1.1-1.3,1.6-2c0.3-0.4,0.7-0.8,1.1-1.2c0.8-0.9,1.6-1.7,2.4-2.6c0.3-0.3,0.5-0.5,0.7-0.8
					c0.7-1,1.5-2,2.3-2.9c1-1.1,1.9-2.3,2.9-3.5c1.3-1.6,2.6-3.1,4-4.6c0.5-0.5,0.3-1.4,0.7-1.9c1.6-2.3,3.5-4.3,5.4-6.4
					c0.9-1,1.7-2.1,2.4-3.2c0.1-0.2,0.3-0.5,0.5-0.6c0.9-0.7,1.4-1.6,2-2.5c0.5-0.7,1.2-1.4,1.8-2.1c0.5-0.6,1-1.1,1.4-1.8
					c1.7-2.6,3.6-4.9,5.5-7.3c0.2-0.2,0.5-0.5,0.6-0.7c0.7-1.4,1.9-2.5,2.8-3.7c1.2-1.4,2.5-2.6,3.7-4.1c0.7-0.8,1.4-1.6,2.1-2.4
					c1.5-1.6,2.8-3.4,4-5.2c0.5-0.7,1-1.4,1.6-2c1.1-1.1,1.9-2.5,2.8-3.7c1.1-1.5,2.7-2.6,3.9-4.1c1.1-1.4,1.9-3.1,3.1-4.5
					c0.7-0.8,1.4-1.6,2.1-2.4c0.6-0.8,1.2-1.6,1.7-2.5c1-1.7,2.2-3.2,3.7-4.4c0.4-0.3,0.7-0.6,1.2-0.2c0.4,0.3,0.5,0.8,0.3,1.2
					c-0.2,0.4-0.4,0.8-0.7,1.1c-0.6,0.8-1,1.8-1.6,2.6C132.4-129.6,131.6-128.5,130.7-127.3z"/>
				<path class="st1" d="M46-33.7c0.9-1,2-2.2,3.1-3.4c1-1.1,1.6-2.6,2.5-3.7c0.7-0.9,1.5-1.8,2.2-2.7c0.5-0.7,0.9-1.5,1.3-2.2
					c0.5-0.9,1.1-1.6,1.9-2.2c0.5-0.4,0.9-0.9,1.2-1.5c0.3-0.6,0.7-1.2,1.2-1.7c0.1-0.1,0.2-0.2,0.2-0.2c1.4-2.5,3.6-4.4,5.2-6.7
					c1.4-1.3,2.3-3,3.7-4.2c0.4-0.3,0.8-0.8,1.1-1.2c1.1-1.5,2.4-2.9,3.6-4.3c0.2-0.2,0.4-0.4,0.5-0.6c0.4-1,1.3-1.7,2-2.5
					c0.8-1,1.6-2,2.4-3c0.3-0.3,0.5-0.7,0.8-1c1.2-1.2,2.2-2.5,3-3.9c0.5-0.8,1.1-1.5,1.6-2.2c0.3-0.4,0.6-0.9,0.9-1.4
					c0.1-0.2,0.2-0.4,0.3-0.5c1.2-1,1.9-2.5,2.9-3.6c0.3-0.4,0.6-0.7,0.9-1.1c0.6-0.7,1.1-1.4,1.7-2.1c0.9-1,1.2-2.4,2.1-3.5
					c1.2-1.4,2.4-2.7,3.6-4.1c1.4-1.7,2.8-3.4,4.1-5.1c0.3-0.4,0.7-0.8,1-1.2c1.7-1.7,3.3-3.7,4.9-5.6c1.2-1.5,2.5-3,3.7-4.6
					c0.6-0.8,1.2-1.5,1.7-2.3c0.9-1.3,1.9-2.5,2.9-3.7c1.1-1.4,2.2-2.9,3.4-4.3c0.9-1.1,1.8-2.2,2.9-3.2c0.3-0.3,0.6-0.4,1-0.3
					c0.1,0,0.7,0.5,0.6,0.6c-0.1,0.3-0.1,0.5-0.2,0.8c-0.9,1.6-2.3,2.9-3.4,4.5c-0.9,1.4-2,2.6-3.1,3.9c-0.7,0.8-1.2,1.6-1.7,2.5
					c-0.3,0.5-0.6,0.9-0.9,1.3c-0.5,0.6-1,1.1-1.4,1.8c-0.5,0.7-1,1.5-1.7,2.1c-0.3,0.3-0.5,0.7-0.8,1c-0.5,0.7-1.1,1.3-1.6,2
					c-0.3,0.4-0.7,0.8-1.1,1.2c-0.8,0.9-1.6,1.7-2.4,2.6c-0.2,0.3-0.5,0.5-0.7,0.8c-0.7,1-1.5,2-2.3,2.9c-1,1.1-1.9,2.3-2.9,3.5
					c-1.3,1.6-2.6,3.1-4,4.6c-0.5,0.5-0.3,1.4-0.7,1.9c-1.6,2.3-3.5,4.3-5.4,6.4c-0.9,1-1.7,2.1-2.4,3.2c-0.1,0.2-0.3,0.5-0.5,0.6
					c-0.9,0.7-1.4,1.6-2,2.5c-0.5,0.7-1.2,1.4-1.8,2.1c-0.5,0.6-1,1.1-1.4,1.8c-1.7,2.6-3.6,4.9-5.5,7.3c-0.2,0.2-0.5,0.5-0.6,0.7
					c-0.7,1.4-1.9,2.5-2.9,3.7c-1.2,1.4-2.3,2.9-3.5,4.4c-0.7,0.8-1.4,1.6-2.1,2.4c-1.5,1.6-2.8,3.4-4,5.2c-0.5,0.7-1,1.4-1.6,2
					c-1.1,1.1-1.9,2.5-2.8,3.7c-1.1,1.5-2.7,2.6-3.9,4.1c-1.1,1.4-2,3.1-3.1,4.5c-0.7,0.8-1.4,1.6-2.1,2.4c-0.6,0.8-1.2,1.6-1.7,2.5
					c-1,1.7-2.2,3.2-3.7,4.4c-0.4,0.3-0.9,0.3-1.4-0.1c-0.4-0.3-0.1-0.3,0.1-0.7c0.2-0.4,0.4-0.8,0.7-1.1c0.6-0.8,1.1-1.7,1.6-2.6
					C44.2-31.4,45.1-32.4,46-33.7z"/>
			</g>
			<g>
				<path class="st1" d="M89.7-127.3c-0.9,1-2,2.2-3.1,3.4c-1,1.1-1.6,2.6-2.5,3.7c-0.7,0.9-2,1.3-2.6,2.2c-0.5,0.7-0.9,1.5-1.3,2.2
					c-0.5,0.9-1.1,1.6-1.9,2.2c-0.5,0.4-0.9,0.9-1.2,1.5c-0.3,0.6-0.7,1.2-1.2,1.7c-0.1,0.1-0.2,0.2-0.2,0.2
					c-1.4,2.5-3.6,4.4-5.2,6.7c-1.4,1.3-2.3,3-3.7,4.2c-0.4,0.3-0.8,0.7-1.1,1.2c-1.1,1.5-2.4,2.9-3.6,4.3c-0.2,0.2-0.4,0.4-0.5,0.6
					c-0.4,1-1.2,1.7-2,2.5c-0.8,1-1.6,2-2.3,3c-0.3,0.3-0.5,0.7-0.8,1c-1.2,1.2-2.2,2.5-3,3.9c-0.5,0.8-1.1,1.5-1.6,2.2
					c-0.3,0.4-0.6,0.9-0.8,1.4c-0.1,0.2-0.2,0.4-0.3,0.5c-1.2,1-1.9,2.5-2.9,3.6c-0.3,0.4-0.6,0.7-0.9,1.1c-0.6,0.7-1.1,1.4-1.7,2.1
					c-0.9,1-1.2,2.5-2.1,3.5c-1.2,1.4-2.4,2.7-3.6,4.1c-1.4,1.7-2.7,3.4-4.1,5.1c-0.3,0.4-0.7,0.8-1,1.2c-1.8,1.7-3.3,3.6-4.9,5.5
					c-1.2,1.5-2.5,3-3.7,4.6c-0.6,0.8-1.2,1.5-1.7,2.3C23-44.2,22-43,21-41.8c-1.1,1.4-2.2,2.9-3.4,4.3c-0.9,1.1-1.8,2.2-2.9,3.2
					c-0.3,0.3-0.7,0.4-1.1,0.3c-0.1,0-0.7-0.5-0.7-0.6c0-0.3,0.1-0.5,0.2-0.8c0.9-1.6,2.3-2.9,3.3-4.5c0.9-1.4,2-2.6,3.1-3.9
					c0.7-0.8,1.2-1.6,1.7-2.5c0.3-0.5,0.6-0.9,0.9-1.3c0.5-0.6,1-1.1,1.4-1.7c0.5-0.7,1-1.5,1.7-2.1c0.3-0.3,0.5-0.7,0.8-1
					c0.5-0.7,1.1-1.3,1.6-2c0.3-0.4,0.7-0.8,1.1-1.2c0.8-0.9,1.6-1.7,2.4-2.6c0.3-0.3,0.5-0.5,0.7-0.8c0.7-1,1.5-2,2.3-2.9
					c1-1.1,1.9-2.3,2.9-3.5c1.3-1.6,2.6-3.1,4-4.6c0.5-0.5,0.3-1.4,0.7-1.9c1.6-2.3,3.5-4.3,5.4-6.4c0.9-1,1.7-2.1,2.4-3.2
					c0.1-0.2,0.3-0.5,0.5-0.6c0.9-0.7,1.4-1.6,2-2.5c0.5-0.7,1.2-1.4,1.8-2.1c0.5-0.6,1-1.1,1.4-1.8c1.7-2.6,3.6-4.9,5.5-7.3
					c0.2-0.2,0.5-0.5,0.6-0.7c0.7-1.4,1.9-2.5,2.8-3.7c1.2-1.4,2.5-2.6,3.7-4.1c0.7-0.8,1.4-1.6,2.1-2.4c1.5-1.6,2.8-3.4,4-5.2
					c0.5-0.7,1-1.4,1.6-2c1.1-1.1,1.9-2.5,2.8-3.7c1.1-1.5,2.7-2.6,3.9-4.1c1.1-1.4,1.9-3.1,3.1-4.5c0.7-0.8,1.4-1.6,2.1-2.4
					c0.6-0.8,1.2-1.6,1.7-2.5c1-1.7,2.2-3.2,3.7-4.4c0.4-0.3,0.7-0.6,1.2-0.2c0.4,0.3,0.5,0.8,0.3,1.2c-0.2,0.4-0.4,0.8-0.7,1.1
					c-0.6,0.8-1,1.8-1.6,2.6C91.4-129.6,90.6-128.5,89.7-127.3z"/>
				<path class="st1" d="M5-33.7c0.9-1,2-2.2,3.1-3.4c1-1.1,1.6-2.6,2.5-3.7c0.7-0.9,1.5-1.8,2.2-2.7c0.5-0.7,0.9-1.5,1.3-2.2
					c0.5-0.9,1.1-1.6,1.9-2.2c0.5-0.4,0.9-0.9,1.2-1.5c0.3-0.6,0.7-1.2,1.2-1.7c0.1-0.1,0.2-0.2,0.2-0.2c1.4-2.5,3.6-4.4,5.2-6.7
					c1.4-1.3,2.3-3,3.7-4.2c0.4-0.3,0.8-0.8,1.1-1.2c1.1-1.5,2.4-2.9,3.6-4.3c0.2-0.2,0.4-0.4,0.5-0.6c0.4-1,1.3-1.7,2-2.5
					c0.8-1,1.6-2,2.4-3c0.3-0.3,0.5-0.7,0.8-1c1.2-1.2,2.2-2.5,3-3.9c0.5-0.8,1.1-1.5,1.6-2.2c0.3-0.4,0.6-0.9,0.9-1.4
					c0.1-0.2,0.2-0.4,0.3-0.5c1.2-1,1.9-2.5,2.9-3.6c0.3-0.4,0.6-0.7,0.9-1.1c0.6-0.7,1.1-1.4,1.7-2.1c0.9-1,1.2-2.4,2.1-3.5
					c1.2-1.4,2.4-2.7,3.6-4.1c1.4-1.7,2.8-3.4,4.1-5.1c0.3-0.4,0.7-0.8,1-1.2c1.7-1.7,3.3-3.7,4.9-5.6c1.2-1.5,2.5-3,3.7-4.6
					c0.6-0.8,1.2-1.5,1.7-2.3c0.9-1.3,1.9-2.5,2.9-3.7c1.1-1.4,2.2-2.9,3.4-4.3c0.9-1.1,1.8-2.2,2.9-3.2c0.3-0.3,0.6-0.4,1-0.3
					c0.1,0,0.7,0.5,0.6,0.6c-0.1,0.3-0.1,0.5-0.2,0.8c-0.9,1.6-2.3,2.9-3.4,4.5c-0.9,1.4-2,2.6-3.1,3.9c-0.7,0.8-1.2,1.6-1.7,2.5
					c-0.3,0.5-0.6,0.9-0.9,1.3c-0.5,0.6-1,1.1-1.4,1.8c-0.5,0.7-1,1.5-1.7,2.1c-0.3,0.3-0.5,0.7-0.8,1c-0.5,0.7-1.1,1.3-1.6,2
					c-0.3,0.4-0.7,0.8-1.1,1.2c-0.8,0.9-1.6,1.7-2.4,2.6c-0.2,0.3-0.5,0.5-0.7,0.8c-0.7,1-1.5,2-2.3,2.9c-1,1.1-1.9,2.3-2.9,3.5
					c-1.3,1.6-2.6,3.1-4,4.6c-0.5,0.5-0.3,1.4-0.7,1.9c-1.6,2.3-3.5,4.3-5.4,6.4c-0.9,1-1.7,2.1-2.4,3.2c-0.1,0.2-0.3,0.5-0.5,0.6
					c-0.9,0.7-1.4,1.6-2,2.5c-0.5,0.7-1.2,1.4-1.8,2.1c-0.5,0.6-1,1.1-1.4,1.8c-1.7,2.6-3.6,4.9-5.5,7.3c-0.2,0.2-0.5,0.5-0.6,0.7
					c-0.7,1.4-1.9,2.5-2.9,3.7c-1.2,1.4-2.3,2.9-3.5,4.4c-0.7,0.8-1.4,1.6-2.1,2.4c-1.5,1.6-2.8,3.4-4,5.2c-0.5,0.7-1,1.4-1.6,2
					c-1.1,1.1-1.9,2.5-2.8,3.7c-1.1,1.5-2.7,2.6-3.9,4.1c-1.1,1.4-2,3.1-3.1,4.5c-0.7,0.8-1.4,1.6-2.1,2.4c-0.6,0.8-1.2,1.6-1.7,2.5
					c-1,1.7-2.2,3.2-3.7,4.4c-0.4,0.3-0.9,0.3-1.4-0.1c-0.4-0.3-0.1-0.3,0.1-0.7c0.2-0.4,0.4-0.8,0.7-1.1c0.6-0.8,1.1-1.7,1.6-2.6
					C3.2-31.4,4.1-32.4,5-33.7z"/>
			</g>
			<g>
				<path class="st1" d="M171.7-93.3c-0.9,1-2,2.2-3.1,3.4c-1,1.1-1.6,2.6-2.5,3.7c-0.7,0.9-2,1.3-2.6,2.2c-0.5,0.7-0.9,1.5-1.3,2.2
					c-0.5,0.9-1.1,1.6-1.9,2.2c-0.5,0.4-0.9,0.9-1.2,1.5c-0.3,0.6-0.7,1.2-1.2,1.7c-0.1,0.1-0.2,0.2-0.2,0.2
					c-1.4,2.5-3.6,4.4-5.2,6.7c-1.4,1.3-2.3,3-3.7,4.2c-0.4,0.3-0.8,0.7-1.1,1.2c-1.1,1.5-2.4,2.9-3.6,4.3c-0.2,0.2-0.4,0.4-0.5,0.6
					c-0.4,1-1.2,1.7-2,2.5c-0.8,1-1.6,2-2.3,3c-0.3,0.3-0.5,0.7-0.8,1c-1.2,1.2-2.2,2.5-3,3.9c-0.5,0.8-1.1,1.5-1.6,2.2
					c-0.3,0.4-0.6,0.9-0.8,1.4c-0.1,0.2-0.2,0.4-0.3,0.5c-1.2,1-1.9,2.5-2.9,3.6c-0.3,0.4-0.6,0.7-0.9,1.1c-0.6,0.7-1.1,1.4-1.7,2.1
					c-0.9,1-1.2,2.5-2.1,3.5c-1.2,1.4-2.4,2.7-3.6,4.1c-1.4,1.7-2.7,3.4-4.1,5.1c-0.3,0.4-0.7,0.8-1,1.2c-1.8,1.7-3.3,3.6-4.9,5.5
					c-1.2,1.5-2.5,3-3.7,4.6c-0.6,0.8-1.2,1.5-1.7,2.3C105-10.2,104-9,103-7.8c-1.1,1.4-2.2,2.9-3.4,4.3c-0.9,1.1-1.8,2.2-2.9,3.2
					C96.5-0.1,96.1,0,95.7,0C95.6,0,95-0.6,95-0.6c0-0.3,0.1-0.5,0.2-0.8c0.9-1.6,2.3-2.9,3.3-4.5c0.9-1.4,2-2.6,3.1-3.9
					c0.7-0.8,1.2-1.6,1.7-2.5c0.3-0.5,0.6-0.9,0.9-1.3c0.5-0.6,1-1.1,1.4-1.7c0.5-0.7,1-1.5,1.7-2.1c0.3-0.3,0.5-0.7,0.8-1
					c0.5-0.7,1.1-1.3,1.6-2c0.3-0.4,0.7-0.8,1.1-1.2c0.8-0.9,1.6-1.7,2.4-2.6c0.3-0.3,0.5-0.5,0.7-0.8c0.7-1,1.5-2,2.3-2.9
					c1-1.1,1.9-2.3,2.9-3.5c1.3-1.6,2.6-3.1,4-4.6c0.5-0.5,0.3-1.4,0.7-1.9c1.6-2.3,3.5-4.3,5.4-6.4c0.9-1,1.7-2.1,2.4-3.2
					c0.1-0.2,0.3-0.5,0.5-0.6c0.9-0.7,1.4-1.6,2-2.5c0.5-0.7,1.2-1.4,1.8-2.1c0.5-0.6,1-1.1,1.4-1.8c1.7-2.6,3.6-4.9,5.5-7.3
					c0.2-0.2,0.5-0.5,0.6-0.7c0.7-1.4,1.9-2.5,2.8-3.7c1.2-1.4,2.5-2.6,3.7-4.1c0.7-0.8,1.4-1.6,2.1-2.4c1.5-1.6,2.8-3.4,4-5.2
					c0.5-0.7,1-1.4,1.6-2c1.1-1.1,1.9-2.5,2.8-3.7c1.1-1.5,2.7-2.6,3.9-4.1c1.1-1.4,1.9-3.1,3.1-4.5c0.7-0.8,1.4-1.6,2.1-2.4
					c0.6-0.8,1.2-1.6,1.7-2.5c1-1.7,2.2-3.2,3.7-4.4c0.4-0.3,0.7-0.6,1.2-0.2c0.4,0.3,0.5,0.8,0.3,1.2c-0.2,0.4-0.4,0.8-0.7,1.1
					c-0.6,0.8-1,1.8-1.6,2.6C173.4-95.6,172.6-94.5,171.7-93.3z"/>
			</g>
			<g>
				<path class="st1" d="M130.7-93.3c-0.9,1-2,2.2-3.1,3.4c-1,1.1-1.6,2.6-2.5,3.7c-0.7,0.9-2,1.3-2.6,2.2c-0.5,0.7-0.9,1.5-1.3,2.2
					c-0.5,0.9-1.1,1.6-1.9,2.2c-0.5,0.4-0.9,0.9-1.2,1.5c-0.3,0.6-0.7,1.2-1.2,1.7c-0.1,0.1-0.2,0.2-0.2,0.2
					c-1.4,2.5-3.6,4.4-5.2,6.7c-1.4,1.3-2.3,3-3.7,4.2c-0.4,0.3-0.8,0.7-1.1,1.2c-1.1,1.5-2.4,2.9-3.6,4.3c-0.2,0.2-0.4,0.4-0.5,0.6
					c-0.4,1-1.2,1.7-2,2.5c-0.8,1-1.6,2-2.3,3c-0.3,0.3-0.5,0.7-0.8,1c-1.2,1.2-2.2,2.5-3,3.9c-0.5,0.8-1.1,1.5-1.6,2.2
					c-0.3,0.4-0.6,0.9-0.8,1.4c-0.1,0.2-0.2,0.4-0.3,0.5c-1.2,1-1.9,2.5-2.9,3.6c-0.3,0.4-0.6,0.7-0.9,1.1c-0.6,0.7-1.1,1.4-1.7,2.1
					c-0.9,1-1.2,2.5-2.1,3.5c-1.2,1.4-2.4,2.7-3.6,4.1c-1.4,1.7-2.7,3.4-4.1,5.1c-0.3,0.4-0.7,0.8-1,1.2c-1.8,1.7-3.3,3.6-4.9,5.5
					c-1.2,1.5-2.5,3-3.7,4.6c-0.6,0.8-1.2,1.5-1.7,2.3C64-10.2,63-9,62-7.8c-1.1,1.4-2.2,2.9-3.4,4.3c-0.9,1.1-1.8,2.2-2.9,3.2
					C55.5-0.1,55.1,0,54.7,0C54.6,0,54-0.6,54-0.6c0-0.3,0.1-0.5,0.2-0.8c0.9-1.6,2.3-2.9,3.3-4.5c0.9-1.4,2-2.6,3.1-3.9
					c0.7-0.8,1.2-1.6,1.7-2.5c0.3-0.5,0.6-0.9,0.9-1.3c0.5-0.6,1-1.1,1.4-1.7c0.5-0.7,1-1.5,1.7-2.1c0.3-0.3,0.5-0.7,0.8-1
					c0.5-0.7,1.1-1.3,1.6-2c0.3-0.4,0.7-0.8,1.1-1.2c0.8-0.9,1.6-1.7,2.4-2.6c0.3-0.3,0.5-0.5,0.7-0.8c0.7-1,1.5-2,2.3-2.9
					c1-1.1,1.9-2.3,2.9-3.5c1.3-1.6,2.6-3.1,4-4.6c0.5-0.5,0.3-1.4,0.7-1.9c1.6-2.3,3.5-4.3,5.4-6.4c0.9-1,1.7-2.1,2.4-3.2
					c0.1-0.2,0.3-0.5,0.5-0.6c0.9-0.7,1.4-1.6,2-2.5c0.5-0.7,1.2-1.4,1.8-2.1c0.5-0.6,1-1.1,1.4-1.8c1.7-2.6,3.6-4.9,5.5-7.3
					c0.2-0.2,0.5-0.5,0.6-0.7c0.7-1.4,1.9-2.5,2.8-3.7c1.2-1.4,2.5-2.6,3.7-4.1c0.7-0.8,1.4-1.6,2.1-2.4c1.5-1.6,2.8-3.4,4-5.2
					c0.5-0.7,1-1.4,1.6-2c1.1-1.1,1.9-2.5,2.8-3.7c1.1-1.5,2.7-2.6,3.9-4.1c1.1-1.4,1.9-3.1,3.1-4.5c0.7-0.8,1.4-1.6,2.1-2.4
					c0.6-0.8,1.2-1.6,1.7-2.5c1-1.7,2.2-3.2,3.7-4.4c0.4-0.3,0.7-0.6,1.2-0.2c0.4,0.3,0.5,0.8,0.3,1.2c-0.2,0.4-0.4,0.8-0.7,1.1
					c-0.6,0.8-1,1.8-1.6,2.6C132.4-95.6,131.6-94.5,130.7-93.3z"/>
			</g>
			<g>
				<path class="st1" d="M89.7-93.3c-0.9,1-2,2.2-3.1,3.4c-1,1.1-1.6,2.6-2.5,3.7c-0.7,0.9-2,1.3-2.6,2.2c-0.5,0.7-0.9,1.5-1.3,2.2
					c-0.5,0.9-1.1,1.6-1.9,2.2c-0.5,0.4-0.9,0.9-1.2,1.5c-0.3,0.6-0.7,1.2-1.2,1.7c-0.1,0.1-0.2,0.2-0.2,0.2
					c-1.4,2.5-3.6,4.4-5.2,6.7c-1.4,1.3-2.3,3-3.7,4.2c-0.4,0.3-0.8,0.7-1.1,1.2c-1.1,1.5-2.4,2.9-3.6,4.3c-0.2,0.2-0.4,0.4-0.5,0.6
					c-0.4,1-1.2,1.7-2,2.5c-0.8,1-1.6,2-2.3,3c-0.3,0.3-0.5,0.7-0.8,1c-1.2,1.2-2.2,2.5-3,3.9c-0.5,0.8-1.1,1.5-1.6,2.2
					c-0.3,0.4-0.6,0.9-0.8,1.4c-0.1,0.2-0.2,0.4-0.3,0.5c-1.2,1-1.9,2.5-2.9,3.6c-0.3,0.4-0.6,0.7-0.9,1.1c-0.6,0.7-1.1,1.4-1.7,2.1
					c-0.9,1-1.2,2.5-2.1,3.5c-1.2,1.4-2.4,2.7-3.6,4.1c-1.4,1.7-2.7,3.4-4.1,5.1c-0.3,0.4-0.7,0.8-1,1.2c-1.8,1.7-3.3,3.6-4.9,5.5
					c-1.2,1.5-2.5,3-3.7,4.6c-0.6,0.8-1.2,1.5-1.7,2.3C23-10.2,22-9,21-7.8c-1.1,1.4-2.2,2.9-3.4,4.3c-0.9,1.1-1.8,2.2-2.9,3.2
					C14.5-0.1,14.1,0,13.7,0C13.6,0,13-0.6,13-0.6c0-0.3,0.1-0.5,0.2-0.8c0.9-1.6,2.3-2.9,3.3-4.5c0.9-1.4,2-2.6,3.1-3.9
					c0.7-0.8,1.2-1.6,1.7-2.5c0.3-0.5,0.6-0.9,0.9-1.3c0.5-0.6,1-1.1,1.4-1.7c0.5-0.7,1-1.5,1.7-2.1c0.3-0.3,0.5-0.7,0.8-1
					c0.5-0.7,1.1-1.3,1.6-2c0.3-0.4,0.7-0.8,1.1-1.2c0.8-0.9,1.6-1.7,2.4-2.6c0.3-0.3,0.5-0.5,0.7-0.8c0.7-1,1.5-2,2.3-2.9
					c1-1.1,1.9-2.3,2.9-3.5c1.3-1.6,2.6-3.1,4-4.6c0.5-0.5,0.3-1.4,0.7-1.9c1.6-2.3,3.5-4.3,5.4-6.4c0.9-1,1.7-2.1,2.4-3.2
					c0.1-0.2,0.3-0.5,0.5-0.6c0.9-0.7,1.4-1.6,2-2.5c0.5-0.7,1.2-1.4,1.8-2.1c0.5-0.6,1-1.1,1.4-1.8c1.7-2.6,3.6-4.9,5.5-7.3
					c0.2-0.2,0.5-0.5,0.6-0.7c0.7-1.4,1.9-2.5,2.8-3.7c1.2-1.4,2.5-2.6,3.7-4.1c0.7-0.8,1.4-1.6,2.1-2.4c1.5-1.6,2.8-3.4,4-5.2
					c0.5-0.7,1-1.4,1.6-2c1.1-1.1,1.9-2.5,2.8-3.7c1.1-1.5,2.7-2.6,3.9-4.1c1.1-1.4,1.9-3.1,3.1-4.5c0.7-0.8,1.4-1.6,2.1-2.4
					c0.6-0.8,1.2-1.6,1.7-2.5c1-1.7,2.2-3.2,3.7-4.4c0.4-0.3,0.7-0.6,1.2-0.2c0.4,0.3,0.5,0.8,0.3,1.2c-0.2,0.4-0.4,0.8-0.7,1.1
					c-0.6,0.8-1,1.8-1.6,2.6C91.4-95.6,90.6-94.5,89.7-93.3z"/>
			</g>
		</g>
	</g>
</pattern>
<g>
	<pattern  id="SVGID_1_" xlink:href="#Hand_Drawn_Lines_Gray_RL" patternTransform="matrix(1 0 0 -1 -52.024 -16040.0723)">
	</pattern>
	<path class="st2" d="M110.4,24.7c-0.3-0.4-0.6-0.7-1-1c-0.3-0.4-0.6-0.7-1-1c-0.3-0.4-0.6-0.7-1-1c-0.3-0.4-0.6-0.7-1-1
		c-0.3-0.4-0.6-0.7-1-1c-0.3-0.4-0.6-0.7-1-1c-0.3-0.4-0.6-0.7-1-1c-0.3-0.4-0.6-0.7-1-1c-0.3-0.4-0.6-0.7-1-1c-0.3-0.4-0.6-0.7-1-1
		c-0.3-0.4-0.6-0.7-1-1c-0.3-0.4-0.6-0.7-1-1c-0.3-0.4-0.6-0.7-1-1c-0.7-1-1.8-1.6-3.1-1.6H12.9c-2.2,0-3.8,1.8-3.8,3.8v132.4
		c0,1.3,0.6,2.5,1.7,3.2c0.3,0.4,0.6,0.7,1,1c0.3,0.4,0.6,0.7,1,1c0.3,0.4,0.6,0.7,1,1c0.3,0.4,0.6,0.7,1,1c0.3,0.4,0.6,0.7,1,1
		c0.3,0.4,0.6,0.7,1,1c0.3,0.4,0.6,0.7,1,1c0.3,0.4,0.6,0.7,1,1c0.3,0.4,0.6,0.7,1,1c0.3,0.4,0.6,0.7,1,1c0.3,0.4,0.6,0.7,1,1
		c0.3,0.4,0.6,0.7,1,1c0.3,0.4,0.6,0.7,1,1c0.7,1,1.8,1.6,3.1,1.6h81.4c2.2,0,3.8-1.8,3.8-3.8v-16.4c0-1.3-0.6-2.5-1.7-3.2
		c-0.3-0.4-0.6-0.7-1-1c-0.3-0.4-0.6-0.7-1-1c-0.3-0.4-0.6-0.7-1-1c-0.3-0.4-0.6-0.7-1-1c-0.3-0.4-0.6-0.7-1-1c-0.3-0.4-0.6-0.7-1-1
		c-0.3-0.4-0.6-0.7-1-1c-0.3-0.4-0.6-0.7-1-1c-0.3-0.4-0.6-0.7-1-1c-0.3-0.4-0.6-0.7-1-1c-0.3-0.4-0.6-0.7-1-1c-0.3-0.4-0.6-0.7-1-1
		c-0.3-0.4-0.6-0.7-1-1c-0.7-1-1.8-1.6-3.1-1.6H49.1v-21h49.4c2,0,3.8-1.6,3.8-3.8V84.7c0-1.2-0.7-2.4-1.7-3.1c-0.3-0.4-0.6-0.7-1-1
		c-0.3-0.4-0.6-0.7-1-1c-0.3-0.4-0.6-0.7-1-1c-0.3-0.4-0.6-0.7-1-1c-0.3-0.4-0.6-0.7-1-1c-0.3-0.4-0.6-0.7-1-1c-0.3-0.4-0.6-0.7-1-1
		c-0.3-0.4-0.6-0.7-1-1c-0.3-0.4-0.6-0.7-1-1c-0.3-0.4-0.6-0.7-1-1c-0.3-0.4-0.6-0.7-1-1c-0.3-0.4-0.6-0.7-1-1c-0.3-0.4-0.6-0.7-1-1
		c-0.7-1-1.9-1.7-3.1-1.7H49.1V48.1h59.2c2.2,0,3.8-1.8,3.8-3.8V27.9C112.1,26.6,111.5,25.4,110.4,24.7z"/>
	
		<pattern  id="SVGID_00000078725593652363700490000001671779273096787600_" xlink:href="#Hand_Drawn_Lines_Gray_RL" patternTransform="matrix(1 0 0 -1 -52.024 -16040.0723)">
	</pattern>
	<path style="fill:url(#SVGID_00000078725593652363700490000001671779273096787600_);" d="M254,24.7c-0.3-0.4-0.6-0.7-1-1
		c-0.3-0.4-0.6-0.7-1-1c-0.3-0.4-0.6-0.7-1-1c-0.3-0.4-0.6-0.7-1-1c-0.3-0.4-0.6-0.7-1-1c-0.3-0.4-0.6-0.7-1-1c-0.3-0.4-0.6-0.7-1-1
		c-0.3-0.4-0.6-0.7-1-1c-0.3-0.4-0.6-0.7-1-1c-0.3-0.4-0.6-0.7-1-1c-0.3-0.4-0.6-0.7-1-1c-0.3-0.4-0.6-0.7-1-1c-0.3-0.4-0.6-0.7-1-1
		c-0.6-1-1.8-1.6-3.3-1.6h-20.4c-1.8,0-3,1.2-3.4,2.2l-35.2,78.9l-29-64.9c-0.2-0.5-0.7-1.1-1.3-1.6c-0.2-0.4-0.6-0.7-1-1
		c-0.2-0.4-0.6-0.7-1-1c-0.2-0.4-0.6-0.7-1-1c-0.2-0.4-0.6-0.7-1-1c-0.2-0.4-0.6-0.7-1-1c-0.2-0.4-0.6-0.7-1-1c-0.2-0.4-0.6-0.7-1-1
		c-0.2-0.4-0.6-0.7-1-1c-0.2-0.4-0.6-0.7-1-1c-0.2-0.4-0.6-0.7-1-1c-0.2-0.4-0.6-0.7-1-1c-0.2-0.4-0.6-0.7-1-1c-0.2-0.4-0.6-0.7-1-1
		c-0.6-0.8-1.6-1.6-3.1-1.6h-20.4c-3,0-4.6,2.6-3.4,5.2l61.8,134.6c0.3,0.6,0.8,1.2,1.4,1.6c0.3,0.4,0.6,0.7,1,1
		c0.3,0.4,0.6,0.7,1,1c0.3,0.4,0.6,0.7,1,1c0.3,0.4,0.6,0.7,1,1c0.3,0.4,0.6,0.7,1,1c0.3,0.4,0.6,0.7,1,1c0.3,0.4,0.6,0.7,1,1
		c0.3,0.4,0.6,0.7,1,1c0.3,0.4,0.6,0.7,1,1c0.3,0.4,0.6,0.7,1,1c0.3,0.4,0.6,0.7,1,1c0.3,0.4,0.6,0.7,1,1c0.3,0.4,0.6,0.7,1,1
		c0.6,0.9,1.6,1.6,3,1.6h2c1.8,0,2.8-1,3.4-2.2l62-134.6C255.9,27.5,255.4,25.7,254,24.7z"/>
	
		<pattern  id="SVGID_00000003105081970150381090000003872115561763084173_" xlink:href="#Hand_Drawn_Lines_Gray_RL" patternTransform="matrix(1 0 0 -1 -52.024 -16040.0723)">
	</pattern>
	<path style="fill:url(#SVGID_00000003105081970150381090000003872115561763084173_);" d="M316.1,24.3c-0.3-0.7-0.8-1.3-1.4-1.7
		c-0.3-0.4-0.6-0.7-1-1c-0.3-0.4-0.6-0.7-1-1c-0.3-0.4-0.6-0.7-1-1c-0.3-0.4-0.6-0.7-1-1c-0.3-0.4-0.6-0.7-1-1c-0.3-0.4-0.6-0.7-1-1
		c-0.3-0.4-0.6-0.7-1-1c-0.3-0.4-0.6-0.7-1-1c-0.3-0.4-0.6-0.7-1-1c-0.3-0.4-0.6-0.7-1-1c-0.3-0.4-0.6-0.7-1-1c-0.3-0.4-0.6-0.7-1-1
		c-0.3-0.4-0.6-0.7-1-1c-0.6-0.9-1.4-1.5-3-1.5h-2c-1.8,0-2.8,1-3.4,2.2l-62.2,134.6c-0.8,1.8-0.3,3.6,1.1,4.6c0.3,0.4,0.6,0.7,1,1
		c0.3,0.4,0.6,0.7,1,1c0.3,0.4,0.6,0.7,1,1c0.3,0.4,0.6,0.7,1,1c0.3,0.4,0.6,0.7,1,1c0.3,0.4,0.6,0.7,1,1c0.3,0.4,0.6,0.7,1,1
		c0.3,0.4,0.6,0.7,1,1c0.3,0.4,0.6,0.7,1,1c0.3,0.4,0.6,0.7,1,1c0.3,0.4,0.6,0.7,1,1c0.3,0.4,0.6,0.7,1,1c0.3,0.4,0.6,0.7,1,1
		c0.6,1,1.8,1.6,3.3,1.6h17.4c3.2,0,5-2,5.8-4l9.8-21.6h52.2l3.4,7.6c0.7,1.4,1.4,2.3,2.2,3c0.3,0.4,0.6,0.7,1,1
		c0.3,0.4,0.6,0.7,1,1c0.3,0.4,0.6,0.7,1,1c0.3,0.4,0.6,0.7,1,1c0.3,0.4,0.6,0.7,1,1c0.3,0.4,0.6,0.7,1,1c0.3,0.4,0.6,0.7,1,1
		c0.3,0.4,0.6,0.7,1,1c0.3,0.4,0.6,0.7,1,1c0.3,0.4,0.6,0.7,1,1c0.3,0.4,0.6,0.7,1,1c0.3,0.4,0.6,0.7,1,1c0.3,0.4,0.6,0.7,1,1
		c1.1,1.4,2.4,2,4.6,2h17.4c3,0,4.6-2.6,3.4-5.2L316.1,24.3z M297.5,102.3l9.9-22.2l10.1,22.2H297.5z"/>
	
		<pattern  id="SVGID_00000128451799733267626010000015754410741668824219_" xlink:href="#Hand_Drawn_Lines_Gray_RL" patternTransform="matrix(1 0 0 -1 -52.024 -16040.0723)">
	</pattern>
	<path style="fill:url(#SVGID_00000128451799733267626010000015754410741668824219_);" d="M512.4,24.8c-0.3-0.4-0.6-0.7-1-1
		c-0.3-0.4-0.6-0.7-1-1c-0.3-0.4-0.6-0.7-1-1c-0.3-0.4-0.6-0.7-1-1c-0.3-0.4-0.6-0.7-1-1c-0.3-0.4-0.6-0.7-1-1c-0.3-0.4-0.6-0.7-1-1
		c-0.3-0.4-0.6-0.7-1-1c-0.3-0.4-0.6-0.7-1-1c-0.3-0.4-0.6-0.7-1-1c-0.3-0.4-0.6-0.7-1-1c-0.3-0.4-0.6-0.7-1-1c-0.3-0.4-0.6-0.7-1-1
		c-0.7-1-1.9-1.7-3.1-1.7h-18.4c-2.2,0-3.8,1.8-3.8,3.8v81.9l-69.4-73.7h-0.1l-0.9-1h-0.1l-0.9-1h-0.1l-0.9-1h-0.1l-0.9-1h-0.1
		l-0.9-1h-0.1l-0.9-1h-0.1l-0.9-1h-0.1l-0.9-1h-0.1l-0.9-1h-0.1l-0.9-1h-0.1l-0.9-1h-0.1l-0.9-1h-0.1l-0.9-1h-0.1l-0.9-1h-5
		c-2,0-3.8,1.6-3.8,3.6v134.6c0,1.2,0.7,2.4,1.7,3.1c0.3,0.4,0.6,0.7,1,1c0.3,0.4,0.6,0.7,1,1c0.3,0.4,0.6,0.7,1,1
		c0.3,0.4,0.6,0.7,1,1c0.3,0.4,0.6,0.7,1,1c0.3,0.4,0.6,0.7,1,1c0.3,0.4,0.6,0.7,1,1c0.3,0.4,0.6,0.7,1,1c0.3,0.4,0.6,0.7,1,1
		c0.3,0.4,0.6,0.7,1,1c0.3,0.4,0.6,0.7,1,1c0.3,0.4,0.6,0.7,1,1c0.3,0.4,0.6,0.7,1,1c0.7,1,1.9,1.7,3.1,1.7h18.2
		c2.2,0,3.8-1.8,3.8-3.8V75.5l69.8,76.6h0.1l0.9,1h0.1l0.9,1h0.1l0.9,1h0.1l0.9,1h0.1l0.9,1h0.1l0.9,1h0.1l0.9,1h0.1l0.9,1h0.1
		l0.9,1h0.1l0.9,1h0.1l0.9,1h0.1l0.9,1h0.1l0.9,1h0.1l0.9,1h4.8c2,0,3.8-1.6,3.8-3.6V27.9C514.1,26.7,513.4,25.5,512.4,24.8z"/>
	
		<pattern  id="SVGID_00000154398961838515169450000016598212208991285142_" xlink:href="#Hand_Drawn_Lines_Gray_RL" patternTransform="matrix(1 0 0 -1 -52.024 -16040.0723)">
	</pattern>
	<path style="fill:url(#SVGID_00000154398961838515169450000016598212208991285142_);" d="M565.3,137.5c-0.3-0.3-0.7-0.7-1-1
		c-0.3-0.3-0.7-0.7-1-1c-0.3-0.3-0.7-0.7-1-1c-0.3-0.3-0.7-0.7-1-1c-0.3-0.3-0.7-0.7-1-1c-0.3-0.3-0.7-0.7-1-1c-0.3-0.3-0.7-0.7-1-1
		c-0.3-0.3-0.7-0.7-1-1c-0.3-0.3-0.7-0.7-1-1c-0.3-0.3-0.7-0.7-1-1c-0.3-0.3-0.7-0.7-1-1c-0.3-0.3-0.7-0.7-1-1c-0.3-0.3-0.7-0.7-1-1
		c-3.1-3.3-7.4-5.4-12.2-5.4c-9,0-16.4,7.6-16.4,16.6c0,4.8,2.1,9,5.3,12.1c0.3,0.3,0.7,0.7,1,1c0.3,0.3,0.7,0.7,1,1
		c0.3,0.3,0.7,0.7,1,1c0.3,0.3,0.7,0.7,1,1c0.3,0.3,0.7,0.7,1,1c0.3,0.3,0.7,0.7,1,1c0.3,0.3,0.7,0.7,1,1c0.3,0.3,0.7,0.7,1,1
		c0.3,0.3,0.7,0.7,1,1c0.3,0.3,0.7,0.7,1,1c0.3,0.3,0.7,0.7,1,1c0.3,0.3,0.7,0.7,1,1c0.3,0.3,0.7,0.7,1,1c3,3.3,7.3,5.3,12.1,5.3
		c9,0,16.6-7.4,16.6-16.4C570.7,144.9,568.6,140.6,565.3,137.5z"/>
	
		<pattern  id="SVGID_00000169528428952970521690000003937130093579561663_" xlink:href="#Hand_Drawn_Lines_Gray_RL" patternTransform="matrix(1 0 0 -1 -52.024 -16040.0723)">
	</pattern>
	<path style="fill:url(#SVGID_00000169528428952970521690000003937130093579561663_);" d="M669.9,44.3V27.9c0-1.3-0.6-2.5-1.7-3.2
		c-0.3-0.4-0.6-0.7-1-1c-0.3-0.4-0.6-0.7-1-1c-0.3-0.4-0.6-0.7-1-1c-0.3-0.4-0.6-0.7-1-1c-0.3-0.4-0.6-0.7-1-1c-0.3-0.4-0.6-0.7-1-1
		c-0.3-0.4-0.6-0.7-1-1c-0.3-0.4-0.6-0.7-1-1c-0.3-0.4-0.6-0.7-1-1c-0.3-0.4-0.6-0.7-1-1c-0.3-0.4-0.6-0.7-1-1c-0.3-0.4-0.6-0.7-1-1
		c-0.3-0.4-0.6-0.7-1-1c-0.7-1-1.8-1.6-3.1-1.6h-87.4c-2.2,0-3.8,1.8-3.8,3.8v16.4c0,1.3,0.6,2.5,1.7,3.2c0.3,0.4,0.6,0.7,1,1
		c0.3,0.4,0.6,0.7,1,1c0.3,0.4,0.6,0.7,1,1c0.3,0.4,0.6,0.7,1,1c0.3,0.4,0.6,0.7,1,1c0.3,0.4,0.6,0.7,1,1c0.3,0.4,0.6,0.7,1,1
		c0.3,0.4,0.6,0.7,1,1c0.3,0.4,0.6,0.7,1,1c0.3,0.4,0.6,0.7,1,1c0.3,0.4,0.6,0.7,1,1c0.3,0.4,0.6,0.7,1,1c0.3,0.4,0.6,0.7,1,1
		c0.7,1,1.8,1.6,3.1,1.6h16.6v98.2c0,1.2,0.7,2.4,1.7,3.1c0.3,0.4,0.6,0.7,1,1c0.3,0.4,0.6,0.7,1,1c0.3,0.4,0.6,0.7,1,1
		c0.3,0.4,0.6,0.7,1,1c0.3,0.4,0.6,0.7,1,1c0.3,0.4,0.6,0.7,1,1c0.3,0.4,0.6,0.7,1,1c0.3,0.4,0.6,0.7,1,1c0.3,0.4,0.6,0.7,1,1
		c0.3,0.4,0.6,0.7,1,1c0.3,0.4,0.6,0.7,1,1c0.3,0.4,0.6,0.7,1,1c0.3,0.4,0.6,0.7,1,1c0.7,1,1.9,1.7,3.1,1.7h18.6
		c2,0,3.8-1.8,3.8-3.8V48.1h30.6C668.3,48.1,669.9,46.3,669.9,44.3z"/>
	
		<pattern  id="SVGID_00000157279646635692436510000014965741467197680777_" xlink:href="#Hand_Drawn_Lines_Gray_RL" patternTransform="matrix(1 0 0 -1 -52.024 -16040.0723)">
	</pattern>
	<path style="fill:url(#SVGID_00000157279646635692436510000014965741467197680777_);" d="M801.5,42.7c-0.3-0.3-0.7-0.7-1-1
		c-0.3-0.3-0.7-0.7-1-1c-0.3-0.3-0.7-0.7-1-1c-0.3-0.3-0.7-0.7-1-1c-0.3-0.3-0.7-0.7-1-1c-0.3-0.3-0.7-0.7-1-1c-0.3-0.3-0.7-0.7-1-1
		c-0.3-0.3-0.7-0.7-1-1c-0.3-0.3-0.7-0.7-1-1c-0.3-0.3-0.7-0.7-1-1c-0.3-0.3-0.7-0.7-1-1c-0.3-0.3-0.7-0.7-1-1c-0.3-0.3-0.7-0.7-1-1
		c-13-13.3-31.2-21.6-51.4-21.6c-40,0-71.8,32.2-71.8,72.2c0,20.3,8.2,38.4,21.4,51.4c0.3,0.3,0.7,0.7,1,1c0.3,0.3,0.7,0.7,1,1
		c0.3,0.3,0.7,0.7,1,1c0.3,0.3,0.7,0.7,1,1c0.3,0.3,0.7,0.7,1,1c0.3,0.3,0.7,0.7,1,1c0.3,0.3,0.7,0.7,1,1c0.3,0.3,0.7,0.7,1,1
		c0.3,0.3,0.7,0.7,1,1c0.3,0.3,0.7,0.7,1,1c0.3,0.3,0.7,0.7,1,1c0.3,0.3,0.7,0.7,1,1c0.3,0.3,0.7,0.7,1,1
		c13,13.2,31.1,21.4,51.4,21.4c40,0,72-31.8,72-71.8C823.1,74,814.9,55.8,801.5,42.7z M751.1,48.1c9,0,17.5,2.7,24.6,7.3
		c4.7,7.2,7.4,15.8,7.4,24.9c0,25.2-20.8,45.8-46,45.8c-9,0-17.5-2.7-24.6-7.2c-4.6-7.1-7.2-15.5-7.2-24.6
		C705.3,69.1,725.9,48.1,751.1,48.1z"/>
	
		<pattern  id="SVGID_00000072251451369013436830000001465669276468056746_" xlink:href="#Hand_Drawn_Lines_Gray_RL" patternTransform="matrix(1 0 0 -1 -52.024 -16040.0723)">
	</pattern>
	<path style="fill:url(#SVGID_00000072251451369013436830000001465669276468056746_);" d="M1002.8,24.7c-0.2-0.4-0.6-0.7-1-1
		c-0.2-0.4-0.6-0.7-1-1c-0.2-0.4-0.6-0.7-1-1c-0.2-0.4-0.6-0.7-1-1c-0.2-0.4-0.6-0.7-1-1c-0.2-0.4-0.6-0.7-1-1c-0.2-0.4-0.6-0.7-1-1
		c-0.2-0.4-0.6-0.7-1-1c-0.2-0.4-0.6-0.7-1-1c-0.2-0.4-0.6-0.7-1-1c-0.2-0.4-0.6-0.7-1-1c-0.2-0.4-0.6-0.7-1-1c-0.2-0.4-0.6-0.7-1-1
		c-0.6-1-1.8-1.6-3.3-1.6h-18.4c-1.6,0-3.2,1.4-3.6,2.8l-17.3,67.7l-21.9-56.3c-0.2-0.7-0.6-1.3-1.3-1.7c-0.2-0.4-0.6-0.7-1-1
		c-0.2-0.4-0.6-0.7-1-1c-0.2-0.4-0.6-0.7-1-1c-0.2-0.4-0.6-0.7-1-1c-0.2-0.4-0.6-0.7-1-1c-0.2-0.4-0.6-0.7-1-1c-0.2-0.4-0.6-0.7-1-1
		c-0.2-0.4-0.6-0.7-1-1c-0.2-0.4-0.6-0.7-1-1c-0.2-0.4-0.6-0.7-1-1c-0.2-0.4-0.6-0.7-1-1c-0.2-0.4-0.6-0.7-1-1c-0.2-0.4-0.6-0.7-1-1
		c-0.5-0.9-1.5-1.5-3.1-1.5h-3.6c-2,0-3,1-3.4,2.2l-26.1,67.6l-13.3-51c-0.2-0.8-0.8-1.5-1.5-2c-0.3-0.4-0.6-0.7-1-1
		c-0.3-0.4-0.6-0.7-1-1c-0.3-0.4-0.6-0.7-1-1c-0.3-0.4-0.6-0.7-1-1c-0.3-0.4-0.6-0.7-1-1c-0.3-0.4-0.6-0.7-1-1c-0.3-0.4-0.6-0.7-1-1
		c-0.3-0.4-0.6-0.7-1-1c-0.3-0.4-0.6-0.7-1-1c-0.3-0.4-0.6-0.7-1-1c-0.3-0.4-0.6-0.7-1-1c-0.3-0.4-0.6-0.7-1-1c-0.3-0.4-0.6-0.7-1-1
		c-0.7-1-1.9-1.8-3.1-1.8h-18.4c-2.8,0-4.4,2-3.6,4.8l37.8,134.4c0.2,0.9,0.8,1.6,1.5,2.1c0.3,0.4,0.6,0.7,1,1c0.3,0.4,0.6,0.7,1,1
		c0.3,0.4,0.6,0.7,1,1c0.3,0.4,0.6,0.7,1,1c0.3,0.4,0.6,0.7,1,1c0.3,0.4,0.6,0.7,1,1c0.3,0.4,0.6,0.7,1,1c0.3,0.4,0.6,0.7,1,1
		c0.3,0.4,0.6,0.7,1,1c0.3,0.4,0.6,0.7,1,1c0.3,0.4,0.6,0.7,1,1c0.3,0.4,0.6,0.7,1,1c0.3,0.4,0.6,0.7,1,1c0.7,1,1.9,1.7,3.1,1.7h3.2
		c2,0,2.8-1,3.4-2.2l31.7-81.1l26.5,67.1c0.2,0.6,0.7,1.2,1.3,1.6c0.2,0.4,0.6,0.7,1,1c0.2,0.4,0.6,0.7,1,1c0.2,0.4,0.6,0.7,1,1
		c0.2,0.4,0.6,0.7,1,1c0.2,0.4,0.6,0.7,1,1c0.2,0.4,0.6,0.7,1,1c0.2,0.4,0.6,0.7,1,1c0.2,0.4,0.6,0.7,1,1c0.2,0.4,0.6,0.7,1,1
		c0.2,0.4,0.6,0.7,1,1c0.2,0.4,0.6,0.7,1,1c0.2,0.4,0.6,0.7,1,1c0.2,0.4,0.6,0.7,1,1c0.6,0.9,1.6,1.6,3.1,1.6h3.2
		c1.6,0,3.2-1.2,3.6-2.8l37.8-134.4C1004.6,27,1004.1,25.5,1002.8,24.7z"/>
	
		<pattern  id="SVGID_00000075144544658318269820000010949291290448009378_" xlink:href="#Hand_Drawn_Lines_Gray_RL" patternTransform="matrix(1 0 0 -1 -52.024 -16040.0723)">
	</pattern>
	<path style="fill:url(#SVGID_00000075144544658318269820000010949291290448009378_);" d="M1144,24.8c-0.3-0.4-0.6-0.7-1-1
		c-0.3-0.4-0.6-0.7-1-1c-0.3-0.4-0.6-0.7-1-1c-0.3-0.4-0.6-0.7-1-1c-0.3-0.4-0.6-0.7-1-1c-0.3-0.4-0.6-0.7-1-1c-0.3-0.4-0.6-0.7-1-1
		c-0.3-0.4-0.6-0.7-1-1c-0.3-0.4-0.6-0.7-1-1c-0.3-0.4-0.6-0.7-1-1c-0.3-0.4-0.6-0.7-1-1c-0.3-0.4-0.6-0.7-1-1c-0.3-0.4-0.6-0.7-1-1
		c-0.7-1-1.9-1.7-3.1-1.7h-18.4c-2.2,0-3.8,1.8-3.8,3.8v81.9l-69.4-73.7h-0.1l-0.9-1h-0.1l-0.9-1h-0.1l-0.9-1h-0.1l-0.9-1h-0.1
		l-0.9-1h-0.1l-0.9-1h-0.1l-0.9-1h-0.1l-0.9-1h-0.1l-0.9-1h-0.1l-0.9-1h-0.1l-0.9-1h-0.1l-0.9-1h-0.1l-0.9-1h-0.1l-0.9-1h-5
		c-2,0-3.8,1.6-3.8,3.6v134.6c0,1.2,0.7,2.4,1.7,3.1c0.3,0.4,0.6,0.7,1,1c0.3,0.4,0.6,0.7,1,1c0.3,0.4,0.6,0.7,1,1
		c0.3,0.4,0.6,0.7,1,1c0.3,0.4,0.6,0.7,1,1c0.3,0.4,0.6,0.7,1,1c0.3,0.4,0.6,0.7,1,1c0.3,0.4,0.6,0.7,1,1c0.3,0.4,0.6,0.7,1,1
		c0.3,0.4,0.6,0.7,1,1c0.3,0.4,0.6,0.7,1,1c0.3,0.4,0.6,0.7,1,1c0.3,0.4,0.6,0.7,1,1c0.7,1,1.9,1.7,3.1,1.7h18.2
		c2.2,0,3.8-1.8,3.8-3.8V75.5l69.8,76.6h0.1l0.9,1h0.1l0.9,1h0.1l0.9,1h0.1l0.9,1h0.1l0.9,1h0.1l0.9,1h0.1l0.9,1h0.1l0.9,1h0.1
		l0.9,1h0.1l0.9,1h0.1l0.9,1h0.1l0.9,1h0.1l0.9,1h0.1l0.9,1h4.8c2,0,3.8-1.6,3.8-3.6V27.9C1145.7,26.7,1145,25.5,1144,24.8z"/>
</g>
<g>
	<path class="st11" d="M8,10.8C8,8.8,9.6,7,11.8,7h81.4c2.2,0,3.8,1.8,3.8,3.8v16.4c0,2-1.6,3.8-3.8,3.8H34v32.8h49.4
		c2,0,3.8,1.8,3.8,3.8v16.6c0,2.2-1.8,3.8-3.8,3.8H34v35h59.2c2.2,0,3.8,1.8,3.8,3.8v16.4c0,2-1.6,3.8-3.8,3.8H11.8
		c-2.2,0-3.8-1.8-3.8-3.8V10.8z"/>
	<path class="st11" d="M107.4,12.2c-1.2-2.6,0.4-5.2,3.4-5.2h20.4c1.8,0,3,1.2,3.4,2.2l38.4,86h1.4l38.4-86c0.4-1,1.6-2.2,3.4-2.2
		h20.4c3,0,4.6,2.6,3.4,5.2l-62,134.6c-0.6,1.2-1.6,2.2-3.4,2.2h-2c-1.8,0-2.8-1-3.4-2.2L107.4,12.2z"/>
	<path class="st11" d="M230,141.8L292.2,7.2c0.6-1.2,1.6-2.2,3.4-2.2h2c2,0,2.8,1,3.4,2.2l61.6,134.6c1.2,2.6-0.4,5.2-3.4,5.2h-17.4
		c-3,0-4.4-1.2-5.8-4l-9.8-21.6h-59.8l-9.8,21.6c-0.8,2-2.6,4-5.8,4h-17.4C230.4,147,228.8,144.4,230,141.8z M316.4,99.2l-20-44
		h-0.6l-19.6,44H316.4z"/>
	<path class="st11" d="M380.8,8.6c0-2,1.8-3.6,3.8-3.6h5l83.2,88.4h0.2V10.8c0-2,1.6-3.8,3.8-3.8h18.4c2,0,3.8,1.8,3.8,3.8v134.6
		c0,2-1.8,3.6-3.8,3.6h-4.8l-83.6-91.8h-0.2v86c0,2-1.6,3.8-3.8,3.8h-18.2c-2,0-3.8-1.8-3.8-3.8V8.6z"/>
	<path class="st11" d="M539,116c9,0,16.6,7.6,16.6,16.6S548,149,539,149s-16.4-7.4-16.4-16.4C522.6,123.6,530,116,539,116z"/>
	<path class="st11" d="M594.2,31h-30.6c-2.2,0-3.8-1.8-3.8-3.8V10.8c0-2,1.6-3.8,3.8-3.8H651c2.2,0,3.8,1.8,3.8,3.8v16.4
		c0,2-1.6,3.8-3.8,3.8h-30.6v112.2c0,2-1.8,3.8-3.8,3.8H598c-2,0-3.8-1.8-3.8-3.8L594.2,31L594.2,31z"/>
	<path class="st11" d="M736,5c40,0,72,32.2,72,72.2S776,149,736,149c-40,0-71.8-31.8-71.8-71.8S696,5,736,5z M736,123
		c25.2,0,46-20.6,46-45.8S761.2,31,736,31c-25.2,0-45.8,21-45.8,46.2S710.8,123,736,123z"/>
	<path class="st11" d="M820.8,11.8C820,9,821.6,7,824.4,7h18.4c1.6,0,3.2,1.4,3.6,2.8l20.8,79.8h0.8l31.8-82.4
		c0.4-1.2,1.4-2.2,3.4-2.2h3.6c2,0,3,1,3.4,2.2l32,82.4h0.8l20.4-79.8c0.4-1.4,2-2.8,3.6-2.8h18.4c2.8,0,4.4,2,3.6,4.8l-37.8,134.4
		c-0.4,1.6-2,2.8-3.6,2.8h-3.2c-1.8,0-3-1-3.4-2.2l-35.8-90.6h-1l-35.4,90.6c-0.6,1.2-1.4,2.2-3.4,2.2h-3.2c-1.6,0-3.2-1.2-3.6-2.8
		L820.8,11.8z"/>
	<path class="st11" d="M1012.4,8.6c0-2,1.8-3.6,3.8-3.6h5l83.2,88.4h0.2V10.8c0-2,1.6-3.8,3.8-3.8h18.4c2,0,3.8,1.8,3.8,3.8v134.6
		c0,2-1.8,3.6-3.8,3.6h-4.8l-83.6-91.8h-0.2v86c0,2-1.6,3.8-3.8,3.8h-18.2c-2,0-3.8-1.8-3.8-3.8L1012.4,8.6L1012.4,8.6z"/>
</g>
<g>
	<path class="st12" d="M0,5.8C0,3.8,1.6,2,3.8,2h81.4C87.4,2,89,3.8,89,5.8v16.4c0,2-1.6,3.8-3.8,3.8H26v32.8h49.4
		c2,0,3.8,1.8,3.8,3.8v16.6c0,2.2-1.8,3.8-3.8,3.8H26v35h59.2c2.2,0,3.8,1.8,3.8,3.8v16.4c0,2-1.6,3.8-3.8,3.8H3.8
		c-2.2,0-3.8-1.8-3.8-3.8V5.8z"/>
	<path class="st12" d="M99.4,7.2C98.2,4.6,99.8,2,102.8,2h20.4c1.8,0,3,1.2,3.4,2.2l38.4,86h1.4l38.4-86c0.4-1,1.6-2.2,3.4-2.2h20.4
		c3,0,4.6,2.6,3.4,5.2l-62,134.6c-0.6,1.2-1.6,2.2-3.4,2.2h-2c-1.8,0-2.8-1-3.4-2.2L99.4,7.2z"/>
	<path class="st12" d="M222,136.8L284.2,2.2c0.6-1.2,1.6-2.2,3.4-2.2h2c2,0,2.8,1,3.4,2.2l61.6,134.6c1.2,2.6-0.4,5.2-3.4,5.2h-17.4
		c-3,0-4.4-1.2-5.8-4l-9.8-21.6h-59.8l-9.8,21.6c-0.8,2-2.6,4-5.8,4h-17.4C222.4,142,220.8,139.4,222,136.8z M308.4,94.2l-20-44
		h-0.6l-19.6,44H308.4z"/>
	<path class="st12" d="M372.8,3.6c0-2,1.8-3.6,3.8-3.6h5l83.2,88.4h0.2V5.8c0-2,1.6-3.8,3.8-3.8h18.4c2,0,3.8,1.8,3.8,3.8v134.6
		c0,2-1.8,3.6-3.8,3.6h-4.8l-83.6-91.8h-0.2v86c0,2-1.6,3.8-3.8,3.8h-18.2c-2,0-3.8-1.8-3.8-3.8V3.6z"/>
	<path class="st12" d="M531,111c9,0,16.6,7.6,16.6,16.6S540,144,531,144s-16.4-7.4-16.4-16.4C514.6,118.6,522,111,531,111z"/>
	<path class="st12" d="M586.2,26h-30.6c-2.2,0-3.8-1.8-3.8-3.8V5.8c0-2,1.6-3.8,3.8-3.8H643c2.2,0,3.8,1.8,3.8,3.8v16.4
		c0,2-1.6,3.8-3.8,3.8h-30.6v112.2c0,2-1.8,3.8-3.8,3.8H590c-2,0-3.8-1.8-3.8-3.8L586.2,26L586.2,26z"/>
	<path class="st12" d="M728,0c40,0,72,32.2,72,72.2S768,144,728,144c-40,0-71.8-31.8-71.8-71.8S688,0,728,0z M728,118
		c25.2,0,46-20.6,46-45.8S753.2,26,728,26c-25.2,0-45.8,21-45.8,46.2S702.8,118,728,118z"/>
	<path class="st12" d="M812.8,6.8C812,4,813.6,2,816.4,2h18.4c1.6,0,3.2,1.4,3.6,2.8l20.8,79.8h0.8l31.8-82.4
		c0.4-1.2,1.4-2.2,3.4-2.2h3.6c2,0,3,1,3.4,2.2l32,82.4h0.8l20.4-79.8c0.4-1.4,2-2.8,3.6-2.8h18.4c2.8,0,4.4,2,3.6,4.8l-37.8,134.4
		c-0.4,1.6-2,2.8-3.6,2.8h-3.2c-1.8,0-3-1-3.4-2.2l-35.8-90.6h-1l-35.4,90.6c-0.6,1.2-1.4,2.2-3.4,2.2h-3.2c-1.6,0-3.2-1.2-3.6-2.8
		L812.8,6.8z"/>
	<path class="st12" d="M1004.4,3.6c0-2,1.8-3.6,3.8-3.6h5l83.2,88.4h0.2V5.8c0-2,1.6-3.8,3.8-3.8h18.4c2,0,3.8,1.8,3.8,3.8v134.6
		c0,2-1.8,3.6-3.8,3.6h-4.8l-83.6-91.8h-0.2v86c0,2-1.6,3.8-3.8,3.8h-18.2c-2,0-3.8-1.8-3.8-3.8L1004.4,3.6L1004.4,3.6z"/>
</g>
</svg>
