<?xml version="1.0" encoding="iso-8859-1"?>
<!-- Generator: Adobe Illustrator 25.2.3, SVG Export Plug-In . SVG Version: 6.00 Build 0)  -->
<svg version="1.1" id="Layer_1" xmlns="http://www.w3.org/2000/svg" xmlns:xlink="http://www.w3.org/1999/xlink" x="0px" y="0px"
	 viewBox="0 0 1145.693 166.098" style="enable-background:new 0 0 1145.693 166.098;" xml:space="preserve">
<pattern  x="-10.2" y="-103.985" width="41" height="34" patternUnits="userSpaceOnUse" id="Hand_Drawn_Lines_Gray_RL" viewBox="68.824 -135.486 41 34" style="overflow:visible;">
	<g>
		<rect x="68.824" y="-135.486" style="fill:none;" width="41" height="34"/>
		<g>
			<path style="fill:#A7A9AC;" d="M87.027-94.011c0.941,1.032,2.04,2.204,3.1,3.41c0.99,1.126,1.587,2.566,2.538,3.725
				c0.712,0.868,1.54,1.804,2.188,2.719c0.493,0.696,0.907,1.451,1.326,2.197c0.48,0.857,1.138,1.563,1.895,2.166
				c0.519,0.413,0.939,0.891,1.22,1.471c0.308,0.637,0.694,1.206,1.163,1.727c0.072,0.08,0.152,0.156,0.203,0.249
				c1.392,2.5,3.575,4.386,5.191,6.713c1.383,1.275,2.296,2.962,3.736,4.19c0.406,0.346,0.776,0.75,1.087,1.182
				c1.098,1.526,2.419,2.86,3.645,4.276c0.175,0.202,0.382,0.402,0.477,0.644c0.406,1.039,1.256,1.711,1.963,2.512
				c0.846,0.958,1.574,2.018,2.355,3.033c0.26,0.338,0.491,0.705,0.793,1.003c1.191,1.173,2.19,2.484,3.041,3.925
				c0.461,0.781,1.08,1.463,1.606,2.206c0.308,0.435,0.573,0.901,0.857,1.354c0.113,0.18,0.19,0.402,0.345,0.534
				c1.202,1.023,1.886,2.462,2.936,3.606c0.323,0.352,0.616,0.731,0.918,1.103c0.573,0.706,1.129,1.426,1.716,2.12
				c0.865,1.021,1.219,2.445,2.095,3.457c1.19,1.374,2.402,2.73,3.561,4.13c1.4,1.691,2.751,3.422,4.128,5.132
				c0.336,0.416,0.668,0.84,1.045,1.217c1.747,1.747,3.309,3.653,4.857,5.571c1.243,1.541,2.528,3.049,3.741,4.616
				c0.587,0.758,1.176,1.506,1.727,2.295c0.888,1.271,1.895,2.459,2.854,3.68c1.123,1.431,2.233,2.872,3.378,4.285
				c0.907,1.12,1.82,2.238,2.889,3.217c0.298,0.273,0.645,0.388,1.049,0.339c0.075-0.009,0.66-0.518,0.649-0.576
				c-0.052-0.261-0.101-0.54-0.232-0.763c-0.95-1.618-2.301-2.915-3.354-4.463c-0.932-1.369-2.017-2.635-3.078-3.909
				c-0.655-0.787-1.232-1.616-1.735-2.507c-0.261-0.463-0.58-0.895-0.904-1.317c-0.456-0.594-0.972-1.144-1.407-1.753
				c-0.531-0.742-1.043-1.488-1.715-2.12c-0.307-0.288-0.494-0.696-0.757-1.032c-0.527-0.672-1.063-1.338-1.609-1.996
				c-0.341-0.411-0.704-0.806-1.063-1.202c-0.791-0.873-1.587-1.741-2.378-2.614c-0.251-0.276-0.525-0.539-0.729-0.848
				c-0.681-1.032-1.47-1.966-2.316-2.872c-1.022-1.094-1.928-2.297-2.867-3.467c-1.273-1.588-2.584-3.143-4.024-4.587
				c-0.453-0.454-0.339-1.373-0.713-1.894c-1.626-2.27-3.495-4.332-5.394-6.373c-0.91-0.979-1.703-2.059-2.39-3.213
				c-0.136-0.229-0.27-0.484-0.474-0.643c-0.868-0.677-1.381-1.619-1.99-2.501c-0.515-0.744-1.195-1.371-1.781-2.068
				c-0.481-0.572-0.98-1.137-1.389-1.761c-1.677-2.559-3.58-4.945-5.515-7.307c-0.203-0.248-0.465-0.462-0.613-0.741
				c-0.74-1.392-1.869-2.475-2.852-3.675c-1.187-1.448-2.326-2.935-3.512-4.384c-0.678-0.828-1.379-1.641-2.119-2.414
				c-1.527-1.595-2.792-3.382-3.976-5.237c-0.459-0.72-0.969-1.425-1.562-2.036c-1.094-1.126-1.882-2.465-2.778-3.731
				c-1.082-1.528-2.712-2.627-3.868-4.099c-1.123-1.431-1.963-3.087-3.137-4.478c-0.69-0.817-1.425-1.6-2.081-2.444
				c-0.623-0.802-1.223-1.63-1.741-2.504c-0.998-1.685-2.181-3.183-3.699-4.403c-0.389-0.313-0.87-0.273-1.368,0.095
				c-0.356,0.263-0.099,0.278,0.104,0.704c0.184,0.385,0.396,0.768,0.664,1.096c0.644,0.792,1.056,1.748,1.596,2.614
				C85.249-96.298,86.107-95.261,87.027-94.011z"/>
		</g>
		<g>
			<path style="fill:#A7A9AC;" d="M46.027-94.011c0.941,1.032,2.04,2.204,3.1,3.41c0.99,1.126,1.587,2.566,2.538,3.725
				c0.711,0.868,1.54,1.804,2.188,2.719c0.493,0.696,0.907,1.451,1.326,2.197c0.48,0.857,1.138,1.563,1.895,2.166
				c0.519,0.413,0.939,0.891,1.22,1.471c0.308,0.637,0.694,1.206,1.163,1.727c0.072,0.08,0.152,0.156,0.203,0.249
				c1.392,2.5,3.575,4.386,5.191,6.713c1.383,1.275,2.296,2.962,3.736,4.19c0.406,0.346,0.776,0.75,1.087,1.182
				c1.098,1.526,2.419,2.86,3.645,4.276c0.175,0.202,0.382,0.402,0.477,0.644c0.406,1.039,1.256,1.711,1.963,2.512
				c0.846,0.958,1.574,2.018,2.355,3.033c0.26,0.338,0.491,0.705,0.793,1.003c1.19,1.173,2.19,2.484,3.041,3.925
				c0.461,0.781,1.08,1.463,1.606,2.206c0.308,0.435,0.573,0.901,0.857,1.354c0.113,0.18,0.19,0.402,0.345,0.534
				c1.202,1.023,1.886,2.462,2.936,3.606c0.323,0.352,0.616,0.731,0.918,1.103c0.573,0.706,1.129,1.426,1.716,2.12
				c0.865,1.021,1.219,2.445,2.095,3.457c1.19,1.374,2.402,2.73,3.561,4.13c1.4,1.691,2.751,3.422,4.128,5.132
				c0.335,0.416,0.667,0.84,1.045,1.217c1.747,1.747,3.309,3.653,4.857,5.571c1.243,1.541,2.528,3.049,3.741,4.616
				c0.587,0.758,1.176,1.506,1.727,2.295c0.888,1.271,1.895,2.459,2.854,3.68c1.123,1.431,2.233,2.872,3.378,4.285
				c0.907,1.12,1.82,2.238,2.888,3.217c0.298,0.273,0.645,0.388,1.049,0.339c0.075-0.009,0.66-0.518,0.649-0.576
				c-0.052-0.261-0.101-0.54-0.232-0.763c-0.95-1.618-2.301-2.915-3.354-4.463c-0.931-1.369-2.017-2.635-3.078-3.909
				c-0.655-0.787-1.232-1.616-1.735-2.507c-0.261-0.463-0.58-0.895-0.904-1.317c-0.456-0.594-0.972-1.144-1.407-1.753
				c-0.53-0.742-1.043-1.488-1.714-2.12c-0.307-0.288-0.494-0.696-0.758-1.032c-0.527-0.672-1.063-1.338-1.609-1.996
				c-0.341-0.411-0.704-0.806-1.063-1.202c-0.791-0.873-1.587-1.741-2.378-2.614c-0.25-0.276-0.525-0.539-0.729-0.848
				c-0.681-1.032-1.47-1.966-2.315-2.872c-1.022-1.094-1.928-2.297-2.867-3.467c-1.273-1.588-2.584-3.143-4.024-4.587
				c-0.453-0.454-0.339-1.373-0.713-1.894c-1.626-2.27-3.495-4.332-5.394-6.373c-0.91-0.979-1.703-2.059-2.39-3.213
				c-0.136-0.229-0.27-0.484-0.474-0.643c-0.868-0.677-1.381-1.619-1.99-2.501c-0.515-0.744-1.195-1.371-1.781-2.068
				c-0.482-0.572-0.98-1.137-1.389-1.761c-1.677-2.559-3.58-4.945-5.515-7.307c-0.203-0.248-0.465-0.462-0.614-0.741
				c-0.74-1.392-1.869-2.475-2.852-3.675c-1.187-1.448-2.326-2.935-3.512-4.384c-0.678-0.828-1.379-1.641-2.119-2.414
				c-1.527-1.595-2.792-3.382-3.976-5.237c-0.459-0.72-0.969-1.425-1.562-2.036c-1.094-1.126-1.882-2.465-2.778-3.731
				c-1.082-1.528-2.712-2.627-3.868-4.099c-1.123-1.431-1.963-3.087-3.137-4.478c-0.69-0.817-1.425-1.6-2.081-2.444
				c-0.623-0.802-1.223-1.63-1.741-2.504c-0.998-1.685-2.181-3.183-3.699-4.403c-0.389-0.313-0.87-0.273-1.368,0.095
				c-0.356,0.263-0.099,0.278,0.104,0.704c0.184,0.385,0.396,0.768,0.664,1.096c0.644,0.792,1.056,1.748,1.596,2.614
				C44.249-96.298,45.107-95.261,46.027-94.011z"/>
		</g>
		<g>
			<path style="fill:#A7A9AC;" d="M5.027-94.011c0.941,1.032,2.04,2.204,3.1,3.41c0.99,1.126,1.587,2.566,2.538,3.725
				c0.712,0.868,1.54,1.804,2.188,2.719c0.493,0.696,0.907,1.451,1.326,2.197c0.48,0.857,1.138,1.563,1.895,2.166
				c0.519,0.413,0.939,0.891,1.22,1.471c0.308,0.637,0.694,1.206,1.163,1.727c0.072,0.08,0.152,0.156,0.203,0.249
				c1.392,2.5,3.575,4.386,5.191,6.713c1.383,1.275,2.296,2.962,3.736,4.19c0.406,0.346,0.776,0.75,1.087,1.182
				c1.098,1.526,2.419,2.86,3.645,4.276c0.175,0.202,0.382,0.402,0.477,0.644c0.406,1.039,1.256,1.711,1.963,2.512
				c0.846,0.958,1.574,2.018,2.355,3.033c0.26,0.338,0.491,0.705,0.793,1.003c1.19,1.173,2.19,2.484,3.041,3.925
				c0.461,0.781,1.08,1.463,1.606,2.206c0.308,0.435,0.573,0.901,0.857,1.354c0.113,0.18,0.19,0.402,0.345,0.534
				c1.202,1.023,1.886,2.462,2.936,3.606c0.323,0.352,0.616,0.731,0.918,1.103c0.573,0.706,1.129,1.426,1.716,2.12
				c0.865,1.021,1.219,2.445,2.095,3.457c1.19,1.374,2.402,2.73,3.561,4.13c1.4,1.691,2.751,3.422,4.128,5.132
				c0.336,0.416,0.667,0.84,1.045,1.217c1.747,1.747,3.309,3.653,4.857,5.571c1.243,1.541,2.528,3.049,3.741,4.616
				c0.587,0.758,1.176,1.506,1.727,2.295c0.888,1.271,1.895,2.459,2.854,3.68c1.123,1.431,2.233,2.872,3.378,4.285
				c0.907,1.12,1.82,2.238,2.888,3.217c0.298,0.273,0.645,0.388,1.049,0.339c0.075-0.009,0.66-0.518,0.649-0.576
				c-0.052-0.261-0.101-0.54-0.232-0.763c-0.95-1.618-2.301-2.915-3.354-4.463c-0.932-1.369-2.017-2.635-3.078-3.909
				c-0.655-0.787-1.232-1.616-1.735-2.507c-0.261-0.463-0.58-0.895-0.904-1.317c-0.456-0.594-0.972-1.144-1.407-1.753
				c-0.531-0.742-1.043-1.488-1.715-2.12c-0.307-0.288-0.494-0.696-0.757-1.032c-0.527-0.672-1.063-1.338-1.609-1.996
				c-0.341-0.411-0.704-0.806-1.063-1.202c-0.791-0.873-1.587-1.741-2.378-2.614c-0.25-0.276-0.525-0.539-0.729-0.848
				c-0.681-1.032-1.47-1.966-2.316-2.872c-1.022-1.094-1.928-2.297-2.866-3.467c-1.273-1.588-2.584-3.143-4.024-4.587
				c-0.453-0.454-0.339-1.373-0.713-1.894c-1.626-2.27-3.495-4.332-5.394-6.373c-0.91-0.979-1.703-2.059-2.39-3.213
				c-0.136-0.229-0.27-0.484-0.474-0.643c-0.869-0.677-1.381-1.619-1.99-2.501c-0.515-0.744-1.195-1.371-1.781-2.068
				c-0.481-0.572-0.98-1.137-1.389-1.761c-1.678-2.559-3.58-4.945-5.515-7.307c-0.204-0.248-0.465-0.462-0.614-0.741
				c-0.74-1.392-1.869-2.475-2.852-3.675c-1.187-1.448-2.326-2.935-3.512-4.384c-0.678-0.828-1.379-1.641-2.119-2.414
				c-1.527-1.595-2.792-3.382-3.976-5.237c-0.459-0.72-0.969-1.425-1.562-2.036c-1.094-1.126-1.882-2.465-2.778-3.731
				c-1.082-1.528-2.712-2.627-3.868-4.099c-1.123-1.431-1.963-3.087-3.137-4.478c-0.69-0.817-1.425-1.6-2.081-2.444
				c-0.623-0.802-1.223-1.63-1.741-2.504c-0.998-1.685-2.181-3.183-3.699-4.403c-0.389-0.313-0.87-0.273-1.368,0.095
				c-0.356,0.263-0.099,0.278,0.105,0.704c0.184,0.385,0.396,0.768,0.664,1.096c0.644,0.792,1.056,1.748,1.596,2.614
				C3.249-96.298,4.108-95.261,5.027-94.011z"/>
		</g>
		<g>
			<path style="fill:#A7A9AC;" d="M171.651-34.385c-0.943-1.027-2.045-2.192-3.107-3.393c-0.991-1.121-1.569-2.572-2.519-3.728
				c-0.711-0.865-1.978-1.293-2.623-2.208c-0.49-0.696-0.897-1.454-1.309-2.203c-0.473-0.861-1.132-1.562-1.897-2.157
				c-0.524-0.407-0.945-0.883-1.219-1.466c-0.301-0.64-0.684-1.211-1.154-1.729c-0.072-0.079-0.152-0.155-0.203-0.248
				c-1.369-2.511-3.571-4.375-5.177-6.702c-1.392-1.262-2.29-2.957-3.742-4.171c-0.409-0.342-0.781-0.743-1.09-1.175
				c-1.092-1.526-2.419-2.85-3.646-4.26c-0.175-0.201-0.383-0.399-0.475-0.643c-0.392-1.048-1.25-1.71-1.958-2.508
				c-0.847-0.954-1.57-2.015-2.348-3.028c-0.259-0.337-0.488-0.706-0.791-1.001c-1.197-1.164-2.193-2.473-3.032-3.919
				c-0.454-0.783-1.075-1.462-1.598-2.205c-0.306-0.435-0.567-0.903-0.848-1.356c-0.112-0.181-0.185-0.405-0.342-0.535
				c-1.212-1.01-1.88-2.459-2.932-3.597c-0.324-0.35-0.616-0.729-0.917-1.099c-0.572-0.704-1.126-1.423-1.714-2.115
				c-0.865-1.018-1.193-2.459-2.07-3.467c-1.191-1.369-2.405-2.718-3.563-4.114c-1.399-1.686-2.746-3.414-4.122-5.12
				c-0.335-0.415-0.666-0.838-1.046-1.212c-1.755-1.734-3.316-3.635-4.861-5.548c-1.242-1.537-2.526-3.039-3.736-4.604
				c-0.585-0.757-1.173-1.503-1.72-2.292c-0.882-1.272-1.89-2.455-2.846-3.674c-1.121-1.428-2.227-2.867-3.371-4.276
				c-0.906-1.117-1.818-2.232-2.894-3.201c-0.3-0.27-0.655-0.378-1.073-0.318c-0.077,0.011-0.694,0.545-0.684,0.604
				c0.047,0.265,0.09,0.547,0.219,0.771c0.937,1.623,2.296,2.909,3.341,4.458c0.925,1.37,2.01,2.631,3.072,3.902
				c0.655,0.784,1.228,1.614,1.723,2.508c0.257,0.464,0.574,0.896,0.897,1.318c0.455,0.593,0.972,1.14,1.405,1.748
				c0.527,0.742,1.036,1.489,1.712,2.114c0.309,0.285,0.491,0.696,0.754,1.032c0.526,0.671,1.061,1.335,1.606,1.991
				c0.341,0.41,0.704,0.802,1.064,1.197c0.793,0.869,1.591,1.732,2.383,2.601c0.251,0.275,0.527,0.535,0.729,0.845
				c0.675,1.034,1.464,1.964,2.312,2.865c1.025,1.088,1.928,2.289,2.865,3.457c1.271,1.585,2.582,3.134,4.028,4.568
				c0.455,0.451,0.314,1.389,0.685,1.91c1.617,2.27,3.491,4.321,5.395,6.351c0.913,0.973,1.702,2.053,2.38,3.211
				c0.135,0.23,0.266,0.486,0.472,0.643c0.878,0.667,1.381,1.613,1.986,2.495c0.511,0.745,1.196,1.366,1.782,2.06
				c0.481,0.57,0.981,1.133,1.386,1.757c1.662,2.563,3.562,4.944,5.495,7.299c0.203,0.248,0.468,0.459,0.613,0.739
				c0.727,1.399,1.862,2.473,2.845,3.669c1.186,1.444,2.522,2.629,3.706,4.074c0.677,0.826,1.378,1.636,2.121,2.404
				c1.532,1.585,2.79,3.372,3.962,5.231c0.455,0.721,0.962,1.427,1.557,2.033c1.098,1.118,1.875,2.462,2.767,3.728
				c1.076,1.528,2.727,2.605,3.88,4.074c1.121,1.428,1.943,3.093,3.117,4.479c0.69,0.815,1.427,1.593,2.081,2.435
				c0.622,0.8,1.219,1.629,1.729,2.505c0.985,1.691,2.165,3.185,3.698,4.389c0.393,0.308,0.69,0.555,1.213,0.167
				c0.374-0.277,0.547-0.79,0.349-1.219c-0.179-0.387-0.388-0.771-0.655-1.099c-0.643-0.79-1.043-1.753-1.577-2.621
				C173.424-32.102,172.567-33.136,171.651-34.385z"/>
			<path style="fill:#A7A9AC;" d="M87.027-128.011c0.941,1.032,2.04,2.204,3.1,3.41c0.99,1.126,1.587,2.566,2.538,3.725
				c0.712,0.868,1.54,1.804,2.188,2.719c0.493,0.696,0.907,1.451,1.326,2.197c0.48,0.857,1.138,1.563,1.895,2.166
				c0.519,0.413,0.939,0.891,1.22,1.471c0.308,0.637,0.694,1.206,1.163,1.727c0.072,0.08,0.152,0.156,0.203,0.249
				c1.392,2.5,3.575,4.386,5.191,6.713c1.383,1.275,2.296,2.962,3.736,4.19c0.406,0.346,0.776,0.75,1.087,1.182
				c1.098,1.526,2.419,2.86,3.645,4.276c0.175,0.202,0.382,0.402,0.477,0.644c0.406,1.039,1.256,1.711,1.963,2.512
				c0.846,0.958,1.574,2.018,2.355,3.033c0.26,0.338,0.491,0.705,0.793,1.003c1.191,1.173,2.19,2.484,3.041,3.925
				c0.461,0.781,1.08,1.463,1.606,2.206c0.308,0.435,0.573,0.901,0.857,1.354c0.113,0.18,0.19,0.402,0.345,0.534
				c1.202,1.023,1.886,2.463,2.936,3.606c0.323,0.352,0.616,0.731,0.918,1.103c0.573,0.706,1.129,1.426,1.716,2.12
				c0.865,1.021,1.219,2.446,2.095,3.457c1.19,1.374,2.402,2.73,3.561,4.13c1.4,1.691,2.751,3.422,4.128,5.132
				c0.336,0.416,0.668,0.84,1.045,1.217c1.747,1.747,3.309,3.653,4.857,5.571c1.243,1.541,2.528,3.049,3.741,4.616
				c0.587,0.758,1.176,1.506,1.727,2.295c0.888,1.271,1.895,2.459,2.854,3.68c1.123,1.431,2.233,2.872,3.378,4.285
				c0.907,1.12,1.82,2.238,2.889,3.217c0.298,0.273,0.645,0.388,1.049,0.339c0.075-0.009,0.66-0.518,0.649-0.576
				c-0.052-0.261-0.101-0.54-0.232-0.763c-0.95-1.618-2.301-2.915-3.354-4.463c-0.932-1.369-2.017-2.635-3.078-3.909
				c-0.655-0.786-1.232-1.616-1.735-2.507c-0.261-0.463-0.58-0.895-0.904-1.317c-0.456-0.594-0.972-1.144-1.407-1.753
				c-0.531-0.742-1.043-1.488-1.715-2.119c-0.307-0.288-0.494-0.696-0.757-1.032c-0.527-0.672-1.063-1.338-1.609-1.996
				c-0.341-0.411-0.704-0.806-1.063-1.202c-0.791-0.873-1.587-1.741-2.378-2.614c-0.251-0.276-0.525-0.539-0.729-0.848
				c-0.681-1.032-1.47-1.966-2.316-2.872c-1.022-1.095-1.928-2.297-2.867-3.467c-1.273-1.589-2.584-3.143-4.024-4.587
				c-0.453-0.454-0.339-1.372-0.713-1.894c-1.626-2.27-3.495-4.332-5.394-6.373c-0.91-0.979-1.703-2.059-2.39-3.213
				c-0.136-0.229-0.27-0.484-0.474-0.643c-0.868-0.677-1.381-1.619-1.99-2.501c-0.515-0.744-1.195-1.371-1.781-2.068
				c-0.481-0.572-0.98-1.137-1.389-1.761c-1.677-2.559-3.58-4.945-5.515-7.307c-0.203-0.248-0.465-0.462-0.613-0.741
				c-0.74-1.392-1.869-2.475-2.852-3.675c-1.187-1.448-2.326-2.935-3.512-4.384c-0.678-0.828-1.379-1.641-2.119-2.414
				c-1.527-1.595-2.792-3.382-3.976-5.237c-0.459-0.72-0.969-1.425-1.562-2.036c-1.094-1.126-1.882-2.465-2.778-3.731
				c-1.082-1.528-2.712-2.627-3.868-4.099c-1.123-1.431-1.963-3.087-3.137-4.478c-0.69-0.817-1.425-1.6-2.081-2.444
				c-0.623-0.802-1.223-1.63-1.741-2.504c-0.998-1.685-2.181-3.183-3.699-4.403c-0.389-0.313-0.87-0.273-1.368,0.095
				c-0.356,0.263-0.099,0.278,0.104,0.704c0.184,0.385,0.396,0.768,0.664,1.096c0.644,0.792,1.056,1.748,1.596,2.614
				C85.249-130.298,86.107-129.261,87.027-128.011z"/>
		</g>
		<g>
			<path style="fill:#A7A9AC;" d="M130.651-34.385c-0.943-1.027-2.045-2.192-3.107-3.393c-0.991-1.121-1.569-2.572-2.519-3.728
				c-0.711-0.865-1.978-1.293-2.622-2.208c-0.49-0.696-0.897-1.454-1.309-2.203c-0.473-0.861-1.132-1.562-1.897-2.157
				c-0.524-0.407-0.945-0.883-1.219-1.466c-0.301-0.64-0.684-1.211-1.153-1.729c-0.072-0.079-0.152-0.155-0.203-0.248
				c-1.37-2.511-3.571-4.375-5.177-6.702c-1.392-1.262-2.29-2.957-3.742-4.171c-0.409-0.342-0.781-0.743-1.09-1.175
				c-1.092-1.526-2.419-2.85-3.646-4.26c-0.175-0.201-0.383-0.399-0.475-0.643c-0.392-1.048-1.25-1.71-1.958-2.508
				c-0.847-0.954-1.57-2.015-2.348-3.028c-0.259-0.337-0.488-0.706-0.791-1.001c-1.197-1.164-2.193-2.473-3.032-3.919
				c-0.455-0.783-1.075-1.462-1.598-2.205c-0.306-0.435-0.567-0.903-0.848-1.356c-0.112-0.181-0.185-0.405-0.342-0.535
				c-1.212-1.01-1.88-2.459-2.932-3.597c-0.324-0.35-0.616-0.729-0.917-1.099c-0.572-0.704-1.126-1.423-1.714-2.115
				c-0.865-1.018-1.193-2.459-2.07-3.467c-1.191-1.369-2.405-2.718-3.563-4.114c-1.399-1.686-2.746-3.414-4.122-5.12
				c-0.335-0.415-0.666-0.838-1.045-1.212c-1.755-1.734-3.316-3.635-4.861-5.548c-1.242-1.537-2.526-3.039-3.736-4.604
				c-0.585-0.757-1.173-1.503-1.72-2.292c-0.882-1.272-1.889-2.455-2.846-3.674c-1.121-1.428-2.227-2.867-3.371-4.276
				c-0.906-1.117-1.818-2.232-2.894-3.201c-0.3-0.27-0.655-0.378-1.073-0.318c-0.077,0.011-0.694,0.545-0.684,0.604
				c0.047,0.265,0.09,0.547,0.219,0.771c0.937,1.623,2.296,2.909,3.341,4.458c0.925,1.37,2.01,2.631,3.071,3.902
				c0.655,0.784,1.228,1.614,1.723,2.508c0.257,0.464,0.574,0.896,0.897,1.318c0.455,0.593,0.972,1.14,1.405,1.748
				c0.527,0.742,1.036,1.489,1.712,2.114c0.309,0.285,0.491,0.696,0.754,1.032c0.526,0.671,1.061,1.335,1.606,1.991
				c0.341,0.41,0.704,0.802,1.064,1.197c0.793,0.869,1.591,1.732,2.383,2.601c0.251,0.275,0.527,0.535,0.729,0.845
				c0.675,1.034,1.464,1.964,2.312,2.865c1.025,1.088,1.928,2.289,2.865,3.457c1.271,1.585,2.582,3.134,4.028,4.568
				c0.455,0.451,0.314,1.389,0.685,1.91c1.617,2.27,3.491,4.321,5.395,6.351c0.913,0.973,1.702,2.053,2.38,3.211
				c0.135,0.23,0.266,0.486,0.472,0.643c0.878,0.667,1.381,1.613,1.986,2.495c0.511,0.745,1.196,1.366,1.782,2.06
				c0.481,0.57,0.981,1.133,1.386,1.757c1.662,2.563,3.562,4.944,5.494,7.299c0.203,0.248,0.468,0.459,0.613,0.739
				c0.727,1.399,1.862,2.473,2.845,3.669c1.186,1.444,2.522,2.629,3.706,4.074c0.677,0.826,1.379,1.636,2.121,2.404
				c1.532,1.585,2.79,3.372,3.962,5.231c0.455,0.721,0.962,1.427,1.557,2.033c1.098,1.118,1.875,2.462,2.767,3.728
				c1.076,1.528,2.727,2.605,3.88,4.074c1.121,1.428,1.943,3.093,3.117,4.479c0.69,0.815,1.427,1.593,2.081,2.435
				c0.622,0.8,1.219,1.629,1.729,2.505c0.985,1.691,2.165,3.185,3.698,4.389c0.393,0.308,0.69,0.555,1.213,0.167
				c0.374-0.277,0.547-0.79,0.349-1.219c-0.179-0.387-0.388-0.771-0.655-1.099c-0.643-0.79-1.043-1.753-1.577-2.621
				C132.424-32.102,131.567-33.136,130.651-34.385z"/>
			<path style="fill:#A7A9AC;" d="M46.027-128.011c0.941,1.032,2.04,2.204,3.1,3.41c0.99,1.126,1.587,2.566,2.538,3.725
				c0.711,0.868,1.54,1.804,2.188,2.719c0.493,0.696,0.907,1.451,1.326,2.197c0.48,0.857,1.138,1.563,1.895,2.166
				c0.519,0.413,0.939,0.891,1.22,1.471c0.308,0.637,0.694,1.206,1.163,1.727c0.072,0.08,0.152,0.156,0.203,0.249
				c1.392,2.5,3.575,4.386,5.191,6.713c1.383,1.275,2.296,2.962,3.736,4.19c0.406,0.346,0.776,0.75,1.087,1.182
				c1.098,1.526,2.419,2.86,3.645,4.276c0.175,0.202,0.382,0.402,0.477,0.644c0.406,1.039,1.256,1.711,1.963,2.512
				c0.846,0.958,1.574,2.018,2.355,3.033c0.26,0.338,0.491,0.705,0.793,1.003c1.19,1.173,2.19,2.484,3.041,3.925
				c0.461,0.781,1.08,1.463,1.606,2.206c0.308,0.435,0.573,0.901,0.857,1.354c0.113,0.18,0.19,0.402,0.345,0.534
				c1.202,1.023,1.886,2.463,2.936,3.606c0.323,0.352,0.616,0.731,0.918,1.103c0.573,0.706,1.129,1.426,1.716,2.12
				c0.865,1.021,1.219,2.446,2.095,3.457c1.19,1.374,2.402,2.73,3.561,4.13c1.4,1.691,2.751,3.422,4.128,5.132
				c0.335,0.416,0.667,0.84,1.045,1.217c1.747,1.747,3.309,3.653,4.857,5.571c1.243,1.541,2.528,3.049,3.741,4.616
				c0.587,0.758,1.176,1.506,1.727,2.295c0.888,1.271,1.895,2.459,2.854,3.68c1.123,1.431,2.233,2.872,3.378,4.285
				c0.907,1.12,1.82,2.238,2.888,3.217c0.298,0.273,0.645,0.388,1.049,0.339c0.075-0.009,0.66-0.518,0.649-0.576
				c-0.052-0.261-0.101-0.54-0.232-0.763c-0.95-1.618-2.301-2.915-3.354-4.463c-0.931-1.369-2.017-2.635-3.078-3.909
				c-0.655-0.786-1.232-1.616-1.735-2.507c-0.261-0.463-0.58-0.895-0.904-1.317c-0.456-0.594-0.972-1.144-1.407-1.753
				c-0.53-0.742-1.043-1.488-1.714-2.119c-0.307-0.288-0.494-0.696-0.758-1.032c-0.527-0.672-1.063-1.338-1.609-1.996
				c-0.341-0.411-0.704-0.806-1.063-1.202c-0.791-0.873-1.587-1.741-2.378-2.614c-0.25-0.276-0.525-0.539-0.729-0.848
				c-0.681-1.032-1.47-1.966-2.315-2.872c-1.022-1.095-1.928-2.297-2.867-3.467c-1.273-1.589-2.584-3.143-4.024-4.587
				c-0.453-0.454-0.339-1.372-0.713-1.894c-1.626-2.27-3.495-4.332-5.394-6.373c-0.91-0.979-1.703-2.059-2.39-3.213
				c-0.136-0.229-0.27-0.484-0.474-0.643c-0.868-0.677-1.381-1.619-1.99-2.501c-0.515-0.744-1.195-1.371-1.781-2.068
				c-0.482-0.572-0.98-1.137-1.389-1.761c-1.677-2.559-3.58-4.945-5.515-7.307c-0.203-0.248-0.465-0.462-0.614-0.741
				c-0.74-1.392-1.869-2.475-2.852-3.675c-1.187-1.448-2.326-2.935-3.512-4.384c-0.678-0.828-1.379-1.641-2.119-2.414
				c-1.527-1.595-2.792-3.382-3.976-5.237c-0.459-0.72-0.969-1.425-1.562-2.036c-1.094-1.126-1.882-2.465-2.778-3.731
				c-1.082-1.528-2.712-2.627-3.868-4.099c-1.123-1.431-1.963-3.087-3.137-4.478c-0.69-0.817-1.425-1.6-2.081-2.444
				c-0.623-0.802-1.223-1.63-1.741-2.504c-0.998-1.685-2.181-3.183-3.699-4.403c-0.389-0.313-0.87-0.273-1.368,0.095
				c-0.356,0.263-0.099,0.278,0.104,0.704c0.184,0.385,0.396,0.768,0.664,1.096c0.644,0.792,1.056,1.748,1.596,2.614
				C44.249-130.298,45.107-129.261,46.027-128.011z"/>
		</g>
		<g>
			<path style="fill:#A7A9AC;" d="M89.651-34.385c-0.943-1.027-2.045-2.192-3.107-3.393c-0.991-1.121-1.569-2.572-2.519-3.728
				c-0.711-0.865-1.978-1.293-2.623-2.208c-0.49-0.696-0.897-1.454-1.309-2.203c-0.473-0.861-1.132-1.562-1.897-2.157
				c-0.524-0.407-0.945-0.883-1.219-1.466c-0.301-0.64-0.684-1.211-1.154-1.729c-0.072-0.079-0.152-0.155-0.203-0.248
				c-1.369-2.511-3.571-4.375-5.177-6.702c-1.392-1.262-2.29-2.957-3.742-4.171c-0.409-0.342-0.781-0.743-1.09-1.175
				c-1.092-1.526-2.419-2.85-3.646-4.26c-0.175-0.201-0.383-0.399-0.475-0.643c-0.392-1.048-1.25-1.71-1.958-2.508
				c-0.847-0.954-1.57-2.015-2.348-3.028c-0.259-0.337-0.488-0.706-0.791-1.001c-1.197-1.164-2.193-2.473-3.032-3.919
				c-0.454-0.783-1.075-1.462-1.598-2.205c-0.306-0.435-0.567-0.903-0.848-1.356c-0.112-0.181-0.185-0.405-0.342-0.535
				c-1.212-1.01-1.88-2.459-2.932-3.597c-0.324-0.35-0.616-0.729-0.917-1.099c-0.572-0.704-1.126-1.423-1.714-2.115
				c-0.865-1.018-1.193-2.459-2.07-3.467c-1.191-1.369-2.405-2.718-3.563-4.114c-1.399-1.686-2.746-3.414-4.122-5.12
				c-0.335-0.415-0.666-0.838-1.046-1.212c-1.755-1.734-3.316-3.635-4.861-5.548c-1.242-1.537-2.526-3.039-3.736-4.604
				c-0.585-0.757-1.173-1.503-1.72-2.292c-0.882-1.272-1.889-2.455-2.846-3.674c-1.121-1.428-2.227-2.867-3.371-4.276
				c-0.906-1.117-1.818-2.232-2.894-3.201c-0.3-0.27-0.655-0.378-1.073-0.318c-0.077,0.011-0.694,0.545-0.684,0.604
				c0.046,0.265,0.09,0.547,0.219,0.771c0.937,1.623,2.296,2.909,3.341,4.458c0.925,1.37,2.01,2.631,3.072,3.902
				c0.655,0.784,1.228,1.614,1.723,2.508c0.257,0.464,0.574,0.896,0.897,1.318c0.455,0.593,0.972,1.14,1.405,1.748
				c0.528,0.742,1.036,1.489,1.712,2.114c0.309,0.285,0.491,0.696,0.754,1.032c0.526,0.671,1.061,1.335,1.606,1.991
				c0.341,0.41,0.704,0.802,1.064,1.197c0.793,0.869,1.591,1.732,2.383,2.601c0.251,0.275,0.527,0.535,0.729,0.845
				c0.675,1.034,1.464,1.964,2.312,2.865c1.025,1.088,1.928,2.289,2.865,3.457c1.271,1.585,2.582,3.134,4.028,4.568
				c0.455,0.451,0.314,1.389,0.685,1.91c1.617,2.27,3.491,4.321,5.395,6.351c0.913,0.973,1.702,2.053,2.38,3.211
				c0.135,0.23,0.266,0.486,0.472,0.643c0.878,0.667,1.381,1.613,1.986,2.495c0.511,0.745,1.196,1.366,1.782,2.06
				c0.481,0.57,0.981,1.133,1.386,1.757c1.662,2.563,3.562,4.944,5.494,7.299c0.203,0.248,0.468,0.459,0.613,0.739
				c0.727,1.399,1.862,2.473,2.845,3.669c1.186,1.444,2.522,2.629,3.706,4.074c0.677,0.826,1.378,1.636,2.121,2.404
				c1.532,1.585,2.79,3.372,3.962,5.231c0.455,0.721,0.962,1.427,1.557,2.033c1.098,1.118,1.875,2.462,2.767,3.728
				c1.076,1.528,2.727,2.605,3.88,4.074c1.121,1.428,1.943,3.093,3.117,4.479c0.69,0.815,1.427,1.593,2.081,2.435
				c0.622,0.8,1.219,1.629,1.729,2.505c0.985,1.691,2.165,3.185,3.698,4.389c0.393,0.308,0.69,0.555,1.213,0.167
				c0.374-0.277,0.547-0.79,0.349-1.219c-0.179-0.387-0.388-0.771-0.655-1.099c-0.644-0.79-1.043-1.753-1.577-2.621
				C91.424-32.102,90.567-33.136,89.651-34.385z"/>
			<path style="fill:#A7A9AC;" d="M5.027-128.011c0.941,1.032,2.04,2.204,3.1,3.41c0.99,1.126,1.587,2.566,2.538,3.725
				c0.712,0.868,1.54,1.804,2.188,2.719c0.493,0.696,0.907,1.451,1.326,2.197c0.48,0.857,1.138,1.563,1.895,2.166
				c0.519,0.413,0.939,0.891,1.22,1.471c0.308,0.637,0.694,1.206,1.163,1.727c0.072,0.08,0.152,0.156,0.203,0.249
				c1.392,2.5,3.575,4.386,5.191,6.713c1.383,1.275,2.296,2.962,3.736,4.19c0.406,0.346,0.776,0.75,1.087,1.182
				c1.098,1.526,2.419,2.86,3.645,4.276c0.175,0.202,0.382,0.402,0.477,0.644c0.406,1.039,1.256,1.711,1.963,2.512
				c0.846,0.958,1.574,2.018,2.355,3.033c0.26,0.338,0.491,0.705,0.793,1.003c1.19,1.173,2.19,2.484,3.041,3.925
				c0.461,0.781,1.08,1.463,1.606,2.206c0.308,0.435,0.573,0.901,0.857,1.354c0.113,0.18,0.19,0.402,0.345,0.534
				c1.202,1.023,1.886,2.463,2.936,3.606c0.323,0.352,0.616,0.731,0.918,1.103c0.573,0.706,1.129,1.426,1.716,2.12
				c0.865,1.021,1.219,2.446,2.095,3.457c1.19,1.374,2.402,2.73,3.561,4.13c1.4,1.691,2.751,3.422,4.128,5.132
				c0.336,0.416,0.667,0.84,1.045,1.217c1.747,1.747,3.309,3.653,4.857,5.571c1.243,1.541,2.528,3.049,3.741,4.616
				c0.587,0.758,1.176,1.506,1.727,2.295c0.888,1.271,1.895,2.459,2.854,3.68c1.123,1.431,2.233,2.872,3.378,4.285
				c0.907,1.12,1.82,2.238,2.888,3.217c0.298,0.273,0.645,0.388,1.049,0.339c0.075-0.009,0.66-0.518,0.649-0.576
				c-0.052-0.261-0.101-0.54-0.232-0.763c-0.95-1.618-2.301-2.915-3.354-4.463c-0.932-1.369-2.017-2.635-3.078-3.909
				c-0.655-0.786-1.232-1.616-1.735-2.507c-0.261-0.463-0.58-0.895-0.904-1.317c-0.456-0.594-0.972-1.144-1.407-1.753
				c-0.531-0.742-1.043-1.488-1.715-2.119c-0.307-0.288-0.494-0.696-0.757-1.032c-0.527-0.672-1.063-1.338-1.609-1.996
				c-0.341-0.411-0.704-0.806-1.063-1.202c-0.791-0.873-1.587-1.741-2.378-2.614c-0.25-0.276-0.525-0.539-0.729-0.848
				c-0.681-1.032-1.47-1.966-2.316-2.872c-1.022-1.095-1.928-2.297-2.866-3.467c-1.273-1.589-2.584-3.143-4.024-4.587
				c-0.453-0.454-0.339-1.372-0.713-1.894c-1.626-2.27-3.495-4.332-5.394-6.373c-0.91-0.979-1.703-2.059-2.39-3.213
				c-0.136-0.229-0.27-0.484-0.474-0.643c-0.869-0.677-1.381-1.619-1.99-2.501c-0.515-0.744-1.195-1.371-1.781-2.068
				c-0.481-0.572-0.98-1.137-1.389-1.761c-1.678-2.559-3.58-4.945-5.515-7.307c-0.204-0.248-0.465-0.462-0.614-0.741
				c-0.74-1.392-1.869-2.475-2.852-3.675c-1.187-1.448-2.326-2.935-3.512-4.384c-0.678-0.828-1.379-1.641-2.119-2.414
				c-1.527-1.595-2.792-3.382-3.976-5.237c-0.459-0.72-0.969-1.425-1.562-2.036c-1.094-1.126-1.882-2.465-2.778-3.731
				c-1.082-1.528-2.712-2.627-3.868-4.099c-1.123-1.431-1.963-3.087-3.137-4.478c-0.69-0.817-1.425-1.6-2.081-2.444
				c-0.623-0.802-1.223-1.63-1.741-2.504c-0.998-1.685-2.181-3.183-3.699-4.403c-0.389-0.313-0.87-0.273-1.368,0.095
				c-0.356,0.263-0.099,0.278,0.105,0.704c0.184,0.385,0.396,0.768,0.664,1.096c0.644,0.792,1.056,1.748,1.596,2.614
				C3.249-130.298,4.108-129.261,5.027-128.011z"/>
		</g>
		<g>
			<path style="fill:#A7A9AC;" d="M171.651-68.385c-0.943-1.027-2.045-2.192-3.107-3.393c-0.991-1.121-1.569-2.572-2.519-3.728
				c-0.711-0.865-1.978-1.293-2.623-2.208c-0.49-0.696-0.897-1.454-1.309-2.203c-0.473-0.861-1.132-1.562-1.897-2.157
				c-0.524-0.407-0.945-0.883-1.219-1.466c-0.301-0.641-0.684-1.211-1.154-1.729c-0.072-0.079-0.152-0.155-0.203-0.248
				c-1.369-2.511-3.571-4.375-5.177-6.702c-1.392-1.262-2.29-2.957-3.742-4.171c-0.409-0.342-0.781-0.743-1.09-1.175
				c-1.092-1.526-2.419-2.85-3.646-4.26c-0.175-0.201-0.383-0.399-0.475-0.643c-0.392-1.048-1.25-1.71-1.958-2.508
				c-0.847-0.954-1.57-2.014-2.348-3.028c-0.259-0.337-0.488-0.706-0.791-1.001c-1.197-1.164-2.193-2.473-3.032-3.919
				c-0.454-0.783-1.075-1.462-1.598-2.205c-0.306-0.435-0.567-0.903-0.848-1.356c-0.112-0.181-0.185-0.405-0.342-0.535
				c-1.212-1.01-1.88-2.459-2.932-3.597c-0.324-0.35-0.616-0.729-0.917-1.099c-0.572-0.704-1.126-1.423-1.714-2.115
				c-0.865-1.018-1.193-2.459-2.07-3.467c-1.191-1.369-2.405-2.718-3.563-4.114c-1.399-1.686-2.746-3.414-4.122-5.12
				c-0.335-0.415-0.666-0.838-1.046-1.212c-1.755-1.734-3.316-3.635-4.861-5.548c-1.242-1.537-2.526-3.039-3.736-4.604
				c-0.585-0.757-1.173-1.503-1.72-2.292c-0.882-1.272-1.89-2.455-2.846-3.674c-1.121-1.428-2.227-2.867-3.371-4.276
				c-0.906-1.117-1.818-2.232-2.894-3.201c-0.3-0.27-0.655-0.379-1.073-0.318c-0.077,0.011-0.694,0.545-0.684,0.604
				c0.047,0.265,0.09,0.547,0.219,0.771c0.937,1.623,2.296,2.909,3.341,4.458c0.925,1.37,2.01,2.631,3.072,3.902
				c0.655,0.784,1.228,1.614,1.723,2.508c0.257,0.464,0.574,0.896,0.897,1.318c0.455,0.593,0.972,1.14,1.405,1.748
				c0.527,0.742,1.036,1.489,1.712,2.114c0.309,0.285,0.491,0.696,0.754,1.032c0.526,0.671,1.061,1.335,1.606,1.991
				c0.341,0.41,0.704,0.803,1.064,1.197c0.793,0.869,1.591,1.732,2.383,2.601c0.251,0.275,0.527,0.535,0.729,0.845
				c0.675,1.034,1.464,1.964,2.312,2.865c1.025,1.088,1.928,2.289,2.865,3.457c1.271,1.585,2.582,3.134,4.028,4.568
				c0.455,0.451,0.314,1.389,0.685,1.91c1.617,2.27,3.491,4.321,5.395,6.351c0.913,0.973,1.702,2.053,2.38,3.211
				c0.135,0.23,0.266,0.486,0.472,0.643c0.878,0.667,1.381,1.613,1.986,2.495c0.511,0.745,1.196,1.366,1.782,2.06
				c0.481,0.57,0.981,1.133,1.386,1.757c1.662,2.563,3.562,4.943,5.495,7.299c0.203,0.248,0.468,0.459,0.613,0.739
				c0.727,1.399,1.862,2.473,2.845,3.669c1.186,1.444,2.522,2.629,3.706,4.074c0.677,0.826,1.378,1.636,2.121,2.404
				c1.532,1.585,2.79,3.372,3.962,5.231c0.455,0.721,0.962,1.427,1.557,2.033c1.098,1.118,1.875,2.462,2.767,3.728
				c1.076,1.529,2.727,2.605,3.88,4.075c1.121,1.428,1.943,3.093,3.117,4.479c0.69,0.815,1.427,1.593,2.081,2.435
				c0.622,0.8,1.219,1.629,1.729,2.505c0.985,1.691,2.165,3.185,3.698,4.389c0.393,0.308,0.69,0.555,1.213,0.167
				c0.374-0.277,0.547-0.79,0.349-1.219c-0.179-0.388-0.388-0.771-0.655-1.099c-0.643-0.79-1.043-1.753-1.577-2.621
				C173.424-66.102,172.567-67.135,171.651-68.385z"/>
			<path style="fill:#A7A9AC;" d="M87.027-162.011c0.941,1.032,2.04,2.204,3.1,3.41c0.99,1.126,1.587,2.566,2.538,3.725
				c0.712,0.868,1.54,1.804,2.188,2.719c0.493,0.696,0.907,1.451,1.326,2.197c0.48,0.857,1.138,1.563,1.895,2.166
				c0.519,0.413,0.939,0.891,1.22,1.471c0.308,0.637,0.694,1.206,1.163,1.727c0.072,0.08,0.152,0.156,0.203,0.249
				c1.392,2.5,3.575,4.386,5.191,6.713c1.383,1.275,2.296,2.962,3.736,4.19c0.406,0.346,0.776,0.75,1.087,1.182
				c1.098,1.526,2.419,2.86,3.645,4.276c0.175,0.202,0.382,0.402,0.477,0.644c0.406,1.039,1.256,1.711,1.963,2.512
				c0.846,0.958,1.574,2.018,2.355,3.033c0.26,0.338,0.491,0.705,0.793,1.003c1.191,1.173,2.19,2.484,3.041,3.925
				c0.461,0.781,1.08,1.463,1.606,2.206c0.308,0.435,0.573,0.901,0.857,1.354c0.113,0.18,0.19,0.402,0.345,0.534
				c1.202,1.023,1.886,2.462,2.936,3.606c0.323,0.352,0.616,0.731,0.918,1.103c0.573,0.706,1.129,1.426,1.716,2.12
				c0.865,1.021,1.219,2.446,2.095,3.457c1.19,1.374,2.402,2.73,3.561,4.13c1.4,1.691,2.751,3.422,4.128,5.132
				c0.336,0.416,0.668,0.84,1.045,1.217c1.747,1.747,3.309,3.653,4.857,5.571c1.243,1.541,2.528,3.049,3.741,4.616
				c0.587,0.758,1.176,1.506,1.727,2.295c0.888,1.271,1.895,2.459,2.854,3.68c1.123,1.431,2.233,2.872,3.378,4.285
				c0.907,1.12,1.82,2.238,2.889,3.217c0.298,0.273,0.645,0.388,1.049,0.339c0.075-0.009,0.66-0.518,0.649-0.576
				c-0.052-0.262-0.101-0.54-0.232-0.763c-0.95-1.618-2.301-2.915-3.354-4.463c-0.932-1.369-2.017-2.635-3.078-3.909
				c-0.655-0.786-1.232-1.616-1.735-2.507c-0.261-0.463-0.58-0.895-0.904-1.317c-0.456-0.594-0.972-1.144-1.407-1.752
				c-0.531-0.742-1.043-1.488-1.715-2.119c-0.307-0.288-0.494-0.696-0.757-1.032c-0.527-0.672-1.063-1.338-1.609-1.996
				c-0.341-0.411-0.704-0.806-1.063-1.202c-0.791-0.873-1.587-1.741-2.378-2.614c-0.251-0.276-0.525-0.539-0.729-0.848
				c-0.681-1.033-1.47-1.966-2.316-2.872c-1.022-1.094-1.928-2.297-2.867-3.467c-1.273-1.589-2.584-3.143-4.024-4.587
				c-0.453-0.454-0.339-1.372-0.713-1.894c-1.626-2.27-3.495-4.332-5.394-6.373c-0.91-0.979-1.703-2.059-2.39-3.213
				c-0.136-0.229-0.27-0.484-0.474-0.643c-0.868-0.677-1.381-1.619-1.99-2.501c-0.515-0.744-1.195-1.371-1.781-2.068
				c-0.481-0.572-0.98-1.137-1.389-1.761c-1.677-2.559-3.58-4.945-5.515-7.307c-0.203-0.248-0.465-0.462-0.613-0.741
				c-0.74-1.392-1.869-2.475-2.852-3.675c-1.187-1.448-2.326-2.935-3.512-4.384c-0.678-0.828-1.379-1.641-2.119-2.415
				c-1.527-1.595-2.792-3.382-3.976-5.237c-0.459-0.72-0.969-1.425-1.562-2.036c-1.094-1.126-1.882-2.465-2.778-3.731
				c-1.082-1.528-2.712-2.627-3.868-4.099c-1.123-1.431-1.963-3.087-3.137-4.478c-0.69-0.818-1.425-1.6-2.081-2.444
				c-0.623-0.802-1.223-1.63-1.741-2.504c-0.998-1.685-2.181-3.183-3.699-4.403c-0.389-0.313-0.87-0.273-1.368,0.095
				c-0.356,0.263-0.099,0.278,0.104,0.704c0.184,0.385,0.396,0.768,0.664,1.096c0.644,0.792,1.056,1.748,1.596,2.614
				C85.249-164.298,86.107-163.261,87.027-162.011z"/>
		</g>
		<g>
			<path style="fill:#A7A9AC;" d="M130.651-68.385c-0.943-1.027-2.045-2.192-3.107-3.393c-0.991-1.121-1.569-2.572-2.519-3.728
				c-0.711-0.865-1.978-1.293-2.622-2.208c-0.49-0.696-0.897-1.454-1.309-2.203c-0.473-0.861-1.132-1.562-1.897-2.157
				c-0.524-0.407-0.945-0.883-1.219-1.466c-0.301-0.641-0.684-1.211-1.153-1.729c-0.072-0.079-0.152-0.155-0.203-0.248
				c-1.37-2.511-3.571-4.375-5.177-6.702c-1.392-1.262-2.29-2.957-3.742-4.171c-0.409-0.342-0.781-0.743-1.09-1.175
				c-1.092-1.526-2.419-2.85-3.646-4.26c-0.175-0.201-0.383-0.399-0.475-0.643c-0.392-1.048-1.25-1.71-1.958-2.508
				c-0.847-0.954-1.57-2.014-2.348-3.028c-0.259-0.337-0.488-0.706-0.791-1.001c-1.197-1.164-2.193-2.473-3.032-3.919
				c-0.455-0.783-1.075-1.462-1.598-2.205c-0.306-0.435-0.567-0.903-0.848-1.356c-0.112-0.181-0.185-0.405-0.342-0.535
				c-1.212-1.01-1.88-2.459-2.932-3.597c-0.324-0.35-0.616-0.729-0.917-1.099c-0.572-0.704-1.126-1.423-1.714-2.115
				c-0.865-1.018-1.193-2.459-2.07-3.467c-1.191-1.369-2.405-2.718-3.563-4.114c-1.399-1.686-2.746-3.414-4.122-5.12
				c-0.335-0.415-0.666-0.838-1.045-1.212c-1.755-1.734-3.316-3.635-4.861-5.548c-1.242-1.537-2.526-3.039-3.736-4.604
				c-0.585-0.757-1.173-1.503-1.72-2.292c-0.882-1.272-1.889-2.455-2.846-3.674c-1.121-1.428-2.227-2.867-3.371-4.276
				c-0.906-1.117-1.818-2.232-2.894-3.201c-0.3-0.27-0.655-0.379-1.073-0.318c-0.077,0.011-0.694,0.545-0.684,0.604
				c0.047,0.265,0.09,0.547,0.219,0.771c0.937,1.623,2.296,2.909,3.341,4.458c0.925,1.37,2.01,2.631,3.071,3.902
				c0.655,0.784,1.228,1.614,1.723,2.508c0.257,0.464,0.574,0.896,0.897,1.318c0.455,0.593,0.972,1.14,1.405,1.748
				c0.527,0.742,1.036,1.489,1.712,2.114c0.309,0.285,0.491,0.696,0.754,1.032c0.526,0.671,1.061,1.335,1.606,1.991
				c0.341,0.41,0.704,0.803,1.064,1.197c0.793,0.869,1.591,1.732,2.383,2.601c0.251,0.275,0.527,0.535,0.729,0.845
				c0.675,1.034,1.464,1.964,2.312,2.865c1.025,1.088,1.928,2.289,2.865,3.457c1.271,1.585,2.582,3.134,4.028,4.568
				c0.455,0.451,0.314,1.389,0.685,1.91c1.617,2.27,3.491,4.321,5.395,6.351c0.913,0.973,1.702,2.053,2.38,3.211
				c0.135,0.23,0.266,0.486,0.472,0.643c0.878,0.667,1.381,1.613,1.986,2.495c0.511,0.745,1.196,1.366,1.782,2.06
				c0.481,0.57,0.981,1.133,1.386,1.757c1.662,2.563,3.562,4.943,5.494,7.299c0.203,0.248,0.468,0.459,0.613,0.739
				c0.727,1.399,1.862,2.473,2.845,3.669c1.186,1.444,2.522,2.629,3.706,4.074c0.677,0.826,1.379,1.636,2.121,2.404
				c1.532,1.585,2.79,3.372,3.962,5.231c0.455,0.721,0.962,1.427,1.557,2.033c1.098,1.118,1.875,2.462,2.767,3.728
				c1.076,1.529,2.727,2.605,3.88,4.075c1.121,1.428,1.943,3.093,3.117,4.479c0.69,0.815,1.427,1.593,2.081,2.435
				c0.622,0.8,1.219,1.629,1.729,2.505c0.985,1.691,2.165,3.185,3.698,4.389c0.393,0.308,0.69,0.555,1.213,0.167
				c0.374-0.277,0.547-0.79,0.349-1.219c-0.179-0.388-0.388-0.771-0.655-1.099c-0.643-0.79-1.043-1.753-1.577-2.621
				C132.424-66.102,131.567-67.135,130.651-68.385z"/>
			<path style="fill:#A7A9AC;" d="M46.027-162.011c0.941,1.032,2.04,2.204,3.1,3.41c0.99,1.126,1.587,2.566,2.538,3.725
				c0.711,0.868,1.54,1.804,2.188,2.719c0.493,0.696,0.907,1.451,1.326,2.197c0.48,0.857,1.138,1.563,1.895,2.166
				c0.519,0.413,0.939,0.891,1.22,1.471c0.308,0.637,0.694,1.206,1.163,1.727c0.072,0.08,0.152,0.156,0.203,0.249
				c1.392,2.5,3.575,4.386,5.191,6.713c1.383,1.275,2.296,2.962,3.736,4.19c0.406,0.346,0.776,0.75,1.087,1.182
				c1.098,1.526,2.419,2.86,3.645,4.276c0.175,0.202,0.382,0.402,0.477,0.644c0.406,1.039,1.256,1.711,1.963,2.512
				c0.846,0.958,1.574,2.018,2.355,3.033c0.26,0.338,0.491,0.705,0.793,1.003c1.19,1.173,2.19,2.484,3.041,3.925
				c0.461,0.781,1.08,1.463,1.606,2.206c0.308,0.435,0.573,0.901,0.857,1.354c0.113,0.18,0.19,0.402,0.345,0.534
				c1.202,1.023,1.886,2.462,2.936,3.606c0.323,0.352,0.616,0.731,0.918,1.103c0.573,0.706,1.129,1.426,1.716,2.12
				c0.865,1.021,1.219,2.446,2.095,3.457c1.19,1.374,2.402,2.73,3.561,4.13c1.4,1.691,2.751,3.422,4.128,5.132
				c0.335,0.416,0.667,0.84,1.045,1.217c1.747,1.747,3.309,3.653,4.857,5.571c1.243,1.541,2.528,3.049,3.741,4.616
				c0.587,0.758,1.176,1.506,1.727,2.295c0.888,1.271,1.895,2.459,2.854,3.68c1.123,1.431,2.233,2.872,3.378,4.285
				c0.907,1.12,1.82,2.238,2.888,3.217c0.298,0.273,0.645,0.388,1.049,0.339c0.075-0.009,0.66-0.518,0.649-0.576
				c-0.052-0.262-0.101-0.54-0.232-0.763c-0.95-1.618-2.301-2.915-3.354-4.463c-0.931-1.369-2.017-2.635-3.078-3.909
				c-0.655-0.786-1.232-1.616-1.735-2.507c-0.261-0.463-0.58-0.895-0.904-1.317c-0.456-0.594-0.972-1.144-1.407-1.752
				c-0.53-0.742-1.043-1.488-1.714-2.119c-0.307-0.288-0.494-0.696-0.758-1.032c-0.527-0.672-1.063-1.338-1.609-1.996
				c-0.341-0.411-0.704-0.806-1.063-1.202c-0.791-0.873-1.587-1.741-2.378-2.614c-0.25-0.276-0.525-0.539-0.729-0.848
				c-0.681-1.033-1.47-1.966-2.315-2.872c-1.022-1.094-1.928-2.297-2.867-3.467c-1.273-1.589-2.584-3.143-4.024-4.587
				c-0.453-0.454-0.339-1.372-0.713-1.894c-1.626-2.27-3.495-4.332-5.394-6.373c-0.91-0.979-1.703-2.059-2.39-3.213
				c-0.136-0.229-0.27-0.484-0.474-0.643c-0.868-0.677-1.381-1.619-1.99-2.501c-0.515-0.744-1.195-1.371-1.781-2.068
				c-0.482-0.572-0.98-1.137-1.389-1.761c-1.677-2.559-3.58-4.945-5.515-7.307c-0.203-0.248-0.465-0.462-0.614-0.741
				c-0.74-1.392-1.869-2.475-2.852-3.675c-1.187-1.448-2.326-2.935-3.512-4.384c-0.678-0.828-1.379-1.641-2.119-2.415
				c-1.527-1.595-2.792-3.382-3.976-5.237c-0.459-0.72-0.969-1.425-1.562-2.036c-1.094-1.126-1.882-2.465-2.778-3.731
				c-1.082-1.528-2.712-2.627-3.868-4.099c-1.123-1.431-1.963-3.087-3.137-4.478c-0.69-0.818-1.425-1.6-2.081-2.444
				c-0.623-0.802-1.223-1.63-1.741-2.504c-0.998-1.685-2.181-3.183-3.699-4.403c-0.389-0.313-0.87-0.273-1.368,0.095
				c-0.356,0.263-0.099,0.278,0.104,0.704c0.184,0.385,0.396,0.768,0.664,1.096c0.644,0.792,1.056,1.748,1.596,2.614
				C44.249-164.298,45.107-163.261,46.027-162.011z"/>
		</g>
		<g>
			<path style="fill:#A7A9AC;" d="M89.651-68.385c-0.943-1.027-2.045-2.192-3.107-3.393c-0.991-1.121-1.569-2.572-2.519-3.728
				c-0.711-0.865-1.978-1.293-2.623-2.208c-0.49-0.696-0.897-1.454-1.309-2.203c-0.473-0.861-1.132-1.562-1.897-2.157
				c-0.524-0.407-0.945-0.883-1.219-1.466c-0.301-0.641-0.684-1.211-1.154-1.729c-0.072-0.079-0.152-0.155-0.203-0.248
				c-1.369-2.511-3.571-4.375-5.177-6.702c-1.392-1.262-2.29-2.957-3.742-4.171c-0.409-0.342-0.781-0.743-1.09-1.175
				c-1.092-1.526-2.419-2.85-3.646-4.26c-0.175-0.201-0.383-0.399-0.475-0.643c-0.392-1.048-1.25-1.71-1.958-2.508
				c-0.847-0.954-1.57-2.014-2.348-3.028c-0.259-0.337-0.488-0.706-0.791-1.001c-1.197-1.164-2.193-2.473-3.032-3.919
				c-0.454-0.783-1.075-1.462-1.598-2.205c-0.306-0.435-0.567-0.903-0.848-1.356c-0.112-0.181-0.185-0.405-0.342-0.535
				c-1.212-1.01-1.88-2.459-2.932-3.597c-0.324-0.35-0.616-0.729-0.917-1.099c-0.572-0.704-1.126-1.423-1.714-2.115
				c-0.865-1.018-1.193-2.459-2.07-3.467c-1.191-1.369-2.405-2.718-3.563-4.114c-1.399-1.686-2.746-3.414-4.122-5.12
				c-0.335-0.415-0.666-0.838-1.046-1.212c-1.755-1.734-3.316-3.635-4.861-5.548c-1.242-1.537-2.526-3.039-3.736-4.604
				c-0.585-0.757-1.173-1.503-1.72-2.292c-0.882-1.272-1.889-2.455-2.846-3.674c-1.121-1.428-2.227-2.867-3.371-4.276
				c-0.906-1.117-1.818-2.232-2.894-3.201c-0.3-0.27-0.655-0.379-1.073-0.318c-0.077,0.011-0.694,0.545-0.684,0.604
				c0.046,0.265,0.09,0.547,0.219,0.771c0.937,1.623,2.296,2.909,3.341,4.458c0.925,1.37,2.01,2.631,3.072,3.902
				c0.655,0.784,1.228,1.614,1.723,2.508c0.257,0.464,0.574,0.896,0.897,1.318c0.455,0.593,0.972,1.14,1.405,1.748
				c0.528,0.742,1.036,1.489,1.712,2.114c0.309,0.285,0.491,0.696,0.754,1.032c0.526,0.671,1.061,1.335,1.606,1.991
				c0.341,0.41,0.704,0.803,1.064,1.197c0.793,0.869,1.591,1.732,2.383,2.601c0.251,0.275,0.527,0.535,0.729,0.845
				c0.675,1.034,1.464,1.964,2.312,2.865c1.025,1.088,1.928,2.289,2.865,3.457c1.271,1.585,2.582,3.134,4.028,4.568
				c0.455,0.451,0.314,1.389,0.685,1.91c1.617,2.27,3.491,4.321,5.395,6.351c0.913,0.973,1.702,2.053,2.38,3.211
				c0.135,0.23,0.266,0.486,0.472,0.643c0.878,0.667,1.381,1.613,1.986,2.495c0.511,0.745,1.196,1.366,1.782,2.06
				c0.481,0.57,0.981,1.133,1.386,1.757c1.662,2.563,3.562,4.943,5.494,7.299c0.203,0.248,0.468,0.459,0.613,0.739
				c0.727,1.399,1.862,2.473,2.845,3.669c1.186,1.444,2.522,2.629,3.706,4.074c0.677,0.826,1.378,1.636,2.121,2.404
				c1.532,1.585,2.79,3.372,3.962,5.231c0.455,0.721,0.962,1.427,1.557,2.033c1.098,1.118,1.875,2.462,2.767,3.728
				c1.076,1.529,2.727,2.605,3.88,4.075c1.121,1.428,1.943,3.093,3.117,4.479c0.69,0.815,1.427,1.593,2.081,2.435
				c0.622,0.8,1.219,1.629,1.729,2.505c0.985,1.691,2.165,3.185,3.698,4.389c0.393,0.308,0.69,0.555,1.213,0.167
				c0.374-0.277,0.547-0.79,0.349-1.219c-0.179-0.388-0.388-0.771-0.655-1.099c-0.644-0.79-1.043-1.753-1.577-2.621
				C91.424-66.102,90.567-67.135,89.651-68.385z"/>
			<path style="fill:#A7A9AC;" d="M5.027-162.011c0.941,1.032,2.04,2.204,3.1,3.41c0.99,1.126,1.587,2.566,2.538,3.725
				c0.712,0.868,1.54,1.804,2.188,2.719c0.493,0.696,0.907,1.451,1.326,2.197c0.48,0.857,1.138,1.563,1.895,2.166
				c0.519,0.413,0.939,0.891,1.22,1.471c0.308,0.637,0.694,1.206,1.163,1.727c0.072,0.08,0.152,0.156,0.203,0.249
				c1.392,2.5,3.575,4.386,5.191,6.713c1.383,1.275,2.296,2.962,3.736,4.19c0.406,0.346,0.776,0.75,1.087,1.182
				c1.098,1.526,2.419,2.86,3.645,4.276c0.175,0.202,0.382,0.402,0.477,0.644c0.406,1.039,1.256,1.711,1.963,2.512
				c0.846,0.958,1.574,2.018,2.355,3.033c0.26,0.338,0.491,0.705,0.793,1.003c1.19,1.173,2.19,2.484,3.041,3.925
				c0.461,0.781,1.08,1.463,1.606,2.206c0.308,0.435,0.573,0.901,0.857,1.354c0.113,0.18,0.19,0.402,0.345,0.534
				c1.202,1.023,1.886,2.462,2.936,3.606c0.323,0.352,0.616,0.731,0.918,1.103c0.573,0.706,1.129,1.426,1.716,2.12
				c0.865,1.021,1.219,2.446,2.095,3.457c1.19,1.374,2.402,2.73,3.561,4.13c1.4,1.691,2.751,3.422,4.128,5.132
				c0.336,0.416,0.667,0.84,1.045,1.217c1.747,1.747,3.309,3.653,4.857,5.571c1.243,1.541,2.528,3.049,3.741,4.616
				c0.587,0.758,1.176,1.506,1.727,2.295c0.888,1.271,1.895,2.459,2.854,3.68c1.123,1.431,2.233,2.872,3.378,4.285
				c0.907,1.12,1.82,2.238,2.888,3.217c0.298,0.273,0.645,0.388,1.049,0.339c0.075-0.009,0.66-0.518,0.649-0.576
				c-0.052-0.262-0.101-0.54-0.232-0.763c-0.95-1.618-2.301-2.915-3.354-4.463c-0.932-1.369-2.017-2.635-3.078-3.909
				c-0.655-0.786-1.232-1.616-1.735-2.507c-0.261-0.463-0.58-0.895-0.904-1.317c-0.456-0.594-0.972-1.144-1.407-1.752
				c-0.531-0.742-1.043-1.488-1.715-2.119c-0.307-0.288-0.494-0.696-0.757-1.032c-0.527-0.672-1.063-1.338-1.609-1.996
				c-0.341-0.411-0.704-0.806-1.063-1.202c-0.791-0.873-1.587-1.741-2.378-2.614c-0.25-0.276-0.525-0.539-0.729-0.848
				c-0.681-1.033-1.47-1.966-2.316-2.872c-1.022-1.094-1.928-2.297-2.866-3.467c-1.273-1.589-2.584-3.143-4.024-4.587
				c-0.453-0.454-0.339-1.372-0.713-1.894c-1.626-2.27-3.495-4.332-5.394-6.373c-0.91-0.979-1.703-2.059-2.39-3.213
				c-0.136-0.229-0.27-0.484-0.474-0.643c-0.869-0.677-1.381-1.619-1.99-2.501c-0.515-0.744-1.195-1.371-1.781-2.068
				c-0.481-0.572-0.98-1.137-1.389-1.761c-1.678-2.559-3.58-4.945-5.515-7.307c-0.204-0.248-0.465-0.462-0.614-0.741
				c-0.74-1.392-1.869-2.475-2.852-3.675c-1.187-1.448-2.326-2.935-3.512-4.384c-0.678-0.828-1.379-1.641-2.119-2.415
				c-1.527-1.595-2.792-3.382-3.976-5.237c-0.459-0.72-0.969-1.425-1.562-2.036c-1.094-1.126-1.882-2.465-2.778-3.731
				c-1.082-1.528-2.712-2.627-3.868-4.099c-1.123-1.431-1.963-3.087-3.137-4.478c-0.69-0.818-1.425-1.6-2.081-2.444
				c-0.623-0.802-1.223-1.63-1.741-2.504c-0.998-1.685-2.181-3.183-3.699-4.403c-0.389-0.313-0.87-0.273-1.368,0.095
				c-0.356,0.263-0.099,0.278,0.105,0.704c0.184,0.385,0.396,0.768,0.664,1.096c0.644,0.792,1.056,1.748,1.596,2.614
				C3.249-164.298,4.108-163.261,5.027-162.011z"/>
		</g>
		<g>
			<path style="fill:#A7A9AC;" d="M171.651-102.385c-0.943-1.027-2.045-2.192-3.107-3.393c-0.991-1.121-1.569-2.572-2.519-3.728
				c-0.711-0.865-1.978-1.293-2.623-2.208c-0.49-0.696-0.897-1.454-1.309-2.203c-0.473-0.861-1.132-1.562-1.897-2.157
				c-0.524-0.407-0.945-0.883-1.219-1.466c-0.301-0.641-0.684-1.211-1.154-1.729c-0.072-0.079-0.152-0.155-0.203-0.248
				c-1.369-2.511-3.571-4.375-5.177-6.702c-1.392-1.262-2.29-2.957-3.742-4.171c-0.409-0.342-0.781-0.743-1.09-1.175
				c-1.092-1.526-2.419-2.85-3.646-4.26c-0.175-0.201-0.383-0.399-0.475-0.643c-0.392-1.048-1.25-1.71-1.958-2.508
				c-0.847-0.954-1.57-2.014-2.348-3.028c-0.259-0.337-0.488-0.706-0.791-1.001c-1.197-1.164-2.193-2.473-3.032-3.919
				c-0.454-0.783-1.075-1.462-1.598-2.205c-0.306-0.435-0.567-0.903-0.848-1.356c-0.112-0.181-0.185-0.405-0.342-0.535
				c-1.212-1.01-1.88-2.459-2.932-3.597c-0.324-0.35-0.616-0.729-0.917-1.099c-0.572-0.704-1.126-1.423-1.714-2.115
				c-0.865-1.018-1.193-2.459-2.07-3.467c-1.191-1.369-2.405-2.718-3.563-4.114c-1.399-1.686-2.746-3.414-4.122-5.12
				c-0.335-0.415-0.666-0.838-1.046-1.212c-1.755-1.734-3.316-3.635-4.861-5.548c-1.242-1.537-2.526-3.039-3.736-4.604
				c-0.585-0.757-1.173-1.503-1.72-2.292c-0.882-1.272-1.89-2.455-2.846-3.674c-1.121-1.428-2.227-2.867-3.371-4.276
				c-0.906-1.117-1.818-2.232-2.894-3.201c-0.3-0.27-0.655-0.379-1.073-0.318c-0.077,0.011-0.694,0.545-0.684,0.604
				c0.047,0.265,0.09,0.547,0.219,0.771c0.937,1.623,2.296,2.909,3.341,4.458c0.925,1.37,2.01,2.631,3.072,3.902
				c0.655,0.784,1.228,1.614,1.723,2.508c0.257,0.464,0.574,0.896,0.897,1.318c0.455,0.593,0.972,1.14,1.405,1.748
				c0.527,0.742,1.036,1.489,1.712,2.114c0.309,0.285,0.491,0.696,0.754,1.032c0.526,0.671,1.061,1.335,1.606,1.991
				c0.341,0.41,0.704,0.803,1.064,1.197c0.793,0.869,1.591,1.732,2.383,2.601c0.251,0.275,0.527,0.535,0.729,0.845
				c0.675,1.034,1.464,1.964,2.312,2.865c1.025,1.088,1.928,2.289,2.865,3.457c1.271,1.585,2.582,3.134,4.028,4.568
				c0.455,0.451,0.314,1.389,0.685,1.91c1.617,2.27,3.491,4.321,5.395,6.351c0.913,0.973,1.702,2.053,2.38,3.21
				c0.135,0.23,0.266,0.486,0.472,0.643c0.878,0.667,1.381,1.613,1.986,2.495c0.511,0.745,1.196,1.366,1.782,2.06
				c0.481,0.57,0.981,1.133,1.386,1.757c1.662,2.563,3.562,4.943,5.495,7.299c0.203,0.248,0.468,0.459,0.613,0.739
				c0.727,1.399,1.862,2.473,2.845,3.669c1.186,1.444,2.522,2.629,3.706,4.074c0.677,0.826,1.378,1.636,2.121,2.404
				c1.532,1.585,2.79,3.372,3.962,5.231c0.455,0.721,0.962,1.427,1.557,2.033c1.098,1.118,1.875,2.462,2.767,3.728
				c1.076,1.528,2.727,2.605,3.88,4.075c1.121,1.428,1.943,3.093,3.117,4.479c0.69,0.815,1.427,1.593,2.081,2.435
				c0.622,0.8,1.219,1.629,1.729,2.505c0.985,1.691,2.165,3.185,3.698,4.389c0.393,0.308,0.69,0.555,1.213,0.167
				c0.374-0.277,0.547-0.79,0.349-1.219c-0.179-0.388-0.388-0.771-0.655-1.099c-0.643-0.79-1.043-1.753-1.577-2.621
				C173.424-100.102,172.567-101.135,171.651-102.385z"/>
			<path style="fill:#A7A9AC;" d="M87.027-196.011c0.941,1.032,2.04,2.204,3.1,3.41c0.99,1.126,1.587,2.566,2.538,3.725
				c0.712,0.868,1.54,1.804,2.188,2.719c0.493,0.696,0.907,1.451,1.326,2.197c0.48,0.857,1.138,1.563,1.895,2.166
				c0.519,0.413,0.939,0.891,1.22,1.471c0.308,0.637,0.694,1.206,1.163,1.727c0.072,0.08,0.152,0.156,0.203,0.249
				c1.392,2.5,3.575,4.386,5.191,6.713c1.383,1.275,2.296,2.962,3.736,4.19c0.406,0.346,0.776,0.75,1.087,1.182
				c1.098,1.526,2.419,2.86,3.645,4.276c0.175,0.202,0.382,0.402,0.477,0.644c0.406,1.039,1.256,1.711,1.963,2.512
				c0.846,0.958,1.574,2.018,2.355,3.033c0.26,0.338,0.491,0.705,0.793,1.003c1.191,1.173,2.19,2.484,3.041,3.925
				c0.461,0.781,1.08,1.463,1.606,2.206c0.308,0.435,0.573,0.901,0.857,1.354c0.113,0.18,0.19,0.402,0.345,0.534
				c1.202,1.023,1.886,2.462,2.936,3.606c0.323,0.352,0.616,0.731,0.918,1.103c0.573,0.706,1.129,1.426,1.716,2.12
				c0.865,1.021,1.219,2.445,2.095,3.457c1.19,1.374,2.402,2.73,3.561,4.13c1.4,1.691,2.751,3.422,4.128,5.132
				c0.336,0.416,0.668,0.84,1.045,1.217c1.747,1.747,3.309,3.653,4.857,5.571c1.243,1.541,2.528,3.049,3.741,4.616
				c0.587,0.758,1.176,1.506,1.727,2.295c0.888,1.271,1.895,2.459,2.854,3.68c1.123,1.43,2.233,2.872,3.378,4.285
				c0.907,1.12,1.82,2.238,2.889,3.217c0.298,0.273,0.645,0.388,1.049,0.339c0.075-0.009,0.66-0.518,0.649-0.576
				c-0.052-0.261-0.101-0.54-0.232-0.763c-0.95-1.618-2.301-2.915-3.354-4.463c-0.932-1.369-2.017-2.635-3.078-3.909
				c-0.655-0.786-1.232-1.616-1.735-2.507c-0.261-0.463-0.58-0.895-0.904-1.317c-0.456-0.594-0.972-1.144-1.407-1.753
				c-0.531-0.742-1.043-1.488-1.715-2.119c-0.307-0.288-0.494-0.696-0.757-1.032c-0.527-0.672-1.063-1.338-1.609-1.996
				c-0.341-0.411-0.704-0.806-1.063-1.202c-0.791-0.873-1.587-1.741-2.378-2.614c-0.251-0.276-0.525-0.539-0.729-0.848
				c-0.681-1.033-1.47-1.966-2.316-2.872c-1.022-1.094-1.928-2.297-2.867-3.467c-1.273-1.589-2.584-3.143-4.024-4.587
				c-0.453-0.454-0.339-1.372-0.713-1.894c-1.626-2.27-3.495-4.332-5.394-6.373c-0.91-0.979-1.703-2.059-2.39-3.213
				c-0.136-0.229-0.27-0.484-0.474-0.643c-0.868-0.677-1.381-1.619-1.99-2.501c-0.515-0.744-1.195-1.371-1.781-2.068
				c-0.481-0.572-0.98-1.137-1.389-1.761c-1.677-2.559-3.58-4.945-5.515-7.307c-0.203-0.248-0.465-0.462-0.613-0.741
				c-0.74-1.392-1.869-2.475-2.852-3.675c-1.187-1.448-2.326-2.935-3.512-4.384c-0.678-0.828-1.379-1.641-2.119-2.415
				c-1.527-1.595-2.792-3.382-3.976-5.237c-0.459-0.72-0.969-1.425-1.562-2.036c-1.094-1.126-1.882-2.465-2.778-3.731
				c-1.082-1.528-2.712-2.627-3.868-4.099c-1.123-1.431-1.963-3.087-3.137-4.478c-0.69-0.818-1.425-1.6-2.081-2.444
				c-0.623-0.802-1.223-1.63-1.741-2.504c-0.998-1.685-2.181-3.183-3.699-4.403c-0.389-0.313-0.87-0.273-1.368,0.095
				c-0.356,0.263-0.099,0.278,0.104,0.704c0.184,0.385,0.396,0.768,0.664,1.096c0.644,0.792,1.056,1.748,1.596,2.614
				C85.249-198.298,86.107-197.261,87.027-196.011z"/>
		</g>
		<g>
			<path style="fill:#A7A9AC;" d="M130.651-102.385c-0.943-1.027-2.045-2.192-3.107-3.393c-0.991-1.121-1.569-2.572-2.519-3.728
				c-0.711-0.865-1.978-1.293-2.622-2.208c-0.49-0.696-0.897-1.454-1.309-2.203c-0.473-0.861-1.132-1.562-1.897-2.157
				c-0.524-0.407-0.945-0.883-1.219-1.466c-0.301-0.641-0.684-1.211-1.153-1.729c-0.072-0.079-0.152-0.155-0.203-0.248
				c-1.37-2.511-3.571-4.375-5.177-6.702c-1.392-1.262-2.29-2.957-3.742-4.171c-0.409-0.342-0.781-0.743-1.09-1.175
				c-1.092-1.526-2.419-2.85-3.646-4.26c-0.175-0.201-0.383-0.399-0.475-0.643c-0.392-1.048-1.25-1.71-1.958-2.508
				c-0.847-0.954-1.57-2.014-2.348-3.028c-0.259-0.337-0.488-0.706-0.791-1.001c-1.197-1.164-2.193-2.473-3.032-3.919
				c-0.455-0.783-1.075-1.462-1.598-2.205c-0.306-0.435-0.567-0.903-0.848-1.356c-0.112-0.181-0.185-0.405-0.342-0.535
				c-1.212-1.01-1.88-2.459-2.932-3.597c-0.324-0.35-0.616-0.729-0.917-1.099c-0.572-0.704-1.126-1.423-1.714-2.115
				c-0.865-1.018-1.193-2.459-2.07-3.467c-1.191-1.369-2.405-2.718-3.563-4.114c-1.399-1.686-2.746-3.414-4.122-5.12
				c-0.335-0.415-0.666-0.838-1.045-1.212c-1.755-1.734-3.316-3.635-4.861-5.548c-1.242-1.537-2.526-3.039-3.736-4.604
				c-0.585-0.757-1.173-1.503-1.72-2.292c-0.882-1.272-1.889-2.455-2.846-3.674c-1.121-1.428-2.227-2.867-3.371-4.276
				c-0.906-1.117-1.818-2.232-2.894-3.201c-0.3-0.27-0.655-0.379-1.073-0.318c-0.077,0.011-0.694,0.545-0.684,0.604
				c0.047,0.265,0.09,0.547,0.219,0.771c0.937,1.623,2.296,2.909,3.341,4.458c0.925,1.37,2.01,2.631,3.071,3.902
				c0.655,0.784,1.228,1.614,1.723,2.508c0.257,0.464,0.574,0.896,0.897,1.318c0.455,0.593,0.972,1.14,1.405,1.748
				c0.527,0.742,1.036,1.489,1.712,2.114c0.309,0.285,0.491,0.696,0.754,1.032c0.526,0.671,1.061,1.335,1.606,1.991
				c0.341,0.41,0.704,0.803,1.064,1.197c0.793,0.869,1.591,1.732,2.383,2.601c0.251,0.275,0.527,0.535,0.729,0.845
				c0.675,1.034,1.464,1.964,2.312,2.865c1.025,1.088,1.928,2.289,2.865,3.457c1.271,1.585,2.582,3.134,4.028,4.568
				c0.455,0.451,0.314,1.389,0.685,1.91c1.617,2.27,3.491,4.321,5.395,6.351c0.913,0.973,1.702,2.053,2.38,3.21
				c0.135,0.23,0.266,0.486,0.472,0.643c0.878,0.667,1.381,1.613,1.986,2.495c0.511,0.745,1.196,1.366,1.782,2.06
				c0.481,0.57,0.981,1.133,1.386,1.757c1.662,2.563,3.562,4.943,5.494,7.299c0.203,0.248,0.468,0.459,0.613,0.739
				c0.727,1.399,1.862,2.473,2.845,3.669c1.186,1.444,2.522,2.629,3.706,4.074c0.677,0.826,1.379,1.636,2.121,2.404
				c1.532,1.585,2.79,3.372,3.962,5.231c0.455,0.721,0.962,1.427,1.557,2.033c1.098,1.118,1.875,2.462,2.767,3.728
				c1.076,1.528,2.727,2.605,3.88,4.075c1.121,1.428,1.943,3.093,3.117,4.479c0.69,0.815,1.427,1.593,2.081,2.435
				c0.622,0.8,1.219,1.629,1.729,2.505c0.985,1.691,2.165,3.185,3.698,4.389c0.393,0.308,0.69,0.555,1.213,0.167
				c0.374-0.277,0.547-0.79,0.349-1.219c-0.179-0.388-0.388-0.771-0.655-1.099c-0.643-0.79-1.043-1.753-1.577-2.621
				C132.424-100.102,131.567-101.135,130.651-102.385z"/>
			<path style="fill:#A7A9AC;" d="M46.027-196.011c0.941,1.032,2.04,2.204,3.1,3.41c0.99,1.126,1.587,2.566,2.538,3.725
				c0.711,0.868,1.54,1.804,2.188,2.719c0.493,0.696,0.907,1.451,1.326,2.197c0.48,0.857,1.138,1.563,1.895,2.166
				c0.519,0.413,0.939,0.891,1.22,1.471c0.308,0.637,0.694,1.206,1.163,1.727c0.072,0.08,0.152,0.156,0.203,0.249
				c1.392,2.5,3.575,4.386,5.191,6.713c1.383,1.275,2.296,2.962,3.736,4.19c0.406,0.346,0.776,0.75,1.087,1.182
				c1.098,1.526,2.419,2.86,3.645,4.276c0.175,0.202,0.382,0.402,0.477,0.644c0.406,1.039,1.256,1.711,1.963,2.512
				c0.846,0.958,1.574,2.018,2.355,3.033c0.26,0.338,0.491,0.705,0.793,1.003c1.19,1.173,2.19,2.484,3.041,3.925
				c0.461,0.781,1.08,1.463,1.606,2.206c0.308,0.435,0.573,0.901,0.857,1.354c0.113,0.18,0.19,0.402,0.345,0.534
				c1.202,1.023,1.886,2.462,2.936,3.606c0.323,0.352,0.616,0.731,0.918,1.103c0.573,0.706,1.129,1.426,1.716,2.12
				c0.865,1.021,1.219,2.445,2.095,3.457c1.19,1.374,2.402,2.73,3.561,4.13c1.4,1.691,2.751,3.422,4.128,5.132
				c0.335,0.416,0.667,0.84,1.045,1.217c1.747,1.747,3.309,3.653,4.857,5.571c1.243,1.541,2.528,3.049,3.741,4.616
				c0.587,0.758,1.176,1.506,1.727,2.295c0.888,1.271,1.895,2.459,2.854,3.68c1.123,1.43,2.233,2.872,3.378,4.285
				c0.907,1.12,1.82,2.238,2.888,3.217c0.298,0.273,0.645,0.388,1.049,0.339c0.075-0.009,0.66-0.518,0.649-0.576
				c-0.052-0.261-0.101-0.54-0.232-0.763c-0.95-1.618-2.301-2.915-3.354-4.463c-0.931-1.369-2.017-2.635-3.078-3.909
				c-0.655-0.786-1.232-1.616-1.735-2.507c-0.261-0.463-0.58-0.895-0.904-1.317c-0.456-0.594-0.972-1.144-1.407-1.753
				c-0.53-0.742-1.043-1.488-1.714-2.119c-0.307-0.288-0.494-0.696-0.758-1.032c-0.527-0.672-1.063-1.338-1.609-1.996
				c-0.341-0.411-0.704-0.806-1.063-1.202c-0.791-0.873-1.587-1.741-2.378-2.614c-0.25-0.276-0.525-0.539-0.729-0.848
				c-0.681-1.033-1.47-1.966-2.315-2.872c-1.022-1.094-1.928-2.297-2.867-3.467c-1.273-1.589-2.584-3.143-4.024-4.587
				c-0.453-0.454-0.339-1.372-0.713-1.894c-1.626-2.27-3.495-4.332-5.394-6.373c-0.91-0.979-1.703-2.059-2.39-3.213
				c-0.136-0.229-0.27-0.484-0.474-0.643c-0.868-0.677-1.381-1.619-1.99-2.501c-0.515-0.744-1.195-1.371-1.781-2.068
				c-0.482-0.572-0.98-1.137-1.389-1.761c-1.677-2.559-3.58-4.945-5.515-7.307c-0.203-0.248-0.465-0.462-0.614-0.741
				c-0.74-1.392-1.869-2.475-2.852-3.675c-1.187-1.448-2.326-2.935-3.512-4.384c-0.678-0.828-1.379-1.641-2.119-2.415
				c-1.527-1.595-2.792-3.382-3.976-5.237c-0.459-0.72-0.969-1.425-1.562-2.036c-1.094-1.126-1.882-2.465-2.778-3.731
				c-1.082-1.528-2.712-2.627-3.868-4.099c-1.123-1.431-1.963-3.087-3.137-4.478c-0.69-0.818-1.425-1.6-2.081-2.444
				c-0.623-0.802-1.223-1.63-1.741-2.504c-0.998-1.685-2.181-3.183-3.699-4.403c-0.389-0.313-0.87-0.273-1.368,0.095
				c-0.356,0.263-0.099,0.278,0.104,0.704c0.184,0.385,0.396,0.768,0.664,1.096c0.644,0.792,1.056,1.748,1.596,2.614
				C44.249-198.298,45.107-197.261,46.027-196.011z"/>
		</g>
		<g>
			<path style="fill:#A7A9AC;" d="M89.651-102.385c-0.943-1.027-2.045-2.192-3.107-3.393c-0.991-1.121-1.569-2.572-2.519-3.728
				c-0.711-0.865-1.978-1.293-2.623-2.208c-0.49-0.696-0.897-1.454-1.309-2.203c-0.473-0.861-1.132-1.562-1.897-2.157
				c-0.524-0.407-0.945-0.883-1.219-1.466c-0.301-0.641-0.684-1.211-1.154-1.729c-0.072-0.079-0.152-0.155-0.203-0.248
				c-1.369-2.511-3.571-4.375-5.177-6.702c-1.392-1.262-2.29-2.957-3.742-4.171c-0.409-0.342-0.781-0.743-1.09-1.175
				c-1.092-1.526-2.419-2.85-3.646-4.26c-0.175-0.201-0.383-0.399-0.475-0.643c-0.392-1.048-1.25-1.71-1.958-2.508
				c-0.847-0.954-1.57-2.014-2.348-3.028c-0.259-0.337-0.488-0.706-0.791-1.001c-1.197-1.164-2.193-2.473-3.032-3.919
				c-0.454-0.783-1.075-1.462-1.598-2.205c-0.306-0.435-0.567-0.903-0.848-1.356c-0.112-0.181-0.185-0.405-0.342-0.535
				c-1.212-1.01-1.88-2.459-2.932-3.597c-0.324-0.35-0.616-0.729-0.917-1.099c-0.572-0.704-1.126-1.423-1.714-2.115
				c-0.865-1.018-1.193-2.459-2.07-3.467c-1.191-1.369-2.405-2.718-3.563-4.114c-1.399-1.686-2.746-3.414-4.122-5.12
				c-0.335-0.415-0.666-0.838-1.046-1.212c-1.755-1.734-3.316-3.635-4.861-5.548c-1.242-1.537-2.526-3.039-3.736-4.604
				c-0.585-0.757-1.173-1.503-1.72-2.292c-0.882-1.272-1.889-2.455-2.846-3.674c-1.121-1.428-2.227-2.867-3.371-4.276
				c-0.906-1.117-1.818-2.232-2.894-3.201c-0.3-0.27-0.655-0.379-1.073-0.318c-0.077,0.011-0.694,0.545-0.684,0.604
				c0.046,0.265,0.09,0.547,0.219,0.771c0.937,1.623,2.296,2.909,3.341,4.458c0.925,1.37,2.01,2.631,3.072,3.902
				c0.655,0.784,1.228,1.614,1.723,2.508c0.257,0.464,0.574,0.896,0.897,1.318c0.455,0.593,0.972,1.14,1.405,1.748
				c0.528,0.742,1.036,1.489,1.712,2.114c0.309,0.285,0.491,0.696,0.754,1.032c0.526,0.671,1.061,1.335,1.606,1.991
				c0.341,0.41,0.704,0.803,1.064,1.197c0.793,0.869,1.591,1.732,2.383,2.601c0.251,0.275,0.527,0.535,0.729,0.845
				c0.675,1.034,1.464,1.964,2.312,2.865c1.025,1.088,1.928,2.289,2.865,3.457c1.271,1.585,2.582,3.134,4.028,4.568
				c0.455,0.451,0.314,1.389,0.685,1.91c1.617,2.27,3.491,4.321,5.395,6.351c0.913,0.973,1.702,2.053,2.38,3.21
				c0.135,0.23,0.266,0.486,0.472,0.643c0.878,0.667,1.381,1.613,1.986,2.495c0.511,0.745,1.196,1.366,1.782,2.06
				c0.481,0.57,0.981,1.133,1.386,1.757c1.662,2.563,3.562,4.943,5.494,7.299c0.203,0.248,0.468,0.459,0.613,0.739
				c0.727,1.399,1.862,2.473,2.845,3.669c1.186,1.444,2.522,2.629,3.706,4.074c0.677,0.826,1.378,1.636,2.121,2.404
				c1.532,1.585,2.79,3.372,3.962,5.231c0.455,0.721,0.962,1.427,1.557,2.033c1.098,1.118,1.875,2.462,2.767,3.728
				c1.076,1.528,2.727,2.605,3.88,4.075c1.121,1.428,1.943,3.093,3.117,4.479c0.69,0.815,1.427,1.593,2.081,2.435
				c0.622,0.8,1.219,1.629,1.729,2.505c0.985,1.691,2.165,3.185,3.698,4.389c0.393,0.308,0.69,0.555,1.213,0.167
				c0.374-0.277,0.547-0.79,0.349-1.219c-0.179-0.388-0.388-0.771-0.655-1.099c-0.644-0.79-1.043-1.753-1.577-2.621
				C91.424-100.102,90.567-101.135,89.651-102.385z"/>
			<path style="fill:#A7A9AC;" d="M5.027-196.011c0.941,1.032,2.04,2.204,3.1,3.41c0.99,1.126,1.587,2.566,2.538,3.725
				c0.712,0.868,1.54,1.804,2.188,2.719c0.493,0.696,0.907,1.451,1.326,2.197c0.48,0.857,1.138,1.563,1.895,2.166
				c0.519,0.413,0.939,0.891,1.22,1.471c0.308,0.637,0.694,1.206,1.163,1.727c0.072,0.08,0.152,0.156,0.203,0.249
				c1.392,2.5,3.575,4.386,5.191,6.713c1.383,1.275,2.296,2.962,3.736,4.19c0.406,0.346,0.776,0.75,1.087,1.182
				c1.098,1.526,2.419,2.86,3.645,4.276c0.175,0.202,0.382,0.402,0.477,0.644c0.406,1.039,1.256,1.711,1.963,2.512
				c0.846,0.958,1.574,2.018,2.355,3.033c0.26,0.338,0.491,0.705,0.793,1.003c1.19,1.173,2.19,2.484,3.041,3.925
				c0.461,0.781,1.08,1.463,1.606,2.206c0.308,0.435,0.573,0.901,0.857,1.354c0.113,0.18,0.19,0.402,0.345,0.534
				c1.202,1.023,1.886,2.462,2.936,3.606c0.323,0.352,0.616,0.731,0.918,1.103c0.573,0.706,1.129,1.426,1.716,2.12
				c0.865,1.021,1.219,2.445,2.095,3.457c1.19,1.374,2.402,2.73,3.561,4.13c1.4,1.691,2.751,3.422,4.128,5.132
				c0.336,0.416,0.667,0.84,1.045,1.217c1.747,1.747,3.309,3.653,4.857,5.571c1.243,1.541,2.528,3.049,3.741,4.616
				c0.587,0.758,1.176,1.506,1.727,2.295c0.888,1.271,1.895,2.459,2.854,3.68c1.123,1.43,2.233,2.872,3.378,4.285
				c0.907,1.12,1.82,2.238,2.888,3.217c0.298,0.273,0.645,0.388,1.049,0.339c0.075-0.009,0.66-0.518,0.649-0.576
				c-0.052-0.261-0.101-0.54-0.232-0.763c-0.95-1.618-2.301-2.915-3.354-4.463c-0.932-1.369-2.017-2.635-3.078-3.909
				c-0.655-0.786-1.232-1.616-1.735-2.507c-0.261-0.463-0.58-0.895-0.904-1.317c-0.456-0.594-0.972-1.144-1.407-1.753
				c-0.531-0.742-1.043-1.488-1.715-2.119c-0.307-0.288-0.494-0.696-0.757-1.032c-0.527-0.672-1.063-1.338-1.609-1.996
				c-0.341-0.411-0.704-0.806-1.063-1.202c-0.791-0.873-1.587-1.741-2.378-2.614c-0.25-0.276-0.525-0.539-0.729-0.848
				c-0.681-1.033-1.47-1.966-2.316-2.872c-1.022-1.094-1.928-2.297-2.866-3.467c-1.273-1.589-2.584-3.143-4.024-4.587
				c-0.453-0.454-0.339-1.372-0.713-1.894c-1.626-2.27-3.495-4.332-5.394-6.373c-0.91-0.979-1.703-2.059-2.39-3.213
				c-0.136-0.229-0.27-0.484-0.474-0.643c-0.869-0.677-1.381-1.619-1.99-2.501c-0.515-0.744-1.195-1.371-1.781-2.068
				c-0.481-0.572-0.98-1.137-1.389-1.761c-1.678-2.559-3.58-4.945-5.515-7.307c-0.204-0.248-0.465-0.462-0.614-0.741
				c-0.74-1.392-1.869-2.475-2.852-3.675c-1.187-1.448-2.326-2.935-3.512-4.384c-0.678-0.828-1.379-1.641-2.119-2.415
				c-1.527-1.595-2.792-3.382-3.976-5.237c-0.459-0.72-0.969-1.425-1.562-2.036c-1.094-1.126-1.882-2.465-2.778-3.731
				c-1.082-1.528-2.712-2.627-3.868-4.099c-1.123-1.431-1.963-3.087-3.137-4.478c-0.69-0.818-1.425-1.6-2.081-2.444
				c-0.623-0.802-1.223-1.63-1.741-2.504c-0.998-1.685-2.181-3.183-3.699-4.403c-0.389-0.313-0.87-0.273-1.368,0.095
				c-0.356,0.263-0.099,0.278,0.105,0.704c0.184,0.385,0.396,0.768,0.664,1.096c0.644,0.792,1.056,1.748,1.596,2.614
				C3.249-198.298,4.108-197.261,5.027-196.011z"/>
		</g>
		<g>
			<path style="fill:#A7A9AC;" d="M171.651-136.385c-0.943-1.027-2.045-2.192-3.107-3.393c-0.991-1.121-1.569-2.572-2.519-3.728
				c-0.711-0.865-1.978-1.293-2.623-2.208c-0.49-0.696-0.897-1.454-1.309-2.203c-0.473-0.861-1.132-1.562-1.897-2.157
				c-0.524-0.407-0.945-0.883-1.219-1.466c-0.301-0.641-0.684-1.211-1.154-1.729c-0.072-0.079-0.152-0.155-0.203-0.248
				c-1.369-2.511-3.571-4.375-5.177-6.702c-1.392-1.262-2.29-2.957-3.742-4.171c-0.409-0.342-0.781-0.743-1.09-1.175
				c-1.092-1.526-2.419-2.85-3.646-4.26c-0.175-0.201-0.383-0.399-0.475-0.643c-0.392-1.048-1.25-1.71-1.958-2.508
				c-0.847-0.954-1.57-2.014-2.348-3.028c-0.259-0.337-0.488-0.706-0.791-1.001c-1.197-1.164-2.193-2.473-3.032-3.919
				c-0.454-0.783-1.075-1.462-1.598-2.205c-0.306-0.435-0.567-0.903-0.848-1.356c-0.112-0.181-0.185-0.405-0.342-0.535
				c-1.212-1.01-1.88-2.459-2.932-3.597c-0.324-0.35-0.616-0.729-0.917-1.099c-0.572-0.704-1.126-1.423-1.714-2.115
				c-0.865-1.018-1.193-2.459-2.07-3.467c-1.191-1.369-2.405-2.718-3.563-4.114c-1.399-1.686-2.746-3.414-4.122-5.12
				c-0.335-0.415-0.666-0.838-1.046-1.212c-1.755-1.734-3.316-3.635-4.861-5.548c-1.242-1.537-2.526-3.039-3.736-4.604
				c-0.585-0.757-1.173-1.503-1.72-2.292c-0.882-1.272-1.89-2.455-2.846-3.674c-1.121-1.428-2.227-2.867-3.371-4.276
				c-0.906-1.117-1.818-2.232-2.894-3.201c-0.3-0.27-0.655-0.379-1.073-0.318c-0.077,0.011-0.694,0.545-0.684,0.604
				c0.047,0.265,0.09,0.547,0.219,0.771c0.937,1.623,2.296,2.909,3.341,4.458c0.925,1.37,2.01,2.631,3.072,3.902
				c0.655,0.784,1.228,1.614,1.723,2.508c0.257,0.464,0.574,0.896,0.897,1.318c0.455,0.593,0.972,1.14,1.405,1.748
				c0.527,0.742,1.036,1.489,1.712,2.114c0.309,0.285,0.491,0.696,0.754,1.032c0.526,0.671,1.061,1.335,1.606,1.991
				c0.341,0.41,0.704,0.803,1.064,1.197c0.793,0.869,1.591,1.732,2.383,2.601c0.251,0.275,0.527,0.535,0.729,0.845
				c0.675,1.034,1.464,1.964,2.312,2.865c1.025,1.088,1.928,2.289,2.865,3.457c1.271,1.585,2.582,3.134,4.028,4.568
				c0.455,0.451,0.314,1.389,0.685,1.91c1.617,2.27,3.491,4.321,5.395,6.351c0.913,0.973,1.702,2.053,2.38,3.21
				c0.135,0.23,0.266,0.486,0.472,0.643c0.878,0.667,1.381,1.613,1.986,2.495c0.511,0.745,1.196,1.366,1.782,2.06
				c0.481,0.57,0.981,1.133,1.386,1.757c1.662,2.563,3.562,4.943,5.495,7.299c0.203,0.248,0.468,0.459,0.613,0.739
				c0.727,1.399,1.862,2.473,2.845,3.669c1.186,1.444,2.522,2.629,3.706,4.074c0.677,0.826,1.378,1.636,2.121,2.404
				c1.532,1.585,2.79,3.372,3.962,5.231c0.455,0.721,0.962,1.427,1.557,2.033c1.098,1.118,1.875,2.462,2.767,3.728
				c1.076,1.529,2.727,2.605,3.88,4.075c1.121,1.428,1.943,3.093,3.117,4.479c0.69,0.815,1.427,1.593,2.081,2.435
				c0.622,0.8,1.219,1.629,1.729,2.505c0.985,1.691,2.165,3.185,3.698,4.389c0.393,0.308,0.69,0.555,1.213,0.167
				c0.374-0.277,0.547-0.79,0.349-1.219c-0.179-0.387-0.388-0.771-0.655-1.099c-0.643-0.79-1.043-1.753-1.577-2.621
				C173.424-134.102,172.567-135.135,171.651-136.385z"/>
		</g>
		<g>
			<path style="fill:#A7A9AC;" d="M130.651-136.385c-0.943-1.027-2.045-2.192-3.107-3.393c-0.991-1.121-1.569-2.572-2.519-3.728
				c-0.711-0.865-1.978-1.293-2.622-2.208c-0.49-0.696-0.897-1.454-1.309-2.203c-0.473-0.861-1.132-1.562-1.897-2.157
				c-0.524-0.407-0.945-0.883-1.219-1.466c-0.301-0.641-0.684-1.211-1.153-1.729c-0.072-0.079-0.152-0.155-0.203-0.248
				c-1.37-2.511-3.571-4.375-5.177-6.702c-1.392-1.262-2.29-2.957-3.742-4.171c-0.409-0.342-0.781-0.743-1.09-1.175
				c-1.092-1.526-2.419-2.85-3.646-4.26c-0.175-0.201-0.383-0.399-0.475-0.643c-0.392-1.048-1.25-1.71-1.958-2.508
				c-0.847-0.954-1.57-2.014-2.348-3.028c-0.259-0.337-0.488-0.706-0.791-1.001c-1.197-1.164-2.193-2.473-3.032-3.919
				c-0.455-0.783-1.075-1.462-1.598-2.205c-0.306-0.435-0.567-0.903-0.848-1.356c-0.112-0.181-0.185-0.405-0.342-0.535
				c-1.212-1.01-1.88-2.459-2.932-3.597c-0.324-0.35-0.616-0.729-0.917-1.099c-0.572-0.704-1.126-1.423-1.714-2.115
				c-0.865-1.018-1.193-2.459-2.07-3.467c-1.191-1.369-2.405-2.718-3.563-4.114c-1.399-1.686-2.746-3.414-4.122-5.12
				c-0.335-0.415-0.666-0.838-1.045-1.212c-1.755-1.734-3.316-3.635-4.861-5.548c-1.242-1.537-2.526-3.039-3.736-4.604
				c-0.585-0.757-1.173-1.503-1.72-2.292c-0.882-1.272-1.889-2.455-2.846-3.674c-1.121-1.428-2.227-2.867-3.371-4.276
				c-0.906-1.117-1.818-2.232-2.894-3.201c-0.3-0.27-0.655-0.379-1.073-0.318c-0.077,0.011-0.694,0.545-0.684,0.604
				c0.047,0.265,0.09,0.547,0.219,0.771c0.937,1.623,2.296,2.909,3.341,4.458c0.925,1.37,2.01,2.631,3.071,3.902
				c0.655,0.784,1.228,1.614,1.723,2.508c0.257,0.464,0.574,0.896,0.897,1.318c0.455,0.593,0.972,1.14,1.405,1.748
				c0.527,0.742,1.036,1.489,1.712,2.114c0.309,0.285,0.491,0.696,0.754,1.032c0.526,0.671,1.061,1.335,1.606,1.991
				c0.341,0.41,0.704,0.803,1.064,1.197c0.793,0.869,1.591,1.732,2.383,2.601c0.251,0.275,0.527,0.535,0.729,0.845
				c0.675,1.034,1.464,1.964,2.312,2.865c1.025,1.088,1.928,2.289,2.865,3.457c1.271,1.585,2.582,3.134,4.028,4.568
				c0.455,0.451,0.314,1.389,0.685,1.91c1.617,2.27,3.491,4.321,5.395,6.351c0.913,0.973,1.702,2.053,2.38,3.21
				c0.135,0.23,0.266,0.486,0.472,0.643c0.878,0.667,1.381,1.613,1.986,2.495c0.511,0.745,1.196,1.366,1.782,2.06
				c0.481,0.57,0.981,1.133,1.386,1.757c1.662,2.563,3.562,4.943,5.494,7.299c0.203,0.248,0.468,0.459,0.613,0.739
				c0.727,1.399,1.862,2.473,2.845,3.669c1.186,1.444,2.522,2.629,3.706,4.074c0.677,0.826,1.379,1.636,2.121,2.404
				c1.532,1.585,2.79,3.372,3.962,5.231c0.455,0.721,0.962,1.427,1.557,2.033c1.098,1.118,1.875,2.462,2.767,3.728
				c1.076,1.529,2.727,2.605,3.88,4.075c1.121,1.428,1.943,3.093,3.117,4.479c0.69,0.815,1.427,1.593,2.081,2.435
				c0.622,0.8,1.219,1.629,1.729,2.505c0.985,1.691,2.165,3.185,3.698,4.389c0.393,0.308,0.69,0.555,1.213,0.167
				c0.374-0.277,0.547-0.79,0.349-1.219c-0.179-0.387-0.388-0.771-0.655-1.099c-0.643-0.79-1.043-1.753-1.577-2.621
				C132.424-134.102,131.567-135.135,130.651-136.385z"/>
		</g>
		<g>
			<path style="fill:#A7A9AC;" d="M89.651-136.385c-0.943-1.027-2.045-2.192-3.107-3.393c-0.991-1.121-1.569-2.572-2.519-3.728
				c-0.711-0.865-1.978-1.293-2.623-2.208c-0.49-0.696-0.897-1.454-1.309-2.203c-0.473-0.861-1.132-1.562-1.897-2.157
				c-0.524-0.407-0.945-0.883-1.219-1.466c-0.301-0.641-0.684-1.211-1.154-1.729c-0.072-0.079-0.152-0.155-0.203-0.248
				c-1.369-2.511-3.571-4.375-5.177-6.702c-1.392-1.262-2.29-2.957-3.742-4.171c-0.409-0.342-0.781-0.743-1.09-1.175
				c-1.092-1.526-2.419-2.85-3.646-4.26c-0.175-0.201-0.383-0.399-0.475-0.643c-0.392-1.048-1.25-1.71-1.958-2.508
				c-0.847-0.954-1.57-2.014-2.348-3.028c-0.259-0.337-0.488-0.706-0.791-1.001c-1.197-1.164-2.193-2.473-3.032-3.919
				c-0.454-0.783-1.075-1.462-1.598-2.205c-0.306-0.435-0.567-0.903-0.848-1.356c-0.112-0.181-0.185-0.405-0.342-0.535
				c-1.212-1.01-1.88-2.459-2.932-3.597c-0.324-0.35-0.616-0.729-0.917-1.099c-0.572-0.704-1.126-1.423-1.714-2.115
				c-0.865-1.018-1.193-2.459-2.07-3.467c-1.191-1.369-2.405-2.718-3.563-4.114c-1.399-1.686-2.746-3.414-4.122-5.12
				c-0.335-0.415-0.666-0.838-1.046-1.212c-1.755-1.734-3.316-3.635-4.861-5.548c-1.242-1.537-2.526-3.039-3.736-4.604
				c-0.585-0.757-1.173-1.503-1.72-2.292c-0.882-1.272-1.889-2.455-2.846-3.674c-1.121-1.428-2.227-2.867-3.371-4.276
				c-0.906-1.117-1.818-2.232-2.894-3.201c-0.3-0.27-0.655-0.379-1.073-0.318c-0.077,0.011-0.694,0.545-0.684,0.604
				c0.046,0.265,0.09,0.547,0.219,0.771c0.937,1.623,2.296,2.909,3.341,4.458c0.925,1.37,2.01,2.631,3.072,3.902
				c0.655,0.784,1.228,1.614,1.723,2.508c0.257,0.464,0.574,0.896,0.897,1.318c0.455,0.593,0.972,1.14,1.405,1.748
				c0.528,0.742,1.036,1.489,1.712,2.114c0.309,0.285,0.491,0.696,0.754,1.032c0.526,0.671,1.061,1.335,1.606,1.991
				c0.341,0.41,0.704,0.803,1.064,1.197c0.793,0.869,1.591,1.732,2.383,2.601c0.251,0.275,0.527,0.535,0.729,0.845
				c0.675,1.034,1.464,1.964,2.312,2.865c1.025,1.088,1.928,2.289,2.865,3.457c1.271,1.585,2.582,3.134,4.028,4.568
				c0.455,0.451,0.314,1.389,0.685,1.91c1.617,2.27,3.491,4.321,5.395,6.351c0.913,0.973,1.702,2.053,2.38,3.21
				c0.135,0.23,0.266,0.486,0.472,0.643c0.878,0.667,1.381,1.613,1.986,2.495c0.511,0.745,1.196,1.366,1.782,2.06
				c0.481,0.57,0.981,1.133,1.386,1.757c1.662,2.563,3.562,4.943,5.494,7.299c0.203,0.248,0.468,0.459,0.613,0.739
				c0.727,1.399,1.862,2.473,2.845,3.669c1.186,1.444,2.522,2.629,3.706,4.074c0.677,0.826,1.378,1.636,2.121,2.404
				c1.532,1.585,2.79,3.372,3.962,5.231c0.455,0.721,0.962,1.427,1.557,2.033c1.098,1.118,1.875,2.462,2.767,3.728
				c1.076,1.529,2.727,2.605,3.88,4.075c1.121,1.428,1.943,3.093,3.117,4.479c0.69,0.815,1.427,1.593,2.081,2.435
				c0.622,0.8,1.219,1.629,1.729,2.505c0.985,1.691,2.165,3.185,3.698,4.389c0.393,0.308,0.69,0.555,1.213,0.167
				c0.374-0.277,0.547-0.79,0.349-1.219c-0.179-0.387-0.388-0.771-0.655-1.099c-0.644-0.79-1.043-1.753-1.577-2.621
				C91.424-134.102,90.567-135.135,89.651-136.385z"/>
		</g>
	</g>
</pattern>
<g>
	<path style="fill:url(#Hand_Drawn_Lines_Gray_RL);" d="M110.42,24.748c-0.267-0.39-0.603-0.731-1-1c-0.267-0.39-0.603-0.731-1-1
		c-0.267-0.39-0.603-0.731-1-1c-0.267-0.39-0.603-0.731-1-1c-0.267-0.39-0.603-0.731-1-1c-0.267-0.39-0.603-0.731-1-1
		c-0.267-0.39-0.603-0.731-1-1c-0.267-0.39-0.603-0.731-1-1c-0.267-0.39-0.603-0.731-1-1c-0.267-0.39-0.603-0.731-1-1
		c-0.267-0.39-0.603-0.731-1-1c-0.267-0.39-0.603-0.731-1-1c-0.267-0.39-0.603-0.731-1-1c-0.669-0.975-1.781-1.648-3.122-1.648H12.9
		c-2.2,0-3.8,1.8-3.8,3.8v132.398c0,1.268,0.646,2.452,1.678,3.151c0.267,0.39,0.603,0.731,1,1c0.267,0.39,0.603,0.731,1,1
		c0.267,0.39,0.603,0.731,1,1c0.267,0.39,0.603,0.731,1,1c0.267,0.39,0.603,0.731,1,1c0.267,0.39,0.603,0.731,1,1
		c0.267,0.39,0.603,0.731,1,1c0.267,0.39,0.603,0.731,1,1c0.267,0.39,0.603,0.731,1,1c0.267,0.39,0.603,0.731,1,1
		c0.267,0.39,0.603,0.731,1,1c0.267,0.39,0.603,0.731,1,1c0.267,0.39,0.603,0.731,1,1c0.669,0.975,1.781,1.648,3.122,1.648h81.399
		c2.2,0,3.8-1.8,3.8-3.8v-16.4c0-1.268-0.646-2.452-1.678-3.151c-0.267-0.39-0.603-0.731-1-1c-0.267-0.39-0.603-0.731-1-1
		c-0.267-0.39-0.603-0.731-1-1c-0.267-0.39-0.603-0.731-1-1c-0.267-0.39-0.603-0.731-1-1c-0.267-0.39-0.603-0.731-1-1
		c-0.267-0.39-0.603-0.731-1-1c-0.267-0.39-0.603-0.731-1-1c-0.267-0.39-0.603-0.731-1-1c-0.267-0.39-0.603-0.731-1-1
		c-0.267-0.39-0.603-0.731-1-1c-0.267-0.39-0.603-0.731-1-1c-0.267-0.39-0.603-0.731-1-1c-0.669-0.975-1.781-1.648-3.122-1.648H49.1
		v-21h49.399c2,0,3.8-1.6,3.8-3.8v-16.6c0-1.24-0.693-2.4-1.695-3.105c-0.272-0.387-0.613-0.728-1-1c-0.272-0.387-0.613-0.728-1-1
		c-0.272-0.387-0.613-0.728-1-1c-0.272-0.387-0.613-0.728-1-1c-0.272-0.387-0.613-0.728-1-1c-0.272-0.387-0.613-0.728-1-1
		c-0.272-0.387-0.613-0.728-1-1c-0.272-0.387-0.613-0.728-1-1c-0.272-0.387-0.613-0.728-1-1c-0.272-0.387-0.613-0.728-1-1
		c-0.272-0.387-0.613-0.728-1-1c-0.272-0.387-0.613-0.728-1-1c-0.272-0.387-0.613-0.728-1-1c-0.705-1.002-1.865-1.695-3.105-1.695
		H49.1V48.1h59.199c2.2,0,3.8-1.8,3.8-3.8V27.9C112.099,26.632,111.452,25.448,110.42,24.748z"/>
	<path style="fill:url(#Hand_Drawn_Lines_Gray_RL);" d="M253.978,24.735c-0.251-0.394-0.59-0.733-1-1c-0.251-0.394-0.59-0.733-1-1
		c-0.251-0.394-0.59-0.733-1-1c-0.251-0.394-0.59-0.733-1-1c-0.251-0.394-0.59-0.733-1-1c-0.251-0.394-0.59-0.733-1-1
		c-0.251-0.394-0.59-0.733-1-1c-0.251-0.394-0.59-0.733-1-1c-0.251-0.394-0.59-0.733-1-1c-0.251-0.394-0.59-0.733-1-1
		c-0.251-0.394-0.59-0.733-1-1c-0.251-0.394-0.59-0.733-1-1c-0.251-0.394-0.59-0.733-1-1c-0.624-0.98-1.775-1.635-3.28-1.635h-20.4
		c-1.8,0-3,1.2-3.4,2.2l-35.225,78.889L149.7,26.3c-0.214-0.535-0.664-1.123-1.306-1.558c-0.242-0.362-0.577-0.713-1-1
		c-0.242-0.362-0.577-0.713-1-1c-0.242-0.362-0.577-0.713-1-1c-0.242-0.362-0.577-0.713-1-1c-0.242-0.362-0.577-0.713-1-1
		c-0.242-0.362-0.577-0.713-1-1c-0.242-0.362-0.577-0.713-1-1c-0.242-0.362-0.577-0.713-1-1c-0.242-0.362-0.577-0.713-1-1
		c-0.242-0.362-0.577-0.713-1-1c-0.242-0.362-0.577-0.713-1-1c-0.242-0.362-0.577-0.713-1-1c-0.242-0.362-0.577-0.713-1-1
		c-0.56-0.839-1.622-1.642-3.094-1.642h-20.4c-3,0-4.6,2.6-3.4,5.2l61.799,134.598c0.321,0.643,0.763,1.222,1.376,1.627
		c0.268,0.389,0.596,0.733,1,1c0.268,0.389,0.596,0.733,1,1c0.268,0.389,0.596,0.733,1,1c0.268,0.389,0.596,0.733,1,1
		c0.268,0.389,0.596,0.733,1,1c0.268,0.389,0.596,0.733,1,1c0.268,0.389,0.596,0.733,1,1c0.268,0.389,0.596,0.733,1,1
		c0.268,0.389,0.596,0.733,1,1c0.268,0.389,0.596,0.733,1,1c0.268,0.389,0.596,0.733,1,1c0.268,0.389,0.596,0.733,1,1
		c0.268,0.389,0.596,0.733,1,1c0.621,0.9,1.552,1.573,3.025,1.573h2c1.8,0,2.8-1,3.4-2.2L255.098,29.3
		C255.938,27.48,255.402,25.663,253.978,24.735z"/>
	<path style="fill:url(#Hand_Drawn_Lines_Gray_RL);" d="M316.1,24.3c-0.34-0.679-0.752-1.287-1.401-1.693
		c-0.263-0.395-0.583-0.739-1-1c-0.263-0.395-0.583-0.739-1-1c-0.263-0.395-0.583-0.739-1-1c-0.263-0.395-0.583-0.739-1-1
		c-0.263-0.395-0.583-0.739-1-1c-0.263-0.395-0.583-0.739-1-1c-0.263-0.395-0.583-0.739-1-1c-0.263-0.395-0.583-0.739-1-1
		c-0.263-0.395-0.583-0.739-1-1c-0.263-0.395-0.583-0.739-1-1c-0.263-0.395-0.583-0.739-1-1c-0.263-0.395-0.583-0.739-1-1
		c-0.263-0.395-0.583-0.739-1-1C301.123,8.741,300.296,8.1,298.7,8.1h-2c-1.8,0-2.8,1-3.4,2.2l-62.199,134.598
		c-0.84,1.82-0.305,3.636,1.119,4.565c0.251,0.394,0.59,0.733,1,1c0.251,0.394,0.59,0.733,1,1c0.251,0.394,0.59,0.733,1,1
		c0.251,0.394,0.59,0.733,1,1c0.251,0.394,0.59,0.733,1,1c0.251,0.394,0.59,0.733,1,1c0.251,0.394,0.59,0.733,1,1
		c0.251,0.394,0.59,0.733,1,1c0.251,0.394,0.59,0.733,1,1c0.251,0.394,0.59,0.733,1,1c0.251,0.394,0.59,0.733,1,1
		c0.251,0.394,0.59,0.733,1,1c0.251,0.394,0.59,0.733,1,1c0.624,0.98,1.776,1.635,3.281,1.635h17.4c3.2,0,5-2,5.8-4l9.8-21.6h52.151
		l3.448,7.6c0.681,1.362,1.366,2.339,2.231,2.99c0.311,0.391,0.639,0.728,1,1c0.311,0.391,0.639,0.728,1,1
		c0.311,0.391,0.639,0.728,1,1c0.311,0.391,0.639,0.728,1,1c0.311,0.391,0.639,0.728,1,1c0.311,0.391,0.639,0.728,1,1
		c0.311,0.391,0.639,0.728,1,1c0.311,0.391,0.639,0.728,1,1c0.311,0.391,0.639,0.728,1,1c0.311,0.391,0.639,0.728,1,1
		c0.311,0.391,0.639,0.728,1,1c0.311,0.391,0.639,0.728,1,1c0.311,0.391,0.639,0.728,1,1c1.095,1.38,2.419,2.01,4.569,2.01h17.4
		c3,0,4.6-2.6,3.4-5.2L316.1,24.3z M297.537,102.299l9.881-22.182l10.083,22.182H297.537z"/>
	<path style="fill:url(#Hand_Drawn_Lines_Gray_RL);" d="M512.402,24.795c-0.272-0.387-0.613-0.728-1-1c-0.272-0.387-0.613-0.728-1-1
		c-0.272-0.387-0.613-0.728-1-1c-0.272-0.387-0.613-0.728-1-1c-0.272-0.387-0.613-0.728-1-1c-0.272-0.387-0.613-0.728-1-1
		c-0.272-0.387-0.613-0.728-1-1c-0.272-0.387-0.613-0.728-1-1c-0.272-0.387-0.613-0.728-1-1c-0.272-0.387-0.613-0.728-1-1
		c-0.272-0.387-0.613-0.728-1-1c-0.272-0.387-0.613-0.728-1-1c-0.272-0.387-0.613-0.728-1-1c-0.705-1.002-1.865-1.695-3.105-1.695
		h-18.4c-2.2,0-3.8,1.8-3.8,3.8v81.936L404.699,22.1h-0.059l-0.941-1h-0.059l-0.941-1h-0.059l-0.941-1h-0.059l-0.941-1h-0.059
		l-0.941-1h-0.059l-0.941-1h-0.059l-0.941-1h-0.059l-0.941-1h-0.059l-0.941-1h-0.059l-0.941-1h-0.059l-0.941-1h-0.059l-0.941-1
		h-0.059l-0.941-1h-0.059l-0.941-1h-5c-2,0-3.8,1.6-3.8,3.6v134.598c0,1.24,0.693,2.4,1.695,3.105c0.272,0.387,0.613,0.728,1,1
		c0.272,0.387,0.613,0.728,1,1c0.272,0.387,0.613,0.728,1,1c0.272,0.387,0.613,0.728,1,1c0.272,0.387,0.613,0.728,1,1
		c0.272,0.387,0.613,0.728,1,1c0.272,0.387,0.613,0.728,1,1c0.272,0.387,0.613,0.728,1,1c0.272,0.387,0.613,0.728,1,1
		c0.272,0.387,0.613,0.728,1,1c0.272,0.387,0.613,0.728,1,1c0.272,0.387,0.613,0.728,1,1c0.272,0.387,0.613,0.728,1,1
		c0.705,1.002,1.865,1.695,3.105,1.695h18.2c2.2,0,3.8-1.8,3.8-3.8V75.453l69.798,76.645h0.089l0.911,1h0.089l0.911,1h0.089l0.911,1
		h0.089l0.911,1h0.089l0.911,1h0.089l0.911,1h0.089l0.911,1h0.089l0.911,1h0.089l0.911,1h0.089l0.911,1h0.089l0.911,1h0.089l0.911,1
		h0.089l0.911,1h0.089l0.911,1h4.8c2,0,3.8-1.6,3.8-3.6V27.9C514.098,26.661,513.404,25.5,512.402,24.795z"/>
	<path style="fill:url(#Hand_Drawn_Lines_Gray_RL);" d="M565.251,137.547c-0.32-0.347-0.653-0.68-1-1c-0.32-0.347-0.653-0.68-1-1
		c-0.32-0.347-0.653-0.68-1-1c-0.32-0.347-0.653-0.68-1-1c-0.32-0.347-0.653-0.68-1-1c-0.32-0.347-0.653-0.68-1-1
		c-0.32-0.347-0.653-0.68-1-1c-0.32-0.347-0.653-0.68-1-1c-0.32-0.347-0.653-0.68-1-1c-0.32-0.347-0.653-0.68-1-1
		c-0.32-0.347-0.653-0.68-1-1c-0.32-0.347-0.653-0.68-1-1c-0.32-0.347-0.653-0.68-1-1c-3.058-3.32-7.404-5.448-12.152-5.448
		c-9,0-16.399,7.6-16.399,16.6c0,4.752,2.076,9.045,5.349,12.051c0.319,0.348,0.652,0.681,1,1c0.319,0.348,0.652,0.681,1,1
		c0.319,0.348,0.652,0.681,1,1c0.319,0.348,0.652,0.681,1,1c0.319,0.348,0.652,0.681,1,1c0.319,0.348,0.652,0.681,1,1
		c0.319,0.348,0.652,0.681,1,1c0.319,0.348,0.652,0.681,1,1c0.319,0.348,0.652,0.681,1,1c0.319,0.348,0.652,0.681,1,1
		c0.319,0.348,0.652,0.681,1,1c0.319,0.348,0.652,0.681,1,1c0.319,0.348,0.652,0.681,1,1c3.006,3.273,7.299,5.349,12.051,5.349
		c9,0,16.6-7.4,16.6-16.4C570.699,144.95,568.571,140.605,565.251,137.547z"/>
	<path style="fill:url(#Hand_Drawn_Lines_Gray_RL);" d="M669.896,44.3V27.9c0-1.268-0.646-2.452-1.678-3.152
		c-0.267-0.39-0.603-0.731-1-1c-0.267-0.39-0.603-0.731-1-1c-0.267-0.39-0.603-0.731-1-1c-0.267-0.39-0.603-0.731-1-1
		c-0.267-0.39-0.603-0.731-1-1c-0.267-0.39-0.603-0.731-1-1c-0.267-0.39-0.603-0.731-1-1c-0.267-0.39-0.603-0.731-1-1
		c-0.267-0.39-0.603-0.731-1-1c-0.267-0.39-0.603-0.731-1-1c-0.267-0.39-0.603-0.731-1-1c-0.267-0.39-0.603-0.731-1-1
		c-0.267-0.39-0.603-0.731-1-1c-0.669-0.975-1.781-1.648-3.122-1.648h-87.399c-2.2,0-3.8,1.8-3.8,3.8V30.3
		c0,1.268,0.646,2.452,1.678,3.152c0.267,0.39,0.603,0.731,1,1c0.267,0.39,0.603,0.731,1,1c0.267,0.39,0.603,0.731,1,1
		c0.267,0.39,0.603,0.731,1,1c0.267,0.39,0.603,0.731,1,1c0.267,0.39,0.603,0.731,1,1c0.267,0.39,0.603,0.731,1,1
		c0.267,0.39,0.603,0.731,1,1c0.267,0.39,0.603,0.731,1,1c0.267,0.39,0.603,0.731,1,1c0.267,0.39,0.603,0.731,1,1
		c0.267,0.39,0.603,0.731,1,1c0.267,0.39,0.603,0.731,1,1c0.669,0.975,1.781,1.648,3.122,1.648h16.599v98.198
		c0,1.239,0.693,2.399,1.694,3.104c0.272,0.387,0.613,0.727,1,1c0.272,0.387,0.613,0.727,1,1c0.272,0.387,0.613,0.727,1,1
		c0.272,0.387,0.613,0.727,1,1c0.272,0.387,0.613,0.727,1,1c0.272,0.387,0.613,0.727,1,1c0.272,0.387,0.613,0.727,1,1
		c0.272,0.387,0.613,0.727,1,1c0.272,0.387,0.613,0.727,1,1c0.272,0.387,0.613,0.727,1,1c0.272,0.387,0.613,0.727,1,1
		c0.272,0.387,0.613,0.727,1,1c0.272,0.387,0.613,0.727,1,1c0.705,1.002,1.867,1.696,3.106,1.696h18.6c2,0,3.8-1.8,3.8-3.8V48.1
		h30.6C668.297,48.1,669.896,46.3,669.896,44.3z"/>
	<path style="fill:url(#Hand_Drawn_Lines_Gray_RL);" d="M801.545,42.672c-0.33-0.337-0.664-0.669-1-1c-0.33-0.337-0.664-0.669-1-1
		c-0.33-0.337-0.664-0.669-1-1c-0.33-0.337-0.664-0.669-1-1c-0.33-0.337-0.664-0.669-1-1c-0.33-0.337-0.664-0.669-1-1
		c-0.33-0.337-0.664-0.669-1-1c-0.33-0.337-0.664-0.669-1-1c-0.33-0.337-0.664-0.669-1-1c-0.33-0.337-0.664-0.669-1-1
		c-0.33-0.337-0.664-0.669-1-1c-0.33-0.337-0.664-0.669-1-1c-0.33-0.337-0.664-0.669-1-1C775.511,16.35,757.333,8.1,737.098,8.1
		c-40,0-71.799,32.2-71.799,72.199c0,20.257,8.165,38.402,21.411,51.387c0.33,0.337,0.663,0.67,1,1c0.33,0.337,0.663,0.67,1,1
		c0.33,0.337,0.663,0.67,1,1c0.33,0.337,0.663,0.67,1,1c0.33,0.337,0.663,0.67,1,1c0.33,0.337,0.663,0.67,1,1
		c0.33,0.337,0.663,0.67,1,1c0.33,0.337,0.663,0.67,1,1c0.33,0.337,0.663,0.67,1,1c0.33,0.337,0.663,0.67,1,1
		c0.33,0.337,0.663,0.67,1,1c0.33,0.337,0.663,0.67,1,1c0.33,0.337,0.663,0.67,1,1c12.986,13.246,31.13,21.412,51.387,21.412
		c39.999,0,71.999-31.799,71.999-71.799C823.097,74.023,814.864,55.761,801.545,42.672z M751.098,48.1
		c9.017,0,17.463,2.7,24.602,7.307c4.666,7.22,7.397,15.778,7.397,24.892c0,25.2-20.8,45.799-45.999,45.799
		c-9.034,0-17.469-2.658-24.584-7.216c-4.558-7.114-7.216-15.549-7.216-24.583C705.298,69.1,725.897,48.1,751.098,48.1z"/>
	<path style="fill:url(#Hand_Drawn_Lines_Gray_RL);" d="M1002.798,24.718c-0.248-0.404-0.584-0.74-1-1c-0.248-0.404-0.584-0.74-1-1
		c-0.248-0.404-0.584-0.74-1-1c-0.248-0.404-0.584-0.74-1-1c-0.248-0.404-0.584-0.74-1-1c-0.248-0.404-0.584-0.74-1-1
		c-0.248-0.404-0.584-0.74-1-1c-0.248-0.404-0.584-0.74-1-1c-0.248-0.404-0.584-0.74-1-1c-0.248-0.404-0.584-0.74-1-1
		c-0.248-0.404-0.584-0.74-1-1c-0.248-0.404-0.584-0.74-1-1c-0.248-0.404-0.584-0.74-1-1c-0.616-1.003-1.769-1.618-3.303-1.618
		h-18.399c-1.601,0-3.2,1.4-3.601,2.8l-17.318,67.744L925.296,24.3c-0.224-0.674-0.647-1.277-1.321-1.683
		c-0.237-0.394-0.565-0.738-1-1c-0.237-0.394-0.565-0.738-1-1c-0.237-0.394-0.565-0.738-1-1c-0.237-0.394-0.565-0.738-1-1
		c-0.237-0.394-0.565-0.738-1-1c-0.237-0.394-0.565-0.738-1-1c-0.237-0.394-0.565-0.738-1-1c-0.237-0.394-0.565-0.738-1-1
		c-0.237-0.394-0.565-0.738-1-1c-0.237-0.394-0.565-0.738-1-1c-0.237-0.394-0.565-0.738-1-1c-0.237-0.394-0.565-0.738-1-1
		c-0.237-0.394-0.565-0.738-1-1c-0.524-0.872-1.477-1.517-3.078-1.517h-3.601c-2,0-3,1-3.399,2.2l-26.099,67.627l-13.3-51.027
		c-0.216-0.757-0.789-1.506-1.517-2.042c-0.267-0.376-0.613-0.716-1-1c-0.267-0.376-0.613-0.716-1-1c-0.267-0.376-0.613-0.716-1-1
		c-0.267-0.376-0.613-0.716-1-1c-0.267-0.376-0.613-0.716-1-1c-0.267-0.376-0.613-0.716-1-1c-0.267-0.376-0.613-0.716-1-1
		c-0.267-0.376-0.613-0.716-1-1c-0.267-0.376-0.613-0.716-1-1c-0.267-0.376-0.613-0.716-1-1c-0.267-0.376-0.613-0.716-1-1
		c-0.267-0.376-0.613-0.716-1-1c-0.267-0.376-0.613-0.716-1-1c-0.695-0.978-1.888-1.758-3.082-1.758h-18.4c-2.8,0-4.399,2-3.6,4.8
		l37.8,134.398c0.214,0.857,0.778,1.591,1.497,2.096c0.266,0.392,0.611,0.727,1,1c0.266,0.392,0.611,0.727,1,1
		c0.266,0.392,0.611,0.727,1,1c0.266,0.392,0.611,0.727,1,1c0.266,0.392,0.611,0.727,1,1c0.266,0.392,0.611,0.727,1,1
		c0.266,0.392,0.611,0.727,1,1c0.266,0.392,0.611,0.727,1,1c0.266,0.392,0.611,0.727,1,1c0.266,0.392,0.611,0.727,1,1
		c0.266,0.392,0.611,0.727,1,1c0.266,0.392,0.611,0.727,1,1c0.266,0.392,0.611,0.727,1,1c0.692,1.021,1.897,1.704,3.103,1.704h3.2
		c2,0,2.8-1,3.399-2.2l31.686-81.096l26.513,67.096c0.214,0.642,0.664,1.221,1.305,1.626c0.242,0.389,0.576,0.733,1,1
		c0.242,0.389,0.576,0.733,1,1c0.242,0.389,0.576,0.733,1,1c0.242,0.389,0.576,0.733,1,1c0.242,0.389,0.576,0.733,1,1
		c0.242,0.389,0.576,0.733,1,1c0.242,0.389,0.576,0.733,1,1c0.242,0.389,0.576,0.733,1,1c0.242,0.389,0.576,0.733,1,1
		c0.242,0.389,0.576,0.733,1,1c0.242,0.389,0.576,0.733,1,1c0.242,0.389,0.576,0.733,1,1c0.242,0.389,0.576,0.733,1,1
		c0.56,0.901,1.622,1.574,3.095,1.574h3.199c1.601,0,3.2-1.2,3.601-2.8L1004.095,28.9
		C1004.633,27.016,1004.067,25.512,1002.798,24.718z"/>
	<path style="fill:url(#Hand_Drawn_Lines_Gray_RL);" d="M1143.998,24.795c-0.272-0.387-0.613-0.728-1-1
		c-0.272-0.387-0.613-0.728-1-1c-0.272-0.387-0.613-0.728-1-1c-0.272-0.387-0.613-0.728-1-1c-0.272-0.387-0.613-0.728-1-1
		c-0.272-0.387-0.613-0.728-1-1c-0.272-0.387-0.613-0.728-1-1c-0.272-0.387-0.613-0.728-1-1c-0.272-0.387-0.613-0.728-1-1
		c-0.272-0.387-0.613-0.728-1-1c-0.272-0.387-0.613-0.728-1-1c-0.272-0.387-0.613-0.728-1-1c-0.272-0.387-0.613-0.728-1-1
		c-0.705-1.002-1.865-1.695-3.105-1.695h-18.399c-2.2,0-3.8,1.8-3.8,3.8v81.936L1036.296,22.1h-0.059l-0.941-1h-0.059l-0.941-1
		h-0.059l-0.941-1h-0.059l-0.941-1h-0.059l-0.941-1h-0.059l-0.941-1h-0.059l-0.941-1h-0.059l-0.941-1h-0.059l-0.941-1h-0.059
		l-0.941-1h-0.059l-0.941-1h-0.059l-0.941-1h-0.059l-0.941-1h-0.059l-0.941-1h-5c-2,0-3.8,1.6-3.8,3.6v134.598
		c0,1.24,0.693,2.4,1.695,3.105c0.272,0.387,0.613,0.728,1,1c0.272,0.387,0.613,0.728,1,1c0.272,0.387,0.613,0.728,1,1
		c0.272,0.387,0.613,0.728,1,1c0.272,0.387,0.613,0.728,1,1c0.272,0.387,0.613,0.728,1,1c0.272,0.387,0.613,0.728,1,1
		c0.272,0.387,0.613,0.728,1,1c0.272,0.387,0.613,0.728,1,1c0.272,0.387,0.613,0.728,1,1c0.272,0.387,0.613,0.728,1,1
		c0.272,0.387,0.613,0.728,1,1c0.272,0.387,0.613,0.728,1,1c0.705,1.002,1.865,1.695,3.105,1.695h18.199c2.2,0,3.8-1.8,3.8-3.8
		V75.453l69.799,76.645h0.089l0.911,1h0.089l0.911,1h0.089l0.911,1h0.089l0.911,1h0.089l0.911,1h0.089l0.911,1h0.089l0.911,1h0.089
		l0.911,1h0.089l0.911,1h0.089l0.911,1h0.089l0.911,1h0.089l0.911,1h0.089l0.911,1h0.089l0.911,1h4.8c2,0,3.8-1.6,3.8-3.6V27.9
		C1145.693,26.661,1145,25.5,1143.998,24.795z"/>
</g>
<g>
	<path style="fill:#FFFFFF;" d="M8,10.8C8,8.8,9.6,7,11.8,7h81.399c2.2,0,3.8,1.8,3.8,3.8V27.2c0,2-1.6,3.8-3.8,3.8H34v32.799
		h49.399c2,0,3.8,1.8,3.8,3.8v16.6c0,2.2-1.8,3.8-3.8,3.8H34v35h59.199c2.2,0,3.8,1.8,3.8,3.8v16.4c0,2-1.6,3.8-3.8,3.8H11.8
		c-2.2,0-3.8-1.8-3.8-3.8V10.8z"/>
	<path style="fill:#FFFFFF;" d="M107.4,12.2c-1.2-2.6,0.4-5.2,3.4-5.2h20.4c1.8,0,3,1.2,3.4,2.2l38.399,85.999h1.4L212.798,9.2
		c0.4-1,1.6-2.2,3.4-2.2h20.4c3,0,4.6,2.6,3.4,5.2l-61.999,134.598c-0.6,1.2-1.6,2.2-3.4,2.2h-2c-1.8,0-2.8-1-3.4-2.2L107.4,12.2z"
		/>
	<path style="fill:#FFFFFF;" d="M230.001,141.798L292.2,7.2c0.6-1.2,1.6-2.2,3.4-2.2h2c2,0,2.8,1,3.4,2.2l61.599,134.598
		c1.2,2.6-0.4,5.2-3.4,5.2h-17.4c-3,0-4.4-1.2-5.8-4l-9.8-21.6H266.4l-9.8,21.6c-0.8,2-2.6,4-5.8,4h-17.4
		C230.401,146.998,228.801,144.398,230.001,141.798z M316.4,99.199l-20-44h-0.6l-19.6,44H316.4z"/>
	<path style="fill:#FFFFFF;" d="M380.799,8.6c0-2,1.8-3.6,3.8-3.6h5l83.199,88.399h0.2V10.8c0-2,1.6-3.8,3.8-3.8h18.4
		c2,0,3.8,1.8,3.8,3.8v134.598c0,2-1.8,3.6-3.8,3.6h-4.8l-83.599-91.799h-0.2v85.999c0,2-1.6,3.8-3.8,3.8h-18.2
		c-2,0-3.8-1.8-3.8-3.8V8.6z"/>
	<path style="fill:#FFFFFF;" d="M538.999,115.999c9,0,16.6,7.6,16.6,16.6c0,9-7.6,16.4-16.6,16.4c-9,0-16.399-7.4-16.399-16.4
		C522.6,123.599,530,115.999,538.999,115.999z"/>
	<path style="fill:#FFFFFF;" d="M594.197,31h-30.599c-2.2,0-3.8-1.8-3.8-3.8V10.8c0-2,1.6-3.8,3.8-3.8h87.399c2.2,0,3.8,1.8,3.8,3.8
		V27.2c0,2-1.6,3.8-3.8,3.8h-30.6v112.198c0,2-1.8,3.8-3.8,3.8h-18.6c-2,0-3.801-1.8-3.801-3.8V31z"/>
	<path style="fill:#FFFFFF;" d="M735.998,5c39.999,0,71.999,32.2,71.999,72.199s-32,71.799-71.999,71.799
		c-40,0-71.799-31.799-71.799-71.799S695.998,5,735.998,5z M735.998,122.999c25.199,0,45.999-20.6,45.999-45.799
		S761.197,31,735.998,31c-25.2,0-45.8,21-45.8,46.199S710.797,122.999,735.998,122.999z"/>
	<path style="fill:#FFFFFF;" d="M820.797,11.8c-0.8-2.8,0.8-4.8,3.6-4.8h18.4c1.6,0,3.2,1.4,3.6,2.8l20.8,79.799h0.8l31.8-82.399
		c0.399-1.2,1.399-2.2,3.399-2.2h3.601c2,0,3,1,3.399,2.2l32,82.399h0.8L963.395,9.8c0.4-1.4,2-2.8,3.601-2.8h18.399
		c2.8,0,4.399,2,3.6,4.8l-37.799,134.398c-0.4,1.6-2,2.8-3.601,2.8h-3.199c-1.801,0-3-1-3.4-2.2l-35.8-90.599h-1l-35.399,90.599
		c-0.6,1.2-1.399,2.2-3.399,2.2h-3.2c-1.6,0-3.2-1.2-3.6-2.8L820.797,11.8z"/>
	<path style="fill:#FFFFFF;" d="M1012.396,8.6c0-2,1.8-3.6,3.8-3.6h5l83.198,88.399h0.2V10.8c0-2,1.6-3.8,3.8-3.8h18.399
		c2,0,3.8,1.8,3.8,3.8v134.598c0,2-1.8,3.6-3.8,3.6h-4.8l-83.599-91.799h-0.2v85.999c0,2-1.6,3.8-3.8,3.8h-18.199
		c-2,0-3.8-1.8-3.8-3.8V8.6z"/>
</g>
<g>
	<path style="fill:#5E81AC;" d="M0,5.8C0,3.8,1.6,2,3.8,2h81.399c2.2,0,3.8,1.8,3.8,3.8V22.2c0,2-1.6,3.8-3.8,3.8H26v32.799h49.399
		c2,0,3.8,1.8,3.8,3.8v16.6c0,2.2-1.8,3.8-3.8,3.8H26v35h59.199c2.2,0,3.8,1.8,3.8,3.8v16.4c0,2-1.6,3.8-3.8,3.8H3.8
		c-2.2,0-3.8-1.8-3.8-3.8V5.8z"/>
	<path style="fill:#5E81AC;" d="M99.4,7.2C98.2,4.6,99.8,2,102.8,2h20.4c1.8,0,3,1.2,3.4,2.2l38.399,85.999h1.4L204.798,4.2
		c0.4-1,1.6-2.2,3.4-2.2h20.4c3,0,4.6,2.6,3.4,5.2l-61.999,134.598c-0.6,1.2-1.6,2.2-3.4,2.2h-2c-1.8,0-2.8-1-3.4-2.2L99.4,7.2z"/>
	<path style="fill:#5E81AC;" d="M222.001,136.798L284.2,2.2c0.6-1.2,1.6-2.2,3.4-2.2h2c2,0,2.8,1,3.4,2.2l61.599,134.598
		c1.2,2.6-0.4,5.2-3.4,5.2h-17.4c-3,0-4.4-1.2-5.8-4l-9.8-21.6H258.4l-9.8,21.6c-0.8,2-2.6,4-5.8,4h-17.4
		C222.401,141.998,220.801,139.398,222.001,136.798z M308.4,94.199l-20-44h-0.6l-19.6,44H308.4z"/>
	<path style="fill:#5E81AC;" d="M372.799,3.6c0-2,1.8-3.6,3.8-3.6h5l83.199,88.399h0.2V5.8c0-2,1.6-3.8,3.8-3.8h18.4
		c2,0,3.8,1.8,3.8,3.8v134.598c0,2-1.8,3.6-3.8,3.6h-4.8l-83.599-91.799h-0.2v85.999c0,2-1.6,3.8-3.8,3.8h-18.2
		c-2,0-3.8-1.8-3.8-3.8V3.6z"/>
	<path style="fill:#5E81AC;" d="M530.999,110.999c9,0,16.6,7.6,16.6,16.6c0,9-7.6,16.4-16.6,16.4c-9,0-16.399-7.4-16.399-16.4
		C514.6,118.599,522,110.999,530.999,110.999z"/>
	<path style="fill:#5E81AC;" d="M586.197,26h-30.599c-2.2,0-3.8-1.8-3.8-3.8V5.8c0-2,1.6-3.8,3.8-3.8h87.399c2.2,0,3.8,1.8,3.8,3.8
		V22.2c0,2-1.6,3.8-3.8,3.8h-30.6v112.198c0,2-1.8,3.8-3.8,3.8h-18.6c-2,0-3.801-1.8-3.801-3.8V26z"/>
	<path style="fill:#5E81AC;" d="M727.998,0c39.999,0,71.999,32.2,71.999,72.199s-32,71.799-71.999,71.799
		c-40,0-71.799-31.799-71.799-71.799S687.998,0,727.998,0z M727.998,117.999c25.199,0,45.999-20.6,45.999-45.799
		S753.197,26,727.998,26c-25.2,0-45.8,21-45.8,46.199S702.797,117.999,727.998,117.999z"/>
	<path style="fill:#5E81AC;" d="M812.797,6.8c-0.8-2.8,0.8-4.8,3.6-4.8h18.4c1.6,0,3.2,1.4,3.6,2.8l20.8,79.799h0.8l31.8-82.399
		c0.399-1.2,1.399-2.2,3.399-2.2h3.601c2,0,3,1,3.399,2.2l32,82.399h0.8L955.395,4.8c0.4-1.4,2-2.8,3.601-2.8h18.399
		c2.8,0,4.399,2,3.6,4.8l-37.799,134.398c-0.4,1.6-2,2.8-3.601,2.8h-3.199c-1.801,0-3-1-3.4-2.2l-35.8-90.599h-1l-35.399,90.599
		c-0.6,1.2-1.399,2.2-3.399,2.2h-3.2c-1.6,0-3.2-1.2-3.6-2.8L812.797,6.8z"/>
	<path style="fill:#5E81AC;" d="M1004.396,3.6c0-2,1.8-3.6,3.8-3.6h5l83.198,88.399h0.2V5.8c0-2,1.6-3.8,3.8-3.8h18.399
		c2,0,3.8,1.8,3.8,3.8v134.598c0,2-1.8,3.6-3.8,3.6h-4.8l-83.599-91.799h-0.2v85.999c0,2-1.6,3.8-3.8,3.8h-18.199
		c-2,0-3.8-1.8-3.8-3.8V3.6z"/>
</g>
</svg>
